<svg xmlns="http://www.w3.org/2000/svg" width="60" height="60" viewBox="0 0 60 60">
    <defs>
        <style>
            .cls-2,.cls-3,.cls-4{fill:none}.cls-3{stroke:#fff;stroke-width:2px}.cls-6,.cls-7{stroke:none}.cls-7{fill:#fff}
        </style>
    </defs>
    <g id="about-value-03" transform="translate(-237 -216)">
        <path id="사각형_6781" fill="none" d="M0 0H60V60H0z" opacity="0.2" transform="translate(237 216)"/>
        <g id="패스_8131" class="cls-2">
            <path d="M1.261 0h31.658a2.248 2.248 0 0 1 2.261 2.235l-1.131 33.53A2.248 2.248 0 0 1 31.788 38H2.392a2.248 2.248 0 0 1-2.261-2.235L-1 2.235A2.248 2.248 0 0 1 1.261 0z" class="cls-6" transform="translate(250.06 232)"/>
            <path d="M1.261 2c-.138 0-.251.097-.26.22l1.128 33.477.002.034v.034c0 .13.117.235.26.235h29.397c.144 0 .261-.106.261-.235v-.034l.001-.034L33.18 2.22c-.01-.122-.123-.219-.261-.219H1.26m0-2H32.92c1.248 0 2.26 1 2.26 2.235l-1.13 33.53c0 1.234-1.012 2.235-2.261 2.235H2.392C1.143 38 .13 37 .13 35.765L-1 2.235C-1 1.001.012 0 1.261 0z" class="cls-7" transform="translate(250.06 232)"/>
        </g>
        <g id="패스_8132" class="cls-2">
            <path d="M1.412 0h7.236a2.428 2.428 0 0 1 2.412 2.444l1.206 6.111A2.428 2.428 0 0 1 9.854 11H2.618A2.428 2.428 0 0 1 .206 8.556L-1 2.444A2.428 2.428 0 0 1 1.412 0z" class="cls-6" transform="translate(252.472 223)"/>
            <path d="M1.412 2c-.189 0-.349.138-.397.325l1.153 5.843.038.192v.196c0 .245.185.444.412.444h7.236c.189 0 .348-.138.397-.325L9.098 2.832 9.06 2.64v-.196C9.06 2.2 8.875 2 8.648 2H1.412m0-2h7.236C9.98 0 11.06 1.094 11.06 2.444l1.206 6.112c0 1.35-1.08 2.444-2.412 2.444H2.618C1.286 11 .206 9.906.206 8.556L-1 2.444C-1 1.094.08 0 1.412 0z" class="cls-7" transform="translate(252.472 223)"/>
        </g>
        <g id="사각형_8353" class="cls-3" transform="translate(267 221)">
            <path d="M2 0h6v13H2a2 2 0 0 1-2-2V2a2 2 0 0 1 2-2z" class="cls-6"/>
            <rect width="6" height="11" x="1" y="1" class="cls-4" rx="1"/>
        </g>
        <g id="사각형_8354" class="cls-3" transform="translate(273 221)">
            <rect width="8" height="13" class="cls-6" rx="2"/>
            <rect width="6" height="11" x="1" y="1" class="cls-4" rx="1"/>
        </g>
        <g id="빼기_56" transform="translate(257.803 242.23)">
            <path id="패스_8148" d="M126.491 192.145h-8.146v-2.412h8.037a1.567 1.567 0 0 0 1.333-2.394l-.555-.9 1.7-1.023.748 1.271a3.618 3.618 0 0 1-3.117 5.453zm-10.558 0h-.909a3.619 3.619 0 0 1-3.113-5.455l3.192-5.427 1.8 1.078-3.1 5a1.569 1.569 0 0 0 1.333 2.394h.8v2.414zm9.731-8.119l-3.573-5.769a1.555 1.555 0 0 0-2.653 0l-1.038 1.673-1.852-1.113 1.1-1.874a3.616 3.616 0 0 1 6.235 0l3.546 6.03-1.756 1.056z" class="cls-4" transform="translate(-111.399 -175.159)"/>
            <path id="패스_8149" fill="#fff" d="M126.492 192.146h-8.146v-2.413h8.038a1.567 1.567 0 0 0 1.331-2.394l-.555-.9 1.7-1.023.748 1.271a3.619 3.619 0 0 1-3.117 5.455zm-10.558 0h-.909a3.619 3.619 0 0 1-3.117-5.455l3.192-5.426 1.8 1.078-3.1 5a1.568 1.568 0 0 0 1.331 2.394h.8v2.412zm9.732-8.119l-3.573-5.769a1.564 1.564 0 0 0-2.664 0l-1.036 1.673-1.852-1.113 1.1-1.874a3.616 3.616 0 0 1 6.235 0l3.546 6.028z" transform="translate(-111.4 -175.159)"/>
        </g>
    </g>
</svg>
