<svg xmlns="http://www.w3.org/2000/svg" width="60" height="60" viewBox="0 0 60 60">
    <defs>
        <style>
            .cls-1,.cls-5,.cls-9{fill:none}.cls-1{opacity:.2}.cls-5{stroke-width:2px;stroke:#0f0f0f;stroke-linecap:round}.cls-7{stroke:none}
        </style>
    </defs>
    <g id="ic_keyword_1" transform="translate(-237 -219)">
        <path id="사각형_6781" d="M0 0H60V60H0z" class="cls-1" transform="translate(237 219)"/>
        <path id="사각형_6675" d="M0 0H48V48H0z" class="cls-1" transform="translate(248 227)"/>
        <g id="빼기_55" fill="none">
            <path d="M26.713 38H7.2A7.208 7.208 0 0 1 0 30.8v-6.864A18.005 18.005 0 0 1 11.234 7.251L8.288 3.17a1.966 1.966 0 0 1-.159-2.081A1.967 1.967 0 0 1 9.91 0h16.18a1.966 1.966 0 0 1 1.78 1.089 1.967 1.967 0 0 1-.158 2.082l-2.947 4.08A18 18 0 0 1 36 23.936v.075a9.612 9.612 0 0 0-1.2-.075 9.367 9.367 0 0 0-9.4 9.312A9.237 9.237 0 0 0 26.712 38z" class="cls-7" transform="translate(249 229)"/>
            <path fill="#0f0f0f" d="M23.74 35.999c-.225-.895-.34-1.818-.34-2.75 0-5.93 4.623-10.81 10.48-11.276-.309-2.537-1.219-4.952-2.676-7.076-1.788-2.606-4.274-4.609-7.19-5.792l-2.362-.959 1.492-2.065L26.09 2H9.91l2.946 4.08 1.49 2.066-2.36.958c-2.916 1.184-5.403 3.187-7.19 5.793C2.966 17.563 2 20.69 2 23.937v6.862c0 2.867 2.333 5.2 5.2 5.2h16.54m2.973 2H7.2c-3.97 0-7.2-3.23-7.2-7.2v-6.863c0-3.653 1.088-7.17 3.146-10.17 2.01-2.93 4.807-5.183 8.088-6.515L8.288 3.17c-.448-.621-.508-1.4-.159-2.081.35-.683 1.015-1.09 1.78-1.09H26.09c.766 0 1.431.407 1.78 1.089.35.682.29 1.46-.158 2.082L24.765 7.25c3.281 1.332 6.079 3.585 8.088 6.515 2.059 3 3.147 6.517 3.147 10.17v.076c-.392-.05-.796-.076-1.2-.076-5.183 0-9.4 4.178-9.4 9.313 0 1.674.454 3.316 1.312 4.748V38z" transform="translate(249 229)"/>
        </g>
        <g id="타원_1039" fill="none" stroke="#fff" stroke-width="2px" transform="translate(271 249)">
            <circle cx="13" cy="13" r="13" class="cls-7"/>
            <circle cx="13" cy="13" r="12" class="cls-9"/>
        </g>
        <g id="타원_1026" fill="none" stroke="#0f0f0f" stroke-width="2px" transform="translate(273 251)">
            <circle cx="11" cy="11" r="11" class="cls-7"/>
            <circle cx="11" cy="11" r="10" class="cls-9"/>
        </g>
        <path id="패스_8122" d="M0 .653V5.84" class="cls-5" transform="translate(283.803 256.901)"/>
        <path id="패스_8123" d="M1.267 0L0 4.231" class="cls-5" transform="rotate(90 12.568 275.473)"/>
        <path id="패스_8124" fill="#0f0f0f" stroke="#0f0f0f" stroke-width="0.3px" d="M8.109-10.094a1.154 1.154 0 0 1 .7.227 1.306 1.306 0 0 1 .445.781l.941 4h1.764l.958-4.284a.82.82 0 0 1 .445-.613 1.083 1.083 0 0 1 .714-.076.948.948 0 0 1 .613.386.915.915 0 0 1 .092.773l-.958 3.814h1.344a.412.412 0 0 1 .37.176.755.755 0 0 1 .118.428.725.725 0 0 1-.118.412.412.412 0 0 1-.37.176h-1.63L12.31 1.045a1.267 1.267 0 0 1-.462.781 1.134 1.134 0 0 1-1.361 0 1.294 1.294 0 0 1-.462-.815L8.882-3.894H7.269L6.026 1.045a1.249 1.249 0 0 1-.47.781 1.218 1.218 0 0 1-.689.227 1.179 1.179 0 0 1-.68-.227 1.28 1.28 0 0 1-.462-.8L2.5-3.894H.851a.412.412 0 0 1-.37-.176.725.725 0 0 1-.118-.412.755.755 0 0 1 .118-.428.412.412 0 0 1 .37-.176h1.361L1.271-8.9a.915.915 0 0 1 .092-.773.958.958 0 0 1 .63-.386 1.17 1.17 0 0 1 .723.059.837.837 0 0 1 .454.63l.958 4.284h1.831l1.008-4a1.354 1.354 0 0 1 .433-.781 1.134 1.134 0 0 1 .709-.227zM4.984-1.24l.672-2.655H4.4zm6.116-.017l.588-2.638h-1.21zm-3.528-3.83H8.6L8.109-7.2z" transform="translate(258.957 256.215)"/>
    </g>
</svg>
