<svg xmlns="http://www.w3.org/2000/svg" id="_arrow-01" width="24" height="24" viewBox="0 0 24 24">
    <defs>
        <style>
            .cls-2{fill:#0f0f0f}
        </style>
    </defs>
    <circle id="타원_724" cx="12" cy="12" r="12" fill="#e9e9e9"/>
    <path id="패스_3965" d="M5.75 11.25h11.5A.75.75 0 0 1 18 12a.75.75 0 0 1-.75.75H5.75A.75.75 0 0 1 5 12a.75.75 0 0 1 .75-.75z" class="cls-2"/>
    <path id="패스_3964" d="M14 17.25a.751.751 0 0 1-.561-1.25L17 12l-3.561-4a.75.75 0 0 1 1.122-1l4 4.5a.752.752 0 0 1 0 1l-4 4.5a.75.75 0 0 1-.561.25z" class="cls-2"/>
</svg>
