<svg xmlns="http://www.w3.org/2000/svg" width="18" height="18" viewBox="0 0 18 18">
    <g>
        <g>
            <g>
                <path fill="#333" stroke="#313131" stroke-width="0.3px" d="M75.348 3.271L72.17.093A.318.318 0 0 0 71.945 0h-6.674A1.273 1.273 0 0 0 64 1.271v12.713a1.273 1.273 0 0 0 1.271 1.271h8.9a1.273 1.273 0 0 0 1.271-1.271V3.5a.318.318 0 0 0-.094-.229zm-3.085-2.186l2.093 2.093H72.9a.636.636 0 0 1-.636-.636zm2.543 12.9a.636.636 0 0 1-.636.636h-8.9a.636.636 0 0 1-.636-.636V1.271a.636.636 0 0 1 .636-.636h6.356v1.908A1.273 1.273 0 0 0 72.9 3.814h1.907z" transform="translate(.053) translate(3.125 1.271) translate(-64)"/>
            </g>
        </g>
        <path fill="none" d="M0 0H18V18H0z" transform="translate(.053) translate(-.053)"/>
    </g>
</svg>
