<svg xmlns="http://www.w3.org/2000/svg" width="18" height="19.001" viewBox="0 0 18 19.001">
    <defs>
        <style>
            .cls-1{fill:none}.cls-2{fill:#173e92}.cls-4,.cls-5{stroke:none}.cls-5{fill:#173e92}
        </style>
    </defs>
    <g id="ic_gift" transform="translate(-671 -738.999)">
        <g id="패스_9955" class="cls-1">
            <path d="M3.5 5c2.3-.048 4.884-2.474 4.884-2.474S5.717.073 3.5 0 0 1.119 0 2.5 1.2 5.048 3.5 5z" class="cls-4" transform="translate(687.363 742.886) rotate(141)"/>
            <path d="M3.363 3.501h.105c.73-.016 1.652-.455 2.46-.974-.828-.541-1.766-1.004-2.477-1.028l-.143-.002C2.26 1.497 1.5 1.919 1.5 2.5c0 .74 1.004 1.001 1.863 1.001m0 1.5C1.157 5.001 0 3.853 0 2.5 0 1.12 1.283-.073 3.5 0c2.217.073 4.884 2.526 4.884 2.526S5.795 4.952 3.5 5l-.137.001z" class="cls-5" transform="translate(687.363 742.886) rotate(141)"/>
        </g>
        <g id="패스_9956" class="cls-1">
            <path d="M3.5 0c2.3.05 4.884 2.475 4.884 2.475S5.717 4.928 3.5 5 0 3.882 0 2.5 1.2-.047 3.5 0z" class="cls-4" transform="translate(675.85 738.999) rotate(39)"/>
            <path d="M3.363 1.5c-.682 0-1.239.146-1.566.41-.2.162-.297.355-.297.591 0 .582.76 1.004 1.808 1.004l.143-.003c.71-.023 1.647-.486 2.474-1.025-.792-.509-1.718-.96-2.457-.976L3.363 1.5m0-1.5L3.5.001C5.795.05 8.384 2.475 8.384 2.475S5.717 4.928 3.5 5.001C1.283 5.074 0 3.882 0 2.501 0 1.148 1.157 0 3.363 0z" class="cls-5" transform="translate(675.85 738.999) rotate(39)"/>
        </g>
        <path id="사각형_12204" d="M0 0h16v6a2 2 0 0 1-2 2H2a2 2 0 0 1-2-2V0z" class="cls-2" transform="translate(672 750)"/>
        <path id="사각형_12205" d="M2 0h14a2 2 0 0 1 2 2v2H0V2a2 2 0 0 1 2-2z" class="cls-2" transform="translate(671 745)"/>
        <path id="사각형_12206" fill="#fff" d="M0 0H2V13H0z" transform="translate(679 745)"/>
    </g>
</svg>
