<svg xmlns="http://www.w3.org/2000/svg" id="icon-home-fill" width="24" height="24" viewBox="0 0 24 24">
    <defs>
        <style>
            .cls-1{fill:none}.cls-2{fill:#0f0f0f}
        </style>
    </defs>
    <path id="Rectangle_5715" d="M0 0h24v24H0z" class="cls-1"/>
    <path id="Rectangle_5716" d="M2 2h20v20H2z" class="cls-1"/>
    <g id="Subtraction_7">
        <path id="패스_9398" d="M21 21.5h-6.69v-5.562a.791.791 0 0 0-.8-.8h-3.021a.8.8 0 0 0-.8.8V21.5H3V8.543a.611.611 0 0 1 .3-.475l8.283-5.443a.771.771 0 0 1 .842 0l8.284 5.443a.613.613 0 0 1 .3.551V21.5z" class="cls-2"/>
        <path id="패스_9399" d="M20.5 21V8.59c0-.016 0-.053-.077-.108l-8.275-5.441A.263.263 0 0 0 12 3a.255.255 0 0 0-.146.043L3.573 8.486c-.056.037-.068.063-.071.078V21h5.687v-5.062a1.3 1.3 0 0 1 1.3-1.3h3.022a1.3 1.3 0 0 1 1.3 1.3V21H20.5m.5 1h-6.692a.494.494 0 0 1-.5-.5v-5.56a.3.3 0 0 0-.3-.3h-3.019a.3.3 0 0 0-.3.3v5.56a.494.494 0 0 1-.5.5H3a.494.494 0 0 1-.5-.5V8.531a1.1 1.1 0 0 1 .521-.881l8.283-5.443a1.275 1.275 0 0 1 1.393 0l8.284 5.443a1.11 1.11 0 0 1 .521 1V21.5a.5.5 0 0 1-.5.5z" class="cls-2"/>
    </g>
</svg>
