<svg xmlns="http://www.w3.org/2000/svg" id="ic_bty_s" width="24" height="24" viewBox="0 0 24 24">
    <defs>
        <style>
            .cls-1{fill:none}
        </style>
    </defs>
    <path id="Rectangle_5715" d="M0 0H24V24H0z" class="cls-1"/>
    <path id="Rectangle_5716" d="M0 0H20V20H0z" class="cls-1" transform="translate(2 2)"/>
    <g id="Subtraction_28" fill="#0f0f0f" stroke="none">
        <path d="M21178.002 14385.501H21164c-1.377 0-2.498-1.123-2.498-2.503v-13.996c0-1.38 1.121-2.504 2.498-2.504h14.002c1.377 0 2.498 1.123 2.498 2.504v13.996c0 1.38-1.121 2.503-2.498 2.503zm-11.504-16c-.55 0-1 .448-1 1v2.503c0 3.034 2.469 5.503 5.502 5.503 3.035 0 5.504-2.469 5.504-5.503v-2.504h-.006c0-.55-.45-.999-1-.999s-1 .448-1 1v2.498c0 1.932-1.568 3.503-3.498 3.503-1.928 0-3.496-1.571-3.496-3.503l-.006-2.001v-.497c0-.552-.45-1-1-1z" transform="translate(-21159 -14364)"/>
        <path d="M21178.002 14385.001c1.102 0 1.998-.898 1.998-2.003v-13.996c0-1.105-.896-2.004-1.998-2.004H21164c-1.102 0-1.998.9-1.998 2.004v13.996c0 1.105.896 2.003 1.998 2.003h14.002m-11.504-16c.826 0 1.5.673 1.5 1.5v.496l.006 2.002c0 1.656 1.344 3.003 2.996 3.003s2.998-1.347 2.998-3.003v-2.498c0-.827.674-1.5 1.5-1.5.652 0 1.207.418 1.414.999h.092v3.004c0 3.31-2.693 6.003-6.004 6.003-3.309 0-6.002-2.694-6.002-6.003v-2.503c0-.827.674-1.5 1.5-1.5m11.504 17H21164c-1.652 0-2.998-1.347-2.998-3.003v-13.996c0-1.656 1.346-3.004 2.998-3.004h14.002c1.652 0 2.998 1.348 2.998 3.004v13.996c0 1.656-1.346 3.003-2.998 3.003zm-11.504-16c-.275 0-.5.225-.5.5v2.503c0 2.759 2.244 5.003 5.002 5.003 2.76 0 5.004-2.244 5.004-5.003V14371h-.006v-.499c0-.275-.225-.5-.5-.5s-.5.225-.5.5v2.498c0 2.207-1.795 4.003-3.998 4.003-2.203 0-3.996-1.796-3.996-4.003l-.006-1.999v-.499c0-.275-.225-.5-.5-.5z" transform="translate(-21159 -14364)"/>
    </g>
</svg>
