<svg xmlns="http://www.w3.org/2000/svg" width="60" height="60" viewBox="0 0 60 60">
    <defs>
        <style>
            .cls-1,.cls-2,.cls-3{fill:none}.cls-3{stroke:#0ac3bc;stroke-width:1.5px}.cls-6{fill:#0ac3bc}.cls-5,.cls-6{stroke:none}
        </style>
    </defs>
    <g id="ic_point-account" transform="translate(-8 -578)">
        <path id="Rectangle_7727" d="M0 0H60V60H0z" class="cls-1" transform="translate(8 578)"/>
        <g id="Group_4597" transform="translate(-3 -3)">
            <g id="Subtraction_80" class="cls-2">
                <path d="M2998.994 21125c-.52 0-1.023-.014-1.5-.039v-7.455a.282.282 0 0 0-.005-.068.722.722 0 0 0 .005-.186c-.061-.791-.869-1.467-2.336-1.953a21.147 21.147 0 0 0-6.16-.795v-13c0-1.93 4.482-3.5 9.991-3.5s10 1.57 10 3.5v15.385a8 8 0 0 0-3.495 6.613c0 .213.009.43.026.646a23.449 23.449 0 0 1-6.526.852z" class="cls-5" transform="translate(-2959.999 -20504.998)"/>
                <path d="M2998.999 21123.496c1.794 0 3.534-.178 5.016-.506.143-2.678 1.41-5.162 3.481-6.853v-14.586c-.105-.188-.708-.744-2.37-1.252-1.684-.514-3.862-.797-6.132-.797-2.268 0-4.443.283-6.125.797-1.66.51-2.262 1.064-2.366 1.25v11.494c2.04.103 3.794.385 5.132.828 2.63.871 3.279 2.25 3.359 3.254.009.113.01.223.004.33V21123.496m-.004 1.5c-.52 0-1.023-.014-1.495-.039v-7.455c0-.027 0-.047-.006-.068.01-.059.012-.116.006-.186-.061-.791-.87-1.467-2.336-1.953-1.505-.498-3.635-.774-6.16-.795v-12.998c0-1.93 4.482-3.5 9.991-3.5 5.515 0 10.002 1.57 10.002 3.5v15.385c-2.188 1.494-3.495 3.967-3.495 6.613 0 .213.009.43.026.646-1.813.547-4.133.85-6.533.85z" class="cls-6" transform="translate(-2959.999 -20504.998)"/>
            </g>
            <g id="Ellipse_711" class="cls-3" transform="translate(29 593)">
                <ellipse cx="10" cy="3.5" class="cls-5" rx="10" ry="3.5"/>
                <ellipse cx="10" cy="3.5" class="cls-1" rx="9.25" ry="2.75"/>
            </g>
            <g id="Subtraction_48" class="cls-2">
                <path d="M7882 21081.5c-5.514 0-10-1.572-10-3.5a1.406 1.406 0 0 1 .229-.748c.992 1.592 5.1 2.748 9.77 2.748s8.777-1.156 9.77-2.748a1.4 1.4 0 0 1 .229.748c.002 1.928-4.484 3.5-9.998 3.5z" class="cls-5" transform="translate(-7843 -20477.5)"/>
                <path d="M7882 21081.5c-5.513 0-9.999-1.572-9.999-3.502 0-.252.077-.504.23-.748.992 1.592 5.1 2.748 9.77 2.748 4.668 0 8.777-1.156 9.77-2.748.152.244.229.496.229.748 0 1.93-4.486 3.502-10 3.502z" class="cls-6" transform="translate(-7843 -20477.5)"/>
            </g>
            <g id="Subtraction_84" class="cls-2">
                <path d="M2997.5 21103.248c-5.515 0-10-1.57-10-3.5a1.381 1.381 0 0 1 .233-.748c.992 1.592 5.1 2.746 9.769 2.746s8.777-1.154 9.769-2.746a1.374 1.374 0 0 1 .228.748c.001 1.93-4.486 3.5-9.999 3.5z" class="cls-5" transform="translate(-2958.499 -20495.25)"/>
                <path d="M2997.5 21103.248c-5.514 0-10.001-1.57-10.001-3.498 0-.254.076-.498.233-.748.992 1.592 5.1 2.746 9.769 2.746 4.668 0 8.776-1.154 9.769-2.746.154.244.228.49.228.748 0 1.928-4.485 3.498-9.997 3.498z" class="cls-6" transform="translate(-2958.499 -20495.25)"/>
            </g>
            <g id="Subtraction_83" class="cls-2">
                <path d="M3000.5 21104.5h-.5a1.994 1.994 0 0 0-1.027-1.543c.518.027 1.031.041 1.525.041 4.669 0 8.778-1.154 9.769-2.744a1.386 1.386 0 0 1 .233.746c0 1.93-4.485 3.5-10 3.5zm-8.972-3.457c-.365-.02-.7-.031-1.027-.037v-.01a1.384 1.384 0 0 1 .233-.746 2.848 2.848 0 0 0 .794.791z" class="cls-5" transform="translate(-2961.5 -20492.5)"/>
                <path d="M3000.5 21104.502c-.167 0-.333-.002-.498-.004-.002-.543-.347-1.062-1.027-1.543.518.027 1.031.041 1.525.041 4.67 0 8.778-1.154 9.77-2.744.154.244.232.496.232.746 0 1.932-4.487 3.504-10.002 3.504zm-8.971-3.457h-.004c-.365-.02-.7-.031-1.026-.037v-.01c0-.252.078-.502.233-.746.17.273.436.539.794.791l.003.002z" class="cls-6" transform="translate(-2961.5 -20492.5)"/>
            </g>
            <g id="Subtraction_82" class="cls-2">
                <path d="M3000.5 21108.5c-.522 0-1.026-.014-1.5-.039v-1.5c.51.027 1.014.041 1.5.041 4.666 0 8.774-1.156 9.768-2.75a1.471 1.471 0 0 1 .114.215 8.078 8.078 0 0 0-2.509 2.895 21.768 21.768 0 0 1-7.373 1.138z" class="cls-5" transform="translate(-2961.5 -20492.5)"/>
                <path d="M3000.501 21108.5c-.522 0-1.026-.014-1.5-.04v-1.501c.51.027 1.014.041 1.5.041 4.666 0 8.775-1.156 9.769-2.75.045.07.083.143.114.215-1.057.75-1.924 1.75-2.51 2.894-1.893.725-4.58 1.141-7.373 1.141z" class="cls-6" transform="translate(-2961.5 -20492.5)"/>
            </g>
            <g id="Subtraction_81" class="cls-2">
                <path d="M3000.5 21112.5c-.521 0-1.026-.014-1.5-.039v-1.506c.5.025 1 .039 1.5.039a23.4 23.4 0 0 0 6.545-.857 8.1 8.1 0 0 0-.047.863c0 .215.009.428.026.648a23.35 23.35 0 0 1-6.524.852z" class="cls-5" transform="translate(-2961.5 -20492.5)"/>
                <path d="M3000.501 21112.502c-.521 0-1.026-.014-1.5-.04v-1.505c.5.025 1.004.04 1.5.04 2.395 0 4.719-.306 6.545-.858-.03.283-.047.574-.047.863 0 .215.009.428.026.648-1.814.55-4.131.852-6.524.852z" class="cls-6" transform="translate(-2961.5 -20492.5)"/>
            </g>
        </g>
        <g id="Group_1844" transform="translate(-36 -4)">
            <g id="Union_128" class="cls-2">
                <path d="M3012 21118.5v-12c0-1.936 4.474-3.5 10-3.5s10 1.564 10 3.5v12c0 1.93-4.479 3.5-10 3.5s-10-1.568-10-3.5z" class="cls-5" transform="translate(-2960 -20494)"/>
                <path d="M3021.999 21120.5c2.274 0 4.453-.283 6.136-.797 1.66-.508 2.262-1.062 2.367-1.248v-11.906c-.103-.188-.702-.742-2.363-1.25-1.682-.514-3.863-.797-6.14-.797-2.277 0-4.457.283-6.138.797-1.66.508-2.257 1.062-2.36 1.248v11.908c.104.186.705.74 2.364 1.248 1.681.514 3.86.797 6.134.797m0 1.5c-5.524 0-9.998-1.568-9.998-3.498v-12c0-1.936 4.474-3.5 9.998-3.5 5.523 0 10.003 1.564 10.003 3.5v12c0 1.93-4.48 3.498-10.003 3.498z" class="cls-6" transform="translate(-2960 -20494)"/>
            </g>
            <g id="Subtraction_46" class="cls-2">
                <path d="M7882 21081.5c-5.514 0-10-1.572-10-3.5a1.406 1.406 0 0 1 .229-.748c.992 1.592 5.1 2.748 9.77 2.748s8.777-1.156 9.77-2.748a1.4 1.4 0 0 1 .229.748c.002 1.928-4.484 3.5-9.998 3.5z" class="cls-5" transform="translate(-7820 -20461.5)"/>
                <path d="M7882 21081.5c-5.513 0-9.999-1.572-9.999-3.502 0-.252.077-.504.23-.748.992 1.592 5.1 2.748 9.77 2.748 4.668 0 8.777-1.156 9.77-2.748.152.244.229.496.229.748 0 1.93-4.486 3.502-10 3.502z" class="cls-6" transform="translate(-7820 -20461.5)"/>
            </g>
            <g id="Subtraction_45" class="cls-2">
                <path d="M7882 21081.5c-5.514 0-10-1.572-10-3.5a1.406 1.406 0 0 1 .229-.748c.992 1.592 5.1 2.748 9.77 2.748s8.777-1.156 9.77-2.748a1.4 1.4 0 0 1 .229.748c.002 1.928-4.484 3.5-9.998 3.5z" class="cls-5" transform="translate(-7820 -20457.5)"/>
                <path d="M7882 21081.5c-5.513 0-9.999-1.572-9.999-3.502 0-.252.077-.504.23-.748.992 1.592 5.1 2.748 9.77 2.748 4.668 0 8.777-1.156 9.77-2.748.152.244.229.496.229.748 0 1.93-4.486 3.502-10 3.502z" class="cls-6" transform="translate(-7820 -20457.5)"/>
            </g>
            <g id="Ellipse_1113" class="cls-3" transform="translate(52 609)">
                <ellipse cx="10" cy="3.5" class="cls-5" rx="10" ry="3.5"/>
                <ellipse cx="10" cy="3.5" class="cls-1" rx="9.25" ry="2.75"/>
            </g>
        </g>
        <g id="Ellipse_716" class="cls-3" transform="translate(41 606)">
            <circle cx="9.5" cy="9.5" r="9.5" class="cls-5"/>
            <circle cx="9.5" cy="9.5" r="8.75" class="cls-1"/>
        </g>
        <path id="Path_8921" fill="#0ac3bc" d="M.42-8.58a4.253 4.253 0 0 1 1.338.186 2.514 2.514 0 0 1 .918.516 2.038 2.038 0 0 1 .534.786 2.737 2.737 0 0 1 .174.984v.168a2.8 2.8 0 0 1-.18 1 2.216 2.216 0 0 1-.552.828 2.728 2.728 0 0 1-.924.564 3.676 3.676 0 0 1-1.308.21h-1.728v2.7a.567.567 0 0 1-.228.5.933.933 0 0 1-.54.156.933.933 0 0 1-.54-.156.567.567 0 0 1-.228-.5v-6.946a1.075 1.075 0 0 1 .222-.78 1.141 1.141 0 0 1 .8-.216zm-1.728 3.948H.216A2.121 2.121 0 0 0 1.4-4.92a1.163 1.163 0 0 0 .432-1.044V-6.1a1.379 1.379 0 0 0-.108-.588.913.913 0 0 0-.306-.366 1.232 1.232 0 0 0-.474-.192 3.127 3.127 0 0 0-.6-.054h-1.652z" transform="translate(50.844 620)"/>
    </g>
</svg>
