<svg xmlns="http://www.w3.org/2000/svg" width="60" height="60" viewBox="0 0 60 60">
    <defs>
        <style>
            .cls-2{fill:none}.cls-4{fill:#0f0f0f}.cls-6,.cls-7{stroke:none}.cls-7{fill:#0f0f0f}
        </style>
    </defs>
    <g id="ic_mintitcare_carrot" transform="translate(-154 -214)">
        <path id="사각형_8552" fill="none" d="M0 0H60V60H0z" transform="translate(154 214)"/>
        <g id="합치기_147" class="cls-2">
            <path d="M-11428-19552a4 4 0 0 1-4-4v-28a4 4 0 0 1 4-4h11v-2.336l7-2.664 7 2.664v8c0 .738-.855 3.674-7 5.838v20.5a4 4 0 0 1-4 4z" class="cls-6" transform="translate(11605 19814)"/>
            <path d="M-11413.999-19553.502c1.377 0 2.497-1.12 2.497-2.496v-21.563l1.002-.351c2.871-1.012 4.348-2.149 5.081-2.926.799-.846.91-1.453.919-1.517v-6.946l-5.502-2.094-5.497 2.092v2.803h-12.5c-1.38 0-2.502 1.121-2.502 2.498v28.004c0 1.377 1.122 2.496 2.502 2.496h14m0 1.5h-14c-2.212 0-4.002-1.789-4.002-3.996v-28.004c0-2.209 1.79-3.998 4.002-3.998h11v-2.336l6.997-2.664 7.002 2.664v8c0 .738-.855 3.674-7.002 5.838v20.5c0 2.207-1.79 3.996-3.997 3.996z" class="cls-7" transform="translate(11605 19814)"/>
        </g>
        <g id="패스_9315" class="cls-2">
            <path d="M7-2l7 2.667v8c0 .736-.854 3.67-7 5.833-6.182-2.163-7-5.1-7-5.833v-8z" class="cls-6" transform="translate(188 223)"/>
            <path d="M7-.395L1.5 1.7v6.95c.008.059.109.664.898 1.505.685.732 2.033 1.784 4.6 2.749 2.546-.963 3.894-2.012 4.584-2.742.798-.844.908-1.45.918-1.515V1.7L7-.395M7-2l7 2.667v8c0 .736-.854 3.67-7 5.833-6.182-2.163-7-5.097-7-5.833v-8L7-2z" class="cls-7" transform="translate(188 223)"/>
        </g>
        <path id="패스_9316" fill="none" stroke="#0f0f0f" stroke-linecap="round" stroke-linejoin="round" stroke-width="1.5px" d="M-17734.541-10335.188l2.053 2.212 2.391-2.12 1.557-1.38" transform="translate(17926.541 10564.477)"/>
        <path id="패스_9896" d="M.75 0h3.5a.75.75 0 0 1 0 1.5H.75a.75.75 0 0 1 0-1.5z" class="cls-4" transform="translate(181.5 255.5)"/>
        <path id="패스_9895" d="M.2 0h4.6a.2.2 0 0 1 .2.2v1.1a.2.2 0 0 1-.2.2H.2a.2.2 0 0 1-.2-.2V.2A.2.2 0 0 1 .2 0z" class="cls-4" transform="rotate(25 -443.295 492.63)"/>
        <path id="패스_9894" d="M.2 0h4.6a.2.2 0 0 1 .2.2v1.1a.2.2 0 0 1-.2.2H.2a.2.2 0 0 1-.2-.2V.2A.2.2 0 0 1 .2 0z" class="cls-4" transform="translate(165 238)"/>
        <path id="패스_9893" d="M.2 0h4.6a.2.2 0 0 1 .2.2v1.1a.2.2 0 0 1-.2.2H.2a.2.2 0 0 1-.2-.2V.2A.2.2 0 0 1 .2 0z" class="cls-4" transform="rotate(-25 630.137 -252.895)"/>
        <path id="패스_9827" fill="none" stroke="#0f0f0f" stroke-width="1.5px" d="M-11176.06-10513.4l4.334 3.569 4.994-2.568 4.206 3.7" transform="translate(11350 10751.795)"/>
    </g>
</svg>
