<svg xmlns="http://www.w3.org/2000/svg" id="icon-point" width="24" height="24" viewBox="0 0 24 24">
    <defs>
        <style>
            .cls-2{fill:#0f0f0f}
        </style>
    </defs>
    <path id="패스_4017" fill="none" d="M0 0h24v24H0z"/>
    <path id="패스_4020" d="M12 23a11 11 0 1 1 11-11 11.013 11.013 0 0 1-11 11zm0-20.5a9.5 9.5 0 1 0 9.5 9.5A9.511 9.511 0 0 0 12 2.5z" class="cls-2"/>
    <path id="패스_4021" d="M12.942 7.49a4.984 4.984 0 0 1 1.561.217 2.939 2.939 0 0 1 1.071.6 2.374 2.374 0 0 1 .623.917 3.2 3.2 0 0 1 .2 1.148v.2a3.242 3.242 0 0 1-.211 1.168 2.57 2.57 0 0 1-.643.966 3.176 3.176 0 0 1-1.078.658 4.3 4.3 0 0 1-1.526.245h-2.013v3.15a.659.659 0 0 1-.266.587 1.176 1.176 0 0 1-1.26 0 .659.659 0 0 1-.266-.587v-8.1a1.255 1.255 0 0 1 .259-.911 1.331 1.331 0 0 1 .931-.252zm-2.016 4.61H12.7a2.467 2.467 0 0 0 1.386-.336 1.357 1.357 0 0 0 .5-1.218v-.154a1.614 1.614 0 0 0-.126-.686 1.055 1.055 0 0 0-.357-.426 1.434 1.434 0 0 0-.552-.225 3.672 3.672 0 0 0-.7-.062h-1.925z" class="cls-2" transform="translate(0 -.49)"/>
</svg>
