<svg xmlns="http://www.w3.org/2000/svg" width="60" height="60" viewBox="0 0 60 60">
    <defs>
        <style>
            .cls-1,.cls-2{fill:none}.cls-4{fill:#0f0f0f}.cls-5,.cls-6{stroke:none}.cls-6{fill:#0f0f0f}
        </style>
    </defs>
    <g id="ic_mintitcare_samsungfire" transform="translate(-154 -214)">
        <path id="사각형_7726" d="M0 0H60V60H0z" class="cls-1" transform="translate(154 214)"/>
        <path id="사각형_8552" d="M0 0H60V60H0z" class="cls-1" transform="translate(154 214)"/>
        <g id="합치기_146" class="cls-2">
            <path d="M-11878-19552a4.005 4.005 0 0 1-4-4v-16.424l1.76-.359 2.145.836 2.694-.412 2.592.57-1.333-2.109-2.734.227-2.129-1.15-2.994.428v-9.6a4 4 0 0 1 4-4h11v-2.336l7-2.664 7 2.664v8c0 .738-.851 3.674-7 5.838v20.491a4.006 4.006 0 0 1-4 4z" class="cls-5" transform="translate(12055.001 19814)"/>
            <path d="M-11864.001-19553.502c1.38 0 2.502-1.123 2.502-2.502v-21.557l1.002-.351c2.871-1.012 4.348-2.15 5.08-2.926.797-.846.905-1.453.915-1.517v-6.948l-5.497-2.092-5.502 2.094v2.801h-12.5c-1.377 0-2.497 1.121-2.497 2.498v7.873l1.282-.182.49-.07.435.235 1.736.939 2.29-.19.907-.076.485.77 1.333 2.11 1.92 3.038-3.51-.773-2.32-.51-2.417.37-.397.06-.375-.145-1.732-.676-.127.026v15.2c0 1.378 1.12 2.501 2.497 2.501h14m0 1.5h-14c-2.202 0-3.997-1.795-3.997-4.002v-16.424l1.76-.36 2.144.837 2.695-.412 2.591.57-1.333-2.11-2.734.227-2.129-1.15-2.994.428v-9.604c0-2.203 1.795-3.998 3.997-3.998h11v-2.336l7.002-2.664 6.997 2.664v8c0 .738-.85 3.674-6.997 5.838v20.494c0 2.207-1.795 4.002-4.002 4.002z" class="cls-6" transform="translate(12055.001 19814)"/>
        </g>
        <g id="패스_9315" class="cls-2">
            <path d="M7-2l7 2.667v8c0 .736-.854 3.67-7 5.833-6.182-2.163-7-5.1-7-5.833v-8z" class="cls-5" transform="translate(188 223)"/>
            <path d="M7-.395L1.5 1.7v6.95c.008.059.109.664.898 1.505.685.732 2.033 1.784 4.6 2.749 2.546-.963 3.894-2.012 4.584-2.742.798-.844.908-1.45.918-1.515V1.7L7-.395M7-2l7 2.667v8c0 .736-.854 3.67-7 5.833-6.182-2.163-7-5.097-7-5.833v-8L7-2z" class="cls-6" transform="translate(188 223)"/>
        </g>
        <path id="패스_9316" fill="none" stroke="#0f0f0f" stroke-linecap="round" stroke-linejoin="round" stroke-width="1.5px" d="M-17734.543-10335.189l2.053 2.213 2.391-2.121 1.557-1.379" transform="translate(17926.543 10564.477)"/>
        <rect id="사각형_9605" width="5" height="1.5" class="cls-4" rx=".75" transform="translate(181.5 255.5)"/>
        <rect id="사각형_9612" width="5" height="1.5" class="cls-4" rx=".2" transform="rotate(25 -445.564 493.069)"/>
        <rect id="사각형_9613" width="5" height="1.5" class="cls-4" rx=".2" transform="translate(165 239)"/>
        <rect id="사각형_9614" width="5" height="1.5" class="cls-4" rx=".2" transform="rotate(-25 632.436 -252.582)"/>
    </g>
</svg>
