<svg xmlns="http://www.w3.org/2000/svg" width="60" height="60" viewBox="0 0 60 60">
    <defs>
        <style>
            .cls-1,.cls-2{fill:none}.cls-3{fill:#0f0f0f}.cls-6,.cls-7{stroke:none}.cls-7{fill:#0ac3bc}
        </style>
    </defs>
    <g id="ic_mintitcare_search" transform="translate(-154 -214)">
        <path id="패스_9356" d="M0 0h60v60H0z" class="cls-1" transform="translate(154 214)"/>
        <path id="패스_9355" d="M0 0h60v60H0z" class="cls-1" transform="translate(154 214)"/>
        <g id="패스_9354" class="cls-2">
            <path d="M17919 10612a2 2 0 0 1-2-2v-34a2 2 0 0 1 2-2h4a2 2 0 0 1 2-2h12a2 2 0 0 1 2 2h4a2 2 0 0 1 2 2v19.319a6.5 6.5 0 0 1 0 12v2.681a2 2 0 0 1-2 2z" class="cls-6" transform="translate(-17747 -10349)"/>
            <path d="M17943 10610.501c.275 0 .5-.225.5-.5v-3.679l.922-.385c1.871-.779 3.078-2.59 3.078-4.616 0-2.025-1.207-3.838-3.078-4.617l-.922-.385V10576c0-.275-.225-.5-.5-.5h-5.5v-1.5c0-.275-.225-.5-.5-.5h-12c-.275 0-.5.225-.5.5v1.5h-5.5c-.275 0-.5.225-.5.5v34.001c0 .275.225.5.5.5h24m0 1.5h-24c-1.104 0-2-.897-2-2V10576c0-1.104.896-2 2-2h4c0-1.104.896-2 2-2h12c1.104 0 2 .896 2 2h4c1.104 0 2 .896 2 2v19.32c2.35.979 4 3.296 4 6.001 0 2.704-1.65 5.022-4 6.001v2.679c0 1.103-.896 2-2 2z" class="cls-7" transform="translate(-17747 -10349)"/>
        </g>
        <g id="패스_9315" class="cls-2">
            <path d="M6-2l6 2.263v6.788c0 .625-.732 3.114-6 4.949-5.3-1.836-6-4.325-6-4.949V.263z" class="cls-6" transform="translate(178 234)"/>
            <path d="M6-.397L1.5 1.3V7.02c.014.074.12.533.754 1.183.568.584 1.672 1.422 3.745 2.203 2.055-.78 3.158-1.615 3.73-2.198.64-.652.755-1.113.771-1.193V1.3L6-.397M6-2l6 2.263V7.05c0 .625-.732 3.114-6 4.95-5.3-1.836-6-4.325-6-4.95V.263L6-2z" class="cls-7" transform="translate(178 234)"/>
        </g>
        <g id="패스_9353" class="cls-3">
            <path d="M13.25 1H.75C.612 1 .5.888.5.75S.612.5.75.5h12.5c.138 0 .25.112.25.25s-.112.25-.25.25z" class="cls-6" transform="translate(176 250)"/>
            <path d="M.75 0h12.5c.414 0 .75.336.75.75s-.336.75-.75.75H.75C.336 1.5 0 1.164 0 .75S.336 0 .75 0z" class="cls-7" transform="translate(176 250)"/>
        </g>
        <g id="패스_9352" class="cls-3">
            <path d="M9.25 1H.75C.612 1 .5.888.5.75S.612.5.75.5h8.5c.138 0 .25.112.25.25S9.388 1 9.25 1z" class="cls-6" transform="translate(176 254.5)"/>
            <path d="M.75 0h8.5c.414 0 .75.336.75.75s-.336.75-.75.75H.75C.336 1.5 0 1.164 0 .75S.336 0 .75 0z" class="cls-7" transform="translate(176 254.5)"/>
        </g>
        <g id="패스_9351" fill="#fff">
            <path d="M.75 5.834c-.138 0-.25-.112-.25-.25V.75C.5.612.612.5.75.5S1 .612 1 .75v4.834c0 .138-.112.25-.25.25z" class="cls-6" transform="rotate(-45 408.894 -111.45)"/>
            <path d="M.75 0c.414 0 .75.336.75.75v4.834c0 .414-.336.75-.75.75S0 5.998 0 5.584V.75C0 .336.336 0 .75 0z" class="cls-7" transform="rotate(-45 408.894 -111.45)"/>
        </g>
        <g id="패스_9350" class="cls-2">
            <path d="M6.5 0A6.5 6.5 0 1 1 0 6.5 6.5 6.5 0 0 1 6.5 0z" class="cls-6" transform="translate(189 245.821)"/>
            <path d="M6.5 1.5c-2.757 0-5 2.243-5 5s2.243 5 5 5 5-2.243 5-5-2.243-5-5-5m0-1.5C10.09 0 13 2.91 13 6.5S10.09 13 6.5 13 0 10.09 0 6.5 2.91 0 6.5 0z" class="cls-7" transform="translate(189 245.821)"/>
        </g>
        <path id="패스_9316" fill="none" stroke="#0ac3bc" stroke-linecap="round" stroke-linejoin="round" stroke-width="1.5px" d="M-17734.543-10335.373l1.711 1.9 1.992-1.818 1.3-1.182" transform="translate(17916.043 10574.477)"/>
        <g id="패스_9349" class="cls-2">
            <path d="M2 0h12a2 2 0 0 1 2 2v1a2 2 0 0 1-2 2H2a2 2 0 0 1-2-2V2a2 2 0 0 1 2-2z" class="cls-6" transform="translate(176 223)"/>
            <path d="M2 1.5c-.276 0-.5.224-.5.5v1c0 .276.224.5.5.5h12c.276 0 .5-.224.5-.5V2c0-.276-.224-.5-.5-.5H2M2 0h12c1.105 0 2 .895 2 2v1c0 1.105-.895 2-2 2H2C.895 5 0 4.105 0 3V2C0 .895.895 0 2 0z" class="cls-7" transform="translate(176 223)"/>
        </g>
    </g>
</svg>
