<svg xmlns="http://www.w3.org/2000/svg" width="60" height="60" viewBox="0 0 60 60">
    <defs>
        <style>
            .cls-1,.cls-2,.cls-3{fill:none}.cls-2,.cls-3{stroke:#0f0f0f;stroke-width:1.5px}.cls-3{stroke-linecap:round}.cls-4{stroke:none}
        </style>
    </defs>
    <g id="ic_chat_bot" transform="translate(-8093 -2451)">
        <path id="패스_9953" d="M0 0h60v60H0z" class="cls-1" transform="translate(8093 2451)"/>
        <g id="그룹_10083" transform="translate(105.519 -46.816)">
            <g id="사각형_12192" class="cls-2" transform="translate(8002.703 2520.159)">
                <rect width="30.231" height="26.675" class="cls-4" rx="4"/>
                <rect width="28.731" height="25.175" x=".75" y=".75" class="cls-1" rx="3.25"/>
            </g>
            <g id="타원_1295" class="cls-2" transform="translate(8008.038 2529.94)">
                <circle cx="3" cy="3" r="3" class="cls-4"/>
                <circle cx="3" cy="3" r="2.25" class="cls-1"/>
            </g>
            <g id="타원_1296" class="cls-2" transform="translate(8021.481 2529.94)">
                <circle cx="3" cy="3" r="3" class="cls-4"/>
                <circle cx="3" cy="3" r="2.25" class="cls-1"/>
            </g>
            <g id="사각형_12194" class="cls-2">
                <path d="M0 0a2.446 2.446 0 0 1 2.446 2.446v3.778A2.446 2.446 0 0 1 0 8.67V0z" class="cls-4" transform="translate(8035.712 2530.05)"/>
                <path d="M-.295-.75A3.49 3.49 0 0 1 3.2 2.74v3.189A3.49 3.49 0 0 1-.295 9.42a.455.455 0 0 1-.455-.455v-9.26A.455.455 0 0 1-.295-.75z" class="cls-1" transform="translate(8035.712 2530.05)"/>
            </g>
            <g id="사각형_12195" class="cls-2">
                <path d="M2.446 0v8.67A2.446 2.446 0 0 1 0 6.224V2.446A2.446 2.446 0 0 1 2.446 0z" class="cls-4" transform="translate(7997.481 2530.05)"/>
                <path d="M2.741-.75a.455.455 0 0 1 .459.455v9.26a.455.455 0 0 1-.455.455A3.491 3.491 0 0 1-.75 5.929V2.741A3.491 3.491 0 0 1 2.741-.75z" class="cls-1" transform="translate(7997.481 2530.05)"/>
            </g>
            <path id="패스_9950" d="M-20917-19726.824v4.344" class="cls-2" transform="translate(28934.82 22243.287)"/>
            <path id="패스_9951" d="M317.637 431.727c1.6-2.667 6.4-2.667 8 0" class="cls-3" transform="translate(7696.181 2082.208)"/>
            <path id="패스_9952" d="M316.477 433.4c2.667-5.335 11.559-6.224 15.115 0" class="cls-3" transform="translate(7693.786 2078.759)"/>
        </g>
    </g>
</svg>
