<svg xmlns="http://www.w3.org/2000/svg" width="60" height="60" viewBox="0 0 60 60">
    <defs>
        <style>
            .cls-1{fill:none}.cls-2,.cls-3{fill:#0ac3bc}.cls-3{stroke:transparent;stroke-miterlimit:10}
        </style>
    </defs>
    <g id="ic_bank-account" transform="translate(-154 -214)">
        <path id="Rectangle_7726" d="M0 0H60V60H0z" class="cls-1" transform="translate(154 214)"/>
        <path id="Rectangle_8552" d="M0 0H60V60H0z" class="cls-1" transform="translate(154 214)"/>
        <path id="Path_8903" d="M44 32H16V14a2 2 0 0 1 2-2h24a2 2 0 0 1 2 2zm-26.5-1.5h25V14a.5.5 0 0 0-.5-.5H18a.5.5 0 0 0-.5.5z" class="cls-2" transform="translate(154 214)"/>
        <path id="Subtraction_77" d="M2990.079 20626h-23.813a2.488 2.488 0 0 1-1.912-.715 1.518 1.518 0 0 1-.314-1.283l3.148-16h27.625l.315 1.6a9.333 9.333 0 0 0-1.462.332l-.085-.432h-25.161l-2.816 14.352a.51.51 0 0 0 .1.434.741.741 0 0 0 .567.213h22.487a9.441 9.441 0 0 0 1.324 1.5z" class="cls-3" transform="translate(-2797 -20363.5)"/>
        <path id="Path_8907" d="M24.25 38h-3.5a.75.75 0 0 1 0-1.5h3.5a.75.75 0 0 1 0 1.5z" class="cls-2" transform="translate(154 214)"/>
        <path id="Path_8911" d="M38.25 21h-16.5a.75.75 0 0 1 0-1.5h16.5a.75.75 0 0 1 0 1.5z" class="cls-2" transform="translate(154 214)"/>
        <path id="Path_8913" d="M28.25 25h-6.5a.75.75 0 0 1 0-1.5h6.5a.75.75 0 0 1 0 1.5z" class="cls-2" transform="translate(154 214)"/>
        <path id="Path_8917" d="M24.25 42h-4.5a.75.75 0 0 1 0-1.5h4.5a.75.75 0 0 1 0 1.5z" class="cls-2" transform="translate(154 214)"/>
        <path id="Path_8918" d="M45.5 51a9.5 9.5 0 1 1 9.5-9.5 9.511 9.511 0 0 1-9.5 9.5zm0-17.5a8 8 0 1 0 8 8 8.009 8.009 0 0 0-8-8z" class="cls-2" transform="translate(154 214)"/>
        <path id="Path_8919" d="M45.561 38.29a.689.689 0 0 1 .415.135.777.777 0 0 1 .264.465l.56 2.38h1.051l.569-2.55a.488.488 0 0 1 .266-.365.639.639 0 0 1 .424-.045.568.568 0 0 1 .366.23.545.545 0 0 1 .054.46l-.57 2.27h.8a.245.245 0 0 1 .22.1.454.454 0 0 1 .07.255.435.435 0 0 1-.07.245.245.245 0 0 1-.22.1h-.97l-.729 2.94a.758.758 0 0 1-.276.465.673.673 0 0 1-.809 0 .768.768 0 0 1-.276-.475l-.679-2.92h-.96l-.741 2.94a.739.739 0 0 1-.28.465.722.722 0 0 1-.41.135.7.7 0 0 1-.4-.135.76.76 0 0 1-.276-.475l-.73-2.93h-.98a.243.243 0 0 1-.219-.1.428.428 0 0 1-.071-.245.447.447 0 0 1 .071-.255.243.243 0 0 1 .219-.1h.81L41.49 39a.545.545 0 0 1 .055-.46.576.576 0 0 1 .375-.23.693.693 0 0 1 .431.035.5.5 0 0 1 .269.375l.57 2.55h1.09l.6-2.38a.813.813 0 0 1 .255-.465.678.678 0 0 1 .426-.135zM43.7 43.56l.4-1.58h-.75zm1.54-2.29h.611l-.29-1.26zm2.1 2.28l.35-1.57h-.72z" class="cls-2" transform="translate(154 214)"/>
        <path id="Subtraction_79" d="M2972.011 20618h-7.26a.751.751 0 0 1 0-1.5h7.3a9.662 9.662 0 0 0-.052 1c0 .17 0 .336.013.5z" class="cls-3" transform="translate(-2782 -20362)"/>
        <path id="Subtraction_78" d="M2972.665 20614h-7.915a.748.748 0 1 1 0-1.5h8.668a9.533 9.533 0 0 0-.753 1.494z" class="cls-3" transform="translate(-2782 -20362)"/>
    </g>
</svg>
