<svg xmlns="http://www.w3.org/2000/svg" width="60" height="60" viewBox="0 0 60 60">
    <defs>
        <style>
            .cls-2,.cls-4{fill:none}.cls-2{stroke:#0f0f0f;stroke-width:1.5px}.cls-6,.cls-7{stroke:none}.cls-7{fill:#0f0f0f}
        </style>
    </defs>
    <g id="ic_mintitcare_demand" transform="translate(-8 -578)">
        <path id="패스_9367" fill="none" d="M0 0h60v60H0z" transform="translate(8 578)"/>
        <path id="패스_9320" d="M30.777 621.784a9.707 9.707 0 0 1 1.393-1.337c1.129-.965 1.338-.947 3.156-.947h7.2c1.317 0 3.714.3 5.361-1.362s5.5-6.374 6.668-7.822 1.119-3.216-.494-4.011-3.227 1.059-3.227 1.059L46.357 612" class="cls-2" transform="translate(1.277 3)"/>
        <path id="패스_9321" fill="none" stroke="#0f0f0f" stroke-linecap="round" stroke-width="1.5px" d="M24.406 614.424s3.23-6.313 11.318-3.424h6.051c2.709 0 4.725.481 4.725 2s-1.289 2-3.857 2h-5.086" transform="translate(1.277 3)"/>
        <g id="패스_9366" class="cls-4">
            <path d="M2 0h10a2 2 0 0 1 2 2v6H0V2a2 2 0 0 1 2-2z" class="cls-6" transform="rotate(45 -730.808 337.58)"/>
            <path d="M2 1.5c-.276 0-.5.224-.5.5v4.5h11V2c0-.276-.224-.5-.5-.5H2M2 0h10c1.105 0 2 .895 2 2v6H0V2C0 .895.895 0 2 0z" class="cls-7" transform="rotate(45 -730.808 337.58)"/>
        </g>
        <g id="패스_9322" class="cls-4">
            <path d="M10-2l10 3.879v11.636c0 1.071-1.22 5.338-10 8.485-8.832-3.147-10-7.414-10-8.485V1.879z" class="cls-6" transform="translate(31 588)"/>
            <path d="M10-.391L1.5 2.906v10.61c0 .009.039 1.019 1.322 2.48 1.822 2.078 4.814 3.52 7.176 4.406 2.344-.884 5.317-2.323 7.15-4.393 1.305-1.474 1.352-2.485 1.352-2.494V2.905L10-.39M10-2l10 3.879v11.636c0 1.071-1.22 5.338-10 8.485-8.832-3.147-10-7.414-10-8.485V1.88L10-2z" class="cls-7" transform="translate(31 588)"/>
        </g>
        <path id="패스_9323" d="M30.777 621.784a9.707 9.707 0 0 1 1.393-1.337c1.129-.965 1.338-.947 3.156-.947h7.2c1.317 0 3.714.3 5.361-1.362s5.5-6.374 6.668-7.822 1.119-3.216-.494-4.011-3.227 1.059-3.227 1.059L46.357 612" class="cls-2" transform="translate(1.277 3)"/>
        <path id="패스_9365" fill="#0f0f0f" d="M5.844-8.652a.824.824 0 0 1 .5.162.933.933 0 0 1 .318.558l.672 2.856h1.26l.684-3.06a.586.586 0 0 1 .318-.438.774.774 0 0 1 .51-.054.677.677 0 0 1 .438.276.654.654 0 0 1 .066.552l-.686 2.724h.96a.3.3 0 0 1 .264.126.539.539 0 0 1 .084.306.518.518 0 0 1-.084.294.3.3 0 0 1-.264.126H9.72L8.844-.7a.9.9 0 0 1-.33.558.842.842 0 0 1-.486.162.842.842 0 0 1-.486-.162.924.924 0 0 1-.33-.582l-.812-3.5H5.244L4.356-.7a.892.892 0 0 1-.336.558.87.87 0 0 1-.492.162.842.842 0 0 1-.486-.162.914.914 0 0 1-.33-.57l-.876-3.512H.66A.3.3 0 0 1 .4-4.35a.518.518 0 0 1-.084-.294A.539.539 0 0 1 .4-4.95a.3.3 0 0 1 .26-.126h.972L.96-7.8a.654.654 0 0 1 .066-.552.684.684 0 0 1 .45-.276.835.835 0 0 1 .516.042.6.6 0 0 1 .324.45L3-5.076h1.308l.72-2.856a.967.967 0 0 1 .306-.558.81.81 0 0 1 .51-.162zM3.612-2.328l.48-1.9h-.9zM7.98-2.34l.42-1.884h-.864zM5.46-5.076h.732l-.348-1.512z" transform="translate(35.5 603)"/>
    </g>
</svg>
