<svg xmlns="http://www.w3.org/2000/svg" id="btn_11" width="24" height="24" viewBox="0 0 24 24">
    <defs>
        <style>
            .cls-1,.cls-3{fill:none}.cls-3{stroke:#0f0f0f}.cls-4{stroke:none}
        </style>
    </defs>
    <path id="사각형_5715" d="M0 0H24V24H0z" class="cls-1"/>
    <path id="사각형_5716" d="M0 0H18V18H0z" class="cls-1" transform="translate(3 3)"/>
    <g id="합치기_137" fill="none">
        <path d="M20560.646 19421.646L20558 19419h-5a3 3 0 0 1-3-3v-13a3 3 0 0 1 3-3h16a3 3 0 0 1 3 3v13a3 3 0 0 1-3 3h-5l-2.648 2.648a.5.5 0 0 1-.709 0z" class="cls-4" transform="translate(-20549 -19399)"/>
        <path fill="#0f0f0f" d="M20561 19419.879l1.943-1.942.44-.439h5.617c.826 0 1.5-.674 1.5-1.5v-13c0-.826-.674-1.5-1.5-1.5h-15.998c-.826 0-1.5.674-1.5 1.5v13c0 .826.674 1.5 1.5 1.5H20558.619l.44.44 1.941 1.94m0 1.915c-.127 0-.254-.049-.354-.147l-2.648-2.648h-4.996c-1.658 0-3-1.344-3-3v-13c0-1.652 1.342-3 3-3H20569c1.658 0 3 1.348 3 3v13c0 1.656-1.342 3-3 3h-4.996l-2.649 2.648c-.1.098-.226.147-.355.147z" transform="translate(-20549 -19399)"/>
    </g>
    <g id="타원_1183" class="cls-3" transform="translate(6 9.5)">
        <circle cx="1" cy="1" r="1" class="cls-4"/>
        <circle cx="1" cy="1" r=".5" class="cls-1"/>
    </g>
    <g id="타원_1184" class="cls-3" transform="translate(11 9.5)">
        <circle cx="1" cy="1" r="1" class="cls-4"/>
        <circle cx="1" cy="1" r=".5" class="cls-1"/>
    </g>
    <g id="타원_1185" class="cls-3" transform="translate(16 9.5)">
        <circle cx="1" cy="1" r="1" class="cls-4"/>
        <circle cx="1" cy="1" r=".5" class="cls-1"/>
    </g>
</svg>
