<svg xmlns="http://www.w3.org/2000/svg" id="icon-close-01" width="24" height="24" viewBox="0 0 24 24">
    <defs>
        <style>
            .cls-2{fill:#0f0f0f}
        </style>
    </defs>
    <path id="사각형_5898" fill="none" d="M0 0h24v24H0z"/>
    <path id="패스_3988" d="M18.542 19.292a.747.747 0 0 1-.529-.219L4.931 5.991a.75.75 0 0 1 1.06-1.061l13.082 13.081a.75.75 0 0 1-.531 1.281z" class="cls-2"/>
    <path id="패스_3990" d="M5.46 19.293a.751.751 0 0 1-.53-1.281L18.012 4.931a.75.75 0 1 1 1.06 1.06L5.991 19.073a.749.749 0 0 1-.531.22z" class="cls-2"/>
</svg>
