<svg xmlns="http://www.w3.org/2000/svg" id="icon-bell" width="24" height="24" viewBox="0 0 24 24">
    <defs>
        <style>
            .cls-1{fill:none}.cls-2{fill:#0f0f0f}
        </style>
    </defs>
    <path id="사각형_5906" d="M0 0h24v24H0z" class="cls-1"/>
    <path id="사각형_5907" d="M2 2h20v20H2z" class="cls-1"/>
    <g id="사각형_1698">
        <g id="그룹_1931">
            <path id="패스_3981" d="M12 1.5a9 9 0 0 1 9 9v8H3v-8a9 9 0 0 1 9-9z" class="cls-1"/>
        </g>
        <g id="그룹_1932">
            <path id="패스_3982" d="M20.124 18.5H3.876A.877.877 0 0 1 3 17.624V10.5a9 9 0 0 1 18 0v7.124a.877.877 0 0 1-.876.876zM4.5 17h15v-6.5a7.5 7.5 0 0 0-15 0z" class="cls-2"/>
        </g>
    </g>
    <g id="사각형_1699">
        <g id="그룹_1933">
            <path id="패스_3983" fill="#fff" d="M1.75 17h20.5a.75.75 0 0 1 .75.75.75.75 0 0 1-.75.75H1.75a.75.75 0 0 1-.75-.75.75.75 0 0 1 .75-.75z"/>
        </g>
        <g id="그룹_1934">
            <path id="패스_3984" d="M22.25 18.5H1.75a.75.75 0 0 1 0-1.5h20.5a.75.75 0 0 1 0 1.5z" class="cls-2"/>
        </g>
    </g>
    <g id="빼기_3">
        <g id="그룹_1935">
            <path id="패스_3985" d="M12 22.5a4 4 0 0 1-3.77-5.344v1.038h1.288a2.417 2.417 0 0 0-.018.306 2.5 2.5 0 0 0 5 0 2.617 2.617 0 0 0-.018-.306h1.506c.008.106.012.209.012.306a4 4 0 0 1-4 4z" class="cls-1"/>
        </g>
        <g id="그룹_1936">
            <path id="패스_3986" d="M12 22.5a4 4 0 0 1-3.77-5.344v1.038h1.288a2.5 2.5 0 1 0 4.982.306 2.554 2.554 0 0 0-.018-.306h1.506c.008.106.012.209.012.306a4.005 4.005 0 0 1-4 4z" class="cls-2"/>
        </g>
    </g>
</svg>
