<svg xmlns="http://www.w3.org/2000/svg" width="16" height="19" viewBox="0 0 16 19">
    <g>
        <path fill="#2bd3c6" d="M8-2l8 3.071v9.212c0 .848-.976 4.226-8 6.717-7.066-2.491-8-5.869-8-6.717V1.071z" transform="translate(-184 -510.162) translate(184 512.162)"/>
        <path fill="#fff" d="M10.01 6.949a.965.965 0 0 0-.887.49c-.347.591-1.4 2.4-1.637 2.8a.526.526 0 0 0-.046.126.514.514 0 0 0-.047-.128C7.161 9.84 6.139 8.1 5.766 7.461a.957.957 0 0 0-.9-.514.982.982 0 0 0-1.021.891c-.405 2.55-.637 4.692-1.492 4.692a.593.593 0 0 1-.527-.934c.279-.516.418-1.019-.268-1.367a.886.886 0 0 0-1 .175 2.4 2.4 0 0 0 1.832 3.972c1.865 0 2.7-1.079 3.079-3.838.191.421.584 1.5.966 2.484a.949.949 0 0 0 .882.61h.7c0-.583.036-2.325.991-2.573.988-.257 1.579.892.508 1.669a4.354 4.354 0 0 0-.891.9h1.385a.945.945 0 0 0 .99-.888v-4.9a.945.945 0 0 0-.991-.891" transform="translate(-184 -510.162) translate(186.499 509.216)"/>
    </g>
</svg>
