<svg xmlns="http://www.w3.org/2000/svg" width="60" height="60" viewBox="0 0 60 60">
    <defs>
        <style>
            .cls-3{fill:#0f0f0f}
        </style>
    </defs>
    <g id="ic_donation" transform="translate(-9 -578)">
        <path id="Rectangle_7728" fill="none" d="M0 0H60V60H0z" transform="translate(9 578)"/>
        <path id="Union_126" stroke="rgba(0,0,0,0)" stroke-miterlimit="10" d="M2956.859 20433.516c-.621-.518-1.174-.984-1.718-1.432a31.926 31.926 0 0 1-3.615-3.271 5.272 5.272 0 0 1-1.523-3.533 4.387 4.387 0 0 1 1.108-2.984 4.185 4.185 0 0 1 .708-.609 3.937 3.937 0 0 1 5.472 1.045c.021.021.041.053.062.078a1.056 1.056 0 0 1 .067-.094 3.862 3.862 0 0 1 .605-.691 3.941 3.941 0 0 1 5.564.271h.005a4.416 4.416 0 0 1 1.108 2.975 5.3 5.3 0 0 1-1.528 3.543 31.637 31.637 0 0 1-3.615 3.277c-.538.441-1.092.908-1.692 1.41a.812.812 0 0 1-.518.2.757.757 0 0 1-.49-.185zm-4.61-10.227a2.9 2.9 0 0 0-.728 1.971c0 1.881 1.825 3.395 4.595 5.682.4.334.81.672 1.236 1.025.426-.354.831-.691 1.231-1.02 2.769-2.293 4.6-3.807 4.6-5.684a2.926 2.926 0 0 0-.728-1.975 2.464 2.464 0 0 0-.461-.395 2.41 2.41 0 0 0-3.333.684 4.387 4.387 0 0 0-.59 1.133.76.76 0 0 1-.461.461.743.743 0 0 1-.585-.025.769.769 0 0 1-.395-.436 4.249 4.249 0 0 0-.58-1.123 2.4 2.4 0 0 0-2.01-1.088h-.128a2.383 2.383 0 0 0-1.663.79z" transform="translate(-2918.351 -19811.352)"/>
        <path id="Path_8896" d="M31 39H1a1 1 0 0 1-1-1V17a1 1 0 0 1 1-1h30a1 1 0 0 1 1 1v21a1 1 0 0 1-1 1zM1.5 37.5h29v-20h-29z" class="cls-3" transform="translate(23 588)"/>
        <path id="Subtraction_76" fill="#0f0f0f" stroke="rgba(0,0,0,0)" stroke-miterlimit="10" d="M3003.749 21027.5h-30c-.5 0-.75-.324-.75-.961l3.747-8.041.074-.148c.247-.494.423-.85.928-.85h4.155a6.989 6.989 0 0 0 .273 1.5h-3.863l-.084.174-3.414 6.824h28.143l-3.414-6.824-.084-.174h-3.86a7.017 7.017 0 0 0 .273-1.5h3.881c.554 0 .876.516 1.135 1l3.863 8a1 1 0 0 1-1.003 1z" transform="translate(-2949.886 -20422)"/>
        <path id="Path_8899" d="M20 12.75h-7.971l-.2-.148a2.84 2.84 0 0 1-.25-.175 7 7 0 1 1 9.181-.294 6.841 6.841 0 0 1-.565.468zm-7.486-1.5h6.979c.086-.069.17-.141.251-.217a5.5 5.5 0 1 0-7.23.217z" class="cls-3" transform="translate(23 588)"/>
        <path id="Path_8900" d="M16.042 4.453a.478.478 0 0 1 .291.095.549.549 0 0 1 .185.325l.392 1.666h.736l.4-1.785a.345.345 0 0 1 .185-.256.451.451 0 0 1 .3-.031.389.389 0 0 1 .255.161.378.378 0 0 1 .039.322l-.4 1.589h.56a.171.171 0 0 1 .154.073.314.314 0 0 1 .049.179.3.3 0 0 1-.049.172.171.171 0 0 1-.154.073H18.3l-.511 2.058a.535.535 0 0 1-.192.326.476.476 0 0 1-.568 0 .542.542 0 0 1-.192-.34l-.476-2.044h-.672l-.518 2.058a.529.529 0 0 1-.2.326.516.516 0 0 1-.287.094.5.5 0 0 1-.284-.094.535.535 0 0 1-.192-.333L13.7 7.036h-.686a.171.171 0 0 1-.154-.073.3.3 0 0 1-.049-.172.314.314 0 0 1 .049-.179.171.171 0 0 1 .154-.073h.567l-.388-1.589a.381.381 0 0 1 .038-.322.4.4 0 0 1 .263-.161.488.488 0 0 1 .3.024.352.352 0 0 1 .189.263l.4 1.785h.763l.42-1.666a.561.561 0 0 1 .178-.325.468.468 0 0 1 .298-.095zm-1.3 3.689l.28-1.106h-.525zm1.078-1.6h.427l-.2-.882zm1.47 1.6l.245-1.1h-.5z" class="cls-3" transform="translate(23 588.147)"/>
        <path id="Path_8901" fill="none" stroke="#0f0f0f" stroke-width="0.2px" d="M16.042 4.453a.478.478 0 0 1 .291.095.549.549 0 0 1 .185.325l.392 1.666h.736l.4-1.785a.345.345 0 0 1 .185-.256.451.451 0 0 1 .3-.031.389.389 0 0 1 .255.161.378.378 0 0 1 .039.322l-.4 1.589h.56a.171.171 0 0 1 .154.073.314.314 0 0 1 .049.179.3.3 0 0 1-.049.172.171.171 0 0 1-.154.073H18.3l-.511 2.058a.535.535 0 0 1-.192.326.476.476 0 0 1-.568 0 .542.542 0 0 1-.192-.34l-.476-2.044h-.672l-.518 2.058a.529.529 0 0 1-.2.326.516.516 0 0 1-.287.094.5.5 0 0 1-.284-.094.535.535 0 0 1-.192-.333L13.7 7.036h-.686a.171.171 0 0 1-.154-.073.3.3 0 0 1-.049-.172.314.314 0 0 1 .049-.179.171.171 0 0 1 .154-.073h.567l-.388-1.589a.381.381 0 0 1 .038-.322.4.4 0 0 1 .263-.161.488.488 0 0 1 .3.024.352.352 0 0 1 .189.263l.4 1.785h.763l.42-1.666a.561.561 0 0 1 .178-.325.468.468 0 0 1 .298-.095zm-1.3 3.689l.28-1.106h-.525zm1.078-1.6h.427l-.2-.882zm1.47 1.6l.245-1.1h-.5z" transform="translate(23 588.147)"/>
        <rect id="Rectangle_8551" width="14" height="1.5" class="cls-3" rx=".75" transform="translate(32 599.25)"/>
    </g>
</svg>
