<svg xmlns="http://www.w3.org/2000/svg" id="icon-close-02" width="40" height="40" viewBox="0 0 40 40">
    <defs>
        <style>
            .cls-2{fill:#0f0f0f}
        </style>
    </defs>
    <path id="패스_3991" fill="none" d="M0 0h40v40H0z"/>
    <path id="패스_3994" d="M27.771 28.769a1 1 0 0 1-.707-.29L11.507 12.922a1 1 0 0 1 0-1.414 1 1 0 0 1 1.414 0l15.557 15.555a1 1 0 0 1-.707 1.706zM11.86 11.861l.353.355z" class="cls-2"/>
    <path id="패스_3996" d="M12.214 28.772a1 1 0 0 1-.706-1.708l15.555-15.555a1 1 0 0 1 1.415 1.414L12.921 28.479a.989.989 0 0 1-.706.293zm15.91-16.91l-.354.353z" class="cls-2"/>
</svg>
