<svg xmlns="http://www.w3.org/2000/svg" width="60" height="60" viewBox="0 0 60 60">
    <defs>
        <style>
            .cls-1,.cls-2{fill:none}.cls-3{fill:#0ac3bc}.cls-5,.cls-6{stroke:none}.cls-6{fill:#0ac3bc}
        </style>
    </defs>
    <g id="ic_FAQ_hover" transform="translate(-154 -214)">
        <path id="패스_9364" d="M0 0h60v60H0z" class="cls-1" transform="translate(154 214)"/>
        <path id="패스_9363" d="M0 0h60v60H0z" class="cls-1" transform="translate(154 214)"/>
        <g id="패스_9362" class="cls-2">
            <path d="M17919 10612a2 2 0 0 1-2-2v-34a2 2 0 0 1 2-2h4a2 2 0 0 1 2-2h12a2 2 0 0 1 2 2h4a2 2 0 0 1 2 2v19.319a6.5 6.5 0 0 1 0 12v2.681a2 2 0 0 1-2 2z" class="cls-5" transform="translate(-17747 -10349)"/>
            <path d="M17943 10610.501c.275 0 .5-.225.5-.5v-3.679l.922-.385c1.871-.779 3.078-2.59 3.078-4.616 0-2.025-1.207-3.838-3.078-4.617l-.922-.385V10576c0-.275-.225-.5-.5-.5h-5.5v-1.5c0-.275-.225-.5-.5-.5h-12c-.275 0-.5.225-.5.5v1.5h-5.5c-.275 0-.5.225-.5.5v34.001c0 .275.225.5.5.5h24m0 1.5h-24c-1.104 0-2-.897-2-2V10576c0-1.104.896-2 2-2h4c0-1.104.896-2 2-2h12c1.104 0 2 .896 2 2h4c1.104 0 2 .896 2 2v19.32c2.35.979 4 3.296 4 6.001 0 2.704-1.65 5.022-4 6.001v2.679c0 1.103-.896 2-2 2z" class="cls-6" transform="translate(-17747 -10349)"/>
        </g>
        <path id="패스_9361" d="M.75 0h12.5a.75.75 0 0 1 0 1.5H.75a.75.75 0 0 1 0-1.5z" class="cls-3" transform="translate(176 249.571)"/>
        <path id="패스_9927" d="M.88 0h14.661a.823.823 0 0 1 .88.75.823.823 0 0 1-.88.75H.88A.823.823 0 0 1 0 .75.823.823 0 0 1 .88 0z" class="cls-3" transform="translate(176 245.071)"/>
        <path id="패스_9360" d="M.75 0h8.5a.75.75 0 0 1 0 1.5H.75a.75.75 0 0 1 0-1.5z" class="cls-3" transform="translate(176 254.071)"/>
        <g id="패스_9359" fill="#fff">
            <path d="M.75 5.834c-.138 0-.25-.112-.25-.25V.75C.5.612.612.5.75.5S1 .612 1 .75v4.834c0 .138-.112.25-.25.25z" class="cls-5" transform="translate(198.569 256.489) rotate(-45)"/>
            <path d="M.75 0c.414 0 .75.336.75.75v4.834c0 .414-.336.75-.75.75S0 5.998 0 5.584V.75C0 .336.336 0 .75 0z" class="cls-6" transform="translate(198.569 256.489) rotate(-45)"/>
        </g>
        <g id="패스_9358" class="cls-2">
            <path d="M6.5 0A6.5 6.5 0 1 1 0 6.5 6.5 6.5 0 0 1 6.5 0z" class="cls-5" transform="translate(189 245.821)"/>
            <path d="M6.5 1.5c-2.757 0-5 2.243-5 5s2.243 5 5 5 5-2.243 5-5-2.243-5-5-5m0-1.5C10.09 0 13 2.91 13 6.5S10.09 13 6.5 13 0 10.09 0 6.5 2.91 0 6.5 0z" class="cls-6" transform="translate(189 245.821)"/>
        </g>
        <g id="패스_9357" class="cls-2">
            <path d="M2 0h12a2 2 0 0 1 2 2v1a2 2 0 0 1-2 2H2a2 2 0 0 1-2-2V2a2 2 0 0 1 2-2z" class="cls-5" transform="translate(176 223)"/>
            <path d="M2 1.5c-.276 0-.5.224-.5.5v1c0 .276.224.5.5.5h12c.276 0 .5-.224.5-.5V2c0-.276-.224-.5-.5-.5H2M2 0h12c1.105 0 2 .895 2 2v1c0 1.105-.895 2-2 2H2C.895 5 0 4.105 0 3V2C0 .895.895 0 2 0z" class="cls-6" transform="translate(176 223)"/>
        </g>
        <path id="패스_9957" d="M7.68-.11a1.52 1.52 0 0 1-1.14.52 1.293 1.293 0 0 1-.99-.49 3.523 3.523 0 0 0 2.5-3.42 3.622 3.622 0 0 0-3.83-3.62A3.622 3.622 0 0 0 .39-3.5 3.573 3.573 0 0 0 3.66.09a3.653 3.653 0 0 0 2.85 1.52A2.371 2.371 0 0 0 8.4.75zM2.03-3.5a2.135 2.135 0 0 1 2.19-2.24A2.135 2.135 0 0 1 6.41-3.5a2.135 2.135 0 0 1-2.19 2.24A2.135 2.135 0 0 1 2.03-3.5z" class="cls-3" transform="translate(180 240)"/>
    </g>
</svg>
