<svg xmlns="http://www.w3.org/2000/svg" id="ic_myphone_s" width="24" height="24" viewBox="0 0 24 24">
    <defs>
        <style>
            .cls-1{fill:none}
        </style>
    </defs>
    <path id="Rectangle_5715" d="M0 0H24V24H0z" class="cls-1"/>
    <path id="Rectangle_5716" d="M0 0H18V18H0z" class="cls-1" transform="translate(3 3)"/>
    <g id="Subtraction_27" fill="#0f0f0f" stroke="none">
        <path d="M21173.998 14387.499h-9.996c-1.38 0-2.504-1.12-2.504-2.497v-16.003c0-1.377 1.123-2.497 2.504-2.497h9.996c1.38 0 2.504 1.12 2.504 2.497v16.003c0 1.377-1.123 2.497-2.504 2.497zm-6.5-4.002c-.55 0-1 .451-1 1.005 0 .552.45 1 1 1h3.004c.55 0 .998-.448.998-1 0-.554-.447-1.005-.998-1.005h-3.004z" transform="translate(-21157 -14365)"/>
        <path d="M21173.998 14386.999c1.106 0 2.004-.895 2.004-1.997v-16.003c0-1.102-.898-1.997-2.004-1.997h-9.996c-1.106 0-2.004.895-2.004 1.997v16.003c0 1.102.898 1.997 2.004 1.997h9.996m-6.5-4.002h3.004c.826 0 1.498.675 1.498 1.505 0 .827-.672 1.5-1.498 1.5h-3.004c-.826 0-1.5-.673-1.5-1.5 0-.83.674-1.505 1.5-1.505m6.5 5.002h-9.996c-1.656 0-3.004-1.345-3.004-2.997v-16.003c0-1.652 1.348-2.997 3.004-2.997h9.996c1.656 0 3.004 1.345 3.004 2.997v16.003c0 1.652-1.348 2.997-3.004 2.997zm-6.5-4.002c-.271 0-.5.232-.5.505 0 .275.225.5.5.5h3.004c.275 0 .498-.225.498-.5 0-.278-.223-.505-.498-.505h-3.004z" transform="translate(-21157 -14365)"/>
    </g>
</svg>
