<svg xmlns="http://www.w3.org/2000/svg" id="btn_share" width="30" height="30" viewBox="0 0 30 30">
    <defs>
        <style>
            .cls-1,.cls-2{fill:none}.cls-2{stroke:#0f0f0f}
        </style>
    </defs>
    <path id="사각형_6360" d="M0 0h30v30H0z" class="cls-1"/>
    <path id="패스_9401" d="M14.338 15.125l9.546-9.546a.25.25 0 0 1 .353 0 .25.25 0 0 1 0 .354l-9.546 9.546a.25.25 0 0 1-.353 0 .25.25 0 0 1 0-.354z" class="cls-2" transform="translate(.135)"/>
    <path id="패스_2274" fill="none" stroke="#0f0f0f" stroke-linecap="round" stroke-linejoin="round" stroke-width="1.5px" d="M18.592 4.758H25.2v6.412"/>
    <path id="패스_9403" d="M9.75 4.5h2.5a.25.25 0 0 1 .25.25.25.25 0 0 1-.25.25h-2.5a.25.25 0 0 1-.25-.25.25.25 0 0 1 .25-.25z" class="cls-2"/>
    <path id="패스_9405" d="M25.25 17.5a.25.25 0 0 1 .25.25v2.5a.25.25 0 0 1-.25.25.25.25 0 0 1-.25-.25v-2.5a.25.25 0 0 1 .25-.25z" class="cls-2"/>
    <path id="패스_9406" d="M24 25.994H6a2 2 0 0 1-2-2v-18a2 2 0 0 1 2-2h5.858V5.5H6a.5.5 0 0 0-.5.5v18a.5.5 0 0 0 .5.5h18a.5.5 0 0 0 .5-.5v-4.859H26V24a2 2 0 0 1-2 1.994z" class="cls-1"/>
    <path id="패스_9407" fill="#0f0f0f" d="M24 25.994H6a2 2 0 0 1-2-2v-18a2 2 0 0 1 2-2h5.857V5.5H6a.5.5 0 0 0-.5.5v18a.5.5 0 0 0 .5.5h18a.5.5 0 0 0 .5-.5v-4.86H26v4.854a2 2 0 0 1-2 2z"/>
</svg>
