<svg xmlns="http://www.w3.org/2000/svg" width="14" height="14" viewBox="0 0 14 14">
    <g fill="none">
        <path d="M0 0H14V14H0z" transform="translate(-1.797 -2.174) translate(1.797 2.174)"/>
        <g>
            <path d="M3.977 12.729V6.05L.006 1.454A1 1 0 0 1 .763-.2h9.99a1 1 0 0 1 .757 1.654L7.567 6.017v4.843a.469.469 0 0 1-.188.38L5.074 13.1a.714.714 0 0 1-.45.153.593.593 0 0 1-.647-.524z" transform="translate(-1.797 -2.174) translate(3.039 2.674)"/>
            <path fill="#0f0f0f" d="M4.977 11.89l1.59-1.28V5.644l.243-.281L10.753.8H.763l3.97 4.596.244.281v6.212m-.353 1.359c-.33 0-.647-.207-.647-.52V6.05L.007 1.454c-.56-.648-.1-1.655.756-1.655h9.99c.856 0 1.317 1.007.757 1.655L7.567 6.017v4.843c.005.137-.058.275-.188.38l-2.305 1.855c-.13.105-.292.153-.45.153z" transform="translate(-1.797 -2.174) translate(3.039 2.674)"/>
        </g>
    </g>
</svg>
