<svg xmlns="http://www.w3.org/2000/svg" width="60" height="60" viewBox="0 0 60 60">
    <defs>
        <style>
            .cls-1,.cls-2{fill:none}.cls-4{fill:#0ac3bc}.cls-5,.cls-6{stroke:none}.cls-6{fill:#0ac3bc}
        </style>
    </defs>
    <g id="ic_mintitcare_samsungfire_s" transform="translate(-154 -214)">
        <path id="사각형_7726" d="M0 0H60V60H0z" class="cls-1" transform="translate(154 214)"/>
        <path id="사각형_8552" d="M0 0H60V60H0z" class="cls-1" transform="translate(154 214)"/>
        <g id="합치기_143" class="cls-2">
            <path d="M-11258-20863a4.005 4.005 0 0 1-4-4v-16.42l1.758-.357 2.15.834 2.691-.414 2.587.572-1.327-2.109-2.739.225-2.124-1.152-3 .43v-9.6a4 4 0 0 1 4-4h11v-2.33l7-2.67 7 2.67v8c0 .74-.85 3.672-7 5.834v20.5a4.007 4.007 0 0 1-4 4z" class="cls-5" transform="translate(11435.001 21125)"/>
            <path d="M-11244.003-20864.502c1.38 0 2.503-1.123 2.503-2.504v-21.558l1.002-.354c2.874-1.01 4.35-2.146 5.082-2.922.797-.846.905-1.451.914-1.515v-6.944l-5.498-2.097-5.499 2.097V-20897.502H-11258c-1.377 0-2.498 1.123-2.498 2.502v7.871l1.283-.183.491-.07.437.236 1.731.939 2.294-.188.908-.076.485.772 1.327 2.11 1.912 3.038-3.506-.775-2.312-.512-2.413.371-.397.06-.374-.144-1.74-.676-.126.028v15.193c0 1.381 1.121 2.504 2.498 2.504h13.997m0 1.5H-11258c-2.204 0-3.998-1.795-3.998-4.004v-16.42l1.758-.357 2.15.834 2.692-.414 2.586.572-1.327-2.11-2.739.225-2.124-1.152-2.996.43v-9.602c0-2.209 1.794-4.002 3.998-4.002h11.001v-2.33l6.999-2.67 6.998 2.67v7.996c0 .74-.85 3.672-6.998 5.834v20.496c0 2.21-1.795 4.004-4.003 4.004z" class="cls-6" transform="translate(11435.001 21125)"/>
        </g>
        <g id="패스_9921" class="cls-2">
            <path d="M7-2l7 2.667v8c0 .736-.854 3.67-7 5.833-6.182-2.163-7-5.1-7-5.833v-8z" class="cls-5" transform="translate(188 223)"/>
            <path d="M7-.395L1.5 1.7v6.95c.008.059.109.664.898 1.505.685.732 2.033 1.784 4.6 2.749 2.546-.963 3.894-2.012 4.584-2.742.798-.844.908-1.45.918-1.515V1.7L7-.395M7-2l7 2.667v8c0 .736-.854 3.67-7 5.833-6.182-2.163-7-5.097-7-5.833v-8L7-2z" class="cls-6" transform="translate(188 223)"/>
        </g>
        <path id="패스_9316" fill="none" stroke="#0ac3bc" stroke-linecap="round" stroke-linejoin="round" stroke-width="1.5px" d="M-17734.543-10335.189l2.053 2.213 2.391-2.121 1.557-1.379" transform="translate(17926.543 10564.477)"/>
        <rect id="사각형_9605" width="5" height="1.5" class="cls-4" rx=".75" transform="translate(181.5 255.5)"/>
        <rect id="사각형_9612" width="5" height="1.5" class="cls-4" rx=".2" transform="rotate(25 -445.564 493.069)"/>
        <rect id="사각형_9613" width="5" height="1.5" class="cls-4" rx=".2" transform="translate(165 239)"/>
        <rect id="사각형_9614" width="5" height="1.5" class="cls-4" rx=".2" transform="rotate(-25 632.436 -252.582)"/>
    </g>
</svg>
