<svg xmlns="http://www.w3.org/2000/svg" width="30" height="30" viewBox="0 0 30 30">
    <defs>
        <style>
            .cls-1{fill:none}.cls-2{fill:#fff}.cls-3,.cls-4{stroke:none}.cls-4{fill:#0f0f0f}
        </style>
    </defs>
    <g id="btn_search_delete_w" transform="translate(-4.056 -3.72)">
        <path id="사각형_6251" d="M0 0H26V26H0z" class="cls-1" transform="translate(6.056 5.72)"/>
        <path id="사각형_6252" d="M0 0H30V30H0z" class="cls-1" transform="translate(4.056 3.72)"/>
        <g id="패스_3852" class="cls-2">
            <path d="M2.251 27.59c-.293 0-.497-.17-.497-.324L1.748.913c0-.092.069-.162.11-.197.097-.08.238-.126.386-.126.294 0 .498.17.498.324l.006 26.353c0 .091-.07.162-.11.196-.098.08-.239.127-.387.127z" class="cls-3" transform="rotate(-45 16.18 -3.919)"/>
            <path d="M2.244.09c.551 0 .998.369.998.824l.006 26.352c0 .455-.446.824-.997.824-.55 0-.997-.369-.997-.824L1.248.913c0-.455.446-.823.996-.823z" class="cls-4" transform="rotate(-45 16.18 -3.919)"/>
        </g>
        <g id="패스_3853" class="cls-2">
            <path d="M.956 27.464c-.148 0-.29-.046-.387-.126-.04-.034-.11-.105-.11-.197L.465.788c0-.153.204-.324.497-.324.148 0 .29.047.387.127.04.034.11.105.11.197L1.453 27.14c0 .153-.204.323-.497.323z" class="cls-3" transform="rotate(45 4.203 38.223)"/>
            <path d="M.962-.036c.55 0 .997.369.997.824L1.953 27.14c0 .455-.446.823-.997.823-.55 0-.997-.368-.997-.823L-.035.788c0-.455.446-.824.997-.824z" class="cls-4" transform="rotate(45 4.203 38.223)"/>
        </g>
    </g>
</svg>
