<svg xmlns="http://www.w3.org/2000/svg" id="btn_mypage" width="24" height="24" viewBox="0 0 24 24">
    <defs>
        <style>
            .cls-1,.cls-2{fill:none}.cls-2{stroke:#0f0f0f;stroke-width:1.5px}.cls-3{stroke:none}
        </style>
    </defs>
    <path id="사각형_5906" d="M0 0H24V24H0z" class="cls-1"/>
    <path id="사각형_5907" d="M0 0H20V20H0z" class="cls-1" transform="translate(2 1)"/>
    <g id="타원_431" class="cls-2" transform="translate(7.5 2)">
        <circle cx="4.5" cy="4.5" r="4.5" class="cls-3"/>
        <circle cx="4.5" cy="4.5" r="3.75" class="cls-1"/>
    </g>
    <g id="사각형_5916" class="cls-2">
        <path d="M9.375 0h1.25A9.375 9.375 0 0 1 20 9.375a.625.625 0 0 1-.625.625H.625A.625.625 0 0 1 0 9.375 9.375 9.375 0 0 1 9.375 0z" class="cls-3" transform="translate(2 12)"/>
        <path d="M8.9.75h2.2a8.152 8.152 0 0 1 8.15 8.15.348.348 0 0 1-.348.348H1.1A.348.348 0 0 1 .75 8.9 8.152 8.152 0 0 1 8.9.75z" class="cls-1" transform="translate(2 12)"/>
    </g>
</svg>
