<svg xmlns="http://www.w3.org/2000/svg" id="btn_delete" width="24" height="24" viewBox="0 0 24 24">
    <defs>
        <style>
            .cls-1{fill:none}.cls-2{fill:#707070}
        </style>
    </defs>
    <path id="사각형_7810" d="M0 0H24V24H0z" class="cls-1"/>
    <path id="패스_4005" d="M2.75 5h18.5a.75.75 0 0 1 .75.75.75.75 0 0 1-.75.75H2.75A.75.75 0 0 1 2 5.75.75.75 0 0 1 2.75 5z" class="cls-2"/>
    <path id="사각형_7811" d="M0 0H18V18H0z" class="cls-1" transform="translate(3 3)"/>
    <path id="패스_4007" d="M14.5 6.5h-5A1.5 1.5 0 0 1 8 5V3.5a1 1 0 0 1 1-1h6a1 1 0 0 1 1 1V5a1.5 1.5 0 0 1-1.5 1.5zM9.5 4v1h5V4z" class="cls-2"/>
    <path id="패스_4009" d="M5.6 6.5l1.828 13h9.142l1.83-13H5.6M4.889 5h14.222a.889.889 0 0 1 .889.889l-2 14.222a.889.889 0 0 1-.889.889H6.889A.889.889 0 0 1 6 20.111L4 5.889A.889.889 0 0 1 4.889 5z" class="cls-2"/>
    <path id="사각형_7813" d="M0 0H1.5V8H0z" class="cls-2" transform="translate(9 9)"/>
    <path id="사각형_7815" d="M0 0H1.5V8H0z" class="cls-2" transform="translate(13.5 9)"/>
</svg>
