<svg xmlns="http://www.w3.org/2000/svg" id="icon-donation-active" width="60" height="60" viewBox="0 0 60 60">
    <defs>
        <style>
            .cls-2{fill:#0ac3bc}
        </style>
    </defs>
    <path id="Rectangle_7728" fill="none" d="M0 0h60v60H0z"/>
    <path id="Union_126" d="M29.508 44.164c-.621-.518-1.174-.984-1.718-1.432a31.741 31.741 0 0 1-3.615-3.271 5.265 5.265 0 0 1-1.523-3.533 4.391 4.391 0 0 1 1.108-2.985 4.2 4.2 0 0 1 .708-.609 3.937 3.937 0 0 1 5.469 1.041c.021.021.041.053.062.078a.889.889 0 0 1 .067-.094 3.793 3.793 0 0 1 .6-.691 3.942 3.942 0 0 1 5.564.271 4.412 4.412 0 0 1 1.108 2.975 5.3 5.3 0 0 1-1.528 3.543 31.624 31.624 0 0 1-3.615 3.277c-.538.442-1.092.908-1.692 1.41a.816.816 0 0 1-.518.2.756.756 0 0 1-.49-.186zM24.9 33.938a2.891 2.891 0 0 0-.728 1.97c0 1.881 1.825 3.4 4.595 5.682.4.334.81.672 1.236 1.025.426-.353.831-.691 1.231-1.019 2.769-2.293 4.6-3.807 4.6-5.684a2.921 2.921 0 0 0-.728-1.974 2.408 2.408 0 0 0-3.794.289 4.377 4.377 0 0 0-.59 1.132.76.76 0 0 1-.461.461.739.739 0 0 1-.585-.025.773.773 0 0 1-.4-.436 4.276 4.276 0 0 0-.58-1.123 2.4 2.4 0 0 0-2.01-1.088h-.128a2.385 2.385 0 0 0-1.658.79z" class="cls-2"/>
    <path id="Path_8896" d="M45 49H15a1 1 0 0 1-1-1V27a1 1 0 0 1 1-1h30a1 1 0 0 1 1 1v21a1 1 0 0 1-1 1zm-29.5-1.5h29v-20h-29z" class="cls-2"/>
    <path id="Subtraction_76" d="M44.863 27.5h-30c-.5 0-.75-.324-.75-.961L17.86 18.5l.074-.148c.247-.5.423-.85.928-.85h4.155A7.013 7.013 0 0 0 23.29 19h-3.863l-.084.174L15.929 26h28.143l-3.414-6.824-.084-.176h-3.86a7.013 7.013 0 0 0 .273-1.5h3.881c.554 0 .876.516 1.135 1l3.863 8a1 1 0 0 1-1 1z" class="cls-2"/>
    <path id="Path_8899" d="M34 22.75h-7.971l-.2-.148a2.872 2.872 0 0 1-.25-.175 7 7 0 1 1 9.848-1 6.809 6.809 0 0 1-1.232 1.173zm-7.486-1.5h6.979c.086-.069.17-.141.251-.217a5.5 5.5 0 1 0-7.773-.294 5.582 5.582 0 0 0 .543.511z" class="cls-2"/>
    <path id="Path_8900" d="M30.042 14.6a.476.476 0 0 1 .291.095.547.547 0 0 1 .185.325l.392 1.666h.736l.4-1.785a.346.346 0 0 1 .185-.256.456.456 0 0 1 .3-.031.388.388 0 0 1 .255.161.377.377 0 0 1 .039.322l-.4 1.589h.56a.171.171 0 0 1 .154.073.314.314 0 0 1 .049.179.3.3 0 0 1-.049.172.171.171 0 0 1-.154.073H32.3l-.511 2.058a.534.534 0 0 1-.192.326.477.477 0 0 1-.568 0 .546.546 0 0 1-.192-.34l-.476-2.044h-.672l-.518 2.058a.53.53 0 0 1-.2.326.517.517 0 0 1-.287.094.5.5 0 0 1-.284-.094.536.536 0 0 1-.192-.333l-.508-2.051h-.686a.171.171 0 0 1-.154-.073.3.3 0 0 1-.049-.172.314.314 0 0 1 .049-.179.171.171 0 0 1 .154-.073h.567l-.388-1.586a.38.38 0 0 1 .038-.322.4.4 0 0 1 .263-.161.49.49 0 0 1 .3.024.354.354 0 0 1 .189.263l.4 1.785h.763l.42-1.666a.565.565 0 0 1 .178-.325.472.472 0 0 1 .298-.098zm-1.3 3.689l.28-1.106H28.5zm1.078-1.6h.427l-.2-.882zm1.47 1.6l.245-1.1h-.5z" class="cls-2"/>
    <path id="Path_8901" fill="none" stroke="#0ac3bc" stroke-width="0.2px" d="M30.042 14.6a.476.476 0 0 1 .291.095.547.547 0 0 1 .185.325l.392 1.666h.736l.4-1.785a.346.346 0 0 1 .185-.256.456.456 0 0 1 .3-.031.388.388 0 0 1 .255.161.377.377 0 0 1 .039.322l-.4 1.589h.56a.171.171 0 0 1 .154.073.314.314 0 0 1 .049.179.3.3 0 0 1-.049.172.171.171 0 0 1-.154.073H32.3l-.511 2.058a.534.534 0 0 1-.192.326.477.477 0 0 1-.568 0 .546.546 0 0 1-.192-.34l-.476-2.044h-.672l-.518 2.058a.53.53 0 0 1-.2.326.517.517 0 0 1-.287.094.5.5 0 0 1-.284-.094.536.536 0 0 1-.192-.333l-.508-2.051h-.686a.171.171 0 0 1-.154-.073.3.3 0 0 1-.049-.172.314.314 0 0 1 .049-.179.171.171 0 0 1 .154-.073h.567l-.388-1.586a.38.38 0 0 1 .038-.322.4.4 0 0 1 .263-.161.49.49 0 0 1 .3.024.354.354 0 0 1 .189.263l.4 1.785h.763l.42-1.666a.565.565 0 0 1 .178-.325.472.472 0 0 1 .298-.098zm-1.3 3.689l.28-1.106H28.5zm1.078-1.6h.427l-.2-.882zm1.47 1.6l.245-1.1h-.5z"/>
    <path id="Rectangle_8551" d="M23.75 21.25h12.5A.75.75 0 0 1 37 22a.75.75 0 0 1-.75.75h-12.5A.75.75 0 0 1 23 22a.75.75 0 0 1 .75-.75z" class="cls-2"/>
</svg>
