<svg xmlns="http://www.w3.org/2000/svg" id="ic_home" width="24" height="24" viewBox="0 0 24 24">
    <defs>
        <style>
            .cls-1{fill:none}
        </style>
    </defs>
    <path id="Rectangle_5715" d="M0 0H24V24H0z" class="cls-1"/>
    <path id="Rectangle_5716" d="M0 0H20V20H0z" class="cls-1" transform="translate(2 2)"/>
    <g id="Subtraction_7" fill="none" stroke="none">
        <path d="M-7588 19609h-6.693a.494.494 0 0 1-.5-.5v-5.561a.3.3 0 0 0-.3-.3h-3.022a.3.3 0 0 0-.3.3v5.561a.494.494 0 0 1-.5.5H-7606a.494.494 0 0 1-.5-.5v-12.967a1.1 1.1 0 0 1 .521-.881l8.283-5.443a1.26 1.26 0 0 1 .7-.207 1.26 1.26 0 0 1 .7.207l8.282 5.443a1.11 1.11 0 0 1 .521.994v12.854a.5.5 0 0 1-.507.5z" transform="translate(7609.002 -19587)"/>
        <path fill="#0f0f0f" d="M-7588.5 19608V19595.617l.002-.027c0-.016.003-.053-.077-.108l-8.279-5.441c-.042-.027-.09-.041-.146-.041-.054 0-.103.014-.146.043l-8.283 5.443c-.056.037-.068.063-.071.078V19608h5.687V19602.937c0-.716.583-1.3 1.3-1.3h3.022c.717 0 1.3.584 1.3 1.3v5.063h5.691m.499 1h-6.693c-.279 0-.497-.22-.497-.502V19602.938c0-.17-.132-.301-.3-.301h-3.022c-.166 0-.3.134-.3.3v5.561c0 .281-.218.502-.497.502h-6.693c-.279 0-.497-.22-.497-.502V19595.531c.016-.357.2-.67.521-.88l8.283-5.444c.204-.135.445-.207.696-.207.252 0 .493.072.697.207l8.282 5.443c.353.237.543.598.521.995v12.853c0 .275-.225.502-.501.502z" transform="translate(7609.002 -19587)"/>
    </g>
</svg>
