<svg xmlns="http://www.w3.org/2000/svg" id="icon-close-03" width="28" height="28" viewBox="0 0 28 28">
    <defs>
        <style>
            .cls-2{fill:#0f0f0f}
        </style>
    </defs>
    <path id="패스_3997" fill="none" d="M0 0h28v28H0z"/>
    <path id="패스_4000" d="M24.213 24.965a.747.747 0 0 1-.53-.22L3.53 4.593a.755.755 0 0 1 0-1.061.751.751 0 0 1 1.061 0l20.152 20.152a.751.751 0 0 1-.528 1.281z" class="cls-2"/>
    <path id="패스_4002" d="M4.06 24.964a.751.751 0 0 1-.53-1.281L23.683 3.53a.75.75 0 1 1 1.06 1.061L4.59 24.744a.748.748 0 0 1-.53.22z" class="cls-2"/>
</svg>
