<svg xmlns="http://www.w3.org/2000/svg" id="btn_lock" width="24" height="24" viewBox="0 0 24 24">
    <defs>
        <style>
            .cls-1,.cls-2{fill:none}.cls-2{stroke:#0f0f0f;stroke-width:1.5px}.cls-4{stroke:none}
        </style>
    </defs>
    <path id="사각형_6493" d="M0 0H24V24H0z" class="cls-1"/>
    <path id="사각형_6505" d="M0 0H12V12H0z" class="cls-1" transform="translate(3 3)"/>
    <g id="사각형_6508" class="cls-2" transform="translate(4 8.75)">
        <rect width="16" height="13" class="cls-4" rx="1"/>
        <rect width="14.5" height="11.5" x=".75" y=".75" class="cls-1" rx=".25"/>
    </g>
    <g id="사각형_6509" class="cls-2">
        <path d="M4.5 0A4.5 4.5 0 0 1 9 4.5V8H0V4.5A4.5 4.5 0 0 1 4.5 0z" class="cls-4" transform="translate(7.5 2.25)"/>
        <path d="M4.5.75A3.75 3.75 0 0 1 8.25 4.5v2.088a.662.662 0 0 1-.662.662H1.412a.662.662 0 0 1-.662-.662V4.5A3.75 3.75 0 0 1 4.5.75z" class="cls-1" transform="translate(7.5 2.25)"/>
    </g>
    <g id="사각형_6510" fill="#fff" stroke="#0f0f0f" transform="translate(11.25 13.5)">
        <rect width="1.5" height="4" class="cls-4" rx=".75"/>
        <rect width=".5" height="3" x=".5" y=".5" class="cls-1" rx=".25"/>
    </g>
</svg>
