<svg xmlns="http://www.w3.org/2000/svg" id="ic_chart_s" width="24" height="24" viewBox="0 0 24 24">
    <defs>
        <style>
            .cls-1{fill:none}
        </style>
    </defs>
    <path id="Rectangle_5715" d="M0 0H24V24H0z" class="cls-1"/>
    <path id="Rectangle_5716" d="M0 0H20V20H0z" class="cls-1" transform="translate(2 2)"/>
    <g id="Subtraction_26" fill="#fff" stroke="none">
        <path d="M21178.002 14385.501H21164c-1.377 0-2.498-1.123-2.498-2.503v-13.996c0-1.38 1.121-2.504 2.498-2.504h14.002c1.377 0 2.498 1.123 2.498 2.504v13.996c0 1.38-1.121 2.503-2.498 2.503zm-2.754-16c-.69 0-1.25.56-1.25 1.249v10.499c0 .689.56 1.249 1.25 1.249s1.25-.56 1.25-1.249v-10.499c0-.688-.56-1.249-1.25-1.249zm-4.248 4.997c-.688 0-1.248.563-1.248 1.255v5.496c0 .689.56 1.249 1.248 1.249.69 0 1.25-.56 1.25-1.249v-5.496c0-.692-.56-1.255-1.25-1.255zm-4.252-1.999c-.69 0-1.25.56-1.25 1.249v7.501c0 .689.56 1.249 1.25 1.249s1.25-.56 1.25-1.249v-7.501c0-.688-.56-1.249-1.25-1.249z" transform="translate(-21159 -14364)"/>
        <path d="M21178.002 14385.001c1.102 0 1.998-.898 1.998-2.003v-13.996c0-1.105-.896-2.004-1.998-2.004H21164c-1.102 0-1.998.9-1.998 2.004v13.996c0 1.105.896 2.003 1.998 2.003h14.002m-2.754-16c.965 0 1.75.784 1.75 1.749v10.499c0 .965-.785 1.749-1.75 1.749s-1.75-.784-1.75-1.749v-10.499c0-.965.785-1.749 1.75-1.749m-4.248 4.997c.965 0 1.75.787 1.75 1.755v5.496c0 .965-.785 1.749-1.75 1.749s-1.748-.784-1.748-1.749v-5.496c0-.968.783-1.755 1.748-1.755m-4.252-1.999c.965 0 1.75.784 1.75 1.749v7.501c0 .965-.785 1.749-1.75 1.749s-1.75-.784-1.75-1.749v-7.501c0-.965.785-1.749 1.75-1.749m11.254 14.002H21164c-1.652 0-2.998-1.347-2.998-3.003v-13.996c0-1.656 1.346-3.004 2.998-3.004h14.002c1.652 0 2.998 1.348 2.998 3.004v13.996c0 1.656-1.346 3.003-2.998 3.003zm-2.754-16c-.414 0-.75.336-.75.749v10.499c0 .413.336.749.75.749s.75-.336.75-.749v-10.499c0-.413-.336-.749-.75-.749zm-4.248 4.997c-.412 0-.748.339-.748.755v5.496c0 .413.336.749.748.749.414 0 .75-.336.75-.749v-5.496c0-.416-.336-.755-.75-.755zm-4.252-1.999c-.414 0-.75.336-.75.749v7.501c0 .413.336.749.75.749s.75-.336.75-.749v-7.501c0-.413-.336-.749-.75-.749z" transform="translate(-21159 -14364)"/>
    </g>
</svg>
