<svg xmlns="http://www.w3.org/2000/svg" id="icon-order-ing" width="128" height="76" viewBox="0 0 128 76">
    <defs>
        <style>
            .cls-3{fill:#6a7373}
        </style>
    </defs>
    <circle id="타원_726" cx="38" cy="38" r="38" fill="#ffcd00" opacity="0.5" transform="translate(52)"/>
    <circle id="타원_727" cx="29" cy="29" r="29" fill="#ffcd00" transform="translate(61 9)"/>
    <path id="패스_4012" d="M20 21h18a2 2 0 0 1 2 2 2 2 0 0 1-2 2H20a2 2 0 0 1-2-2 2 2 0 0 1 2-2z" class="cls-3"/>
    <path id="패스_4014" d="M33 37a2 2 0 0 1 2 2 2 2 0 0 1-2 2 2 2 0 0 1-2-2 2 2 0 0 1 2-2z" class="cls-3"/>
    <path id="패스_4013" d="M2 37h25a2 2 0 0 1 2 2 2 2 0 0 1-2 2H2a2 2 0 0 1-2-2 2 2 0 0 1 2-2z" class="cls-3"/>
    <path id="패스_4015" d="M21 52h24a2 2 0 0 1 2 2 2 2 0 0 1-2 2H21a2 2 0 0 1-2-2 2 2 0 0 1 2-2z" class="cls-3"/>
    <path id="패스_4016" d="M15 52a2 2 0 0 1 2 2 2 2 0 0 1-2 2 2 2 0 0 1-2-2 2 2 0 0 1 2-2z" class="cls-3"/>
    <path id="패스_4011" fill="#fff" d="M91.506 24.6a2.621 2.621 0 0 1 1.577.513 2.96 2.96 0 0 1 1.007 1.767l2.128 9.044h3.99l2.166-9.689a1.851 1.851 0 0 1 1.007-1.388 2.458 2.458 0 0 1 1.619-.169 2.146 2.146 0 0 1 1.387.874 2.07 2.07 0 0 1 .209 1.748l-2.166 8.626h3.04a.932.932 0 0 1 .836.4 1.71 1.71 0 0 1 .266.969 1.639 1.639 0 0 1-.266.931.932.932 0 0 1-.836.4h-3.687L101.006 49.8a2.869 2.869 0 0 1-1.045 1.767 2.565 2.565 0 0 1-3.078 0 2.931 2.931 0 0 1-1.045-1.844l-2.584-11.1h-3.649L86.794 49.8a2.832 2.832 0 0 1-1.064 1.767 2.755 2.755 0 0 1-1.558.513 2.67 2.67 0 0 1-1.539-.513 2.9 2.9 0 0 1-1.045-1.805l-2.774-11.138H75.09a.934.934 0 0 1-.836-.4 1.631 1.631 0 0 1-.266-.931 1.7 1.7 0 0 1 .266-.969.934.934 0 0 1 .836-.4h3.078L76.04 27.3a2.067 2.067 0 0 1 .209-1.748 2.168 2.168 0 0 1 1.425-.874 2.657 2.657 0 0 1 1.635.133 1.9 1.9 0 0 1 1.025 1.426l2.166 9.689h4.143l2.279-9.044a3.061 3.061 0 0 1 .969-1.767 2.571 2.571 0 0 1 1.615-.515zm-7.068 20.028l1.52-6h-2.851zm5.852-8.7h2.317l-1.1-4.788zm7.98 8.664l1.33-5.966h-2.737z" transform="translate(-1.289 .148)"/>
</svg>
