<svg xmlns="http://www.w3.org/2000/svg" id="icon-trade" width="24" height="24" viewBox="0 0 24 24">
    <defs>
        <style>
            .cls-2{fill:#0f0f0f}
        </style>
    </defs>
    <path id="패스_4022" fill="none" d="M0 0h24v24H0z"/>
    <path id="패스_4025" d="M20.051 7.9h-17.5a.75.75 0 1 1 0-1.5h17.5a.75.75 0 0 1 0 1.5z" class="cls-2" transform="translate(.15 -.15)"/>
    <path id="패스_4027" d="M17.254 11.8a.75.75 0 0 1-.53-1.28l3.888-3.889a.751.751 0 0 1 1.062 0 .753.753 0 0 1 0 1.056l-3.89 3.893a.748.748 0 0 1-.53.22z" class="cls-2" transform="translate(.15 -.111)"/>
    <path id="패스_4029" d="M20.848 7.6a.745.745 0 0 1-.531-.219l-3.888-3.89a.752.752 0 0 1 0-1.06.739.739 0 0 1 .529-.22.746.746 0 0 1 .53.219l3.889 3.89a.749.749 0 0 1-.53 1.279z" class="cls-2" transform="translate(.451 .089)"/>
    <path id="패스_4025-2" d="M2.551 7.9h17.5a.75.75 0 1 0 0-1.5h-17.5a.75.75 0 1 0 0 1.5z" class="cls-2" transform="translate(1.246 9.85)"/>
    <path id="패스_4027-2" d="M21.143 11.8a.75.75 0 0 0 .53-1.28l-3.888-3.889a.751.751 0 0 0-1.062 0 .753.753 0 0 0 0 1.056l3.892 3.891a.748.748 0 0 0 .528.222z" class="cls-2" transform="translate(-14.549 9.889)"/>
    <path id="패스_4029-2" d="M16.959 7.6a.745.745 0 0 0 .531-.219l3.888-3.889a.752.752 0 0 0 0-1.06.739.739 0 0 0-.529-.22.746.746 0 0 0-.53.219l-3.89 3.889a.749.749 0 0 0 .53 1.279z" class="cls-2" transform="translate(-14.26 10.089)"/>
</svg>
