<svg xmlns="http://www.w3.org/2000/svg" width="24" height="24" viewBox="0 0 24 24">
    <defs>
        <style>
            .cls-1,.cls-3{fill:none}.cls-3{stroke:#0f0f0f}.cls-5{stroke:none}
        </style>
    </defs>
    <g id="ic_sell-list" transform="translate(-223 -153)">
        <g id="ic_sell-list-2" transform="translate(185 -438)">
            <path id="사각형_5715" d="M0 0H24V24H0z" class="cls-1" transform="translate(38 591)"/>
            <path id="사각형_5716" d="M0 0H20V20H0z" class="cls-1" transform="translate(40 593)"/>
            <g id="합치기_149" fill="none">
                <path d="M22317.2-5351a2.21 2.21 0 0 1-2.2-2.226v-15.555a2.205 2.205 0 0 1 2.2-2.22h12.611a2.2 2.2 0 0 1 2.191 2.22v7.781h3v7.752a2.248 2.248 0 0 1-2.248 2.248 2.289 2.289 0 0 1-.373-.03 2.01 2.01 0 0 1-.379.036z" class="cls-5" transform="translate(-22275 5964.002)"/>
                <path fill="#0f0f0f" d="M22332-5352.499c.033 0 .064-.003.098-.01l.261-.05.264.044c.041.007.084.01.129.01.412 0 .748-.335.748-.747v-6.252h-3v-9.275c0-.397-.31-.72-.691-.72h-12.612c-.385 0-.697.323-.697.72v15.554c0 .4.313.726.697.726H22332m0 1.5h-14.803c-1.217 0-2.197-.998-2.197-2.226v-15.554c0-1.228.98-2.22 2.197-2.22h12.612c1.21 0 2.191.992 2.191 2.22v7.775h3v7.752c0 1.244-1.01 2.247-2.248 2.247-.127 0-.252-.01-.373-.03-.123.023-.248.036-.379.036z" transform="translate(-22275 5964.002)"/>
            </g>
            <g id="사각형_5940" class="cls-3" transform="translate(44 599)">
                <rect width="9" height="1.5" class="cls-5" rx=".75"/>
                <rect width="8" height=".5" x=".5" y=".5" class="cls-1" rx=".25"/>
            </g>
            <g id="사각형_5941" class="cls-3" transform="translate(44 603)">
                <rect width="5" height="1.5" class="cls-5" rx=".75"/>
                <rect width="4" height=".5" x=".5" y=".5" class="cls-1" rx=".25"/>
            </g>
        </g>
        <g id="사각형_9682" fill="none" stroke="#0f0f0f" stroke-width="1.5px">
            <path d="M0 0h4.5v7.75A2.25 2.25 0 0 1 2.25 10 2.25 2.25 0 0 1 0 7.75V0z" class="cls-5" transform="translate(240.5 165)"/>
            <path d="M1.015.75h2.47a.265.265 0 0 1 .265.265V7.75a1.5 1.5 0 0 1-1.5 1.5 1.5 1.5 0 0 1-1.5-1.5V1.015A.265.265 0 0 1 1.015.75z" class="cls-1" transform="translate(240.5 165)"/>
        </g>
    </g>
</svg>
