<svg xmlns="http://www.w3.org/2000/svg" width="60" height="60" viewBox="0 0 60 60">
    <defs>
        <style>
            .cls-1,.cls-2{fill:none}.cls-2,.cls-3{stroke:#fff}.cls-2{stroke-width:2px}.cls-3{fill:#fff}.cls-4{stroke:none}
        </style>
    </defs>
    <g id="btn_gps" transform="translate(13.968 14.468)">
        <path id="사각형_6786" d="M0 0H60V60H0z" class="cls-1" transform="translate(-13.968 -14.468)"/>
        <g id="타원_581" class="cls-2" transform="translate(4.032 3.532)">
            <circle cx="12" cy="12" r="12" class="cls-4"/>
            <circle cx="12" cy="12" r="11" class="cls-1"/>
        </g>
        <g id="타원_582" class="cls-2" transform="translate(11.032 10.532)">
            <circle cx="5" cy="5" r="5" class="cls-4"/>
            <circle cx="5" cy="5" r="4" class="cls-1"/>
        </g>
        <g id="사각형_6707" class="cls-3" transform="translate(15.032 -.467)">
            <rect width="2" height="5" class="cls-4" rx="1"/>
            <rect width="1" height="4" x=".5" y=".5" class="cls-1" rx=".5"/>
        </g>
        <g id="사각형_6708" class="cls-3" transform="translate(15.032 25.532)">
            <rect width="2" height="6" class="cls-4" rx="1"/>
            <rect width="1" height="5" x=".5" y=".5" class="cls-1" rx=".5"/>
        </g>
        <g id="사각형_6709" class="cls-3" transform="translate(.032 14.532)">
            <rect width="6" height="2" class="cls-4" rx="1"/>
            <rect width="5" height="1" x=".5" y=".5" class="cls-1" rx=".5"/>
        </g>
        <g id="사각형_6710" class="cls-3" transform="translate(26.032 14.532)">
            <rect width="6" height="2" class="cls-4" rx="1"/>
            <rect width="5" height="1" x=".5" y=".5" class="cls-1" rx=".5"/>
        </g>
    </g>
</svg>
