<svg xmlns="http://www.w3.org/2000/svg" width="40" height="40">
    <defs>
        <style>
            .cls-3{fill:#fff}
        </style>
    </defs>
    <g id="ic_pin_lgu_" data-name="ic_pin_lgu+" transform="translate(.422 -.032)">
        <path id="사각형_8539" data-name="사각형 8539" transform="translate(-.422 .032)" style="fill:none" d="M0 0h40v40H0z"/>
        <path id="패스_8845" data-name="패스 8845" d="M83.067 0a12.6 12.6 0 0 0-12.494 12.669c0 8.67 11.181 21.4 11.657 21.935a1.115 1.115 0 0 0 1.674 0c.476-.538 11.657-13.265 11.657-21.935A12.6 12.6 0 0 0 83.067 0z" transform="translate(-63.077 2.499)" style="fill:#d9006d"/>
        <g id="그룹_10101" data-name="그룹 10101" transform="translate(12.316 9.456)">
            <path id="패스_9965" data-name="패스 9965" class="cls-3" d="m-280.287 412.509-2.021-1.428-.021.029a2.143 2.143 0 0 1 .818 1.833v.276l1.083.555a.442.442 0 0 1 .219.359v.8a.182.182 0 0 1-.239.185l-1.063-.273v1.6a.459.459 0 0 1-.41.447l-.728.055a.368.368 0 0 1-.409-.374v-2.128l-2.022-.519v3.64c0 2.465-1.709 3.494-3.875 3.17l-1.479-.227c-2.044-.307-3.183-1.288-3.183-3.075v-4.251a.5.5 0 0 1 .406-.476l1.052-.169a.339.339 0 0 1 .405.346v4.352a1.351 1.351 0 0 0 1.238 1.53l1.18.113c.829.08 1.58-.189 1.58-1.287v-5.359a.5.5 0 0 1 .406-.476l1.907-.31a1.313 1.313 0 0 1 .694.109l1.694.866v-.207a2.622 2.622 0 0 0-.921-2.318 3.257 3.257 0 0 0-2.492-.27l-6.553 1.478a2.151 2.151 0 0 0-1.6 2v6.4a2.15 2.15 0 0 0 1.6 2l6.552 1.481a4.2 4.2 0 0 0 2.941-.585l3.246-2.293a1.977 1.977 0 0 0 1-1.941v-3.717a1.949 1.949 0 0 0-1.005-1.941z" transform="translate(294.627 -409.507)"/>
            <path id="패스_9966" data-name="패스 9966" class="cls-3" d="m-273.33 411.414-1.67-1.18z" transform="translate(285.648 -409.84)"/>
        </g>
    </g>
</svg>
