<svg xmlns="http://www.w3.org/2000/svg" width="40" height="40">
    <path data-name="사각형 8539" style="fill:none" d="M0 0h40v40H0z"/>
    <path data-name="패스 8845" d="M83.067 0a12.6 12.6 0 0 0-12.494 12.669c0 8.67 11.181 21.4 11.657 21.935a1.115 1.115 0 0 0 1.674 0c.476-.538 11.657-13.265 11.657-21.935A12.6 12.6 0 0 0 83.067 0z" transform="translate(-62.655 2.467)" style="fill:red"/>
    <g data-name="그룹 10102">
        <path data-name="패스 9970" d="m785.247 546.536 1.343-1.653h-1.572a2.336 2.336 0 0 0-1.567.5l-.119.146v-5.379h-1.6a.68.68 0 0 0-.679.681v10.031h1.6a.681.681 0 0 0 .679-.681v-2.669l1.293 1.588 1.1 1.354a1.023 1.023 0 0 0 .813.408h2.227l-1.441-1.767zm6.372 1.821v-3.474h-2.279v3.9a1.982 1.982 0 0 0 2.08 2.078h1.752a.683.683 0 0 0 .682-.681v-1.212h-1.626a.612.612 0 0 1-.609-.611zm2.615-4.7v-1.513l-.141.149a2.367 2.367 0 0 1-1.66.44h-.814v-2.583h-1.6a.681.681 0 0 0-.682.679v1.905h-2.712a1.94 1.94 0 0 0-1.677.776l-1.333 1.643a2.453 2.453 0 0 1 1.555-.6h7.26a2.185 2.185 0 0 0 1.62-.463.622.622 0 0 0 .184-.433z" transform="translate(-767.234 -530.255)" style="fill:#fff"/>
    </g>
</svg>
