<svg xmlns="http://www.w3.org/2000/svg" width="40" height="40" viewBox="0 0 40 40">
    <defs>
        <style>
            .cls-3{fill:#fff}
        </style>
    </defs>
    <g id="ic_pin_lotte" transform="translate(.474)">
        <path id="Rectangle_8539" fill="none" d="M0 0H40V40H0z" transform="translate(-.474)"/>
        <path id="Path_8845" fill="#dc0019" d="M83.067 0a12.6 12.6 0 0 0-12.494 12.669c0 8.67 11.181 21.4 11.657 21.935a1.115 1.115 0 0 0 1.674 0c.476-.538 11.657-13.265 11.657-21.935A12.6 12.6 0 0 0 83.067 0z" transform="translate(-63.077 2.499)"/>
        <g id="Group_4592" transform="translate(15.617 8.747)">
            <path id="Path_8876" d="M147.91 320.411a.761.761 0 1 1 .032 0h-.032" class="cls-3" transform="translate(-147.153 -305.063)"/>
            <path id="Path_8877" d="M151.149 282.345a1.373 1.373 0 0 0-1.018.4 4.785 4.785 0 0 0-.859 3.357c.033 1.957.5 5.8 2.038 7.773a3.4 3.4 0 0 0 .8.76 1.767 1.767 0 0 0 1.049.354 2.3 2.3 0 0 0 .412-.039 5.564 5.564 0 0 0 2.81-2.5.68.68 0 1 1 1.151.724 6.67 6.67 0 0 1-3.672 3.1.109.109 0 0 1-.031.007 3.725 3.725 0 0 1-.674.064 3.137 3.137 0 0 1-1.794-.579 4.738 4.738 0 0 1-1.12-1.06c-2.167-2.782-2.315-8-2.325-8.584-.023-1.388.176-3.27 1.261-4.346a2.7 2.7 0 0 1 1.97-.791h.126a2.705 2.705 0 0 1 1.974.791c1.084 1.077 1.284 2.958 1.26 4.346a14.024 14.024 0 0 1-1.789 6.759.68.68 0 0 1-1.168-.7 11.786 11.786 0 0 0 1.6-6.086 4.783 4.783 0 0 0-.859-3.357 1.369 1.369 0 0 0-1.016-.4z" class="cls-3" transform="translate(-147.635 -280.987)"/>
        </g>
    </g>
</svg>
