<svg xmlns="http://www.w3.org/2000/svg" width="40" height="40" viewBox="0 0 40 40">
    <g>
        <path fill="none" d="M0 0H40V40H0z" transform="translate(-.052) translate(.052)"/>
        <path fill="#1f3387" d="M83.067 0a12.6 12.6 0 0 0-12.494 12.669c0 8.67 11.181 21.4 11.657 21.935a1.115 1.115 0 0 0 1.674 0c.476-.538 11.657-13.265 11.657-21.935A12.6 12.6 0 0 0 83.067 0z" transform="translate(-.052) translate(-63.077 2.499)"/>
        <path fill="#fff" d="M310.312 306.85c-3.251 0-3.859-1.913-3.721-4.087h2.626c0 1.2.051 2.208 1.495 2.208a1.253 1.253 0 0 0 1.321-1.424c0-2.26-5.286-2.4-5.286-6.138 0-1.964.94-3.528 4.139-3.528 2.555 0 3.823 1.146 3.651 3.772h-2.557c0-.939-.157-1.895-1.216-1.895a1.222 1.222 0 0 0-1.356 1.337c0 2.383 5.286 2.173 5.286 6.121.001 3.251-2.381 3.634-4.382 3.634z" transform="translate(-.052) translate(-290.644 -283.886)"/>
    </g>
</svg>
