<svg xmlns="http://www.w3.org/2000/svg" width="40" height="40" viewBox="0 0 40 40">
    <g>
        <path fill="none" d="M0 0H40V40H0z" transform="translate(0 -.032) translate(0 .032)"/>
        <path fill="#fff" d="M83.067 0a12.6 12.6 0 0 0-12.494 12.669c0 8.67 11.181 21.4 11.657 21.935a1.115 1.115 0 0 0 1.674 0c.476-.538 11.657-13.265 11.657-21.935A12.6 12.6 0 0 0 83.067 0z" transform="translate(0 -.032) translate(-63.077 2.499)"/>
        <path fill="#2bd3c6" d="M13.645 6.95a1.313 1.313 0 0 0-1.21.675c-.473.815-1.913 3.306-2.232 3.858a.731.731 0 0 0-.063.174.714.714 0 0 0-.064-.176c-.315-.545-1.709-2.95-2.218-3.825a1.3 1.3 0 0 0-1.222-.708 1.344 1.344 0 0 0-1.39 1.228c-.553 3.515-.869 6.468-2.034 6.468a.817.817 0 0 1-.718-1.288c.381-.711.569-1.405-.365-1.884a1.2 1.2 0 0 0-1.357.241c-1.433 1.5-1.011 5.476 2.486 5.476 2.543 0 3.683-1.488 4.2-5.291.261.58.8 2.069 1.316 3.425a1.294 1.294 0 0 0 1.2.84h.953c0-.8.049-3.2 1.351-3.547 1.346-.354 2.153 1.23.693 2.3a5.973 5.973 0 0 0-1.215 1.245h1.889A1.294 1.294 0 0 0 15 14.933V8.178a1.3 1.3 0 0 0-1.355-1.228" transform="translate(0 -.032) translate(12.493 3.048)"/>
    </g>
</svg>
