<svg xmlns="http://www.w3.org/2000/svg" width="40" height="40" viewBox="0 0 40 40">
    <path fill="none" d="M0 0H40V40H0z"/>
    <path fill="#f8a516" d="M83.067 0a12.6 12.6 0 0 0-12.494 12.669c0 8.67 11.181 21.4 11.657 21.935a1.115 1.115 0 0 0 1.674 0c.476-.538 11.657-13.265 11.657-21.935A12.6 12.6 0 0 0 83.067 0z" transform="translate(-63.077 2.499)"/>
    <path fill="#fff" d="M264.972 425.2c-3.722 0-5.347-2.281-5.347-5.163v-3.113c0-4.007 2.671-5.568 5.805-5.568 3.785 0 5.439 2.059 5.439 4.118 0 3.007-3.074 3.743-4.432 4.136-.392.113-1.832.542-2.156.636-1.269.367-1.632.778-1.632 1.244 0 .8.7 1.485 2.323 1.485 1.415 0 2.45-.482 2.623-1.96h2.962c-.305 2.339-1.712 4.184-5.584 4.184m.333-11.615a2.648 2.648 0 0 0-2.723 2.976v1.969s2.226-.65 3.156-.932c.779-.236 2.172-.73 2.172-1.958 0-1.073-.868-2.057-2.606-2.057z" transform="translate(-245.257 -402.608)"/>
</svg>
