<svg xmlns="http://www.w3.org/2000/svg" width="34" height="34" viewBox="0 0 34 34">
    <defs>
        <style>
            .cls-1,.cls-2{fill:none}.cls-2{stroke:#0f0f0f;stroke-width:1.5px}.cls-4{stroke:none}
        </style>
    </defs>
    <g id="btn_mypage" transform="translate(-3 1)">
        <path id="사각형_5906" d="M0 0H34V34H0z" class="cls-1" transform="translate(3 -1)"/>
        <path id="사각형_5907" d="M0 0H22V22H0z" class="cls-1" transform="translate(9 5)"/>
        <g id="타원_431" class="cls-2" transform="translate(16.501 8)">
            <circle cx="3.5" cy="3.5" r="3.5" class="cls-4"/>
            <circle cx="3.5" cy="3.5" r="2.75" class="cls-1"/>
        </g>
        <g id="빼기_33" fill="none">
            <path d="M1.52 7H0a7.007 7.007 0 0 1 7-7h1a7.007 7.007 0 0 1 7 7h-1.519a6 6 0 0 0-11.96 0z" class="cls-4" transform="translate(12.499 16.004)"/>
            <path fill="#0f0f0f" d="M1.52 7H0c0-3.86 3.14-7 7-7H8c3.859 0 6.998 3.14 6.998 6.998L13.481 7c-.253-3.086-2.88-5.502-5.98-5.502-3.1 0-5.728 2.417-5.98 5.502V7z" transform="translate(12.499 16.004)"/>
        </g>
        <g id="사각형_7039" class="cls-2" transform="translate(4)">
            <rect width="32" height="32" class="cls-4" rx="3"/>
            <rect width="30.5" height="30.5" x=".75" y=".75" class="cls-1" rx="2.25"/>
        </g>
    </g>
</svg>
