<svg xmlns="http://www.w3.org/2000/svg" id="mypage-point" width="34" height="34" viewBox="0 0 34 34">
    <defs>
        <style>
            .cls-1{fill:none}
        </style>
    </defs>
    <path id="사각형_5715" d="M0 0h34v34H0z" class="cls-1"/>
    <path id="사각형_5716" d="M3 3h28v28H3z" class="cls-1"/>
    <path id="패스_9414" d="M17 1a16 16 0 0 1 16 16 16 16 0 0 1-16 16A16 16 0 0 1 1 17 16 16 0 0 1 17 1z" class="cls-1"/>
    <path id="패스_9415" fill="none" stroke="#0f0f0f" stroke-width="1.5px" d="M17 1.75A15.25 15.25 0 0 1 32.25 17 15.25 15.25 0 0 1 17 32.25 15.25 15.25 0 0 1 1.75 17 15.25 15.25 0 0 1 17 1.75z"/>
    <path id="패스_9416" fill="#0f0f0f" d="M6.156-12.87a6.4 6.4 0 0 1 1.935.261 3.661 3.661 0 0 1 1.359.747 2.981 2.981 0 0 1 .8 1.17 4.21 4.21 0 0 1 .261 1.512v.27a4.227 4.227 0 0 1-.27 1.53 3.228 3.228 0 0 1-.819 1.215 3.837 3.837 0 0 1-1.368.8 5.779 5.779 0 0 1-1.917.288H3.366v4.339a.635.635 0 0 1-.279.576 1.153 1.153 0 0 1-.639.18 1.109 1.109 0 0 1-.63-.18.642.642 0 0 1-.27-.576v-10.8a1.437 1.437 0 0 1 .3-1.044 1.57 1.57 0 0 1 1.089-.288zm-.234 6.264a3.3 3.3 0 0 0 2.1-.558 2.131 2.131 0 0 0 .693-1.764v-.216a1.993 1.993 0 0 0-.666-1.683A3.142 3.142 0 0 0 6.1-11.34H3.366v4.734z" transform="translate(11.333 24.375)"/>
</svg>
