<svg id="mypage-selling" xmlns="http://www.w3.org/2000/svg" width="34" height="34" viewBox="0 0 34 34">
  <rect id="사각형_5715" data-name="사각형 5715" width="34" height="34" fill="none"/>
  <rect id="사각형_5716" data-name="사각형 5716" width="28" height="28" transform="translate(3 3)" fill="none"/>
  <path id="패스_9525" data-name="패스 9525" d="M26.647,18.75h3.706a.4.4,0,0,1,.4.4h0V28a2.25,2.25,0,0,1-2.25,2.25h0A2.25,2.25,0,0,1,26.25,28V18.75Z" fill="none" stroke="#0f0f0f" stroke-width="1.5"/>
  <path id="패스_9526" data-name="패스 9526" d="M28,30.958V31H6.1A3.1,3.1,0,0,1,3,27.9V6.11A3.1,3.1,0,0,1,6.09,3H23.9A3.1,3.1,0,0,1,27,6.1V18h4.5V28A3,3,0,0,1,28,30.958Z" fill="none"/>
  <path id="패스_9527" data-name="패스 9527" d="M28.5,29.5A1.5,1.5,0,0,0,30,28V19.5H25.5V6.11A1.6,1.6,0,0,0,23.9,4.5H6.1A1.6,1.6,0,0,0,4.5,6.11V27.889A1.606,1.606,0,0,0,6.1,29.5H26.5l1.749-.021a1.5,1.5,0,0,0,.252.021m0,1.5c-.171,0-.094-.031-7.5,0H6.1A3.1,3.1,0,0,1,3,27.889V6.11A3.1,3.1,0,0,1,6.1,3H23.9A3.1,3.1,0,0,1,27,6.11V18h4.5V28A3,3,0,0,1,28.5,31Z" fill="#0f0f0f"/>
  <path id="패스_9528" data-name="패스 9528" d="M8.749,10h12.5a.75.75,0,0,1,.75.75h0a.75.75,0,0,1-.75.75H8.749A.75.75,0,0,1,8,10.75H8A.75.75,0,0,1,8.749,10Z" fill="#e9e9e9"/>
  <path id="패스_9529" data-name="패스 9529" d="M8.749,10.5h12.5a.25.25,0,0,1,.25.25h0a.25.25,0,0,1-.25.25H8.749a.25.25,0,0,1-.25-.25h0A.25.25,0,0,1,8.749,10.5Z" fill="none" stroke="#0f0f0f" stroke-width="1"/>
  <path id="패스_9530" data-name="패스 9530" d="M8.749,15h4.5a.75.75,0,0,1,.75.75h0a.75.75,0,0,1-.75.75h-4.5A.75.75,0,0,1,8,15.75H8A.75.75,0,0,1,8.749,15Z" fill="#e9e9e9"/>
  <path id="패스_9531" data-name="패스 9531" d="M8.749,15.5h4.5a.25.25,0,0,1,.25.25h0a.25.25,0,0,1-.25.25h-4.5a.25.25,0,0,1-.25-.25h0A.25.25,0,0,1,8.749,15.5Z" fill="none" stroke="#0f0f0f" stroke-width="1"/>
</svg>
