<svg xmlns="http://www.w3.org/2000/svg" width="30" height="30" viewBox="0 0 30 30">
    <g transform="translate(1.993 3.347)">
        <path fill="none" d="M0 0H30V30H0z" transform="translate(-1.993 -3.347)"/>
        <path fill="#e9e9e9" d="M14 20H2a2 2 0 0 1-2-2V1a1 1 0 0 1 1-1h14a1 1 0 0 1 1 1v11h1v8z" transform="translate(5.006 1.653)"/>
        <path fill="#cfcfcf" d="M0 0h3.6a.4.4 0 0 1 .4.4V6a2 2 0 0 1-2 2 2 2 0 0 1-2-2V0z" transform="translate(21.007 13.653)"/>
        <rect width="14" height="7" fill="#d0251b" rx=".5" transform="translate(3.007 7.653)"/>
        <text fill="#fff" font-family="Montserrat-SemiBold, Montserrat" font-size="4px" font-weight="600" transform="translate(5.507 12.653)">
            <tspan x="0" y="0">PDF</tspan>
        </text>
    </g>
</svg>
