<svg xmlns="http://www.w3.org/2000/svg" width="30" height="30" viewBox="0 0 30 30">
    <defs>
        <style>
            .cls-3{fill:#aeaeae}
        </style>
    </defs>
    <g id="ic_file" transform="translate(-.007 .347)">
        <path id="사각형_8749" fill="none" d="M0 0H30V30H0z" transform="translate(.007 -.347)"/>
        <path id="합치기_141" fill="#e9e9e9" d="M14 20H2a2 2 0 0 1-2-2V1a1 1 0 0 1 1-1h14a1 1 0 0 1 1 1v11h1v8z" transform="translate(7.006 4.653)"/>
        <path id="사각형_9517" d="M0 0H10V1H0z" class="cls-3" transform="translate(10.007 9.154)"/>
        <path id="사각형_9519" d="M0 0H10V1H0z" class="cls-3" transform="translate(10.007 12.154)"/>
        <path id="사각형_9520" d="M0 0H7V1H0z" class="cls-3" transform="translate(10.007 15.154)"/>
        <path id="사각형_9515" fill="#cfcfcf" d="M0 0h3.6a.4.4 0 0 1 .4.4V6a2 2 0 0 1-2 2 2 2 0 0 1-2-2V0z" transform="translate(23.007 16.653)"/>
    </g>
</svg>
