<svg xmlns="http://www.w3.org/2000/svg" width="12" height="14" viewBox="0 0 12 14">
    <g>
        <path fill="#2bd3c6" d="M6-2l6 2.263v6.788c0 .625-.732 3.114-6 4.949-5.3-1.836-6-4.325-6-4.949V.263z" transform="translate(-184 -510) translate(184 512)"/>
        <path fill="#fff" d="M7.28 6.949a.7.7 0 0 0-.645.356L5.444 9.34a.383.383 0 0 0-.033.092.374.374 0 0 0-.034-.093L4.194 7.321a.7.7 0 0 0-.652-.374.714.714 0 0 0-.742.653c-.3 1.85-.464 3.408-1.086 3.408a.431.431 0 0 1-.383-.68c.2-.375.3-.741-.195-.994a.644.644 0 0 0-.724.127 1.744 1.744 0 0 0 1.326 2.889c1.356 0 1.965-.785 2.239-2.791.139.306.425 1.091.7 1.807a.69.69 0 0 0 .641.443h.512c0-.424.026-1.691.721-1.871.718-.187 1.148.649.369 1.214a3.166 3.166 0 0 0-.648.657H7.28A.687.687 0 0 0 8 11.16V7.6a.688.688 0 0 0-.721-.648" transform="translate(-184 -510) translate(186 507.053)"/>
    </g>
</svg>
