<svg xmlns="http://www.w3.org/2000/svg" id="push-talk-02" width="28" height="28" viewBox="0 0 28 28">
    <defs>
        <style>
            .cls-2{fill:#f8ce00}.cls-5{fill:#6a7373}
        </style>
    </defs>
    <path id="사각형_6781" fill="none" d="M0 0h28v28H0z"/>
    <path id="패스_9063" d="M7.418 5.8h13.27a1.106 1.106 0 0 1 1.106 1.1L22.9 22.384a1.106 1.106 0 0 1-1.106 1.106H6.312a1.106 1.106 0 0 1-1.106-1.106L6.312 6.9a1.106 1.106 0 0 1 1.106-1.1z" class="cls-2"/>
    <path id="패스_9073" fill="#3e79e8" d="M19.953 14.053a5.9 5.9 0 1 1-5.9 5.9 5.9 5.9 0 0 1 5.9-5.9z"/>
    <path id="패스_9062" fill="#fff" d="M20 17.356a.533.533 0 0 1 .323.1.6.6 0 0 1 .21.367l.436 1.851h.817l.443-1.983a.381.381 0 0 1 .2-.288.5.5 0 0 1 .331-.035.439.439 0 0 1 .284.179.422.422 0 0 1 .043.358l-.446 1.769h.622a.189.189 0 0 1 .171.082.345.345 0 0 1 .054.2.332.332 0 0 1-.054.191.189.189 0 0 1-.171.082h-.753l-.567 2.283a.586.586 0 0 1-.212.362.525.525 0 0 1-.63 0 .6.6 0 0 1-.216-.377l-.529-2.271h-.747l-.578 2.286a.575.575 0 0 1-.218.362.561.561 0 0 1-.319.1.546.546 0 0 1-.315-.1.592.592 0 0 1-.211-.371l-.568-2.277h-.762a.189.189 0 0 1-.171-.082.332.332 0 0 1-.054-.191.345.345 0 0 1 .054-.2.189.189 0 0 1 .171-.082h.63l-.438-1.763a.422.422 0 0 1 .043-.358.444.444 0 0 1 .292-.179.546.546 0 0 1 .336.032.387.387 0 0 1 .21.292l.443 1.983H19l.466-1.855a.627.627 0 0 1 .2-.362.528.528 0 0 1 .334-.105zm-1.446 4.1l.311-1.229h-.585zm2.831-.008l.272-1.221h-.56zm-1.634-1.773h.474L20 18.694z"/>
    <path id="패스_9418" d="M14.052 2.078a3.131 3.131 0 0 0-3.128 3.128v3.129h6.257V5.206a3.132 3.132 0 0 0-3.129-3.128m0-1a4.129 4.129 0 0 1 4.129 4.128v4.129H9.924V5.206a4.128 4.128 0 0 1 4.128-4.128z" class="cls-5"/>
    <path id="패스_9071" d="M8.745 8.155h10.616v3.539H8.745z" class="cls-2"/>
    <path id="패스_9420" d="M10.424 6.975a.55.55 0 0 1 .5.59v1.18a.507.507 0 1 1-1 0v-1.18a.55.55 0 0 1 .5-.59z" class="cls-5"/>
    <path id="패스_9422" d="M17.5 6.975a.55.55 0 0 1 .5.59v1.18a.507.507 0 1 1-1 0v-1.18a.55.55 0 0 1 .5-.59z" class="cls-5" transform="translate(.178)"/>
</svg>
