<svg xmlns="http://www.w3.org/2000/svg" width="55" height="55" viewBox="0 0 55 55">
    <g>
        <path fill="none" d="M0 0H55V55H0z" transform="translate(0 .209) translate(0 -.209)"/>
        <path fill="#1a1311" d="M514.326 296c-9.124 0-16.521 6.842-16.521 15.281 0 6.233 2.61 9.209 6.186 11.921l.017.007v7.315a.42.42 0 0 0 .671.337l6.265-4.654.135.058a17.912 17.912 0 0 0 3.247.3c9.124 0 16.521-6.842 16.521-15.281S523.45 296 514.326 296m-5.538 19.154a3.449 3.449 0 0 0 3.421-2.467h2.4a5.732 5.732 0 0 1-5.817 4.772 6.194 6.194 0 1 1 0-12.388 5.738 5.738 0 0 1 5.834 4.859h-2.389a3.407 3.407 0 0 0-3.446-2.588 3.74 3.74 0 0 0-3.888 3.923 3.836 3.836 0 0 0 3.888 3.89m15.783 2.066h-2.2v-4.952a1.576 1.576 0 0 0-1.685-1.753c-1.14 0-1.872.7-1.872 2.11v4.595h-2.2v-12.108h2.2v4.556a2.816 2.816 0 0 1 2.535-1.191 3.015 3.015 0 0 1 2.3.936 3.534 3.534 0 0 1 .919 2.587z" transform="translate(0 .209) translate(-486.932 -284.379)"/>
    </g>
</svg>
