<svg xmlns="http://www.w3.org/2000/svg" id="btn_chatbot" width="55" height="55" viewBox="0 0 55 55">
    <defs>
        <style>
            .cls-1,.cls-4{fill:none}.cls-2{fill:#fff}.cls-4{stroke:#fff;stroke-linecap:round}
        </style>
    </defs>
    <path id="사각형_9348" d="M0 0H55V55H0z" class="cls-1"/>
    <g id="ic_chatbot">
        <path id="사각형_9274" d="M0 0H55V55H0z" class="cls-1"/>
    </g>
    <path id="빼기_87" d="M20.511 21.628H4a4 4 0 0 1-4-4V4a4 4 0 0 1 4-4h16.511a4 4 0 0 1 4 4v13.627a4.005 4.005 0 0 1-4 4.001zM18.023 7.93a2.163 2.163 0 1 0 2.163 2.163 2.166 2.166 0 0 0-2.163-2.163zm-11.535 0a2.163 2.163 0 1 0 2.163 2.163A2.165 2.165 0 0 0 6.488 7.93z" class="cls-2" transform="translate(15.139 20.186)"/>
    <path id="사각형_9339" d="M3.6 0v8.651A3.6 3.6 0 0 1 0 5.046V3.6A3.6 3.6 0 0 1 3.6 0z" class="cls-2" transform="translate(10.093 27.395)"/>
    <path id="사각형_9340" d="M0 0a3.6 3.6 0 0 1 3.6 3.6v1.446A3.6 3.6 0 0 1 0 8.651V0z" class="cls-2" transform="translate(41.092 27.395)"/>
    <path id="패스_9784" fill="none" stroke="#fff" stroke-width="1.5px" d="M-20917-19726.824v5.883" transform="translate(20944.395 19744.012)"/>
    <path id="패스_9785" d="M317.637 431.349c1.3-2.163 5.191-2.163 6.488 0" class="cls-4" transform="translate(-293.486 -416.208)"/>
    <path id="패스_9786" d="M316.477 432.577c2.163-4.326 9.372-5.046 12.256 0" class="cls-4" transform="translate(-295.209 -418.879)"/>
</svg>
