<svg xmlns="http://www.w3.org/2000/svg" width="26" height="26" viewBox="0 0 26 26">
    <g>
        <path fill="none" d="M0 0H26V26H0z" transform="translate(-168 -1209) translate(168 1209)"/>
        <path fill="#6a7373" d="M7.866-38.749a1.315 1.315 0 0 1 .894.542 1.328 1.328 0 0 1 .19 1.029L7.162-27.59A1.42 1.42 0 0 1 6.3-26.4a3.384 3.384 0 0 1-1.625.162 1.993 1.993 0 0 1-1.275-.621 1.346 1.346 0 0 1-.19-1.381l2.925-9.479a1.429 1.429 0 0 1 1.731-1.03zm7.638 0a1.315 1.315 0 0 1 .894.542 1.328 1.328 0 0 1 .19 1.029L14.8-27.59a1.42 1.42 0 0 1-.867 1.192 3.384 3.384 0 0 1-1.625.162 1.993 1.993 0 0 1-1.273-.623 1.346 1.346 0 0 1-.19-1.381l2.925-9.479a1.429 1.429 0 0 1 1.73-1.03z" transform="translate(-168 -1209) translate(171.122 1254.519)"/>
    </g>
</svg>
