<svg xmlns="http://www.w3.org/2000/svg" width="40" height="40" viewBox="0 0 40 40">
    <defs>
        <style>
            .cls-1{fill:#fae100}
        </style>
    </defs>
    <g id="btn_share_kakaotalk" transform="translate(-436.149 -19.875)">
        <circle id="타원_547" cx="20" cy="20" r="20" class="cls-1" transform="translate(436.149 19.875)"/>
        <g id="그룹_1735" transform="translate(444.811 29.587)">
            <path id="패스_3816" fill="#381e1f" d="M469 44.151c-6.187 0-11.2 3.965-11.2 8.855 0 3.183 2.125 5.974 5.314 7.535-.234.875-.849 3.169-.971 3.659-.152.609.222.6.469.437.193-.128 3.069-2.084 4.311-2.928a14.164 14.164 0 0 0 2.079.153c6.187 0 11.2-3.965 11.2-8.856s-5.013-8.855-11.202-8.855z" transform="translate(-457.801 -44.151)"/>
            <g id="그룹_1734" transform="translate(2.935 6.741)">
                <g id="그룹_1733">
                    <g id="그룹_1728">
                        <path id="패스_3817" d="M469.2 61h-3.551c-.685 0-.682 1.2 0 1.2h1.167s.007 3.248 0 4c0 .545 1.215.573 1.213.028l.006-3.909a6.016 6.016 0 0 1 1.162-.085c.728-.004.729-1.234.003-1.234z" class="cls-1" transform="translate(-465.136 -61)"/>
                    </g>
                    <g id="그룹_1730" transform="translate(3.668 .186)">
                        <g id="그룹_1729">
                            <path id="패스_3818" d="M477.435 61.816c-.175-.374-1.173-.553-1.425 0-.287.633-1.325 3.621-1.669 4.414-.249.573.825 1.04 1.074.467l.233-.817h2.137s-.073.034.21.782c.23.606 1.339.186 1.109-.42-.327-.867-1.462-3.984-1.669-4.426zm-1.4 2.989l.7-2.036.65 2.036z" class="cls-1" transform="translate(-474.304 -61.465)"/>
                        </g>
                    </g>
                    <g id="그룹_1731" transform="translate(8.877 .187)">
                        <path id="패스_3819" d="M490.136 65.77c-.549 0-1.55-.006-1.55-.006v-3.762c0-.713-1.266-.71-1.264 0 0 1.016.006 4.288.006 4.288s-.093.651.464.651 1.8-.006 2.344-.006.549-1.165 0-1.165z" class="cls-1" transform="translate(-487.325 -61.469)"/>
                    </g>
                    <g id="그룹_1732" transform="translate(12.372 .19)">
                        <path id="패스_3820" d="M500.13 66.109l-1.63-2.152s1.109-1.2 1.547-1.635c.255-.254-.535-1.049-.791-.8s-1.985 1.985-1.985 1.985.016-1.092 0-1.7c-.013-.474-1.2-.442-1.191.032.012.446-.014 4.472-.014 4.771 0 .47 1.2.469 1.2 0v-1.584l.352-.282 1.539 2.1c.305.417 1.284-.324.973-.735z" class="cls-1" transform="translate(-496.061 -61.475)"/>
                    </g>
                </g>
            </g>
        </g>
    </g>
</svg>
