<svg xmlns="http://www.w3.org/2000/svg" width="40" height="40" viewBox="0 0 40 40">
    <defs>
        <style>
            .cls-2{isolation:isolate}.cls-3{fill:#fff}
        </style>
    </defs>
    <g id="share-url">
        <g id="그룹_1937">
            <circle id="타원_728" cx="20" cy="20" r="20" fill="#0f0f0f"/>
        </g>
        <g id="그룹_1939" class="cls-2" transform="translate(-1 -.554)">
            <g id="그룹_1938" class="cls-2">
                <path id="패스_4030" d="M10.879 20.952V17h1.3v3.9c0 1.439.65 2.059 1.779 2.059s1.769-.62 1.769-2.059V17h1.279v3.948a2.823 2.823 0 0 1-3.058 3.152 2.827 2.827 0 0 1-3.069-3.148z" class="cls-3"/>
                <path id="패스_4031" d="M23.406 24l-1.428-2.049a2.455 2.455 0 0 1-.271.01h-1.579V24h-1.3v-7h2.878c1.84 0 2.979.94 2.979 2.488A2.237 2.237 0 0 1 23.2 21.7l1.606 2.3zm-1.759-5.9h-1.519v2.788h1.519c1.14 0 1.73-.52 1.73-1.4s-.59-1.388-1.73-1.388z" class="cls-3"/>
                <path id="패스_4032" d="M26.139 17h1.3v5.9H31.1V24h-4.961z" class="cls-3"/>
            </g>
        </g>
    </g>
</svg>
