<svg xmlns="http://www.w3.org/2000/svg" width="36" height="36" viewBox="0 0 36 36">
    <circle cx="18" cy="18" r="18" fill="#a4a4a4" opacity="0.6"/>
    <path fill="#fff" d="M13.463 19.175H5.712A5.719 5.719 0 0 1 0 13.463V5.712A5.719 5.719 0 0 1 5.712 0h7.751a5.719 5.719 0 0 1 5.712 5.712v7.751a5.719 5.719 0 0 1-5.712 5.712zM5.712 1.929a3.788 3.788 0 0 0-3.783 3.783v7.751a3.787 3.787 0 0 0 3.783 3.783h7.751a3.787 3.787 0 0 0 3.783-3.783V5.712a3.787 3.787 0 0 0-3.783-3.783zm3.876 12.617a4.959 4.959 0 1 1 4.959-4.959 4.965 4.965 0 0 1-4.959 4.959zm0-7.989a3.03 3.03 0 1 0 3.03 3.03 3.034 3.034 0 0 0-3.03-3.03zm4.969-.7a1.188 1.188 0 1 1 1.189-1.188 1.19 1.19 0 0 1-1.19 1.185z" transform="translate(8.609 8.608)"/>
</svg>
