<svg xmlns="http://www.w3.org/2000/svg" width="38" height="38" viewBox="0 0 38 38">
    <defs>
        <style>
            .cls-1{fill:#fff}
        </style>
    </defs>
    <g id="logo_apple" transform="translate(0.061 1.06)">
        <g id="그룹_10078" transform="translate(9.06 4.329)">
            <g id="그룹_10076" transform="translate(0 0)">
                <path id="패스_9949" d="M339.487 257.88a5.231 5.231 0 0 1 2.528-4.407 5.5 5.5 0 0 0-4.28-2.3c-1.825-.182-3.563 1.065-4.486 1.065s-2.354-1.035-3.865-1.006a5.742 5.742 0 0 0-4.847 2.9c-2.065 3.547-.531 8.8 1.486 11.68.983 1.408 2.154 2.989 3.693 2.933 1.486-.057 2.047-.949 3.841-.949s2.3.949 3.868.925c1.595-.033 2.608-1.441 3.581-2.849a12.793 12.793 0 0 0 1.623-3.3 5.121 5.121 0 0 1-3.142-4.692z" class="cls-1" transform="translate(-323.557 -245.324)"/>
                <path id="패스_9950" d="M394.707 214.8a5.3 5.3 0 0 0 1.259-3.861 5.416 5.416 0 0 0-3.56 1.831 5.067 5.067 0 0 0-1.286 3.745 4.489 4.489 0 0 0 3.587-1.715z" class="cls-1" transform="translate(-381.716 -210.935)"/>
            </g>
        </g>
        <path id="사각형_6747" fill="none" d="M0 0H38V38H0z" transform="translate(-0.061 -1.06)"/>
    </g>
</svg>
