<svg xmlns="http://www.w3.org/2000/svg" width="38" height="38" viewBox="0 0 38 38">
    <path fill="none" d="M0 0H38V38H0z"/>
    <path fill="#fff" d="M9.845 19.82a9.748 9.748 0 0 1-6.961-2.9 9.957 9.957 0 0 1 0-14.015 9.8 9.8 0 0 1 13.6-.305l-2.9 2.859a5.837 5.837 0 1 0 1.678 6.524H9.721V7.841h9.754a10.024 10.024 0 0 1 .215 2.069 9.879 9.879 0 0 1-2.883 7.008 9.748 9.748 0 0 1-6.962 2.902zM27.6 14.112h-2.489v-3.45h-3.426V8.154h3.427V4.7H27.6v3.45h3.427v2.508H27.6v3.449z" transform="translate(3.501 9.1)"/>
</svg>
