<svg xmlns="http://www.w3.org/2000/svg" width="38" height="38" viewBox="0 0 38 38">
    <g>
        <path fill="none" d="M0 0H38V38H0z" transform="translate(-469.885 -43.406) translate(469.885 43.406)"/>
        <path fill="#381e1f" stroke="rgba(0,0,0,0)" stroke-miterlimit="10" d="M472.824 44.151c-8.3 0-15.023 5.434-15.023 12.138 0 4.363 2.85 8.188 7.127 10.328-.314 1.2-1.138 4.343-1.3 5.016-.2.835.3.824.628.6.259-.176 4.116-2.857 5.781-4.014a18.591 18.591 0 0 0 2.788.209c8.3 0 15.023-5.434 15.023-12.138s-6.727-12.139-15.024-12.139z" transform="translate(-469.885 -43.406) translate(16.073 4.166)"/>
    </g>
</svg>
