<svg xmlns="http://www.w3.org/2000/svg" width="160" height="50" viewBox="0 0 160 50">
    <defs>
        <style>
            .cls-2{fill:#0f0f0f}
        </style>
    </defs>
    <g id="btn_appstore" transform="translate(6.388 5.369)">
        <path id="사각형_7668" fill="none" d="M0 0H160V50H0z" transform="translate(-6.388 -5.369)"/>
        <path id="패스_3888" d="M113.989 101.587a7.112 7.112 0 0 1 3.387-5.967 7.284 7.284 0 0 0-5.736-3.1c-2.413-.254-4.754 1.444-5.983 1.444-1.254 0-3.147-1.419-5.187-1.378a7.638 7.638 0 0 0-6.428 3.921c-2.78 4.812-.706 11.885 1.957 15.775 1.332 1.906 2.889 4.032 4.927 3.957 1.993-.081 2.738-1.27 5.144-1.27 2.384 0 3.083 1.27 5.161 1.222 2.139-.033 3.487-1.914 4.772-3.836a15.725 15.725 0 0 0 2.182-4.445 6.88 6.88 0 0 1-4.196-6.323z" class="cls-2" transform="translate(-86.109 -83.311)"/>
        <path id="패스_3889" d="M160.834 59.669a7 7 0 0 0 1.6-5.016 7.13 7.13 0 0 0-4.61 2.385 6.662 6.662 0 0 0-1.644 4.831 5.89 5.89 0 0 0 4.654-2.2z" class="cls-2" transform="translate(-136.88 -53.021)"/>
        <g id="그룹_1827" transform="translate(42.971 16.085)">
            <path id="패스_3890" d="M288.751 144.638h-2.786l-1.526-4.8h-5.3l-1.454 4.8h-2.712l5.257-16.326h3.246zm-4.772-6.807l-1.38-4.263q-.219-.653-.823-3.076h-.049q-.243 1.042-.775 3.076l-1.357 4.263z" class="cls-2" transform="translate(-274.968 -128.07)"/>
            <path id="패스_3891" d="M366.2 155.9a6.666 6.666 0 0 1-1.632 4.746 4.784 4.784 0 0 1-3.629 1.551 3.633 3.633 0 0 1-3.361-1.67v6.177h-2.615v-12.672q0-1.886-.1-3.869h2.3l.146 1.866h.049a4.653 4.653 0 0 1 7.448-.462 6.509 6.509 0 0 1 1.394 4.333zm-2.664.1a4.853 4.853 0 0 0-.775-2.835 2.679 2.679 0 0 0-2.275-1.165 2.72 2.72 0 0 0-1.755.642 2.977 2.977 0 0 0-1.029 1.684 3.42 3.42 0 0 0-.121.8v1.964a3.15 3.15 0 0 0 .787 2.169 2.615 2.615 0 0 0 2.046.884 2.681 2.681 0 0 0 2.3-1.138 5.011 5.011 0 0 0 .825-3.005z" class="cls-2" transform="translate(-338.928 -145.368)"/>
            <path id="패스_3892" d="M434.065 155.9a6.665 6.665 0 0 1-1.632 4.746 4.786 4.786 0 0 1-3.63 1.551 3.633 3.633 0 0 1-3.361-1.67v6.177h-2.616v-12.672q0-1.886-.1-3.869h2.3l.146 1.866h.049a4.654 4.654 0 0 1 7.449-.462 6.517 6.517 0 0 1 1.395 4.333zm-2.666.1a4.853 4.853 0 0 0-.777-2.835 2.675 2.675 0 0 0-2.273-1.165 2.732 2.732 0 0 0-1.758.642 2.974 2.974 0 0 0-1.028 1.684 3.492 3.492 0 0 0-.123.8v1.964a3.161 3.161 0 0 0 .786 2.169 2.62 2.62 0 0 0 2.049.884 2.678 2.678 0 0 0 2.3-1.138A5.011 5.011 0 0 0 431.4 156z" class="cls-2" transform="translate(-393.251 -145.368)"/>
            <path id="패스_3893" d="M514.8 139.089a4.361 4.361 0 0 1-1.451 3.392 6.432 6.432 0 0 1-4.447 1.429 7.763 7.763 0 0 1-4.227-1.017l.6-2.18a7.276 7.276 0 0 0 3.779 1.018 3.565 3.565 0 0 0 2.3-.666 2.176 2.176 0 0 0 .826-1.779 2.28 2.28 0 0 0-.679-1.672 6.3 6.3 0 0 0-2.253-1.259q-4.287-1.6-4.289-4.677a4.129 4.129 0 0 1 1.514-3.294 5.986 5.986 0 0 1 4.009-1.284 7.921 7.921 0 0 1 3.706.775l-.656 2.132a6.48 6.48 0 0 0-3.137-.751 3.189 3.189 0 0 0-2.164.678 1.941 1.941 0 0 0-.656 1.479 2 2 0 0 0 .752 1.6 8.476 8.476 0 0 0 2.373 1.258 8.045 8.045 0 0 1 3.1 1.985 4.137 4.137 0 0 1 1 2.833z" class="cls-2" transform="translate(-458.846 -127.101)"/>
            <path id="패스_3894" d="M570.117 141.321h-2.883v5.716q0 2.18 1.526 2.179a4.594 4.594 0 0 0 1.162-.121l.072 1.986a5.924 5.924 0 0 1-2.034.289 3.135 3.135 0 0 1-2.423-.946 4.638 4.638 0 0 1-.872-3.173v-5.934h-1.717v-1.963h1.717V137.2l2.569-.775v2.931h2.883z" class="cls-2" transform="translate(-505.495 -134.563)"/>
            <path id="패스_3895" d="M617.687 155.967a6.459 6.459 0 0 1-1.55 4.457 5.528 5.528 0 0 1-4.311 1.792 5.269 5.269 0 0 1-4.13-1.718 6.262 6.262 0 0 1-1.538-4.335 6.405 6.405 0 0 1 1.586-4.48 5.5 5.5 0 0 1 4.277-1.744 5.379 5.379 0 0 1 4.165 1.72 6.179 6.179 0 0 1 1.501 4.308zm-2.711.06a5.271 5.271 0 0 0-.7-2.777 2.589 2.589 0 0 0-2.35-1.4 2.626 2.626 0 0 0-2.4 1.4 5.358 5.358 0 0 0-.7 2.826 5.256 5.256 0 0 0 .7 2.779 2.682 2.682 0 0 0 4.727-.023 5.293 5.293 0 0 0 .723-2.805z" class="cls-2" transform="translate(-540.084 -145.383)"/>
            <path id="패스_3896" d="M681.3 152.463a4.547 4.547 0 0 0-.824-.072 2.468 2.468 0 0 0-2.132 1.043 3.928 3.928 0 0 0-.653 2.325v6.177h-2.615v-8.066q0-2.033-.076-3.706h2.278l.1 2.252h.072a4.041 4.041 0 0 1 1.308-1.866 3.162 3.162 0 0 1 1.89-.631 4.2 4.2 0 0 1 .654.048v2.5z" class="cls-2" transform="translate(-595.194 -145.368)"/>
            <path id="패스_3897" d="M723.238 155.418a6.139 6.139 0 0 1-.1 1.186H715.3a3.415 3.415 0 0 0 1.138 2.667 3.894 3.894 0 0 0 2.566.822 8.679 8.679 0 0 0 3.175-.556l.41 1.814a9.815 9.815 0 0 1-3.947.728 5.721 5.721 0 0 1-4.3-1.61 5.951 5.951 0 0 1-1.562-4.323 6.743 6.743 0 0 1 1.455-4.431 5.012 5.012 0 0 1 4.116-1.888 4.387 4.387 0 0 1 3.853 1.888 6.354 6.354 0 0 1 1.034 3.703zm-2.494-.678a3.541 3.541 0 0 0-.508-2.011 2.284 2.284 0 0 0-2.083-1.092 2.48 2.48 0 0 0-2.082 1.066 3.91 3.91 0 0 0-.774 2.034h5.447z" class="cls-2" transform="translate(-625.432 -145.294)"/>
        </g>
        <g id="그룹_1828" transform="translate(43.945 2.044)">
            <path id="패스_3898" d="M286.626 66.827h-1.37l-.75-2.357H281.9l-.715 2.357h-1.333l2.583-8.024h1.595zm-2.346-3.345l-.679-2.1c-.071-.215-.2-.714-.4-1.511h-.025c-.083.345-.2.845-.381 1.511l-.666 2.1z" class="cls-2" transform="translate(-279.851 -58.387)"/>
            <path id="패스_3899" d="M323.88 70.025l-2.191 5.785h-1.25l-2.12-5.785h1.381l.989 3.06c.167.512.309 1 .416 1.464h.035c.1-.416.238-.9.416-1.464l.976-3.06z" class="cls-2" transform="translate(-310.645 -67.37)"/>
            <path id="패스_3900" d="M355.145 75.333l-.1-.666h-.035a1.973 1.973 0 0 1-1.691.8 1.684 1.684 0 0 1-1.774-1.7c0-1.428 1.238-2.166 3.381-2.166v-.107c0-.762-.4-1.143-1.2-1.143a2.7 2.7 0 0 0-1.511.429l-.261-.845a3.7 3.7 0 0 1 1.989-.5c1.511 0 2.274.8 2.274 2.393v2.131a8.6 8.6 0 0 0 .083 1.381zm-.179-2.882c-1.429 0-2.143.346-2.143 1.167a.819.819 0 0 0 .881.9 1.23 1.23 0 0 0 1.262-1.178z" class="cls-2" transform="translate(-337.245 -66.893)"/>
            <path id="패스_3901" d="M386.247 59.085a.769.769 0 1 1 .81-.774.756.756 0 0 1-.81.774zm.667 6.738h-1.286v-5.785h1.286z" class="cls-2" transform="translate(-364.411 -57.383)"/>
            <path id="패스_3902" d="M405.385 65.159H404.1v-8.44h1.286z" class="cls-2" transform="translate(-379.311 -56.719)"/>
            <path id="패스_3903" d="M423.5 75.328l-.1-.666h-.036a1.972 1.972 0 0 1-1.69.8 1.684 1.684 0 0 1-1.774-1.7c0-1.428 1.238-2.166 3.381-2.166v-.107c0-.762-.4-1.143-1.2-1.143a2.7 2.7 0 0 0-1.511.429l-.263-.846a3.7 3.7 0 0 1 1.989-.5c1.511 0 2.274.8 2.274 2.393v2.131a8.91 8.91 0 0 0 .082 1.381zm-.179-2.882c-1.429 0-2.143.346-2.143 1.167a.819.819 0 0 0 .881.9 1.23 1.23 0 0 0 1.262-1.178z" class="cls-2" transform="translate(-391.966 -66.889)"/>
            <path id="패스_3904" d="M457.32 65.29a1.964 1.964 0 0 1-1.819-1.024h-.026l-.074.893h-1.1c.036-.464.048-.989.048-1.559v-6.881h1.287v3.5h.025a1.984 1.984 0 0 1 1.845-.964c1.394 0 2.37 1.191 2.37 2.928.004 1.797-1.076 3.107-2.556 3.107zm-.261-5.025a1.479 1.479 0 0 0-1.417 1.536v1.012a1.417 1.417 0 0 0 1.395 1.453c.963 0 1.536-.785 1.536-2.035-.002-1.167-.598-1.965-1.514-1.965z" class="cls-2" transform="translate(-419.502 -56.719)"/>
            <path id="패스_3905" d="M493.062 65.159h-1.284v-8.44h1.284z" class="cls-2" transform="translate(-449.498 -56.719)"/>
            <path id="패스_3906" d="M512.835 72.7h-3.859a1.66 1.66 0 0 0 1.822 1.714 4.339 4.339 0 0 0 1.559-.274l.2.893a4.823 4.823 0 0 1-1.94.357 2.686 2.686 0 0 1-2.882-2.916 2.826 2.826 0 0 1 2.737-3.107c1.476 0 2.406 1.1 2.406 2.751a2.423 2.423 0 0 1-.043.582zm-1.179-.916c0-.893-.453-1.524-1.275-1.524a1.527 1.527 0 0 0-1.406 1.524z" class="cls-2" transform="translate(-462.271 -66.844)"/>
            <path id="패스_3907" d="M561.177 75.465a2.754 2.754 0 0 1-2.786-2.976 2.818 2.818 0 0 1 2.883-3.06 2.732 2.732 0 0 1 2.786 2.965 2.835 2.835 0 0 1-2.883 3.071zm.049-5.1c-.929 0-1.524.869-1.524 2.083 0 1.191.607 2.06 1.511 2.06s1.51-.928 1.51-2.084c.002-1.175-.593-2.055-1.497-2.055z" class="cls-2" transform="translate(-502.821 -66.893)"/>
            <path id="패스_3908" d="M601.106 75.328h-1.284v-3.321c0-1.023-.393-1.536-1.167-1.536a1.336 1.336 0 0 0-1.287 1.417v3.441h-1.284V71.2c0-.512-.014-1.06-.048-1.655h1.131l.06.893h.036a2.076 2.076 0 0 1 1.833-1.012c1.213 0 2.011.929 2.011 2.44v3.466z" class="cls-2" transform="translate(-532.956 -66.889)"/>
            <path id="패스_3909" d="M649.492 65.206h-1.414v2.809q0 1.073.748 1.072a2.547 2.547 0 0 0 .572-.06l.036.977a2.868 2.868 0 0 1-1 .143c-1.013 0-1.618-.559-1.618-2.024v-2.917h-.844v-.964h.844v-1.06l1.261-.382v1.44h1.414z" class="cls-2" transform="translate(-572.93 -61.587)"/>
            <path id="패스_3910" d="M677.58 65.159h-1.287v-3.3c0-1.035-.393-1.559-1.167-1.559a1.259 1.259 0 0 0-1.284 1.369v3.487h-1.287v-8.44h1.287v3.475h.024a1.947 1.947 0 0 1 1.738-.941c1.226 0 1.975.952 1.975 2.464z" class="cls-2" transform="translate(-594.209 -56.719)"/>
            <path id="패스_3911" d="M710.208 72.7h-3.858a1.659 1.659 0 0 0 1.82 1.714 4.335 4.335 0 0 0 1.559-.274l.2.893a4.829 4.829 0 0 1-1.941.357 2.686 2.686 0 0 1-2.882-2.916 2.826 2.826 0 0 1 2.737-3.107c1.476 0 2.406 1.1 2.406 2.751a2.484 2.484 0 0 1-.041.582zm-1.179-.916c0-.893-.451-1.524-1.273-1.524a1.525 1.525 0 0 0-1.406 1.524z" class="cls-2" transform="translate(-620.268 -66.844)"/>
        </g>
    </g>
</svg>
