<svg xmlns="http://www.w3.org/2000/svg" width="77.412" height="22" viewBox="0 0 77.412 22">
    <path fill="#0ac3bc" d="M93.788 76.815c1.434-.046 1.741-1.637 1.733-1.9-.008-.239-.209-.185-.278-.184-.692.008-1.839.029-3.094.054a31.017 31.017 0 0 1 1.621-3.05c.942-1.372-3.174-.453-4.164.251a20.747 20.747 0 0 0-1.256 2.879c-1.363.03-2.366.052-2.384.051-.335-.03-.454.544-.323 1.085a.781.781 0 0 0 .7.68 12.6 12.6 0 0 0 1.324.084c-.287.855-.57 1.776-.825 2.731a3.206 3.206 0 0 1-2.6.913 7.048 7.048 0 0 0-.129-2.527A4.841 4.841 0 0 0 82.417 75a1.679 1.679 0 0 0-1.536-.13 1.754 1.754 0 0 0-1.526-.488 7.024 7.024 0 0 0-4.81 3.05c-.126.167-.373.475-.475.477-.615.015.044-1.187-1.376-2.157-1.853-1.267-4 .418-4.939 1.273a3.16 3.16 0 0 0 .281-.933c-.3-1.162-2.472-2.329-3.185-1.373a17.112 17.112 0 0 0-1.172 3.181c-.528-.077-.116-1.211-1.489-2.15-1.853-1.267-4 .418-4.939 1.273a3.151 3.151 0 0 0 .281-.933c-.3-1.162-2.472-2.329-3.185-1.373a37.3 37.3 0 0 0-2.424 8.317 6.3 6.3 0 0 1-1.841 1.823c-.917.492-1.246.253-1.2-.814a17.965 17.965 0 0 1 2.13-7.449c.33-.829-1.874-2.975-2.793-1.97a5.211 5.211 0 0 0-.7 1.031 4.731 4.731 0 0 0-3.238-1.064 5.056 5.056 0 0 0-1.825.443 8.707 8.707 0 0 0-5.133 6.3c-.02.1-.036.2-.052.3a10.183 10.183 0 0 1-4.882 2.3c-7.912.64-10.466-6.445-7.016-11.839 1.162-1.816 4.287-4.26 7.225-4.156 2.986.107 3.232 2.649-.055 3.789a.11.11 0 0 0-.054.169c.469.622 2.687 3.419 4.243 2.835 3.261-1.224 2.426-5.8-.115-7.554-5.055-3.5-12.658-1.268-16.235 3.4a10.969 10.969 0 0 0-.691 12.329 10.264 10.264 0 0 0 8.809 4.561 12.545 12.545 0 0 0 8.879-3.28 4.945 4.945 0 0 0 .173.527 4.163 4.163 0 0 0 3.784 2.745 5.736 5.736 0 0 0 4.194-1.772c.209.868.681 1.746 1.767 1.778a5.821 5.821 0 0 0 4.33-2.358c-.041.4-.07.79-.083 1.159a1.259 1.259 0 0 0 1.216 1.2c1.01.034 2.307-.308 2.316-.736a22.053 22.053 0 0 1 .19-2.423c.3-1.728 1.993-8 6.433-5.258a2.122 2.122 0 0 0 1.583.26 33.733 33.733 0 0 0-1.233 6.957 1.259 1.259 0 0 0 1.216 1.2c1.01.034 2.307-.308 2.316-.736a21.98 21.98 0 0 1 .19-2.423c.3-1.729 1.993-8 6.433-5.257a2.1 2.1 0 0 0 1.45.286c-.868 2.854-1.229 8.351 4.483 8.125 3.941-.155 5.354-3.409 5.883-5.693a4.6 4.6 0 0 0 2.321-.449c-.471 2-.8 5.831 3.433 6.134a4.432 4.432 0 0 0 4.817-3.791c.192-.818-.017-2.064-.483-2.324-.2-.114-1.7-.017-2.382 1.767a.17.17 0 0 0 .09.21.869.869 0 0 1 .513 1.082 1.357 1.357 0 0 1-2.178.531 1.838 1.838 0 0 1-.451-1.2c-.141-2.153.91-5.031 1.636-6.9 1.209-.002 2.225-.007 2.452-.014zM42.381 84.49s-2.379-.27-.822-3.851c0 0 1.47-3.859 4.165-3.557a1.811 1.811 0 0 1 .82.331.305.305 0 0 1 .1.335 31.852 31.852 0 0 0-1.2 5.411 3.784 3.784 0 0 1-3.063 1.331zm36.293.158c-3.165.069-1.754-4.654-1.754-4.654 1.037-3.555 2.8-3.553 3.552-3.363a8.589 8.589 0 0 0 1.087 3.422c-.244 4.796-2.884 4.596-2.884 4.596z" transform="translate(-18.109 -65.468)"/>
</svg>
