<svg xmlns="http://www.w3.org/2000/svg" width="150" height="38" viewBox="0 0 150 38">
    <path fill="none" d="M0 0H150V38H0z"/>
    <path fill="#2bd3c6" d="M56.713 31.3a3.685 3.685 0 0 1-3.938 3.362 3.685 3.685 0 0 1-3.939-3.362V12.814a3.685 3.685 0 0 1 3.938-3.362 3.685 3.685 0 0 1 3.938 3.362zm63.015 0a3.988 3.988 0 0 1-7.877 0V12.814a3.988 3.988 0 0 1 7.877 0zM81.123 9.452a3.688 3.688 0 0 0-3.945 3.362v12.217a2.942 2.942 0 0 0-.269-.792c-1.263-2.043-6.62-10.7-7.99-12.939a4.079 4.079 0 0 0-3.534-1.848 3.687 3.687 0 0 0-3.946 3.362v18.479a3.688 3.688 0 0 0 3.946 3.36h5.52a16.933 16.933 0 0 0-3.551-3.408c-4.266-2.93-1.909-7.262 2.023-6.3 3.806.937 3.948 7.505 3.948 9.7h7.817a3.682 3.682 0 0 0 3.927-3.36V12.814a3.688 3.688 0 0 0-3.946-3.362m24.513 0H89.709a3.339 3.339 0 0 0-3.064 3.559 3.339 3.339 0 0 0 3.064 3.559h4.269V31.3a3.711 3.711 0 0 0 7.388 0V16.57h4.269a3.341 3.341 0 0 0 3.064-3.56 3.339 3.339 0 0 0-3.064-3.557M145.465.3a3.074 3.074 0 0 0-3.8.922 3.148 3.148 0 0 0 .577 4.378 1.45 1.45 0 0 1-1.067 2.6h-15.1a3.5 3.5 0 0 0-3.195 3.735 3.5 3.5 0 0 0 3.195 3.735h4.45v15.459a3.865 3.865 0 0 0 7.7 0V15.667h3.119c5.076 0 8.316-3.064 8.316-7.661 0-2.965-1.941-6.761-4.2-7.707M38.7 9.46a3.742 3.742 0 0 0-3.431 1.87c-1.341 2.256-5.426 9.154-6.33 10.681a1.991 1.991 0 0 0-.178.48 1.945 1.945 0 0 0-.178-.491c-.895-1.508-4.847-8.168-6.29-10.59a3.707 3.707 0 0 0-3.466-1.961 3.778 3.778 0 0 0-3.948 3.4c-1.567 9.733-2.464 17.909-5.771 17.909A2.263 2.263 0 0 1 7.072 27.2c1.081-1.969 1.615-3.891-1.035-5.218a3.457 3.457 0 0 0-3.85.668C-1.878 26.8-.681 37.809 9.239 37.809c7.212 0 10.448-4.12 11.907-14.649.74 1.607 2.258 5.728 3.734 9.484a3.668 3.668 0 0 0 3.41 2.326h2.7c0-2.226.139-8.874 3.833-9.821 3.819-.98 6.106 3.406 1.964 6.372a16.718 16.718 0 0 0-3.447 3.448h5.359a3.636 3.636 0 0 0 3.831-3.4v-18.7a3.637 3.637 0 0 0-3.831-3.4" transform="translate(0 .136)"/>
</svg>
