<svg xmlns="http://www.w3.org/2000/svg" width="149.999" height="149.999" viewBox="0 0 149.999 149.999">
    <path fill="#dfdfdf" d="M147 150H3a3 3 0 0 1-3-3V3a3 3 0 0 1 3-3h144a3 3 0 0 1 3 3v144a3 3 0 0 1-3 3zM41.665 79.767a1 1 0 0 0-.781.375L9.632 119.209a1 1 0 0 0 .781 1.624h129.2a1 1 0 0 0 .788-1.615L90.373 55.174a1 1 0 0 0-1.576 0L56.028 97.119 42.447 80.142a1 1 0 0 0-.782-.375zm4.167-46.432A12.5 12.5 0 1 0 54.671 37a12.418 12.418 0 0 0-8.839-3.665z" transform="translate(.001 -.001)"/>
</svg>
