<svg xmlns="http://www.w3.org/2000/svg" width="160" height="50" viewBox="0 0 160 50">
    <defs>
        <style>
            .cls-2,.cls-4{fill:#0f0f0f}.cls-2{stroke:#0f0f0f;stroke-miterlimit:10;stroke-width:.16px}.cls-4{stroke:#fff}
        </style>
    </defs>
    <g id="ic_googleplay" transform="translate(3.168 5.303)">
        <path id="사각형_7669" fill="none" d="M0 0H160V50H0z" transform="translate(-3.168 -5.303)"/>
        <path id="path20" d="M276.059 332.212a3.47 3.47 0 0 1-.961 2.563 3.808 3.808 0 0 1-2.858 1.138 3.951 3.951 0 0 1-2.857-1.15 4.061 4.061 0 0 1 0-5.717 3.931 3.931 0 0 1 2.857-1.157 4.105 4.105 0 0 1 1.594.325 3.158 3.158 0 0 1 1.214.856l-.677.675a2.652 2.652 0 0 0-2.131-.906 2.986 2.986 0 0 0-2.123.85 3.2 3.2 0 0 0 0 4.431 3.012 3.012 0 0 0 2.123.85 2.971 2.971 0 0 0 2.169-.856 2.4 2.4 0 0 0 .651-1.557h-2.819v-.925H276a2.6 2.6 0 0 1 .059.58z" class="cls-2" transform="translate(-225.743 -325.189)"/>
        <path id="path24" d="M316.819 329.666h-3.533v2.434h3.185v.924h-3.185v2.432h3.533v.942h-4.534v-7.672h4.534z" class="cls-2" transform="translate(-260.536 -325.85)"/>
        <path id="path28" d="M341.926 336.4h-1v-6.73h-2.167v-.942h5.341v.942h-2.169z" class="cls-2" transform="translate(-281.432 -325.85)"/>
        <path id="path32" d="M382.416 336.4v-7.672h1v7.672z" class="cls-2" transform="translate(-315.89 -325.85)"/>
        <path id="path36" d="M396.3 336.4h-.992v-6.73h-2.175v-.942h5.343v.942H396.3z" class="cls-2" transform="translate(-324.35 -325.85)"/>
        <path id="path40" d="M440.812 334.749a4.07 4.07 0 0 1-5.7 0 4.118 4.118 0 0 1 0-5.7 4.054 4.054 0 0 1 5.69.006 4.1 4.1 0 0 1 .006 5.692zm-4.958-.643a3.01 3.01 0 0 0 4.218 0 3.243 3.243 0 0 0 0-4.412 3.01 3.01 0 0 0-4.218 0 3.243 3.243 0 0 0 0 4.412z" class="cls-2" transform="translate(-356.583 -325.189)"/>
        <path id="path44" d="M478.535 336.4v-7.672h1.214l3.774 5.967h.043l-.043-1.475v-4.492h1v7.672h-1.042l-3.952-6.261h-.044l.044 1.481v4.78z" class="cls-2" transform="translate(-391.76 -325.85)"/>
        <path id="path46" fill="#0f0f0f" d="M301.368 395.754a5.444 5.444 0 1 0 5.532 5.446 5.4 5.4 0 0 0-5.532-5.446zm0 8.742a3.305 3.305 0 1 1 3.111-3.3 3.163 3.163 0 0 1-3.111 3.304zm-12.056-8.742a5.444 5.444 0 1 0 5.525 5.444 5.394 5.394 0 0 0-5.525-5.444zm0 8.742a3.305 3.305 0 1 1 3.1-3.3 3.167 3.167 0 0 1-3.1 3.304zm-14.346-7.074v2.313h5.589a4.776 4.776 0 0 1-1.27 2.905 5.776 5.776 0 0 1-4.318 1.688 6.143 6.143 0 0 1 0-12.285 5.964 5.964 0 0 1 4.211 1.649l1.649-1.63a8.2 8.2 0 0 0-5.861-2.331 8.457 8.457 0 1 0 0 16.909 7.866 7.866 0 0 0 5.969-2.374 8.237 8.237 0 0 0 1.9-6.843zm58.663 1.793a5.1 5.1 0 0 0-4.716-3.462 5.2 5.2 0 0 0-5.191 5.444 5.356 5.356 0 0 0 5.462 5.442 5.475 5.475 0 0 0 4.59-2.412l-1.878-1.237a3.156 3.156 0 0 1-2.712 1.505 2.8 2.8 0 0 1-2.667-1.649l7.366-3.012zm-7.51 1.812a3 3 0 0 1 2.881-3.173 2.144 2.144 0 0 1 2.049 1.155zm-5.987 5.281h2.421v-16h-2.421zm-3.965-9.342h-.081a3.837 3.837 0 0 0-2.9-1.212 5.445 5.445 0 0 0 0 10.886 3.78 3.78 0 0 0 2.9-1.237h.081v.781c0 2.081-1.125 3.2-2.939 3.2a3.055 3.055 0 0 1-2.776-1.944l-2.106.869a5.254 5.254 0 0 0 4.881 3.219c2.839 0 5.234-1.651 5.234-5.668v-9.774h-2.295zM313.4 404.5a3.308 3.308 0 0 1 0-6.6 3.321 3.321 0 0 1 0 6.6zm31.567-14.184h-5.791v16h2.415v-6.061h3.376a4.979 4.979 0 1 0 0-9.936zm.063 7.711h-3.439v-5.485h3.439a2.744 2.744 0 1 1 0 5.485zm14.927-2.3a4.539 4.539 0 0 0-4.305 2.449l2.143.888a2.292 2.292 0 0 1 2.205-1.179 2.32 2.32 0 0 1 2.543 2.057v.168a5.355 5.355 0 0 0-2.523-.619c-2.308 0-4.659 1.256-4.659 3.6 0 2.144 1.89 3.524 4.015 3.524a3.427 3.427 0 0 0 3.085-1.568h.083v1.237h2.332v-6.136c-.002-2.838-2.145-4.424-4.921-4.424zm-.291 8.766c-.79 0-1.89-.387-1.89-1.355 0-1.238 1.372-1.713 2.561-1.713a4.371 4.371 0 0 1 2.208.538 2.92 2.92 0 0 1-2.881 2.527zm13.707-8.416l-2.776 6.935h-.083l-2.869-6.935h-2.6l4.312 9.691-2.46 5.393h2.523l6.644-15.084zM351.6 406.309h2.421v-16H351.6z" transform="translate(-224.227 -374.004)"/>
        <path id="path64" d="M75.947 331.633a2.529 2.529 0 0 0-.6 1.8v28.3a2.528 2.528 0 0 0 .6 1.8l.094.086 16.046-15.853v-.374L76.04 331.54z" class="cls-4" transform="translate(-73.515 -328.073)"/>
        <path id="path78" d="M160.145 392.639l-5.342-5.287v-.374l5.349-5.287.12.069 6.335 3.563c1.808 1.011 1.808 2.675 0 3.692l-6.335 3.556z" class="cls-4" transform="translate(-136.23 -367.656)"/>
        <path id="path88" d="M99.805 413.078l-5.469-5.405L78.2 423.626a2.127 2.127 0 0 0 2.693.075l18.915-10.624" class="cls-4" transform="translate(-75.765 -388.165)"/>
        <path id="path104" d="M99.805 340.619L80.89 330a2.135 2.135 0 0 0-2.693.082l16.139 15.947z" class="cls-4" transform="translate(-75.765 -326.516)"/>
    </g>
</svg>
