<?xml version="1.0" encoding="utf-8"?>
<!-- Generator: Adobe Illustrator 16.0.0, SVG Export Plug-In . SVG Version: 6.00 Build 0)  -->
<!DOCTYPE svg PUBLIC "-//W3C//DTD SVG 1.1//EN" "http://www.w3.org/Graphics/SVG/1.1/DTD/svg11.dtd">
<svg version="1.1" id="레이어_2" xmlns="http://www.w3.org/2000/svg" xmlns:xlink="http://www.w3.org/1999/xlink" x="0px"
	 y="0px" width="88px" height="27px" viewBox="0 0 88 27" enable-background="new 0 0 88 27" xml:space="preserve">
<path fill="#0F218B" d="M48.658,11.81c0-1.664,1.58-3.013,3.525-3.013c1.955,0,3.522,1.349,3.522,3.013
	c0,1.673-1.567,3.018-3.522,3.018C50.238,14.827,48.658,13.483,48.658,11.81 M53.748,17.253c2.903-0.595,5.062-2.805,5.062-5.443
	c0-3.091-2.964-5.601-6.626-5.601c-3.657,0-6.621,2.51-6.621,5.601c0,2.591,2.077,4.759,4.895,5.403v2.137h-5.275v2.763H59.15
	v-2.635h-5.402V17.253z M84.707,0.199v9.288h-1.586V0.199h-3.158v26.007h3.158V12.127h1.586v14.079H88V0.199H84.707z M74.429,4.323
	h3.949V1.389H67.841v2.934h3.692c0,0,0.786,12.12-5.268,16.212l2.104,2.244c0,0,3.291-2.111,4.48-6.211c0,0,2.373,4.896,4.346,6.211
	l2.235-2.244C79.431,20.535,74.07,17.216,74.429,4.323 M66.787,10.146h-3.159V0.199h-3.158v26.007h3.158V12.785h3.159V10.146z
	 M58.617,2.31h-4.739V0h-3.421v2.182h-5.141v2.772h13.301V2.31z M34.12,24.102c-2.982,0-5.403-1.654-5.403-3.702
	c0-2.041,2.421-3.696,5.403-3.696c2.979,0,5.396,1.655,5.396,3.696C39.516,22.448,37.099,24.102,34.12,24.102 M34.12,13.802
	c-4.802,0-8.698,2.957-8.698,6.598c0,3.648,3.896,6.601,8.698,6.601c4.803,0,8.693-2.952,8.693-6.601
	C42.813,16.758,38.922,13.802,34.12,13.802 M38.994,13.802h3.554V0.199h-3.554v4.354h-4.088v3.043h4.088V13.802z M7.37,17.761h9.097
	v5.411H7.37V17.761z M4.083,26.206H19.89V14.854H4.083V26.206z M19.759,7.596h2.764V4.553h-2.764V0.133h-3.296v13.399h3.296V7.596z
	 M29.113,7.596c0,0,2.507,4.746,5.006,5.546l1.842-1.854c0,0-5.398-3.367-5.132-10.631h-3.433c0,0,0.792,7.065-5.262,10.496
	l1.836,2.119C23.971,13.273,27.53,11.289,29.113,7.596 M6.985,7.596c0,0,2.5,4.746,4.998,5.546l1.847-1.854
	c0,0-5.403-3.367-5.14-10.631h-3.42c0,0,0.784,7.065-5.271,10.496l1.84,2.119C1.84,13.273,5.395,11.289,6.985,7.596"/>
</svg>
