<svg xmlns="http://www.w3.org/2000/svg" width="152" height="30.92" viewBox="0 0 152 30.92">
    <g>
        <path fill="#e50019" d="M42.237 22.057c1.278-1.512 1.843-2.208 1.721-2.589a1.3 1.3 0 0 0-.84-.707 2.009 2.009 0 0 0-1.475-.072 4.988 4.988 0 0 0-.722.755l-.4.456c-.258-.262-.532-.524-.8-.757a13.747 13.747 0 0 0-6.933-3.218 4.222 4.222 0 0 0-3.733-1.409 4.1 4.1 0 0 0-2.793 1.884 15.455 15.455 0 0 0-6.881 4.361 3.177 3.177 0 0 0-1.92.355.981.981 0 0 0-.565.628c-.029.179.044.46.761 1.281a15.191 15.191 0 0 0-2.249 9.813A13.752 13.752 0 0 0 23.053 43.7a16.916 16.916 0 0 0 15.777-.559h.007a.858.858 0 0 0 .334-1.13l-.057-.131c-.794-1.782-3.213-7.2-1.865-12.145a18.384 18.384 0 0 1 3.589-6 13.489 13.489 0 0 1 2.144 7.79 12.327 12.327 0 0 1-2.454 6.966.288.288 0 0 0-.068.2.31.31 0 0 0 .022.092l.153.358a.3.3 0 0 0 .288.168.288.288 0 0 0 .2-.107 14.851 14.851 0 0 0 1.108-17.147M24.7 33.748a27.9 27.9 0 0 0-.358 8.242 13.891 13.891 0 0 1-2.858-1.922 13.7 13.7 0 0 1-4.509-7.91 12.711 12.711 0 0 1 1.363-8.4c.532.554 1.174 1.193 1.848 1.863a42.713 42.713 0 0 1 4.426 4.8c.526.761.362 1.728.089 3.327m14.329-12.26c-3.039 3.052-5.9 4.708-8.506 4.906a10.618 10.618 0 0 1-6.311-1.778 24.3 24.3 0 0 1-4.031-3.2l-.085-.078a12.379 12.379 0 0 1 5.487-3.4 6.21 6.21 0 0 0-.126 2.589 5.847 5.847 0 0 0 2.242 3.834 3.922 3.922 0 0 0 5.663-.89 5.849 5.849 0 0 0 .954-4.337 6.429 6.429 0 0 0-.2-.857 13.78 13.78 0 0 1 4.165 2.509c.253.22.504.455.748.702z" transform="translate(-15.309 -14.469)"/>
        <path fill="#1a1818" d="M197.947 61.471h-2.493v2.819a1 1 0 0 0 1.056 1.1 2.986 2.986 0 0 0 1.438-.4v1.555a4.87 4.87 0 0 1-1.985.434 2.363 2.363 0 0 1-2.657-2.57v-2.938h-.98v-.415l2.862-3.2h.266V60h2.493zm29.431 2.286a7.865 7.865 0 0 1-3.667 1.113c-2.105 0-3.608-1.289-3.608-3.1 0-1.8 1.516-3.072 3.669-3.072a7.079 7.079 0 0 1 3.486 1.038v-2.255a7.116 7.116 0 0 0-3.665-.892c-3.875 0-6.087 2.524-6.087 5.225 0 2.611 1.959 5.166 5.895 5.166a7.828 7.828 0 0 0 3.977-1.012zm-52.511 2.193l-1.529 1.023a2.041 2.041 0 0 1-1.338-.844 2.676 2.676 0 0 1-2.029.844 3.567 3.567 0 0 1 .059-7.11 3.476 3.476 0 0 1 1.8.462V60h2.138v4.468c0 .626.118 1.32.905 1.486m-3.056-4.261a2.317 2.317 0 0 0-1.248-.388c-1.215 0-1.632 1.291-1.632 2.273a1.67 1.67 0 0 0 1.675 1.854 1.728 1.728 0 0 0 1.2-.46zm17.535 2.079h-4.922a2 2 0 0 0 2.258 1.931 4.025 4.025 0 0 0 2.537-.98v1.348a4.965 4.965 0 0 1-3.061.905c-2.4 0-3.96-1.394-3.96-3.534a3.578 3.578 0 1 1 7.14.33m-1.815-1.13a1.485 1.485 0 1 0-2.969 0zm26.748 1.134h-4.913a2 2 0 0 0 2.253 1.931 4.034 4.034 0 0 0 2.544-.98v1.35a4.968 4.968 0 0 1-3.061.905c-2.4 0-3.962-1.394-3.962-3.534a3.577 3.577 0 1 1 7.138.327m-1.9-1.128a1.469 1.469 0 0 0-1.488-1.5 1.453 1.453 0 0 0-1.483 1.5zm-11.108-5.923h-2.151v10.121h2.151v-4.054a1.345 1.345 0 0 1 1.438-1.35c.67 0 1.113.478 1.113 1.5v3.9h2.158v-4.36a2.4 2.4 0 0 0-2.511-2.611 2.7 2.7 0 0 0-2.2 1.141zm29.9 0h-2.151v10.121h2.151v-4.054a1.346 1.346 0 0 1 1.442-1.35c.665 0 1.111.478 1.111 1.5v3.9h2.157v-4.36a2.4 2.4 0 0 0-2.513-2.611 2.7 2.7 0 0 0-2.2 1.141zm-65.927.652a8.277 8.277 0 0 0-3.432-.785c-2.343 0-3.857 1.158-3.857 2.908 0 3.634 5.148 3.03 5.148 4.692 0 .591-.517.934-1.481.934a5.87 5.87 0 0 1-3.458-1.307V66a6.86 6.86 0 0 0 3.648.982c2.26 0 3.892-1.128 3.892-3.072 0-3.536-5.151-3.1-5.151-4.636 0-.5.578-.827 1.483-.827a7.857 7.857 0 0 1 3.207.9zm73.117-.785a1.187 1.187 0 1 0 1.185 1.185 1.189 1.189 0 0 0-1.185-1.185M239.442 60h-2.151v6.841h2.151zm3.8-3.279H241.1v7.424c0 1.348.371 2.757 2.611 2.834l.683-1.56c-.918-.177-1.143-.593-1.143-1.634zM255.974 60h-2.151v6.844h2.151v-3.01c0-1.274.663-1.944 1.769-1.944a2.5 2.5 0 0 1 1.274.5l.594-1.9a2.346 2.346 0 0 0-1.423-.622 2.423 2.423 0 0 0-2.214 1.713zm11.013 3.772h-4.913a2 2 0 0 0 2.256 1.928 4.023 4.023 0 0 0 2.539-.98v1.35a4.965 4.965 0 0 1-3.061.905c-2.4 0-3.96-1.394-3.96-3.534a3.577 3.577 0 1 1 7.138.327m-1.9-1.128a1.482 1.482 0 1 0-2.965 0zm7.594-2.769a2.7 2.7 0 0 0-2.2 1.143V60h-2.151v6.85h2.151v-4.078a1.354 1.354 0 0 1 1.44-1.322c.667 0 1.112.478 1.112 1.5v3.9h2.153v-4.36a2.4 2.4 0 0 0-2.509-2.614m-20.445-3.154h-2.151V60.3a4.017 4.017 0 0 0-1.784-.428 3.569 3.569 0 0 0-.116 7.11 2.816 2.816 0 0 0 1.9-.683v.548h2.153zm-2.153 8.253a1.818 1.818 0 0 1-1.276.561c-1.01 0-1.645-.829-1.645-2.074 0-1.366.635-2.153 1.721-2.153a2.388 2.388 0 0 1 1.2.4zM182.12 60h-2.286l-1.47 3.772L176.911 60h-2.1l2.908 6.848h1.315z" transform="translate(-123.187 -46.323)"/>
    </g>
</svg>
