<svg xmlns="http://www.w3.org/2000/svg" width="22" height="22" viewBox="0 0 22 22">
    <defs>
        <style>
            .cls-1{fill:#333}
        </style>
    </defs>
    <g id="ic_pdf" transform="translate(-60 1.667)">
        <g id="그룹_4628" transform="translate(64.25 .333)">
            <g id="그룹_4627">
                <path id="패스_8962" d="M77.431 3.872L73.669.11A.376.376 0 0 0 73.4 0h-7.9A1.506 1.506 0 0 0 64 1.5v15.05a1.506 1.506 0 0 0 1.5 1.5h10.536a1.506 1.506 0 0 0 1.5-1.5V4.138a.376.376 0 0 0-.105-.266zM73.78 1.284l2.477 2.477h-1.725a.753.753 0 0 1-.752-.752zm3.009 15.266a.753.753 0 0 1-.752.752H65.5a.753.753 0 0 1-.752-.752V1.5A.753.753 0 0 1 65.5.752h7.523v2.257a1.506 1.506 0 0 0 1.5 1.5h2.257z" class="cls-1" transform="translate(-64)"/>
                <path id="패스_8963" d="M134.431 175.69a10.9 10.9 0 0 1-.9-.776c-.287-.287-.542-.564-.764-.829a8.422 8.422 0 0 0 .5-1.915c0-1.249-.451-1.5-1.128-1.5-.515 0-1.128.267-1.128 1.541a3.607 3.607 0 0 0 .917 2.035c-.149.455-.324.98-.521 1.572-.095.284-.2.547-.306.79-.089.039-.174.079-.257.121-.3.15-.583.284-.846.409-1.2.569-1.995.945-1.995 1.687 0 .539.586.873 1.128.873.7 0 1.755-.934 2.527-2.508a14.964 14.964 0 0 1 2.582-.7 4.315 4.315 0 0 0 1.662.947c.933 0 1.128-.539 1.128-.991 0-.889-1.016-.889-1.5-.889a8.91 8.91 0 0 0-1.099.133zm-5.3 3.251a.594.594 0 0 1-.376-.121c0-.267.8-.644 1.564-1.008l.149-.07c-.568.819-1.126 1.199-1.34 1.199zm2.633-6.734c0-.788.245-.788.376-.788.266 0 .376 0 .376.752a6.03 6.03 0 0 1-.3 1.175 2.311 2.311 0 0 1-.455-1.139zm.288 4.043l.068-.2.377-1.134q.234.258.5.528c.071.071.245.229.478.428-.46.103-.954.228-1.425.377zm4.225.2c0 .169 0 .239-.349.241a2.772 2.772 0 0 1-.632-.361c.106-.012.184-.018.228-.018.555-.004.712.05.751.133z" class="cls-1" transform="translate(-125.743 -164.648)"/>
            </g>
        </g>
        <path id="사각형_8749" fill="none" d="M0 0H22V22H0z" transform="translate(60 -1.667)"/>
    </g>
</svg>
