<svg xmlns="http://www.w3.org/2000/svg" id="btn_menu" width="46" height="46" viewBox="0 0 46 46">
    <defs>
        <style>
            .cls-1,.cls-2{fill:none}.cls-2{stroke:#222}.cls-3{stroke:none}
        </style>
    </defs>
    <path id="사각형_11953" d="M0 0H46V46H0z" class="cls-1"/>
    <path id="사각형_5898" d="M0 0H24V24H0z" class="cls-1" transform="translate(11 11)"/>
    <path id="사각형_5899" d="M0 0H20V20H0z" class="cls-1" transform="translate(13 13)"/>
    <g id="사각형_5900" class="cls-2" transform="translate(13 14.75)">
        <rect width="2" height="2" class="cls-3" rx="1"/>
        <rect width="1" height="1" x=".5" y=".5" class="cls-1" rx=".5"/>
    </g>
    <g id="사각형_6711" class="cls-2" transform="translate(17 15)">
        <rect width="16" height="1.5" class="cls-3" rx=".75"/>
        <rect width="15" height=".5" x=".5" y=".5" class="cls-1" rx=".25"/>
    </g>
    <g id="사각형_5901" class="cls-2" transform="translate(13 22)">
        <rect width="2" height="2" class="cls-3" rx="1"/>
        <rect width="1" height="1" x=".5" y=".5" class="cls-1" rx=".5"/>
    </g>
    <g id="사각형_6712" class="cls-2" transform="translate(17 22.25)">
        <rect width="16" height="1.5" class="cls-3" rx=".75"/>
        <rect width="15" height=".5" x=".5" y=".5" class="cls-1" rx=".25"/>
    </g>
    <g id="사각형_5902" class="cls-2" transform="translate(13 29.25)">
        <rect width="2" height="2" class="cls-3" rx="1"/>
        <rect width="1" height="1" x=".5" y=".5" class="cls-1" rx=".5"/>
    </g>
    <g id="사각형_6713" class="cls-2" transform="translate(17 29.5)">
        <rect width="16" height="1.5" class="cls-3" rx=".75"/>
        <rect width="15" height=".5" x=".5" y=".5" class="cls-1" rx=".25"/>
    </g>
</svg>
