<svg xmlns="http://www.w3.org/2000/svg" id="btn_gps" width="46" height="46" viewBox="0 0 46 46">
    <defs>
        <style>
            .cls-1,.cls-2{fill:none}.cls-2,.cls-3{stroke:#fff}.cls-2{stroke-width:1.5px}.cls-3{fill:#fff}.cls-4{stroke:none}
        </style>
    </defs>
    <path id="사각형_6782" d="M0 0H46V46H0z" class="cls-1"/>
    <g id="타원_581" class="cls-2" transform="translate(14 14)">
        <circle cx="9" cy="9" r="9" class="cls-4"/>
        <circle cx="9" cy="9" r="8.25" class="cls-1"/>
    </g>
    <g id="타원_582" class="cls-2" transform="translate(19 19)">
        <circle cx="4" cy="4" r="4" class="cls-4"/>
        <circle cx="4" cy="4" r="3.25" class="cls-1"/>
    </g>
    <g id="사각형_6707" class="cls-3" transform="translate(22.25 11)">
        <rect width="1.5" height="4" class="cls-4" rx=".75"/>
        <rect width=".5" height="3" x=".5" y=".5" class="cls-1" rx=".25"/>
    </g>
    <g id="사각형_6708" class="cls-3" transform="translate(22.25 31)">
        <rect width="1.5" height="4" class="cls-4" rx=".75"/>
        <rect width=".5" height="3" x=".5" y=".5" class="cls-1" rx=".25"/>
    </g>
    <g id="사각형_6709" class="cls-3" transform="translate(11 22.25)">
        <rect width="4" height="1.5" class="cls-4" rx=".75"/>
        <rect width="3" height=".5" x=".5" y=".5" class="cls-1" rx=".25"/>
    </g>
    <g id="사각형_6710" class="cls-3" transform="translate(31 22.25)">
        <rect width="4" height="1.5" class="cls-4" rx=".75"/>
        <rect width="3" height=".5" x=".5" y=".5" class="cls-1" rx=".25"/>
    </g>
</svg>
