<svg xmlns="http://www.w3.org/2000/svg" width="32" height="32" viewBox="0 0 32 32">
    <defs>
        <style>
            .cls-3{fill:#fff}
        </style>
    </defs>
    <g id="ic_pin_lotte" transform="translate(-15 -312)">
        <path id="사각형_8539" fill="none" d="M0 0H32V32H0z" transform="translate(15 312)"/>
        <path id="패스_8845" fill="#dc0019" d="M80.573 0a10.082 10.082 0 0 0-10 10.14c0 6.939 8.949 17.126 9.33 17.557a.892.892 0 0 0 1.34 0c.381-.43 9.33-10.617 9.33-17.557a10.082 10.082 0 0 0-10-10.14z" transform="translate(-49.573 314)"/>
        <g id="그룹_4592" transform="translate(.333 1.001)">
            <path id="패스_8876" d="M147.759 320.108a.609.609 0 1 1 .026 0h-.026" class="cls-3" transform="translate(-119.986 10.177)"/>
            <path id="패스_8877" d="M150.5 282.074a1.1 1.1 0 0 0-.815.319 3.83 3.83 0 0 0-.687 2.687c.026 1.566.4 4.639 1.631 6.221a2.724 2.724 0 0 0 .638.609 1.414 1.414 0 0 0 .84.284 1.842 1.842 0 0 0 .329-.031 4.454 4.454 0 0 0 2.249-2 .544.544 0 1 1 .921.579 5.339 5.339 0 0 1-2.939 2.485.087.087 0 0 1-.025.006 2.981 2.981 0 0 1-.539.051 2.511 2.511 0 0 1-1.436-.464 3.793 3.793 0 0 1-.9-.848c-1.734-2.227-1.853-6.4-1.861-6.871a4.92 4.92 0 0 1 1.009-3.479 2.161 2.161 0 0 1 1.577-.633h.1a2.165 2.165 0 0 1 1.58.633 4.921 4.921 0 0 1 1.009 3.479 11.225 11.225 0 0 1-1.432 5.41.544.544 0 0 1-.935-.558 9.434 9.434 0 0 0 1.278-4.871 3.829 3.829 0 0 0-.688-2.687 1.1 1.1 0 0 0-.813-.319z" class="cls-3" transform="translate(-120.522 37.014)"/>
        </g>
    </g>
</svg>
