<svg xmlns="http://www.w3.org/2000/svg" width="32" height="32" viewBox="0 0 32 32">
    <defs>
        <linearGradient id="linear-gradient" x1=".5" x2=".5" y2="1" gradientUnits="objectBoundingBox">
            <stop offset="0" stop-color="#f0171c"/>
            <stop offset="1" stop-color="#f77413"/>
        </linearGradient>
        <style>
            .cls-3{fill:#fff}
        </style>
    </defs>
    <g id="ic_pin_sk" transform="translate(-15 -312)">
        <path id="사각형_8539" fill="none" d="M0 0H32V32H0z" transform="translate(15 312)"/>
        <path id="패스_8845" fill="url(#linear-gradient)" d="M80.573 0a10.082 10.082 0 0 0-10 10.14c0 6.939 8.949 17.126 9.33 17.557a.892.892 0 0 0 1.34 0c.381-.43 9.33-10.617 9.33-17.557a10.082 10.082 0 0 0-10-10.14z" transform="translate(-49.573 314)"/>
        <g id="그룹_4582" transform="translate(-90.116 38.416)">
            <path id="패스_8867" d="M118.5 285.217c-.546-.255-.994-.461-.994-.878 0-.319.255-.551.759-.551a2.606 2.606 0 0 1 .494.051 1.508 1.508 0 0 0 .242.026c.44 0 .689-.262.854-.76l.068-.2a4.6 4.6 0 0 0-1.727-.344 2.044 2.044 0 0 0-2.279 1.949 1.681 1.681 0 0 0 .4 1.149 3.616 3.616 0 0 0 1.189.814c.615.3 1.169.524 1.169.972 0 .4-.41.622-.957.622a2.993 2.993 0 0 1-1.491-.481l-.616 1.155a4.26 4.26 0 0 0 2.21.566 2.173 2.173 0 0 0 2.446-2.027c.005-1.227-.967-1.68-1.767-2.063z" class="cls-3"/>
            <path id="패스_8868" d="M164.33 286.773l2.525-3.1h-1.8l-2.014 2.672h-.03v-2.672h-1.483v6.559h.088a1.274 1.274 0 0 0 1.4-1.368v-1.506h.03l2.053 2.792h1.887z" class="cls-3" transform="translate(-40.381 -.986)"/>
        </g>
    </g>
</svg>
