<svg xmlns="http://www.w3.org/2000/svg" width="32" height="32" viewBox="0 0 32 32">
    <g>
        <path fill="none" d="M0 0H32V32H0z" transform="translate(-15 -312) translate(15 312)"/>
        <path fill="#1f3387" d="M80.573 0a10.082 10.082 0 0 0-10 10.14c0 6.939 8.949 17.126 9.33 17.557a.892.892 0 0 0 1.34 0c.381-.43 9.33-10.617 9.33-17.557a10.082 10.082 0 0 0-10-10.14z" transform="translate(-15 -312) translate(-49.573 314)"/>
        <path fill="#fff" d="M309.566 304.262c-2.6 0-3.088-1.532-2.978-3.271h2.1c0 .961.041 1.767 1.2 1.767a1 1 0 0 0 1.057-1.14c0-1.809-4.231-1.92-4.231-4.913 0-1.572.752-2.824 3.313-2.824 2.045 0 3.06.918 2.922 3.019H310.9c0-.751-.125-1.517-.974-1.517a.978.978 0 0 0-1.085 1.071c0 1.908 4.231 1.74 4.231 4.9.002 2.601-1.905 2.908-3.506 2.908z" transform="translate(-15 -312) translate(-278.824 26.119)"/>
    </g>
</svg>
