<svg xmlns="http://www.w3.org/2000/svg" width="32" height="32" viewBox="0 0 32 32">
    <g>
        <path fill="none" d="M0 0H32V32H0z" transform="translate(-15 -312) translate(15 312)"/>
        <path fill="#2bd3c6" d="M80.573 0a10.082 10.082 0 0 0-10 10.14c0 6.939 8.949 17.126 9.33 17.557a.892.892 0 0 0 1.34 0c.381-.43 9.33-10.617 9.33-17.557a10.082 10.082 0 0 0-10-10.14z" transform="translate(-15 -312) translate(-49.573 314)"/>
        <path fill="#fff" d="M10.921 6.95a1.051 1.051 0 0 0-.968.541l-1.786 3.088a.585.585 0 0 0-.05.139.571.571 0 0 0-.051-.141C7.813 10.14 6.7 8.214 6.291 7.514a1.042 1.042 0 0 0-.978-.567 1.076 1.076 0 0 0-1.113.984c-.442 2.813-.7 5.177-1.628 5.177A.654.654 0 0 1 2 12.077c.3-.569.456-1.125-.292-1.508a.958.958 0 0 0-1.086.193c-1.147 1.2-.809 4.383 1.99 4.383 2.035 0 2.948-1.191 3.36-4.235.209.465.637 1.656 1.054 2.742a1.036 1.036 0 0 0 .962.673h.763c0-.643.039-2.565 1.082-2.839 1.078-.283 1.723.985.554 1.842a4.781 4.781 0 0 0-.973 1h1.512A1.036 1.036 0 0 0 12 13.339V7.933a1.036 1.036 0 0 0-1.081-.984" transform="translate(-15 -312) translate(25 313.053)"/>
    </g>
</svg>
