<svg xmlns="http://www.w3.org/2000/svg" width="32" height="32" viewBox="0 0 32 32">
    <g>
        <path fill="none" d="M0 0H32V32H0z" transform="translate(-15 -312) translate(15 312)"/>
        <path fill="#f8a516" d="M80.573 0a10.082 10.082 0 0 0-10 10.14c0 6.939 8.949 17.126 9.33 17.557a.892.892 0 0 0 1.34 0c.381-.43 9.33-10.617 9.33-17.557a10.082 10.082 0 0 0-10-10.14z" transform="translate(-15 -312) translate(-49.573 314)"/>
        <path fill="#fff" d="M263.9 422.434c-2.979 0-4.28-1.825-4.28-4.133v-2.492c0-3.207 2.138-4.456 4.647-4.456 3.029 0 4.353 1.648 4.353 3.3 0 2.406-2.461 3-3.548 3.311-.313.091-1.466.434-1.726.509-1.015.294-1.306.623-1.306 1 0 .637.556 1.189 1.859 1.189 1.133 0 1.961-.386 2.1-1.569h2.371c-.244 1.872-1.37 3.349-4.47 3.349m.267-9.3a2.119 2.119 0 0 0-2.179 2.382v1.576s1.782-.521 2.526-.746c.623-.189 1.739-.585 1.739-1.567.004-.862-.691-1.65-2.081-1.65z" transform="translate(-15 -312) translate(-233.125 -92.354)"/>
    </g>
</svg>
