<svg xmlns="http://www.w3.org/2000/svg" id="ic_register_self" width="44" height="38" viewBox="0 0 44 38">
    <defs>
        <style>
            .cls-2{fill:#222}
        </style>
    </defs>
    <path id="사각형_11989" fill="none" d="M0 0H44V38H0z"/>
    <path id="패스_9789" d="M30 31v-6.729l.293-.292 4.666-4.668-1.416-1.411-1.836 1.836L30 21.443V11.51L24.494 6H13v25h17m0 1H13a1 1 0 0 1-1-1V6a1 1 0 0 1 1-1h11.91L31 11.1v7.933l1.91-1.91a.845.845 0 0 1 .6-.242 1.05 1.05 0 0 1 .736.314l1.42 1.405a.954.954 0 0 1 .072 1.343L31 24.686V31a1 1 0 0 1-1 1z" class="cls-2"/>
    <path id="패스_9791" d="M16 16h11v1H16z" class="cls-2"/>
    <path id="패스_9793" d="M16 20h11v1H16z" class="cls-2"/>
    <path id="패스_9795" d="M16 24h6v1h-6z" class="cls-2"/>
    <path id="패스_9797" d="M29.023 10.5L25.5 6.98v3.518h3.517M31 11.5h-5.5a1 1 0 0 1-1-1V5h.43l6.072 6.07h-.006v.43z" class="cls-2"/>
    <path id="패스_9799" d="M33.545 17.9l-8.076 8.075a16.952 16.952 0 0 0-.947 2.366 16.822 16.822 0 0 0 2.361-.951l8.076-8.076-1.414-1.414m.707-.707l1.414 1.407a.952.952 0 0 1 .071 1.343l-8.264 8.264s-3.39 1.695-3.954 1.132c-.553-.574 1.129-3.957 1.129-3.957l8.264-8.265a.953.953 0 0 1 1.34.073z" class="cls-2"/>
    <path id="패스_9801" d="M25.346 25.1l2.121 2.121-.707.707-2.121-2.128z" class="cls-2"/>
    <path id="패스_9803" d="M32.15 17.877l2.829 2.829-.707.707-2.829-2.829z" class="cls-2"/>
</svg>
