<svg xmlns="http://www.w3.org/2000/svg" width="240" height="359" viewBox="0 0 240 359">
  <g id="img_minti_1" transform="translate(-107.295 -25.999)">
    <rect id="사각형_8440" data-name="사각형 8440" width="240" height="359" transform="translate(107.295 25.999)" fill="none"/>
    <path id="패스_3934" data-name="패스 3934" d="M282.3,75.776s-45.327-16.759-79.391,47.66-64.383,71.837-58.973,99.306,26.286,31.318,38.644,31.04,25.066-.895,38.461-7.964c13.941-7.359,28.019-27.2,32.141-50.82s-.278-46.428,4.941-74.722,24.177-44.5,24.177-44.5" transform="translate(44.688 78.606)" fill="#f0ebb7" stroke="#0f0f0f" stroke-width="1"/>
    <path id="패스_3935" data-name="패스 3935" d="M206.831,147.6c11.78-23.56,5.865-51.909-19.848-74.763S137.076,42.171,129.85,38.556c-11.428-5.714-4.822-4.214-8.062,27.992-2.017,20.1-10.628,53.947,5.85,77.067C142.569,164.573,160.857,171.1,176,170.456c11.768-.5,25.113-11.426,30.827-22.854" transform="translate(11.549 9.487)" fill="#f0ebb7" stroke="#0f0f0f" stroke-width="1"/>
    <path id="패스_3936" data-name="패스 3936" d="M173.936,82.758c10.7,13.292,13.047,24.31,11.535,27.334s-6.453,9.338-11.948,8.788-14.886-25.24-23.075-38.095c-13.5-21.2-18.085-25.29-24.446-35.387-.859-1.364-2.581-4.441-2.2-5.357.345-.824,8.171,3.4,15.176,9.063s25.308,21.67,34.959,33.653" transform="translate(19.898 17.242)" fill="#eddd98"/>
    <path id="패스_3937" data-name="패스 3937" d="M157.679,135.7c-8.21-25.027,1.784-52.208,30.559-71.06S242.093,41.6,249.774,39.077c12.137-3.981,5.384-3.464,3.877,28.866-.936,20.181,2.634,54.925-17.045,75.389-17.837,18.548-36.878,22.331-51.771,19.485-11.57-2.212-23.173-14.975-27.157-27.115" transform="translate(67.351 12.209)" fill="#f0ebb7" stroke="#0f0f0f" stroke-width="1"/>
    <path id="패스_3938" data-name="패스 3938" d="M176.636,78.083C164.552,90.135,161.026,100.834,162.2,104s5.4,9.987,10.926,10.038S190.661,90.563,200.2,78.671C215.93,59.066,220.924,55.5,228.348,46.152c1-1.261,3.045-4.134,2.764-5.085-.251-.856-8.493,2.492-16.071,7.362s-27.511,18.79-38.4,29.655" transform="translate(81.17 19.185)" fill="#eddd98"/>
    <path id="패스_3939" data-name="패스 3939" d="M157.288,132.419c-6.3,14.7-11.777,26.076-22.452,21.894-6.021-2.362-5.531-19.978,4.3-33.736,8.989-12.592,13.891-16.5,19.99-13.891s4.459,11.03-1.837,25.733" transform="translate(32.749 142.625)" fill="#f2f2f2" stroke="#0f0f0f" stroke-width="1"/>
    <path id="합치기_141" data-name="합치기 141" d="M5499.229,18915.994c-11.209-1.295-18.634-5.293-17.884-11.812s10.455-10.748,21.664-9.447q.45.053.907.111c-.861-2.607-1.7-5.383-2.541-8.254-4.819-16.355-5.611-25.432.755-27.307s14.552,5.572,21.35,20.984c6.775,15.352,8.615,28.848-1.369,32.381-4.743,2.287-11.821,3.6-18.228,3.6A40.517,40.517,0,0,1,5499.229,18915.994Z" transform="translate(-5249.878 -18611.324)" fill="#f2f2f2" stroke="#0f0f0f" stroke-miterlimit="10" stroke-width="1"/>
    <path id="빼기_87" data-name="빼기 87" d="M5547.076,18992.08c-4.744,0-8.748-.967-10.71-2.584a5.018,5.018,0,0,1-1.714-4.873,21.113,21.113,0,0,1,1.725-5.332,9.363,9.363,0,0,0,1.085-3.537c-.06-.533-.2-1.283-.372-2.234a136.184,136.184,0,0,1-1.9-14.2,63.974,63.974,0,0,1-19.811,0,136.407,136.407,0,0,1-1.9,14.188l0,.012c-.181.988-.312,1.7-.371,2.23a9.344,9.344,0,0,0,1.085,3.533,21.119,21.119,0,0,1,1.727,5.336,5.016,5.016,0,0,1-1.716,4.873,11.032,11.032,0,0,1-4.605,1.969,28.559,28.559,0,0,1-6.1.613c-5.042,0-9.332-1.062-10.433-2.582-1.7-2.359-.932-7.164-.367-10.672.159-.99.3-1.846.357-2.518.153-1.67-1.76-6.779-3.976-12.7-1.736-4.635-3.7-9.889-4.809-13.949-2.563-9.391-3.287-20.154-2.865-42.654a53.436,53.436,0,0,1,3.448-19.184,46.71,46.71,0,0,1,9.4-15.205,42.641,42.641,0,0,1,13.947-10.012,42.221,42.221,0,0,1,34.162,0,42.653,42.653,0,0,1,13.949,10.012,46.717,46.717,0,0,1,9.4,15.205,53.423,53.423,0,0,1,3.448,19.18c.028,1.48.05,2.9.067,4.229a68.863,68.863,0,0,0-13.3-2.861,35.174,35.174,0,0,0-4.018-.234,25.943,25.943,0,0,0-12.106,2.7c-3.253,1.76-5.219,4.242-5.537,6.988-.363,3.143,1.136,5.789,4.456,7.863,3.082,1.924,7.726,3.289,13.429,3.947a40.345,40.345,0,0,0,4.657.254,51.4,51.4,0,0,0,12.286-1.51c-.336,8.977-1.173,15.344-2.8,21.287-1.107,4.059-3.073,9.3-4.807,13.934l0,.008c-2.218,5.922-4.133,11.033-3.979,12.7.059.658.194,1.5.351,2.475l.008.049c.565,3.506,1.34,8.309-.364,10.666C5556.409,18991.018,5552.118,18992.08,5547.076,18992.08Z" transform="translate(-5302.803 -18624.963)" fill="#fefefe" stroke="#0f0f0f" stroke-miterlimit="10" stroke-width="1"/>
    <path id="패스_3944" data-name="패스 3944" d="M135.22,117.536c0,16.342,22.742,23.386,50.016,23.386s48.747-6.219,48.747-23.386c0-11.8-22.11-21.36-49.382-21.36s-49.382,9.562-49.382,21.36" transform="translate(37.919 124.079)" fill="#02d1ba" stroke="#0f0f0f" stroke-width="1"/>
    <path id="패스_3945" data-name="패스 3945" d="M280.07,145.155c1.094-46.606-29.883-85.282-69.189-86.384s-72.059,35.783-73.156,82.388l-19.245-.532c9.239,31.04,45.407,54.9,89.158,56.123s81-20.568,91.677-51.053Z" transform="translate(12.994 52.082)" fill="#fefefe" stroke="#0f0f0f" stroke-width="1"/>
    <path id="패스_3946" data-name="패스 3946" d="M145.573,96.613c-1.252,5.268,3.916,9.683,16.862,9.683,10.643,0,16.774-4.707,15.589-9.99-1.264-5.667-8.118-10.938-16.774-10.938-7.846,0-14.234,5.168-15.678,11.245" transform="translate(57.821 103.624)" fill="#fffacc"/>
    <path id="패스_3947" data-name="패스 3947" d="M157.9,90.995c0,4.7,1.922,8.5,5.564,8.5,3.074,0,5.564-3.81,5.564-8.5s-1.583-8.508-5.564-8.508c-4.6,0-5.564,3.81-5.564,8.508" transform="translate(80.413 98.141)" fill="#474747"/>
    <path id="패스_3948" data-name="패스 3948" d="M140.586,90.07c-.52,4.669-.162,8.233,4.586,9.069,3.024.535,5.95-3.166,6.47-7.832s-.8-8.555-4.583-9.069c-3.854-.529-5.95,3.166-6.473,7.832" transform="translate(49.77 97.569)" fill="#474747"/>
    <path id="패스_3949" data-name="패스 3949" d="M153.132,112.042c.038,0,.074,0,.112,0,1.633-.041,2.9-.986,2.841-2.109-.006-.1-.431-9.893-.168-16.49.044-1.131-.821-2.153-2.43-2.339-1.636-.171-3.284.552-3.393,1.677a115.616,115.616,0,0,0,.092,17.305c.056,1.1,1.37,1.958,2.947,1.958" transform="translate(66.355 114.537)" fill="#474747"/>
    <path id="패스_3950" data-name="패스 3950" d="M167.326,109.519c7.7-.558,13.874-4.7,17.326-7.616a24.038,24.038,0,0,0,4.108,4.648,2.952,2.952,0,0,0,3.777-4.539,16.591,16.591,0,0,1-4.323-5.956,2.955,2.955,0,0,0-4.991-.921c-.086.094-9.166,10.191-20.586,8.3-11.151-1.86-13.6-7.164-13.705-7.389a2.976,2.976,0,0,0-3.848-1.571,2.929,2.929,0,0,0-1.636,3.768c.339.874,3.739,8.6,18.218,11.015a23.866,23.866,0,0,0,5.661.266" transform="translate(53.493 120.417)" fill="#474747"/>
    <path id="패스_3951" data-name="패스 3951" d="M148.09,94.32c0,3.11,3.688,6.831,8.242,6.831s8.239-3.721,8.239-6.831-3.688-5.632-8.239-5.632-8.242,2.519-8.242,5.632" transform="translate(63.06 110.031)" fill="#474747"/>
    <g id="그룹_4357" data-name="그룹 4357" transform="translate(158.678 234.108)">
      <rect id="사각형_7127" data-name="사각형 7127" width="13.58" height="45.763" transform="translate(6.466 20.275) rotate(-27.663)" fill="#425062"/>
      <path id="패스_3952" data-name="패스 3952" d="M144.314,108.648l-12.028,6.3-2.554-4.876a5.178,5.178,0,0,1,2.182-7l2.85-1.491a5.182,5.182,0,0,1,7,2.185Z" transform="translate(-129.136 -100.997)" fill="#ff6f6f"/>
      <rect id="사각형_7128" data-name="사각형 7128" width="13.579" height="7.139" transform="translate(3.152 13.955) rotate(-27.669)" fill="#dbdbdb"/>
      <rect id="사각형_8365" data-name="사각형 8365" width="13.58" height="45.763" transform="translate(6.466 20.275) rotate(-27.663)" fill="none" stroke="#0f0f0f" stroke-miterlimit="10" stroke-width="1"/>
      <path id="패스_8154" data-name="패스 8154" d="M144.314,108.648l-12.028,6.3-2.554-4.876a5.178,5.178,0,0,1,2.182-7l2.85-1.491a5.182,5.182,0,0,1,7,2.185Z" transform="translate(-129.136 -100.996)" fill="none" stroke="#0f0f0f" stroke-miterlimit="10" stroke-width="1"/>
      <rect id="사각형_8366" data-name="사각형 8366" width="13.579" height="7.139" transform="translate(3.152 13.953) rotate(-27.669)" fill="none" stroke="#0f0f0f" stroke-miterlimit="10" stroke-width="1"/>
    </g>
    <path id="빼기_88" data-name="빼기 88" d="M5544.057,18953.262h-51.971a10.8,10.8,0,0,1-10.793-10.789v-72.686a10.8,10.8,0,0,1,10.793-10.789h51.971a10.8,10.8,0,0,1,10.788,10.789v46.205c-1.326-.232-2.7-.432-4.09-.594a35.147,35.147,0,0,0-4.016-.234,26,26,0,0,0-12.107,2.693c-3.254,1.764-5.221,4.246-5.539,6.992-.7,6.107,5.815,10.414,17.885,11.811a40.693,40.693,0,0,0,4.657.252h.08c.987,0,2.04-.033,3.131-.1v5.664A10.8,10.8,0,0,1,5544.057,18953.262Z" transform="translate(-5297.625 -18631.99)" fill="#e39255" stroke="#0f0f0f" stroke-width="1"/>
    <path id="패스_3954" data-name="패스 3954" d="M150.371,104.732a3,3,0,1,1-3.006-3.006,3.005,3.005,0,0,1,3.006,3.006" transform="translate(54.71 135.024)" fill="#dbdbdb"/>
    <path id="패스_3955" data-name="패스 3955" d="M163.064,104.732a3,3,0,1,1-3.006-3.006,3.005,3.005,0,0,1,3.006,3.006" transform="translate(76.99 135.024)" fill="#dbdbdb"/>
    <path id="패스_3957" data-name="패스 3957" d="M142.631,111.836c-6.37-1.562-10.684,2.932-12.533,10.478s1.025,19.482,7.395,21.044,11.476-7.489,13.327-15.034S149,113.4,142.631,111.836" transform="translate(30.579 153.523)" fill="#f2f2f2" stroke="#0f0f0f" stroke-width="1"/>
  </g>
</svg>
