<svg xmlns="http://www.w3.org/2000/svg" width="60" height="60" viewBox="0 0 60 60">
    <defs>
        <style>
            .cls-2{fill:#afc1da}.cls-3{fill:#edf1f7}.cls-4{fill:#3e79e8}.cls-5{fill:#fff}
        </style>
    </defs>
    <g id="ic_addphone" transform="translate(-32 -806)">
        <path id="Rectangle_6479" fill="none" d="M0 0H60V60H0z" transform="translate(32 806)"/>
        <rect id="사각형_6170" width="26" height="45" class="cls-2" rx="4.081" transform="translate(46 812)"/>
        <path id="사각형_6175" d="M0 0H21V35H0z" class="cls-3" transform="translate(48.5 817)"/>
        <path id="Rectangle_8121" d="M0 0H13.239V1.655H0z" class="cls-2" transform="translate(52.324 835.596)"/>
        <path id="Rectangle_8122" d="M0 0H13.239V1.655H0z" class="cls-2" transform="translate(52.324 840.559)"/>
        <path id="Rectangle_8123" d="M0 0H9.929V1.655H0z" class="cls-2" transform="translate(52.324 845.523)"/>
        <path id="Path_4082" d="M996.63 938.181h-.3a.272.272 0 0 1-.256-.179c-.033-.088-.069-.174-.109-.26a.273.273 0 0 1 .055-.307l.216-.217a.829.829 0 0 0 0-1.169l-.779-.78a.828.828 0 0 0-1.169 0l-.217.216a.273.273 0 0 1-.307.055c-.085-.039-.172-.074-.26-.11a.27.27 0 0 1-.179-.256v-.3a.828.828 0 0 0-.828-.828h-1.1a.828.828 0 0 0-.828.828v.3a.272.272 0 0 1-.178.255c-.089.034-.175.07-.26.109a.272.272 0 0 1-.308-.056l-.217-.216a.83.83 0 0 0-1.169 0l-.78.782a.829.829 0 0 0 0 1.169l.216.217a.271.271 0 0 1 .055.307c-.039.085-.075.172-.109.26a.273.273 0 0 1-.258.178h-.3a.828.828 0 0 0-.828.827v1.1a.828.828 0 0 0 .828.827h.3a.269.269 0 0 1 .255.178c.034.088.07.174.109.26a.273.273 0 0 1-.055.308l-.217.216a.831.831 0 0 0 0 1.17l.78.779a.831.831 0 0 0 1.17 0l.216-.216a.272.272 0 0 1 .307-.055c.085.038.172.075.26.11a.27.27 0 0 1 .18.256v.3a.828.828 0 0 0 .828.828h1.1a.828.828 0 0 0 .828-.828v-.3a.271.271 0 0 1 .178-.256c.089-.034.174-.069.26-.108a.273.273 0 0 1 .308.055l.217.216a.83.83 0 0 0 1.169 0l.779-.78a.831.831 0 0 0 0-1.17l-.216-.216a.27.27 0 0 1-.055-.307c.038-.085.075-.171.11-.26a.271.271 0 0 1 .256-.179h.3a.827.827 0 0 0 .827-.827v-1.1a.827.827 0 0 0-.825-.826z" class="cls-4" transform="translate(-932.998 -112.789)"/>
        <path id="Path_4083" d="M994.828 940.285c0 .045 0 .089-.007.134s-.01.095-.017.143a2.6 2.6 0 0 1-.369 1.007.8.8 0 0 1-.132.161 2.932 2.932 0 0 1-.628.454c-.04.022-.081.04-.123.059s-.06.03-.095.044l-.1.037-.1.035c-.045.013-.088.023-.131.033l-.071.017c-.062.012-.122.021-.182.027h-.025c-.074.007-.146.012-.216.012-.04 0-.075-.006-.112-.008-.058 0-.115 0-.172-.011a2.347 2.347 0 0 1-.256-.05h-.013a2.206 2.206 0 0 1 0-4.273c.078-.019.158-.034.237-.045l.084-.01c.052 0 .1-.008.157-.009.025 0 .05-.005.074-.005a2.2 2.2 0 0 1 1.314.437l.041.03.091.076.074.067.059.058c.037.037.072.076.106.116l.022.025a2.138 2.138 0 0 1 .221.322l.008.017a2.251 2.251 0 0 1 .108.229l.038.1c.012.032.032.1.046.149s.022.079.031.119c.013.061.022.123.03.186s.011.117.014.175c0 .034.005.066 0 .1-.005.015-.006.028-.006.042z" class="cls-3" transform="translate(-933.679 -113.475)"/>
        <circle id="Ellipse_751" cx="9" cy="9" r="9" class="cls-4" transform="translate(64 842)"/>
        <rect id="Rectangle_8572" width="8.826" height="1.655" class="cls-5" rx=".827" transform="translate(68.873 850.213)"/>
        <rect id="Rectangle_8573" width="8.826" height="1.655" class="cls-5" rx=".827" transform="rotate(90 -386.257 460.37)"/>
    </g>
</svg>
