<svg xmlns="http://www.w3.org/2000/svg" width="200" height="200" viewBox="0 0 200 200">
    <defs>
        <clipPath id="clip-path">
            <path id="사각형_7110" fill="none" stroke="#dcdcdc" d="M0 0H184V1H0z" transform="translate(85 288)"/>
        </clipPath>
        <style>
            .cls-4{fill:#fff}.cls-6{fill:#747474}.cls-13{stroke:none}
        </style>
    </defs>
    <g id="app-code-mobile" transform="translate(-77 -268)">
        <g id="패스_9444" fill="#e9e9e9">
            <path d="M196 196H4V25c0-5.61 2.184-10.883 6.15-14.85C14.118 6.185 19.39 4 25 4h150c5.61 0 10.883 2.184 14.85 6.15C193.815 14.118 196 19.39 196 25v171z" class="cls-13" transform="translate(77 268)"/>
            <path fill="#0f0f0f" d="M25 8C15.626 8 8 15.626 8 25v167h184V25c0-9.374-7.626-17-17-17H25m0-8h150c13.807 0 25 11.193 25 25v175H0V25C0 11.193 11.193 0 25 0z" transform="translate(77 268)"/>
        </g>
        <path id="패스_9443" fill="#e9e9e9" d="M0 0h184v15H0z" transform="translate(85 453)"/>
        <path id="패스_9442" d="M4 0h152a4 4 0 0 1 4 4v72a4 4 0 0 1-4 4H4a4 4 0 0 1-4-4V4a4 4 0 0 1 4-4z" class="cls-4" transform="translate(97 379)"/>
        <path id="패스_9441" fill="#7785ac" d="M4 0h152a4 4 0 0 1 4 4v28a4 4 0 0 1-4 4H4a4 4 0 0 1-4-4V4a4 4 0 0 1 4-4z" transform="translate(97 333)"/>
        <path id="패스_9440" d="M1.08-7.66v.67h3.18C4.09-5.47 2.76-4.3.63-3.69l.34.64c2.57-.73 4.16-2.34 4.16-4.61zm1.85 5.58h4.18v2.03H2.93zM2.12.61h5.8v-3.34h-5.8zm4.97-8.84v2.31H5.14v.67h1.95v2.14h.83v-5.12zm5.65.78h-.81v1.61a4.753 4.753 0 0 1-2.31 4.01l.49.66a4.968 4.968 0 0 0 2.23-2.97 4.948 4.948 0 0 0 2.17 2.79l.51-.65a4.53 4.53 0 0 1-2.28-3.84zm5.37 2.86h-1.48v-3.63h-.82V.74h.82v-4.65h1.48zm7.38-1.7v1.07h-2.34v.64h2.34v.93h.83v-4.58h-.83v1.3h-2.03a4.047 4.047 0 0 0 .09-.86h-4.01v.67h3.12c-.15 1.42-1.4 2.49-3.59 3l.3.67c1.98-.47 3.35-1.43 3.91-2.84zM21.37 0v-1.04h4.95v-2.2h-5.78v.66h4.96v.92h-4.94V.65h6.06V0zm11.44-3.2a22.3 22.3 0 0 0 .25-3.56v-.49h-4.53v.67h3.73a19.02 19.02 0 0 1-.27 3.3zm-2.06-1.49h-.81v2.76c-.67.02-1.33.03-1.9.03l.09.68a36.551 36.551 0 0 0 5.56-.34l-.05-.6c-.91.11-1.91.17-2.89.21zm5.69.21h-1.43v-3.75h-.82V.74h.82v-4.53h1.43zm3.86-.49l.12.7 5.42-.29a18.636 18.636 0 0 1-.32 2.12l.81.1a18.478 18.478 0 0 0 .38-4.17v-.85h-6.17v.67h5.36v.18c0 .41 0 .84-.02 1.31zm3.25 3.82v-2.33h-.82v2.33h-3.16v.67h8.11v-.67zm12.41-2.78h-5.35v-2.8h5.26v-.68H49.8v4.15h6.16zm-7.2 2.78v.68h8.14v-.68z" class="cls-6" transform="translate(149 409)"/>
        <path id="패스_9439" d="M1.08-7.66v.67h3.18C4.09-5.47 2.76-4.3.63-3.69l.34.64c2.57-.73 4.16-2.34 4.16-4.61zm1.85 5.58h4.18v2.03H2.93zM2.12.61h5.8v-3.34h-5.8zm4.97-8.84v2.31H5.14v.67h1.95v2.14h.83v-5.12zm5.65.78h-.81v1.61a4.753 4.753 0 0 1-2.31 4.01l.49.66a4.968 4.968 0 0 0 2.23-2.97 4.948 4.948 0 0 0 2.17 2.79l.51-.65a4.53 4.53 0 0 1-2.28-3.84zm5.37 2.86h-1.48v-3.63h-.82V.74h.82v-4.65h1.48zm7.38-1.7v1.07h-2.34v.64h2.34v.93h.83v-4.58h-.83v1.3h-2.03a4.047 4.047 0 0 0 .09-.86h-4.01v.67h3.12c-.15 1.42-1.4 2.49-3.59 3l.3.67c1.98-.47 3.35-1.43 3.91-2.84zM21.37 0v-1.04h4.95v-2.2h-5.78v.66h4.96v.92h-4.94V.65h6.06V0zm11.44-3.2a22.3 22.3 0 0 0 .25-3.56v-.49h-4.53v.67h3.73a19.02 19.02 0 0 1-.27 3.3zm-2.06-1.49h-.81v2.76c-.67.02-1.33.03-1.9.03l.09.68a36.551 36.551 0 0 0 5.56-.34l-.05-.6c-.91.11-1.91.17-2.89.21zm5.69.21h-1.43v-3.75h-.82V.74h.82v-4.53h1.43zm7.89-1.27v.67h1.8v3.43h.83v-6.57h-.83v2.47zm.53 2.11a3.079 3.079 0 0 1-2.18-2.75v-.44h1.97v-.67h-4.79v.67h2v.45a3.269 3.269 0 0 1-2.26 2.94l.43.64a3.828 3.828 0 0 0 2.26-2.23A3.7 3.7 0 0 0 44.45-3zM42.05-.13v-2.1h-.83V.54h5.99v-.67zm14.34-5.15c-1.6-.22-3.15-1.22-3.15-2.41v-.4h-.84v.4c0 1.19-1.54 2.19-3.14 2.41l.31.65a4.578 4.578 0 0 0 3.25-1.96 4.62 4.62 0 0 0 3.26 1.96zM52.82.1c-1.42 0-2.24-.33-2.24-.92s.82-.92 2.24-.92 2.24.33 2.24.92-.82.92-2.24.92zm0-2.47c-1.92 0-3.07.55-3.07 1.55S50.9.73 52.82.73s3.07-.55 3.07-1.55-1.15-1.55-3.07-1.55zm.41-1.41V-5.1h-.82v1.32h-3.64v.66h8.11v-.66z" class="cls-4" transform="translate(149 356)"/>
        <path id="패스_9438" fill="#648de5" d="M.14-14v2.6h2.8V0h3.24v-14zM19.96 0h3.4L17.1-14h-3.2L7.66 0h3.32l1.24-3h6.5zm-6.7-5.46l2.22-5.36 2.22 5.36zm15.12 2.82l3.22-3.04c1.96-1.82 2.34-3.06 2.34-4.42 0-2.54-2.08-4.14-5.2-4.14a6.5 6.5 0 0 0-5.56 2.6l2.36 1.52a3.423 3.423 0 0 1 2.9-1.4c1.48 0 2.24.64 2.24 1.74 0 .68-.22 1.4-1.46 2.58l-5.4 5.1V0H34.4v-2.64zM46.9-7.28a3.365 3.365 0 0 0 1.86-3.08c0-2.18-1.8-3.64-5.3-3.64h-6.84V0h7.24c3.68 0 5.6-1.4 5.6-3.82a3.457 3.457 0 0 0-2.56-3.46zm-3.84-4.28c1.58 0 2.44.54 2.44 1.64s-.86 1.66-2.44 1.66h-3.22v-3.3zm.56 9.12h-3.78V-5.9h3.78c1.68 0 2.58.56 2.58 1.74 0 1.2-.9 1.72-2.58 1.72zM57.58-8.3l3.16-3.6V-14h-9.8v2.6h5.96l-2.88 3.26V-6h1.48c1.84 0 2.62.66 2.62 1.72 0 1.14-1 1.8-2.62 1.8a6.8 6.8 0 0 1-4-1.26l-1.26 2.48a9.626 9.626 0 0 0 5.34 1.5c3.98 0 5.8-2.16 5.8-4.52 0-2.06-1.28-3.62-3.8-4.02zM70.46.24a7.193 7.193 0 0 0 5.78-2.5l-2.08-1.92a4.462 4.462 0 0 1-3.52 1.66A4.3 4.3 0 0 1 66.16-7a4.3 4.3 0 0 1 4.48-4.48 4.5 4.5 0 0 1 3.52 1.64l2.08-1.92a7.228 7.228 0 0 0-5.76-2.48c-4.36 0-7.6 3.02-7.6 7.24S66.12.24 70.46.24z" transform="translate(139 436)"/>
        <path id="패스_9437" d="M17 0h150a17 17 0 0 1 17 17v30H0V17A17 17 0 0 1 17 0z" class="cls-4" transform="translate(85 276)"/>
        <path id="패스_9436" d="M5.64-6.584V.608h.66v-7.192zm-3.128.552c-1.064 0-1.824.976-1.824 2.5s.76 2.5 1.824 2.5S4.336-2 4.336-3.528s-.76-2.504-1.824-2.504zm0 .592c.7 0 1.192.752 1.192 1.912s-.5 1.92-1.192 1.92-1.2-.752-1.2-1.92.496-1.912 1.2-1.912zM9.7-1.608c-.688 0-1.168-.752-1.168-1.92S9.016-5.44 9.7-5.44s1.16.752 1.16 1.912-.476 1.92-1.16 1.92zm3.34-4.976v2.736h-1.56c-.1-1.344-.808-2.184-1.776-2.184-1.048 0-1.792.976-1.792 2.5s.744 2.5 1.792 2.5c1 0 1.712-.88 1.776-2.288h1.56V.608h.66v-7.192zm3.592 5.048h-.656V.432h4.936V-.1h-4.28zm.856-4.192h1.784V-4.1h-1.784zM18.72-2.7v-.872h2.264V-4.1h-1.056v-1.628h1.08v-.528h-5.264v.528h1.088V-4.1h-1.064v.528h2.3v.872h-2.932v.528h6.488V-2.7zm7.3-.392A2.18 2.18 0 0 1 24.632-5.1v-.344h1.256v-.528h-3.216v.528h1.32v.344a2.368 2.368 0 0 1-1.464 2.2l.344.512a2.678 2.678 0 0 0 1.456-1.584 2.494 2.494 0 0 0 1.36 1.392zM23.736-1.32H27.9V.592h.656v-2.44h-4.82zm4.192-5.256v1.888h-.9v-1.76h-.616v4.168h.616v-1.872h.9v1.912h.632v-4.336z" class="cls-6" transform="translate(97 309)"/>
        <path id="패스_9435" fill="#6a7373" d="M2.456.048c1.432 0 2.088-.7 2.088-1.528 0-2.04-3.444-1.112-3.444-2.648 0-.56.456-1.016 1.48-1.016a2.883 2.883 0 0 1 1.536.464l.2-.472a3.161 3.161 0 0 0-1.736-.5c-1.424 0-2.064.712-2.064 1.536C.512-2.04 3.96-2.984 3.96-1.448c0 .552-.456.992-1.5.992a2.75 2.75 0 0 1-1.848-.68L.376-.68a3.037 3.037 0 0 0 2.08.728zM9.856 0h.7L7.968-3.064 10.392-5.6h-.68L6.424-2.216V-5.6h-.592V0h.592v-1.472l1.144-1.16zm1.664 0h.592v-5.6h-.592zm4.512-5.6h-2.1V0h.592v-1.768h1.5c1.424 0 2.288-.72 2.288-1.912s-.856-1.92-2.28-1.92zm-.016 3.312h-1.488v-2.8h1.488c1.12 0 1.712.512 1.712 1.408 0 .88-.592 1.392-1.712 1.392z" transform="translate(228 309)"/>
        <g id="패스_9434" fill="none">
            <path d="M0 0h184v1H0z" class="cls-13" transform="translate(85 322)"/>
            <path fill="#dcdcdc" d="M0 0h184v1H0V0z" transform="translate(85 322)"/>
        </g>
        <g id="마스크_그룹_48" clip-path="url(#clip-path)" transform="translate(0 1)">
            <path id="사각형_7111" fill="#dcdcdc" d="M17 0h150a17 17 0 0 1 17 17v30H0V17A17 17 0 0 1 17 0z" transform="translate(85 275)"/>
        </g>
        <path id="ic_nav_arrow" fill="none" stroke="#9e9e9e" d="M16081-24247l3.5 4-3.5 4" transform="translate(-15827.5 24548.998)"/>
    </g>
</svg>
