<svg xmlns="http://www.w3.org/2000/svg" width="300" height="340" viewBox="0 0 300 340">
    <defs>
        <clipPath id="clip-path">
            <path id="사각형_7110" fill="none" stroke="#dcdcdc" d="M0 0H284V1H0z" transform="translate(0 -.214)"/>
        </clipPath>
        <style>
            .cls-4{fill:#fff}.cls-6{fill:#747474}.cls-13{stroke:none}
        </style>
    </defs>
    <g id="app-code" transform="translate(-77 -268)">
        <g id="패스_9433" fill="#e9e9e9">
            <path d="M296 336H4V35c0-4.187.82-8.246 2.435-12.065 1.56-3.691 3.796-7.007 6.645-9.855 2.848-2.849 6.164-5.084 9.855-6.645C26.754 4.819 30.813 4 35 4h230c4.187 0 8.246.82 12.065 2.435 3.691 1.56 7.007 3.796 9.855 6.645 2.849 2.848 5.084 6.164 6.645 9.855C295.181 26.754 296 30.813 296 35v301z" class="cls-13" transform="translate(77 268)"/>
            <path fill="#0f0f0f" d="M35 8C20.112 8 8 20.112 8 35v297h284V35c0-14.888-12.112-27-27-27H35m0-8h230c19.33 0 35 15.67 35 35v305H0V35C0 15.67 15.67 0 35 0z" transform="translate(77 268)"/>
        </g>
        <path id="패스_9432" fill="#e9e9e9" d="M0 0h284v22H0z" transform="translate(85 586)"/>
        <path id="패스_9431" d="M4 0h242a4 4 0 0 1 4 4v122a4 4 0 0 1-4 4H4a4 4 0 0 1-4-4V4a4 4 0 0 1 4-4z" class="cls-4" transform="translate(102 448)"/>
        <path id="패스_9430" fill="#7785ac" d="M4 0h242a4 4 0 0 1 4 4v52a4 4 0 0 1-4 4H4a4 4 0 0 1-4-4V4a4 4 0 0 1 4-4z" transform="translate(102 374)"/>
        <path id="패스_9429" d="M1.62-11.49v1.005h4.77C6.135-8.205 4.14-6.45.945-5.535l.51.96C5.31-5.67 7.7-8.085 7.7-11.49zm2.775 8.37h6.27v3.045h-6.27zM3.18.915h8.7V-4.1h-8.7zm7.455-13.26v3.465H7.71v1h2.925v3.21h1.245v-7.68zm8.475 1.17H17.9v2.415a7.129 7.129 0 0 1-3.47 6.015l.735.99A7.452 7.452 0 0 0 18.51-6.21a7.421 7.421 0 0 0 3.255 4.185L22.53-3a6.794 6.794 0 0 1-3.42-5.76zm8.055 4.29h-2.22v-5.445h-1.23V1.11h1.23v-6.975h2.22zm11.07-2.55v1.605h-3.51v.96h3.51v1.395h1.245v-6.87h-1.245v1.95H35.19a6.07 6.07 0 0 0 .135-1.29H29.31v1.005h4.68c-.225 2.13-2.1 3.735-5.385 4.5l.45 1.005c2.97-.7 5.025-2.145 5.865-4.26zM32.055 0v-1.56h7.425v-3.3h-8.67v.99h7.44v1.38h-7.41V.975h9.09V0zm17.16-4.8a33.452 33.452 0 0 0 .375-5.34v-.735h-6.795v1h5.6a28.53 28.53 0 0 1-.405 4.95zm-3.09-2.235H44.91v4.14c-1 .03-1.995.045-2.85.045l.135 1.02a54.827 54.827 0 0 0 8.34-.51l-.075-.9c-1.365.165-2.865.255-4.335.315zm8.535.315h-2.145v-5.625h-1.23V1.11h1.23v-6.795h2.145zm5.79-.735l.18 1.05 8.13-.435a27.956 27.956 0 0 1-.48 3.18l1.215.15a27.717 27.717 0 0 0 .57-6.255v-1.275H60.81v1.005h8.04v.27c0 .615 0 1.26-.03 1.965zm4.875 5.73v-3.5H64.1v3.5h-4.74v1h12.16v-1zm18.615-4.17h-8.025v-4.2h7.89v-1.02H74.7v6.225h9.24zm-10.8 4.17v1.02h12.21v-1.02z" class="cls-6" transform="translate(184 496)"/>
        <path id="패스_9428" d="M1.62-11.49v1.005h4.77C6.135-8.205 4.14-6.45.945-5.535l.51.96C5.31-5.67 7.7-8.085 7.7-11.49zm2.775 8.37h6.27v3.045h-6.27zM3.18.915h8.7V-4.1h-8.7zm7.455-13.26v3.465H7.71v1h2.925v3.21h1.245v-7.68zm8.475 1.17H17.9v2.415a7.129 7.129 0 0 1-3.47 6.015l.735.99A7.452 7.452 0 0 0 18.51-6.21a7.421 7.421 0 0 0 3.255 4.185L22.53-3a6.794 6.794 0 0 1-3.42-5.76zm8.055 4.29h-2.22v-5.445h-1.23V1.11h1.23v-6.975h2.22zm11.07-2.55v1.605h-3.51v.96h3.51v1.395h1.245v-6.87h-1.245v1.95H35.19a6.07 6.07 0 0 0 .135-1.29H29.31v1.005h4.68c-.225 2.13-2.1 3.735-5.385 4.5l.45 1.005c2.97-.7 5.025-2.145 5.865-4.26zM32.055 0v-1.56h7.425v-3.3h-8.67v.99h7.44v1.38h-7.41V.975h9.09V0zm17.16-4.8a33.452 33.452 0 0 0 .375-5.34v-.735h-6.795v1h5.6a28.53 28.53 0 0 1-.405 4.95zm-3.09-2.235H44.91v4.14c-1 .03-1.995.045-2.85.045l.135 1.02a54.827 54.827 0 0 0 8.34-.51l-.075-.9c-1.365.165-2.865.255-4.335.315zm8.535.315h-2.145v-5.625h-1.23V1.11h1.23v-6.795h2.145zm11.835-1.905v1.005h2.7v5.145h1.245v-9.855h-1.245v3.7zm.8 3.165a4.619 4.619 0 0 1-3.27-4.125v-.66h2.955v-1.005h-7.19v1.005h3v.675a4.9 4.9 0 0 1-3.39 4.41l.645.96a5.742 5.742 0 0 0 3.39-3.345 5.551 5.551 0 0 0 3.24 3.045zM63.075-.2v-3.15H61.83V.81h8.985V-.2zm21.51-7.72c-2.4-.33-4.725-1.83-4.725-3.615v-.6H78.6v.6c0 1.785-2.31 3.285-4.71 3.615l.465.975a6.867 6.867 0 0 0 4.875-2.94 6.93 6.93 0 0 0 4.89 2.94zM79.23.15c-2.13 0-3.36-.5-3.36-1.38s1.23-1.38 3.36-1.38 3.36.5 3.36 1.38S81.36.15 79.23.15zm0-3.705c-2.88 0-4.605.825-4.605 2.325S76.35 1.1 79.23 1.1s4.6-.825 4.6-2.325-1.72-2.33-4.6-2.33zm.615-2.115v-1.98h-1.23v1.98h-5.46v.99H85.32v-.99z" class="cls-4" transform="translate(184 410)"/>
        <path id="패스_9427" fill="#648de5" d="M.21-21v3.9h4.2V0h4.86v-21zM29.94 0h5.1l-9.39-21h-4.8L11.49 0h4.98l1.86-4.5h9.75zM19.89-8.19l3.33-8.04 3.33 8.04zm22.68 4.23l4.83-4.56c2.94-2.73 3.51-4.59 3.51-6.63 0-3.81-3.12-6.21-7.8-6.21-3.78 0-6.72 1.53-8.34 3.9l3.54 2.28a5.135 5.135 0 0 1 4.35-2.1c2.22 0 3.36.96 3.36 2.61 0 1.02-.33 2.1-2.19 3.87l-8.1 7.65V0H51.6v-3.96zm27.78-6.96a5.048 5.048 0 0 0 2.79-4.62c0-3.27-2.7-5.46-7.95-5.46H54.93V0h10.86c5.52 0 8.4-2.1 8.4-5.73a5.186 5.186 0 0 0-3.84-5.19zm-5.76-6.42c2.37 0 3.66.81 3.66 2.46s-1.29 2.49-3.66 2.49h-4.83v-4.95zm.84 13.68h-5.67v-5.19h5.67c2.52 0 3.87.84 3.87 2.61 0 1.8-1.35 2.58-3.87 2.58zm20.94-8.79l4.74-5.4V-21h-14.7v3.9h8.94l-4.32 4.89V-9h2.22c2.76 0 3.93.99 3.93 2.58 0 1.71-1.5 2.7-3.93 2.7a10.2 10.2 0 0 1-6-1.89l-1.89 3.72A14.439 14.439 0 0 0 83.37.36c5.97 0 8.7-3.24 8.7-6.78 0-3.09-1.92-5.43-5.7-6.03zM105.69.36a10.79 10.79 0 0 0 8.67-3.75l-3.12-2.88a6.692 6.692 0 0 1-5.28 2.49 6.442 6.442 0 0 1-6.72-6.72 6.442 6.442 0 0 1 6.72-6.72 6.756 6.756 0 0 1 5.28 2.46l3.12-2.88a10.841 10.841 0 0 0-8.64-3.72c-6.54 0-11.4 4.53-11.4 10.86S99.18.36 105.69.36z" transform="translate(170 538)"/>
        <path id="패스_9426" d="M27 0h230a27 27 0 0 1 27 27v51H0V27A27 27 0 0 1 27 0z" class="cls-4" transform="translate(85 276)"/>
        <path id="패스_9425" d="M8.46-9.876V.912h.984V-9.876zm-4.692.828c-1.6 0-2.736 1.464-2.736 3.756s1.14 3.756 2.736 3.756S6.5-3 6.5-5.292 5.364-9.048 3.768-9.048zm0 .888c1.044 0 1.788 1.128 1.788 2.868s-.744 2.88-1.788 2.88-1.8-1.128-1.8-2.88.744-2.868 1.8-2.868zm10.788 5.748c-1.032 0-1.752-1.128-1.752-2.88s.72-2.868 1.752-2.868S16.3-7.032 16.3-5.292s-.724 2.88-1.744 2.88zm5-7.464v4.1H17.22c-.156-2.016-1.212-3.276-2.664-3.276-1.572 0-2.688 1.464-2.688 3.756s1.116 3.756 2.688 3.756c1.5 0 2.568-1.32 2.664-3.432h2.34V.912h.984V-9.876zM24.948-2.3h-.984V.648h7.4v-.8h-6.42zm1.284-6.288h2.676v2.448h-2.676zm1.848 4.544v-1.308h3.4v-.792h-1.588v-2.448h1.62v-.792h-7.9v.792h1.632v2.448h-1.6v.792H27.1v1.308h-4.4v.792h9.732v-.792zm10.944-.588a3.27 3.27 0 0 1-2.076-3.024v-.516h1.884v-.792h-4.824v.792h1.98v.528a3.551 3.551 0 0 1-2.2 3.3l.516.768a4.017 4.017 0 0 0 2.184-2.376 3.741 3.741 0 0 0 2.04 2.088zM35.6-1.98h6.252V.888h.984v-3.66H35.6zm6.288-7.884v2.832h-1.352v-2.64h-.924v6.252h.924v-2.808h1.356v2.868h.948v-6.5z" class="cls-6" transform="translate(103 333)"/>
        <path id="패스_9424" fill="#6a7373" d="M3.684.072c2.148 0 3.132-1.056 3.132-2.292 0-3.06-5.172-1.668-5.172-3.972 0-.84.684-1.524 2.22-1.524a4.325 4.325 0 0 1 2.3.7l.3-.708a4.742 4.742 0 0 0-2.6-.744c-2.136 0-3.1 1.068-3.1 2.3 0 3.108 5.172 1.692 5.172 4 0 .828-.684 1.488-2.256 1.488A4.125 4.125 0 0 1 .912-1.7l-.348.68A4.555 4.555 0 0 0 3.684.072zM14.784 0h1.056l-3.888-4.6 3.636-3.8h-1.02L9.636-3.324V-8.4h-.888V0h.888v-2.208l1.716-1.74zm2.5 0h.888v-8.4h-.892zm6.768-8.4H20.9V0h.888v-2.652h2.256c2.136 0 3.432-1.08 3.432-2.868S26.184-8.4 24.048-8.4zm-.024 4.968h-2.236v-4.2h2.232c1.68 0 2.568.768 2.568 2.112 0 1.32-.892 2.088-2.568 2.088z" transform="translate(307 332)"/>
        <g id="패스_9423" fill="none">
            <path d="M0 0h284v1H0z" class="cls-13" transform="translate(85 353)"/>
            <path fill="#dcdcdc" d="M0 0h284v1H0V0z" transform="translate(85 353)"/>
        </g>
        <g id="마스크_그룹_48" clip-path="url(#clip-path)" transform="translate(85 302.214)">
            <path id="사각형_7111" fill="#dcdcdc" d="M17 0h250a17 17 0 0 1 17 17v56H0V17A17 17 0 0 1 17 0z" transform="translate(0 -20.214)"/>
        </g>
        <path id="ic_nav_arrow" fill="none" stroke="#9e9e9e" d="M16081-24247l6 6-6 6" transform="translate(-15735.997 24568.498)"/>
    </g>
</svg>
