<svg xmlns="http://www.w3.org/2000/svg" width="60" height="60" viewBox="0 0 60 60">
    <defs>
        <clipPath id="clip-path">
            <circle id="타원_1072" cx="30" cy="30" r="30" class="cls-1" transform="translate(150 2298)"/>
        </clipPath>
        <style>
            .cls-1{fill:#f4f4f4}.cls-3{fill:#0c476b}.cls-5{fill:#fab993}.cls-6{fill:#8b383e}.cls-7{fill:#ed9967}.cls-8{fill:#1a4850}.cls-9{fill:#105e99}
        </style>
    </defs>
    <g id="img_person_4" transform="translate(-150 -1295)">
        <circle id="타원_1045" cx="30" cy="30" r="30" class="cls-1" transform="translate(150 1295)"/>
        <g id="마스크_그룹_58" clip-path="url(#clip-path)" transform="translate(0 -1003)">
            <g id="그룹_4553" transform="translate(-55.892 2189.697)">
                <path id="패스_8806" d="M229.294 153.159c1.634 1.59 9.673 4.459 13.918 0l2.879 2.828s-3.282 7.718-9.042 7.988-9.923-6.867-9.923-6.867z" class="cls-3"/>
                <path id="패스_8807" d="M252.061 152.288c9.622-4.142 40.709-15.154 40.709-15.154s20.9-26.182 25.16-30.068c0 0 4.626.833 5.979 6.592 0 0-13.456 28.814-20.771 37.063s-44.362 26.09-44.362 26.09z" class="cls-3"/>
                <path id="패스_8808" fill="#f79944" d="M218.383 151.694c2.862-1.81 17.234 7.8 17.234 7.8s18.684-9.922 23.069-8c0 0 3.951 5.288 5.539 18.882s1.693 69.536 1.693 69.536a97.557 97.557 0 0 1-29.553 4.444c-19.37 0-29.791-5.555-29.791-5.555s-3.457-77.452 11.809-87.107z"/>
                <path id="패스_8809" d="M230.053 150.241s2.069 6.509 0 9.017c0 0 2.149 4.509 6.012 4.709 4.462.23 6.011-4.709 6.011-4.709s-2.36-6.287 0-8.5z" class="cls-5"/>
                <g id="그룹_4552">
                    <path id="패스_8810" d="M224.894 143.834s-4.355-8.382-3.492-17.339 14.358-11.012 23.454-6.611c0 0-2.7-2.64-1.644-3.374s2.879 3.961 2.879 3.961 2.873-.88 3.313 0-2.944 1.362-2.944 1.362 5.87 3.255.386 20.578z" class="cls-6"/>
                    <path id="패스_8811" d="M224.239 138.526s-3.247-3.24-3.647.548c-.463 4.388 3.523 6.156 4.3 4.76s-.653-5.308-.653-5.308z" class="cls-5"/>
                    <path id="패스_8812" d="M246.977 138.755s3.248-3.241 3.647.547c.463 4.389-3.523 6.157-4.3 4.761s.653-5.308.653-5.308z" class="cls-5"/>
                    <path id="패스_8813" d="M235.266 154.422c-7.205 0-11.271-4.706-11.271-18.821 0-7.281 3.7-11.747 11.774-11.747s11.47 4.466 11.47 11.747c0 15.167-4.53 18.821-11.973 18.821z" class="cls-5"/>
                    <path id="패스_8814" d="M244.852 140.636a1.706 1.706 0 1 1-1.868-1.026 1.526 1.526 0 0 1 1.868 1.026z" class="cls-7"/>
                    <path id="패스_8815" d="M230.033 141.03a1.706 1.706 0 1 1-1.575-1.437 1.527 1.527 0 0 1 1.575 1.437z" class="cls-7"/>
                    <g id="그룹_4549">
                        <path id="패스_8816" d="M241.557 133.311a.357.357 0 0 1-.26-.111 4.118 4.118 0 0 0-2.773-1 .366.366 0 0 1-.371-.349.358.358 0 0 1 .348-.371 4.809 4.809 0 0 1 3.316 1.225.359.359 0 0 1-.26.608z" class="cls-6"/>
                    </g>
                    <g id="그룹_4550">
                        <path id="패스_8817" d="M227.991 133.311a.356.356 0 0 1-.248-.1.361.361 0 0 1-.013-.509 4.809 4.809 0 0 1 3.316-1.225.359.359 0 0 1 .348.371.368.368 0 0 1-.371.349 4.15 4.15 0 0 0-2.771 1 .362.362 0 0 1-.261.114z" class="cls-6"/>
                    </g>
                    <path id="패스_8818" d="M240.934 137.134c0 .9-.4 1.621-.9 1.621s-.9-.726-.9-1.621.4-1.62.9-1.62.9.725.9 1.62z" class="cls-8"/>
                    <path id="패스_8819" d="M231.313 137.134c0 .9-.4 1.621-.9 1.621s-.9-.726-.9-1.621.4-1.62.9-1.62.9.725.9 1.62z" class="cls-8"/>
                    <path id="패스_8820" d="M231.313 146.707s6.353.818 9.621-.75c0 0-1.847 4.326-5.318 3.937a4.935 4.935 0 0 1-4.303-3.187z" class="cls-8"/>
                    <path id="패스_8821" d="M246.488 140.354s-.225-7.836-3.276-13.859c0 0-5.378 2.485-6.561 1.9s1.128-1.9 1.128-1.9-8.874 2.925-9.407 2.338 2.941-2.338 2.941-2.338l-5.528 1.9s-1.7 7.051-1 11.961c0 0-2.376-4.1-2.669-6.93s.95-10.9 9.277-11.486 13 1.3 15.066 5.126 1.808 8.524.029 13.288z" class="cls-6"/>
                    <g id="그룹_4551">
                        <path id="패스_8822" d="M236.522 144.444a6.673 6.673 0 0 1-1.627-.241l.205-.737c.756.208 1.941.333 2.2.028.089-.107.054-.353-.1-.675-1.041-2.215-1.258-7.822-1.267-8.059l.766-.029c0 .057.219 5.688 1.194 7.761a1.329 1.329 0 0 1-.009 1.495 1.756 1.756 0 0 1-1.362.457z" class="cls-6"/>
                    </g>
                </g>
                <path id="패스_8823" d="M244.494 155.222s13.04 40.48 14.282 73.417c0 0 4.706 1.295 10.006-5.921s2.147-64.379-8.006-73.9c0 .003-4.606-1.047-16.282 6.404z" class="cls-9"/>
                <path id="패스_8824" d="M246.619 162.3s2.334-5.423 1.3-9.142-4.7 0-4.7 0 1.475 6.09 3.4 9.142z" class="cls-3"/>
                <path id="패스_8825" d="M220.445 152.288c-9.621-4.142-40.709-15.154-40.709-15.154s-20.95-26.945-25.212-30.831a11.979 11.979 0 0 0-5.632 9.159s13.162 27.01 20.476 35.259 44.363 26.09 44.363 26.09z" class="cls-3"/>
                <path id="패스_8826" d="M228.013 155.222s-13.04 40.48-14.282 73.417c0 0-4.707 1.295-10.006-5.921s-2.147-64.379 8-73.9c.005.003 4.611-1.047 16.288 6.404z" class="cls-9"/>
                <path id="패스_8827" d="M225.887 162.3s-2.334-5.423-1.3-9.142 4.7 0 4.7 0-1.474 6.09-3.4 9.142z" class="cls-3"/>
            </g>
        </g>
    </g>
</svg>
