<svg xmlns="http://www.w3.org/2000/svg" width="60" height="60" viewBox="0 0 60 60">
    <defs>
        <clipPath id="clip-path">
            <circle id="타원_1072" cx="30" cy="30" r="30" fill="#f4f4f4" transform="translate(150 2298)"/>
        </clipPath>
        <style>
            .cls-4{fill:#0e3944}.cls-5{fill:#fab993}.cls-6{fill:#ff8b66}.cls-7{fill:#164353}.cls-9{fill:#ed9967}.cls-10{fill:#1a4850}.cls-11{fill:#ef6e4b}.cls-12{fill:#6097b2}.cls-13{fill:#205260}
        </style>
    </defs>
    <g id="img_person_3" transform="translate(-150 -1295)">
        <circle id="타원_1045" cx="30" cy="30" r="30" fill="#fff" transform="translate(150 1295)"/>
        <g id="마스크_그룹_58" clip-path="url(#clip-path)" transform="translate(0 -1003)">
            <g id="그룹_4503" transform="translate(57.002 2147.001)">
                <path id="패스_8507" d="M129.256 161.062s-5.82-3.959-14.331-.909-10.425 14.513-8.325 23.816-9.623 41.064-9.623 41.064 6.091 8.566 27.379 5.288c0 0 15.873-28.846 14.694-49.555s-9.794-19.704-9.794-19.704z" class="cls-4"/>
                <path id="패스_8508" d="M135.976 196.846c8-2.558 12.9 4.1 17.48 16.5s6.125 13.641 6.125 13.641l17.693 11.368-1.47 6.625s-16.839-6.593-20.91-10.787-15.783-25.435-15.783-25.435z" class="cls-5"/>
                <path id="패스_8509" d="M96.984 276.941s-3.471 17.579-2.9 44.04c0 0-13.678 20.17-2.39 77.718h5.921s4.837-48.963 8.538-62.23 17.367-17.338 18.107-57.678z" class="cls-6"/>
                <path id="패스_8510" d="M69.922 328.631c-3.44-11.339-12.283-30.33-34.969-56.072a3.37 3.37 0 0 0-3.182.42c-1.931 1.18-1.931 2.566-1.931 2.566s11.376 24.791 18.63 42.955a16.082 16.082 0 0 0 14.93 10.131z" class="cls-6"/>
                <path id="패스_8511" d="M111.224 350.556s.077 8.461-5.474 8.605c-7.838.211-8.127-8.327-17.009-8.049s-27.2 2.5-33.03-11.381c-3.009-7.172 1.11-16.376-8.6-23.315s-5-14.711 0-18.874-2.153-8.7 3.054-10.825a5.093 5.093 0 0 1 3.6-.067 8.35 8.35 0 0 1 1.887.955 18.244 18.244 0 0 1 4.686 5.018c14.71-40.291 40.9-45.609 40.9-45.609l25.9 8.937c.617 62.685-15.914 94.605-15.914 94.605z" class="cls-7"/>
                <path id="패스_8512" fill="#cfd8dc" d="M135.976 196.846a33.921 33.921 0 0 1-14.639.733c-8.6-1.3-11.39-6.7-17.432-3.228-9.071 5.215-4.826 23.165-2.549 32.5.85 3.479 1.926 12.621-.123 20.166 0 0 12.078 9.4 25.9 8.931l7.542-16.4s16.404-19.63 1.301-42.702z"/>
                <path id="패스_8513" d="M120.628 181.79a37.077 37.077 0 0 1-2.136 16.216s4.484 6.621 8.764 2.264a42.785 42.785 0 0 1 5.2-16.586c3.219-5.896-11.828-1.894-11.828-1.894z" class="cls-5"/>
                <g id="그룹_4498">
                    <path id="패스_8514" d="M113.755 182.079s-3.783-2.394-3.356 1.3c.495 4.278 4.667 5.112 5.112 3.616s-1.756-4.916-1.756-4.916z" class="cls-5"/>
                    <path id="패스_8515" d="M135.457 177.448s2.4-3.778 3.59-.256c1.377 4.08-2.042 6.614-3.082 5.451s-.508-5.195-.508-5.195z" class="cls-5"/>
                    <path id="패스_8516" d="M127.646 194.866c-6.862 1.536-11.738-2.079-14.747-15.52-1.553-6.934 1.023-11.977 8.708-13.7s11.874 1.807 13.427 8.741c3.234 14.446-.3 18.892-7.388 20.479z" class="cls-5"/>
                    <path id="패스_8517" d="M133.835 179.692a1.666 1.666 0 1 1-2-.578 1.492 1.492 0 0 1 2 .578z" class="cls-9"/>
                    <path id="패스_8518" d="M119.806 183.228A1.665 1.665 0 1 1 118 182.2a1.488 1.488 0 0 1 1.806 1.028z" class="cls-9"/>
                    <g id="그룹_4495">
                        <path id="패스_8519" d="M129.057 173.429a.347.347 0 0 1-.194-.059 4.034 4.034 0 0 0-2.854-.363.352.352 0 0 1-.175-.681 4.7 4.7 0 0 1 3.419.459.352.352 0 0 1-.2.644z" class="cls-4"/>
                    </g>
                    <g id="그룹_4496">
                        <path id="패스_8520" d="M116.138 176.322a.355.355 0 0 1-.181-.051.35.35 0 0 1-.119-.482 4.7 4.7 0 0 1 2.9-1.873.357.357 0 0 1 .41.279.352.352 0 0 1-.279.411 4.064 4.064 0 0 0-2.427 1.545.349.349 0 0 1-.304.171z" class="cls-4"/>
                    </g>
                    <path id="패스_8521" d="M129.358 177.194c.19.852-.039 1.629-.512 1.734s-1.012-.5-1.2-1.35.038-1.629.512-1.735 1.009.498 1.2 1.351z" class="cls-10"/>
                    <path id="패스_8522" d="M119.825 179.245c.191.852-.039 1.629-.512 1.735s-1.012-.5-1.2-1.351.039-1.629.512-1.735 1.009.499 1.2 1.351z" class="cls-10"/>
                    <path id="패스_8523" d="M122.907 187.315s4.407-.359 6.349-2c0 0-.534 3.443-2.932 3.682a3.5 3.5 0 0 1-3.417-1.682z" class="cls-10"/>
                    <g id="그룹_4497">
                        <path id="패스_8526" d="M125.13 183.34l-.353-.67a.876.876 0 0 0 .56-.994.939.939 0 0 0-.654-.747c-.137-.007-.255.11-.347.354l-.71-.264a1.092 1.092 0 0 1 1.115-.846 1.665 1.665 0 0 1 1.338 1.348 1.636 1.636 0 0 1-.949 1.819z" class="cls-4"/>
                    </g>
                    <path id="패스_8527" d="M114.3 184.5s-2.116-7.786-.86-13.292c0 0 5.969-8.312 17.49-4.2a46.476 46.476 0 0 1 5.11 13.2s.43-2.766-.716-8.926-6.612-9.987-14.106-8.755-15.518 8.686-6.918 21.973z" class="cls-4"/>
                </g>
                <path id="패스_8528" d="M126.378 165.276s.457 2.033-1.52 7.266a2.159 2.159 0 0 0-3.087 0c-1.665 1.486-5.047.989-6.2 1.793a3.56 3.56 0 0 0-1.154 2.639 7.278 7.278 0 0 1 0-5.028 10.073 10.073 0 0 0-1.949 6.383s-3.047-.492-2.909-5.519 7.285-13.16 15.3-12.633 9.924 13.22 9.924 13.22a2.337 2.337 0 0 0-1.875-.319 16.626 16.626 0 0 0-1.98-6.078 9 9 0 0 1 0 5.081 7.261 7.261 0 0 0-3.993-.805s1.087-2.123-.557-6z" class="cls-4"/>
                <path id="패스_8529" d="M101.87 195.955c3.9-3.075 6.939.837 7.684 6.247s-6.31 37.331-11.75 36.154c-2.1-.454-2.957-8.815-2.957-8.815a192 192 0 0 0 3.5-22.483c.638-6.208 1.489-9.499 3.523-11.103z" class="cls-5"/>
                <path id="패스_8530" d="M90.519 233.845c-5.252-5.006-14.668-21.611-17.061-30.071l3.986-1.6s12 17.17 17.474 21.5 7.4 9.152 4.951 13.281-8.244-2.055-9.35-3.11z" class="cls-6"/>
                <g id="그룹_4499">
                    <path id="패스_8531" d="M75.1 192.7c-.275 5.43 4.151 6.717 2.187 10.885a2.844 2.844 0 0 1-1.663 1.545 3.366 3.366 0 0 1-3.474-.893 38.377 38.377 0 0 0-7.087-5.367c-1.968-1.136-.853-1.445-.853-1.445-.191-.09-.376-.165-.562-.24-1.4-.588-2.527-.81-1.508-1.435 1.145-.712 5.208.772 5.208.772-5.288-3.521-6.723-2.663-5.757-3.411 1.317-1.024 6.344 1.331 6.494 1.4-2.793-2.641-4.819-3.239-3.71-3.638s6.65 3.6 8.667 5.1c.454.337.733.553.733.553C73.7 192.09 75.1 192.7 75.1 192.7z" class="cls-6"/>
                    <path id="패스_8532" d="M73.037 195.975c.454.337.733.553.733.553a3.681 3.681 0 0 0 .279 3.654 3.286 3.286 0 0 1-1.012-4.207z" class="cls-11"/>
                    <path id="패스_8533" d="M68.4 199.093c-.468-.257-3.135-1.759-4.2-1.67-.191-.09-.376-.165-.562-.24.718-.94 4.233 1.525 4.762 1.91z" class="cls-11"/>
                </g>
                <g id="그룹_4500">
                    <path id="패스_8534" d="M89.365 279.668A1.067 1.067 0 1 1 88.3 278.6a1.067 1.067 0 0 1 1.065 1.068z" class="cls-12"/>
                    <path id="패스_8535" d="M108.4 287.013a1.068 1.068 0 1 1-1.067-1.067 1.068 1.068 0 0 1 1.067 1.067z" class="cls-12"/>
                    <path id="패스_8536" d="M124.629 290.952a1.067 1.067 0 1 1-1.067-1.067 1.068 1.068 0 0 1 1.067 1.067z" class="cls-12"/>
                    <path id="패스_8537" d="M99.7 265.732a1.067 1.067 0 1 1-1.067-1.067 1.068 1.068 0 0 1 1.067 1.067z" class="cls-12"/>
                    <circle id="타원_1060" cx="1.067" cy="1.067" r="1.067" class="cls-12" transform="translate(101.16 274.806)"/>
                    <path id="패스_8538" d="M120.178 281.654a1.068 1.068 0 1 1-1.067-1.067 1.067 1.067 0 0 1 1.067 1.067z" class="cls-12"/>
                    <path id="패스_8539" d="M122.5 264.16a1.068 1.068 0 1 1-1.068-1.067 1.068 1.068 0 0 1 1.068 1.067z" class="cls-12"/>
                    <circle id="타원_1061" cx="1.067" cy="1.067" r="1.067" class="cls-12" transform="translate(109.298 259.452)"/>
                    <path id="패스_8540" d="M79.921 300.487a1.067 1.067 0 1 1-1.067-1.067 1.068 1.068 0 0 1 1.067 1.067z" class="cls-12"/>
                    <path id="패스_8541" d="M64.711 295.949a1.067 1.067 0 1 1-1.068-1.067 1.068 1.068 0 0 1 1.068 1.067z" class="cls-12"/>
                    <path id="패스_8542" d="M55.644 287.605a1.073 1.073 0 0 1-1.965-.589.8.8 0 0 1 .078-.366 8.35 8.35 0 0 1 1.887.955z" class="cls-12"/>
                    <circle id="타원_1062" cx="1.067" cy="1.067" r="1.067" class="cls-12" transform="translate(83.236 313.339)"/>
                    <path id="패스_8543" d="M58.072 329.534a1.067 1.067 0 1 1-1.067-1.068 1.067 1.067 0 0 1 1.067 1.068z" class="cls-12"/>
                    <circle id="타원_1063" cx="1.067" cy="1.067" r="1.067" class="cls-12" transform="translate(67.09 319.297)"/>
                    <circle id="타원_1064" cx="1.067" cy="1.067" r="1.067" class="cls-12" transform="translate(50.48 311.184)"/>
                    <path id="패스_8544" d="M66.022 344.2a1.068 1.068 0 1 1-1.067-1.067 1.068 1.068 0 0 1 1.067 1.067z" class="cls-12"/>
                    <path id="패스_8545" d="M76.184 288.081a1.067 1.067 0 1 1-1.068-1.068 1.068 1.068 0 0 1 1.068 1.068z" class="cls-12"/>
                    <path id="패스_8546" d="M86.438 270.106a1.068 1.068 0 1 1-1.067-1.067 1.068 1.068 0 0 1 1.067 1.067z" class="cls-12"/>
                    <path id="패스_8547" d="M98.043 255.147a1.068 1.068 0 1 1-1.068-1.068 1.068 1.068 0 0 1 1.068 1.068z" class="cls-12"/>
                    <path id="패스_8548" d="M74.525 276.941a1.067 1.067 0 1 1-1.067-1.067 1.067 1.067 0 0 1 1.067 1.067z" class="cls-12"/>
                    <path id="패스_8549" d="M87.506 259.452a1.067 1.067 0 1 1-1.068-1.067 1.068 1.068 0 0 1 1.068 1.067z" class="cls-12"/>
                    <path id="패스_8550" d="M67.09 307.51a1.067 1.067 0 1 1-1.068-1.067 1.068 1.068 0 0 1 1.068 1.067z" class="cls-12"/>
                    <path id="패스_8551" d="M53.682 298.084a1.067 1.067 0 1 1-1.067-1.067 1.067 1.067 0 0 1 1.067 1.067z" class="cls-12"/>
                    <circle id="타원_1065" cx="1.067" cy="1.067" r="1.067" class="cls-12" transform="translate(90.433 293.815)"/>
                    <circle id="타원_1066" cx="1.067" cy="1.067" r="1.067" class="cls-12" transform="translate(112.5 299.42)"/>
                    <path id="패스_8552" d="M113.567 270.106a1.068 1.068 0 1 1-1.067-1.067 1.068 1.068 0 0 1 1.067 1.067z" class="cls-12"/>
                    <path id="패스_8553" d="M126.4 272.344a1.068 1.068 0 1 1-1.067-1.067 1.067 1.067 0 0 1 1.067 1.067z" class="cls-12"/>
                    <path id="패스_8554" d="M100.768 308.578a1.067 1.067 0 1 1-1.068-1.068 1.067 1.067 0 0 1 1.068 1.068z" class="cls-12"/>
                    <circle id="타원_1067" cx="1.067" cy="1.067" r="1.067" class="cls-12" transform="translate(89.365 326.496)"/>
                    <circle id="타원_1068" cx="1.067" cy="1.067" r="1.067" class="cls-12" transform="translate(72.982 329.534)"/>
                    <circle id="타원_1069" cx="1.067" cy="1.067" r="1.067" class="cls-12" transform="translate(118.043 313.339)"/>
                    <path id="패스_8555" d="M105.43 322.5a1.068 1.068 0 1 1-1.067-1.068 1.067 1.067 0 0 1 1.067 1.068z" class="cls-12"/>
                    <path id="패스_8556" d="M83.236 346.333a1.068 1.068 0 1 1-1.067-1.067 1.067 1.067 0 0 1 1.067 1.067z" class="cls-12"/>
                    <circle id="타원_1070" cx="1.067" cy="1.067" r="1.067" class="cls-12" transform="translate(97.566 339.708)"/>
                    <circle id="타원_1071" cx="1.067" cy="1.067" r="1.067" class="cls-12" transform="translate(113.427 333.42)"/>
                    <path id="패스_8557" d="M108.4 352.849a1.068 1.068 0 1 1-1.067-1.067 1.067 1.067 0 0 1 1.067 1.067z" class="cls-12"/>
                </g>
                <g id="그룹_4501">
                    <path id="패스_8558" d="M107.238 409.056H89.707c-1.144-3.264.966-6.54.611-9.415-.611-4.863 2.22-2.176 2.22-2.176.5-5.23 7.85-6.218 7.772-3.886-.122 3.43.544 5.551 1.521 6.972 1.976 2.853 5.218 2.831 5.773 4.874.056.2.1.4.133.577.544 2.554-.499 3.054-.499 3.054z" class="cls-7"/>
                    <path id="패스_8559" d="M107.737 406c-3.63.844-12-.255-12.334-2.364-.322-2.043 4.185-3 6.428-3.087 1.976 2.853 5.218 2.831 5.773 4.874.056.202.096.402.133.577z" class="cls-13"/>
                </g>
                <g id="그룹_4502">
                    <path id="패스_8560" d="M35.171 273.26c-1.865-1.7-4.9 1.111-4.9 1.111s1.632 2.42.577 3.4-2.276-1.255-4.352-.278a4.074 4.074 0 0 0-.511.289 24.026 24.026 0 0 0-4.674 4.541c-.277.311-.544.6-.788.855-1.588 1.665-5.685 2.642-6.451-1.8s4.23-9.648 9.715-14.433S32.818 265 32.818 265a8.629 8.629 0 0 1 1.243 3.264c0 1.244 1.11 1.865 1.732 3.053a1.507 1.507 0 0 1-.622 1.943z" class="cls-7"/>
                    <path id="패스_8561" d="M25.989 277.779a24.026 24.026 0 0 0-4.674 4.541c-2.054.489-3.9.344-4.185-1.588-.7-4.663 8.6-10.591 7.86-7.316a5.828 5.828 0 0 0 .999 4.363z" class="cls-13"/>
                </g>
            </g>
        </g>
    </g>
</svg>
