<svg xmlns="http://www.w3.org/2000/svg" width="60" height="60" viewBox="0 0 60 60">
    <defs>
        <clipPath id="clip-path">
            <circle id="타원_1055" cx="30" cy="30" r="30" class="cls-1" transform="translate(148 1279)"/>
        </clipPath>
        <style>
            .cls-1{fill:#fff}.cls-3{fill:#adbec4}.cls-4{fill:#cfd8dc}.cls-5{fill:#fab993}.cls-7{fill:#ed9967}.cls-8{fill:#1a4850}
        </style>
    </defs>
    <g id="img_person_1" transform="translate(-150 -1295)">
        <circle id="타원_1045" cx="30" cy="30" r="30" class="cls-1" transform="translate(150 1295)"/>
        <g id="마스크_그룹_56" clip-path="url(#clip-path)" transform="translate(2 16)">
            <g id="그룹_4492" transform="translate(-93.052 1123.857)">
                <path id="패스_8484" d="M289.013 201.626s11.908-1.916 17.875 1.888 13.8 13.731 13.8 13.731-9.3 1.228-10.354 7.545c0 .001-6.755-16.09-21.321-23.164z" class="cls-3" transform="rotate(25 279.665 209.136)"/>
                <path id="패스_8485" d="M268.982 207.865c-5.037 2.724-13.458 12.947-13.838 19.235-.371 6.132 4.171 11.773 7.234 16.567C271.934 258.63 282 271.85 286.271 289.4c.027.112 21.859 8.775 47.481-22.024 0 0-14.477-19.479-19.479-36.063-2.036-6.75-4.107-13.922-8.018-19.871a21.283 21.283 0 0 0-19.358-9.787c-6.497.526-12.953 3.527-17.915 6.21z" class="cls-4" transform="rotate(25 278.67 213.923)"/>
                <path id="패스_8486" d="M267.65 201.491s3.222 5.505 1.733 8.533c0 0 11.055 3.817 11.055-2.369 0 0-2.083-4.636-1.3-7.634z" class="cls-5" transform="translate(-.787 -2.252)"/>
                <g id="그룹_4491" transform="translate(255.294 163.966)">
                    <path id="패스_8488" fill="#164353" d="M281.32 193.254s4.318-1.81 1.524-14.8c-1.851-8.6-4.516-9.887-6.239-9.963 0 0-2.108-3.175-9.418-1.656a13.582 13.582 0 0 0-10.76 9.708c-1.836 5.873 1.836 18.462 6.671 19.715z" transform="translate(-255.35 -164.119)"/>
                    <path id="패스_8489" d="M284.079 185.568s2.722-3.788 3.749-.054c1.191 4.325-2.515 6.758-3.527 5.487s-.222-5.433-.222-5.433z" class="cls-5" transform="translate(-257.089 -165.209)"/>
                    <path id="패스_8490" d="M259.577 189.876s-3.793-2.712-3.567 1.153c.262 4.478 4.553 5.591 5.1 4.062s-1.533-5.215-1.533-5.215z" class="cls-5" transform="translate(-255.353 -165.526)"/>
                    <path id="패스_8491" d="M274.083 202.578c7.226-1.192 10.526-6.584 8.19-20.742-1.2-7.3-5.659-11.168-13.753-9.833s-10.765 6.377-9.56 13.68c2.51 15.211 7.658 18.127 15.123 16.895z" class="cls-5" transform="translate(-255.521 -164.451)"/>
                    <path id="패스_8492" d="M262.42 191.486a1.735 1.735 0 1 0 1.7-1.337 1.552 1.552 0 0 0-1.7 1.337z" class="cls-7" transform="translate(-255.754 -165.601)"/>
                    <path id="패스_8493" d="M278.342 189.265a1.734 1.734 0 1 0 1.341-1.7 1.551 1.551 0 0 0-1.341 1.7z" class="cls-7" transform="translate(-256.747 -165.436)"/>
                    <g id="그룹_4488" transform="translate(8.333 15.646)">
                        <path id="패스_8494" d="M264.566 183.007a.366.366 0 0 1-.3-.572 4.9 4.9 0 0 1 3.125-1.779.363.363 0 0 1 .411.315.368.368 0 0 1-.314.412 4.212 4.212 0 0 0-2.616 1.463.365.365 0 0 1-.306.161z" class="cls-8" transform="translate(-264.199 -180.654)"/>
                    </g>
                    <g id="그룹_4489" transform="translate(18.703 14.337)">
                        <path id="패스_8495" d="M278.862 180.676a.365.365 0 0 1-.22-.074 4.2 4.2 0 0 0-2.945-.547.361.361 0 0 1-.43-.288.367.367 0 0 1 .288-.43 4.895 4.895 0 0 1 3.528.681.366.366 0 0 1-.22.658z" class="cls-8" transform="translate(-275.259 -179.258)"/>
                    </g>
                    <path id="패스_8496" d="M265.991 187.019c.148.9.672 1.559 1.17 1.477s.783-.877.635-1.775-.672-1.557-1.17-1.476-.783.877-.635 1.774z" class="cls-8" transform="translate(-255.975 -165.295)"/>
                    <path id="패스_8497" d="M276.284 185.321c.148.9.672 1.558 1.171 1.477s.783-.877.635-1.774-.672-1.559-1.171-1.477-.783.877-.635 1.774z" class="cls-8" transform="translate(-256.618 -165.188)"/>
                    <path id="패스_8498" d="M278.528 194.131s-6.269 1.682-9.746 1.014c0 0 2.4 3.027 5.833 2.154s3.913-3.168 3.913-3.168z" class="cls-8" transform="translate(-256.152 -165.85)"/>
                    <path id="패스_8499" fill="#0e3944" d="M278.126 175.13s-8.157 5.906-18.4 6.356l.291 9.114s-9.542-17.583 9.33-20.7 13.38 16.525 13.38 16.525-.581-8.467-4.601-11.295z" transform="translate(-255.454 -164.316)"/>
                    <g id="그룹_4490" transform="translate(14.999 18.254)">
                        <path id="패스_8500" d="M272.31 191.014l-.052-.788c.011 0 1.1-.085 1.383-.759.117-.278-.347-1.163-.757-1.943a14.919 14.919 0 0 1-1.575-3.933l.774-.156a14.239 14.239 0 0 0 1.5 3.722c.607 1.158 1.045 1.994.785 2.615a2.515 2.515 0 0 1-2.058 1.242z" class="cls-8" transform="translate(-271.309 -183.436)"/>
                    </g>
                    <path id="패스_8501" fill="#ce364c" d="M282.408 174.8c-13.72-5.953-26.668 6.391-26.668 6.391s-1.509-10 1.134-12.345a15.761 15.761 0 0 1 2.2-1.634c6.057-3.82 14.115-3.747 17.81-2.436a4.5 4.5 0 0 1 1.676.937c2.182 2.271 3.848 9.087 3.848 9.087z" transform="translate(-255.31 -163.966)"/>
                    <path id="패스_8502" d="M280.94 172.575a32.446 32.446 0 0 0-22.265 4.829s-.687-6.453.594-10.19c6.057-3.82 14.115-3.747 17.809-2.436 2.155 2.457 3.862 7.797 3.862 7.797z" class="cls-4" transform="translate(-255.509 -163.966)"/>
                    <path id="패스_8503" fill="#a02e44" d="M256.978 180.173s1.826-7.758 4.287-9.944c4.094-3.635 15.6-4.884 21.643-2.7s0 8.791 0 8.791-9.636-6.9-25.93 3.853z" transform="translate(-255.415 -164.121)"/>
                </g>
                <path id="패스_8505" d="M257.309 221.814c4.309-7.017 14.251 3.355 17.635 10.762s5.852 8.978 5.852 8.978-9.933 4.15-9.863 11.6c0-.005-23.033-16.031-13.624-31.34z" class="cls-3" transform="rotate(25 281.188 214.491)"/>
            </g>
        </g>
    </g>
</svg>
