<svg xmlns="http://www.w3.org/2000/svg" width="90" height="90" viewBox="0 0 90 90">
    <defs>
        <style>
            .cls-4{fill:#3e79e8}.cls-5{fill:#fff}
        </style>
    </defs>
    <g id="ic_callcenter" transform="translate(-710.629 -412.672)">
        <path id="사각형_8010" fill="none" d="M0 0H90V90H0z" transform="translate(710.629 412.672)"/>
        <path id="패스_9919" fill="#ffcd00" d="M11553.348 11007.812a1.594 1.594 0 0 1-.369.043h-21.49a1.5 1.5 0 0 1-.83-2.738l6.018-4.01a24.688 24.688 0 0 1-8.629-18.635c0-14.018 12.033-25.383 26.877-25.383s26.875 11.365 26.875 25.383-12.033 25.383-26.875 25.383c-.525-.001-1.056-.014-1.577-.043z" transform="translate(-10799.085 -10526.084)"/>
        <g id="패스_9918" fill="#3e79e8" stroke="none">
            <path d="M11564.375 11026.727v-1.732c8.853-.252 17.146-3.827 23.45-10.13 6.538-6.539 10.14-15.222 10.14-24.45 0-19.075-15.517-34.594-34.59-34.594-19.075 0-34.594 15.519-34.594 34.593 0 .161.001.325.004.494h-1.735c-.002-.164-.003-.328-.003-.494 0-4.904.96-9.661 2.854-14.137 1.828-4.322 4.447-8.208 7.785-11.548 3.338-3.336 7.224-5.956 11.55-7.785 4.478-1.894 9.235-2.854 14.139-2.854 4.902 0 9.66.96 14.138 2.854 4.324 1.828 8.21 4.448 11.55 7.785 3.337 3.34 5.957 7.226 7.784 11.548 1.894 4.476 2.854 9.233 2.854 14.137 0 4.906-.96 9.664-2.854 14.14-1.828 4.326-4.448 8.21-7.784 11.548-3.334 3.334-7.22 5.953-11.55 7.784-4.172 1.765-8.587 2.72-13.138 2.84z" transform="translate(-10807.536 -10532.535)"/>
            <path d="M11563.377 11027.74h-.002v-3.73c8.959-.002 17.39-3.5 23.742-9.852 6.352-6.351 9.848-14.783 9.848-23.744 0-18.522-15.069-33.593-33.59-33.593-18.523 0-33.594 15.07-33.594 33.593 0 .467.012.955.035 1.494h-3.74c-.021-.533-.03-1.035-.03-1.494 0-5.037.987-9.925 2.934-14.526 1.88-4.446 4.57-8.436 7.999-11.866 3.43-3.427 7.421-6.119 11.867-7.999 4.601-1.946 9.49-2.933 14.529-2.933 5.04 0 9.926.987 14.527 2.933 4.448 1.88 8.438 4.572 11.868 8 3.427 3.43 6.119 7.42 7.998 11.865 1.947 4.601 2.933 9.489 2.933 14.526 0 5.04-.986 9.928-2.933 14.53-1.88 4.445-4.57 8.437-7.998 11.865-3.428 3.427-7.42 6.117-11.868 7.998-4.601 1.947-9.488 2.933-14.525 2.933z" transform="translate(-10807.536 -10532.535)"/>
        </g>
        <path id="패스_9917" d="M0 0h3.733A7.465 7.465 0 0 1 11.2 7.465v7.465a7.465 7.465 0 0 1-7.467 7.47H0z" class="cls-4" transform="translate(789.431 444.444)"/>
        <path id="패스_9916" d="M7.465 0H11.2v22.4H7.465A7.465 7.465 0 0 1 0 14.93V7.465A7.465 7.465 0 0 1 7.465 0z" class="cls-4" transform="translate(711.047 444.444)"/>
        <path id="패스_9915" d="M2.986 0A2.986 2.986 0 1 1 0 2.986 2.986 2.986 0 0 1 2.986 0z" class="cls-5" transform="translate(752.852 453.402)"/>
        <path id="패스_9914" d="M2.986 0A2.986 2.986 0 1 1 0 2.986 2.986 2.986 0 0 1 2.986 0z" class="cls-5" transform="translate(739.414 453.402)"/>
        <path id="패스_9913" d="M2.986 0A2.986 2.986 0 1 1 0 2.986 2.986 2.986 0 0 1 2.986 0z" class="cls-5" transform="translate(766.289 453.402)"/>
        <path id="패스_9912" d="M8.958 0c4.947 0 8.958 2.674 8.958 5.972s-4.011 5.972-8.958 5.972S0 9.27 0 5.972 4.011 0 8.958 0z" class="cls-4" transform="translate(746.88 486.249)"/>
    </g>
</svg>
