<svg xmlns="http://www.w3.org/2000/svg" id="chart" width="280" height="280" viewBox="0 0 280 280">
    <defs>
        <style>
            .cls-1{fill:#fff}.cls-2{fill:none}.cls-3{fill:#dfe3e6}.cls-5{fill:#dfe7f2}.cls-6{fill:#353e4c}.cls-7{fill:#ffcd00}
        </style>
    </defs>
    <path id="패스_4033" d="M0 0h280v280H0z" class="cls-1"/>
    <path id="패스_4034" d="M25 25h230v230H25z" class="cls-2"/>
    <path id="패스_4035" d="M233 148h-2v-2h2zm-5 0h-3v-2h3zm-6 0h-3v-2h3zm-6 0h-3v-2h3zm-6 0h-3v-2h3zm-6 0h-3v-2h3zm-6 0h-3v-2h3zm-6 0h-3v-2h3zm-6 0h-3v-2h3zm-6 0h-3v-2h3zm-6 0h-3v-2h3zm-6 0h-3v-2h3zm-6 0h-3v-2h3zm-6 0h-3v-2h3zm-6 0h-3v-2h3zm-6 0h-3v-2h3zm-6 0h-3v-2h3zm-6 0h-3v-2h3zm-6 0h-3v-2h3zm-6 0h-3v-2h3zm-6 0h-3v-2h3zm-6 0h-3v-2h3zm-6 0h-3v-2h3zm-6 0h-3v-2h3zm-6 0h-3v-2h3zm-6 0h-3v-2h3zm-6 0h-3v-2h3zm-6 0h-3v-2h3zm-6 0h-3v-2h3zm-6 0h-3v-2h3zm-6 0h-3v-2h3zm-6 0h-3v-2h3zm-6 0h-3v-2h3zm-6 0h-3v-2h3z" class="cls-3"/>
    <path id="패스_4036" d="M233 186h-2v-2h2zm-5 0h-3v-2h3zm-6 0h-3v-2h3zm-6 0h-3v-2h3zm-6 0h-3v-2h3zm-6 0h-3v-2h3zm-6 0h-3v-2h3zm-6 0h-3v-2h3zm-6 0h-3v-2h3zm-6 0h-3v-2h3zm-6 0h-3v-2h3zm-6 0h-3v-2h3zm-6 0h-3v-2h3zm-6 0h-3v-2h3zm-6 0h-3v-2h3zm-6 0h-3v-2h3zm-6 0h-3v-2h3zm-6 0h-3v-2h3zm-6 0h-3v-2h3zm-6 0h-3v-2h3zm-6 0h-3v-2h3zm-6 0h-3v-2h3zm-6 0h-3v-2h3zm-6 0h-3v-2h3zm-6 0h-3v-2h3zm-6 0h-3v-2h3zm-6 0h-3v-2h3zm-6 0h-3v-2h3zm-6 0h-3v-2h3zm-6 0h-3v-2h3zm-6 0h-3v-2h3zm-6 0h-3v-2h3zm-6 0h-3v-2h3zm-6 0h-3v-2h3z" class="cls-3"/>
    <path id="사각형_7816" d="M0 0H200V2H0z" class="cls-3" transform="translate(33 222)"/>
    <path id="패스_4037" d="M233 110h-2v-2h2zm-5 0h-3v-2h3zm-6 0h-3v-2h3zm-6 0h-3v-2h3zm-6 0h-3v-2h3zm-6 0h-3v-2h3zm-6 0h-3v-2h3zm-6 0h-3v-2h3zm-6 0h-3v-2h3zm-6 0h-3v-2h3zm-6 0h-3v-2h3zm-6 0h-3v-2h3zm-6 0h-3v-2h3zm-6 0h-3v-2h3zm-6 0h-3v-2h3zm-6 0h-3v-2h3zm-6 0h-3v-2h3zm-6 0h-3v-2h3zm-6 0h-3v-2h3zm-6 0h-3v-2h3zm-6 0h-3v-2h3zm-6 0h-3v-2h3zm-6 0h-3v-2h3zm-6 0h-3v-2h3zm-6 0h-3v-2h3zm-6 0h-3v-2h3zm-6 0h-3v-2h3zm-6 0h-3v-2h3zm-6 0h-3v-2h3zm-6 0h-3v-2h3zm-6 0h-3v-2h3zm-6 0h-3v-2h3zm-6 0h-3v-2h3zm-6 0h-3v-2h3z" class="cls-3"/>
    <path id="패스_4038" fill="#3a76ec" d="M53 154h40v70H53z"/>
    <path id="패스_4039" d="M113 124h40v100h-40z" class="cls-5"/>
    <path id="패스_4040" d="M173 104h40v120h-40z" class="cls-5"/>
    <circle id="타원_729" cx="27" cy="27" r="27" class="cls-2" transform="translate(186 174)"/>
    <path id="패스_4041" d="M213 228a27 27 0 1 1 27-27 27.031 27.031 0 0 1-27 27zm0-47a20 20 0 1 0 20 20 20.022 20.022 0 0 0-20-20z" class="cls-6"/>
    <path id="패스_4042" d="M224.908 219.979l4.95-4.95 19.092 19.092-4.95 4.95z" class="cls-6"/>
    <circle id="타원_730" cx="27" cy="27" r="27" class="cls-7" transform="translate(166 40)"/>
    <path id="패스_4043" d="M193.07 56.686a2.269 2.269 0 0 1 1.37.446 2.551 2.551 0 0 1 .874 1.534l1.849 7.854h3.465l1.881-8.415a1.609 1.609 0 0 1 .874-1.2 2.123 2.123 0 0 1 1.4-.148 1.86 1.86 0 0 1 1.2.758 1.794 1.794 0 0 1 .182 1.518l-1.881 7.491h2.641a.806.806 0 0 1 .725.347 1.481 1.481 0 0 1 .232.841 1.42 1.42 0 0 1-.232.808.806.806 0 0 1-.725.347h-3.2l-2.41 9.7a2.485 2.485 0 0 1-.906 1.534 2.223 2.223 0 0 1-2.674 0 2.545 2.545 0 0 1-.907-1.6l-2.244-9.636h-3.168l-2.442 9.7a2.456 2.456 0 0 1-.924 1.534 2.386 2.386 0 0 1-1.353.447 2.315 2.315 0 0 1-1.337-.447 2.517 2.517 0 0 1-.907-1.567l-2.409-9.669h-3.235a.805.805 0 0 1-.725-.347 1.428 1.428 0 0 1-.232-.808 1.489 1.489 0 0 1 .232-.841.805.805 0 0 1 .725-.347h2.674l-1.847-7.491a1.8 1.8 0 0 1 .18-1.518 1.882 1.882 0 0 1 1.238-.758 2.3 2.3 0 0 1 1.42.115 1.644 1.644 0 0 1 .89 1.237l1.881 8.415h3.6l1.979-7.854a2.654 2.654 0 0 1 .841-1.534 2.228 2.228 0 0 1 1.405-.446zm-6.136 17.391l1.319-5.214h-2.476zm5.082-7.557h2.011l-.957-4.158zm6.929 7.525l1.155-5.182h-2.375z" class="cls-1" transform="translate(.143 -1.186)"/>
    <path id="패스_4044" d="M73.588 148.491l-1.958-.408q.308-1.473.676-2.962l1.942.48q-.36 1.452-.66 2.89zm1.421-5.758l-1.924-.545q.41-1.447.873-2.9l1.907.607q-.455 1.422-.856 2.838zm1.8-5.659l-1.887-.664q.5-1.419 1.049-2.843l1.866.719q-.537 1.396-1.028 2.788zm2.136-5.547l-1.845-.771q.579-1.389 1.2-2.778l1.824.82q-.609 1.365-1.179 2.729zm2.439-5.426l-1.8-.867q.652-1.357 1.347-2.711l1.779.913q-.684 1.33-1.326 2.664zm2.717-5.295l-1.756-.957q.721-1.323 1.48-2.638l1.733 1q-.747 1.289-1.458 2.595zm2.976-5.156l-1.708-1.041q.784-1.287 1.606-2.564l1.681 1.082q-.807 1.255-1.579 2.523zm3.219-5.009l-1.656-1.12q.845-1.251 1.724-2.486l1.629 1.161q-.864 1.215-1.693 2.445zm3.447-4.844l-1.6-1.2q.9-1.206 1.835-2.395l1.573 1.235q-.92 1.172-1.808 2.363zm3.668-4.674l-1.544-1.272q.96-1.164 1.949-2.308l1.512 1.309q-.974 1.125-1.917 2.271zm3.89-4.5l-1.481-1.341q1.017-1.119 2.06-2.213l1.448 1.379q-1.028 1.079-2.028 2.179zm4.106-4.306L104 90.9q1.071-1.069 2.17-2.111l1.377 1.451q-1.087 1.03-2.14 2.081zm4.321-4.1l-1.338-1.486q1.125-1.014 2.277-2l1.3 1.522q-1.134.976-2.239 1.972zm4.528-3.864L113 82.805q1.181-.954 2.385-1.873l1.213 1.591q-1.182.901-2.342 1.838zm4.734-3.61l-1.167-1.624q1.233-.886 2.49-1.735l1.119 1.658q-1.232.839-2.442 1.709zm4.933-3.328l-1.069-1.691q1.286-.812 2.592-1.582l1.016 1.723q-1.281.762-2.539 1.558zm5.123-3.017l-.959-1.755q1.335-.729 2.69-1.413l.9 1.786q-1.326.676-2.631 1.39zm5.3-2.674l-.84-1.816q1.382-.638 2.78-1.226l.774 1.844q-1.36.583-2.709 1.206zm5.468-2.3l-.708-1.87q1.421-.539 2.861-1.023l.636 1.9q-1.403.479-2.784 1.003zm5.612-1.887l-.567-1.918q1.455-.429 2.927-.8l.49 1.939q-1.429.372-2.845.789zm5.726-1.446l-.412-1.957q1.482-.312 2.978-.564l.332 1.972q-1.45.258-2.893.558zm5.818-.978l-.25-1.984q1.5-.19 3.024-.317l.166 1.994q-1.471.133-2.935.317z" class="cls-7"/>
</svg>
