<svg xmlns="http://www.w3.org/2000/svg" width="660" height="376" viewBox="0 0 660 376">
    <defs>
        <linearGradient id="linear-gradient" x2="1" y1=".5" y2=".5" gradientUnits="objectBoundingBox">
            <stop offset="0" stop-color="#fff"/>
            <stop offset="1" stop-color="#e9effd"/>
        </linearGradient>
        <style>
            .cls-1,.cls-11,.cls-13,.cls-7{fill:#fff}.cls-3{fill:#8bd6d2}.cls-11,.cls-5{opacity:.8}.cls-5{fill:url(#linear-gradient)}.cls-7{mix-blend-mode:soft-light;isolation:isolate}.cls-10{fill:#afc2dc}.cls-13{opacity:.5}.cls-14{stroke:none}.cls-15{fill:none}
        </style>
    </defs>
    <g id="그룹_4669" transform="translate(-780 -164)">
        <path id="사각형_8858" d="M0 0H660V376H0z" class="cls-1" transform="translate(780 164)"/>
        <circle id="타원_1155" cx="150" cy="150" r="150" fill="#f1f7fb" transform="translate(960 210)"/>
        <g id="그룹_4658" transform="translate(599.477 -279.802)">
            <g id="그룹_4657" transform="translate(570.216 467.734)">
                <path id="패스_8983" d="M684.424 615.21a.709.709 0 0 0 .3.767l7.217 4.731a37.588 37.588 0 0 0 1.75 12.053l-5.566 6.587a.709.709 0 0 0-.068.82l5.3 8.893a.709.709 0 0 0 .754.331l8.443-1.756a37.59 37.59 0 0 0 9.765 7.279l.723 8.6a.709.709 0 0 0 .532.628l10.034 2.543a.709.709 0 0 0 .767-.3l4.731-7.217a37.59 37.59 0 0 0 12.053-1.75l6.587 5.566a.709.709 0 0 0 .82.068l8.893-5.3a.709.709 0 0 0 .331-.753l-1.757-8.443a37.586 37.586 0 0 0 7.279-9.764l8.6-.723a.709.709 0 0 0 .628-.532l2.543-10.034a.709.709 0 0 0-.3-.767l-7.217-4.731a37.585 37.585 0 0 0-1.749-12.053l5.566-6.587a.709.709 0 0 0 .068-.82l-5.3-8.893a.709.709 0 0 0-.754-.331l-8.443 1.757a37.584 37.584 0 0 0-9.765-7.279l-.723-8.6a.709.709 0 0 0-.532-.628l-10.034-2.54a.709.709 0 0 0-.767.3l-4.731 7.217a37.587 37.587 0 0 0-12.053 1.75l-6.588-5.566a.708.708 0 0 0-.82-.067l-8.893 5.3a.709.709 0 0 0-.331.753l1.757 8.443a37.6 37.6 0 0 0-7.279 9.764l-8.6.723a.709.709 0 0 0-.628.532z" class="cls-3" transform="translate(-684.402 -576.01)"/>
                <g id="그룹_4656" opacity="0.8" transform="translate(22.314 23.319)">
                    <path id="패스_8984" d="M1016.866 931.207h-.022a22.728 22.728 0 1 1 .022 0zm0-41.592a18.888 18.888 0 0 0-.017 37.776h.012a18.888 18.888 0 0 0 .023-37.776z" class="cls-1" transform="translate(-994.162 -885.809)"/>
                </g>
            </g>
        </g>
        <g id="그룹_4652" transform="translate(-928.339 -1.554)">
            <path id="패스_8965" d="M2018.124 528.652a.816.816 0 0 0 .11-.941l-4.788-8.693a43.234 43.234 0 0 0 4.711-13.191l9.2-3.7a.817.817 0 0 0 .51-.8l-.6-11.889a.815.815 0 0 0-.587-.742l-9.526-2.76a43.237 43.237 0 0 0-6.005-12.654l3.895-9.128a.816.816 0 0 0-.2-.925l-8.828-7.986a.815.815 0 0 0-.941-.109l-8.693 4.788a43.23 43.23 0 0 0-13.191-4.71l-3.7-9.2a.815.815 0 0 0-.8-.51l-11.889.6a.816.816 0 0 0-.742.587l-2.76 9.526a43.23 43.23 0 0 0-12.654 6.005l-9.129-3.895a.815.815 0 0 0-.924.2l-7.986 8.829a.815.815 0 0 0-.11.94l4.788 8.693a43.234 43.234 0 0 0-4.711 13.19l-9.2 3.7a.816.816 0 0 0-.51.8l.6 11.889a.815.815 0 0 0 .588.742l9.526 2.76a43.223 43.223 0 0 0 6.005 12.654l-3.895 9.128a.816.816 0 0 0 .2.925l8.828 7.986a.817.817 0 0 0 .941.11l8.693-4.788a43.219 43.219 0 0 0 13.191 4.71l3.7 9.2a.816.816 0 0 0 .8.51l11.889-.6a.816.816 0 0 0 .743-.587l2.76-9.526a43.24 43.24 0 0 0 12.654-6.005l9.128 3.895a.816.816 0 0 0 .925-.2z" class="cls-3" transform="translate(-83.777 -80.86)"/>
            <path id="패스_8966" d="M2062.1 609.889a25.116 25.116 0 1 1 24.039-32.477 25.143 25.143 0 0 1-24.039 32.477zm.061-48.035a22.934 22.934 0 0 0-21.927 29.624 22.9 22.9 0 1 0 43.8-13.42 22.937 22.937 0 0 0-21.869-16.2z" class="cls-5" transform="translate(-170.49 -167.565)"/>
            <path id="패스_8968" d="M1864.313 380.814l-3.06-4.643a24.225 24.225 0 0 0 2.045-7.577l4.976-2.474a.457.457 0 0 0 .25-.468l-.861-6.614a.457.457 0 0 0-.361-.388l-5.443-1.119a24.225 24.225 0 0 0-3.916-6.8l1.77-5.271a.457.457 0 0 0-.155-.508l-5.285-4.068a.457.457 0 0 0-.53-.019l-4.643 3.06a24.211 24.211 0 0 0-7.576-2.045l-2.474-4.976a.457.457 0 0 0-.468-.25l-6.614.861a.457.457 0 0 0-.388.361l-1.119 5.443a24.218 24.218 0 0 0-6.8 3.916l-5.272-1.77a.457.457 0 0 0-.507.155l-4.068 5.285a.456.456 0 0 0-.019.53l3.06 4.643a24.217 24.217 0 0 0-2.045 7.576l-4.976 2.475a.457.457 0 0 0-.25.468l.861 6.614a.457.457 0 0 0 .361.388l5.443 1.119a24.215 24.215 0 0 0 3.916 6.8l-1.77 5.271a.456.456 0 0 0 .155.508l5.285 4.068a.457.457 0 0 0 .53.02l4.643-3.06a24.221 24.221 0 0 0 7.576 2.045l2.474 4.976a.457.457 0 0 0 .468.249l6.614-.861a.457.457 0 0 0 .389-.361l1.119-5.444a24.211 24.211 0 0 0 6.8-3.916l5.271 1.77a.457.457 0 0 0 .508-.154l4.068-5.286a.457.457 0 0 0 .018-.529z" class="cls-3" transform="translate(-11.617 -11.526)"/>
            <path id="패스_8969" d="M1886.182 426.3a13.054 13.054 0 1 1 4.786-.915 13.074 13.074 0 0 1-4.786.915zm-.03-24.131a11.077 11.077 0 1 0 10.313 7 11.093 11.093 0 0 0-10.313-7.004z" class="cls-5" transform="translate(-58.941 -58.856)"/>
        </g>
        <g id="그룹_4667" transform="rotate(25 2870.84 -2883.05)">
            <path id="패스_9002" fill="#a0d8a2" d="M2801.711 589.578c.386-1.644-1.926-2.737-3.342-1.588-14.379 11.66-48.927 46.576-40.317 107.593 10.8 76.556-7.666 104.49-30.654 121.53 0 0 31.571-8.013 51.433-36.359 48.769-69.595 16.014-161.949 22.88-191.176z" transform="translate(-27.49)"/>
            <path id="패스_9003" d="M2849.792 760.883c-1.8 8.522-3.4 17.071-4.641 25.658q-1.937 12.87-2.957 25.814c-.638 8.626-1.09 17.26-1.115 25.9-.07 8.638.289 17.268.684 25.933.34 8.661.739 17.385.1 26.17a77.583 77.583 0 0 1-6.131 25.9c-.916 2.066-1.878 4.126-2.972 6.117-1.051 2.009-2.206 3.978-3.4 5.928a93.549 93.549 0 0 1-8.156 11.22 102.886 102.886 0 0 1-21.476 18.795 2.15 2.15 0 0 1-2.719-.309 1.523 1.523 0 0 1 .313-2.317h.005c1.921-1.349 3.822-2.715 5.645-4.15.925-.705 1.812-1.444 2.715-2.168.87-.753 1.774-1.477 2.616-2.252a93.339 93.339 0 0 0 23.434-32.149 75.72 75.72 0 0 0 4.066-12.207 83.325 83.325 0 0 0 1.961-12.644c.691-8.527.379-17.165.112-25.827s-.441-17.374-.212-26.076q.151-6.526.573-13.043c.126-2.172.3-4.342.471-6.512q.292-3.253.632-6.5 1.4-12.99 3.725-25.876c1.6-8.579 3.464-17.118 5.706-25.581a.528.528 0 0 1 .624-.338.456.456 0 0 1 .397.514z" class="cls-7" transform="translate(-86.512 -147.394)"/>
            <path id="패스_9004" fill="#cae5cb" d="M2736.974 882.086a3.62 3.62 0 0 0 5.924-1.009c5.852-12.919 19.094-50.944-2.776-94.75-18.469-36.992-24.968-58.806-27.232-68.913a2.27 2.27 0 0 0-4.29-.414c-9.756 22.105-35.51 97.305 28.374 165.086z" transform="translate(0 -109.265)"/>
            <path id="패스_9005" d="M2854.207 1155.648a.983.983 0 0 0 .194.015 1 1 0 0 0 .988-1.019c-.01-.628-1.232-63.425-24.588-116.02a1 1 0 1 0-1.834.815c23.186 52.212 24.406 114.612 24.416 115.236a1 1 0 0 0 .824.973z" class="cls-7" transform="translate(-114.03 -384.191)"/>
        </g>
        <g id="그룹_4668" transform="translate(16)">
            <g id="사각형_8849" fill="#eef2f8" stroke="#afc2dc" stroke-width="10px" transform="translate(994 291)">
                <rect width="200" height="130" class="cls-14" rx="10"/>
                <rect width="190" height="120" x="5" y="5" class="cls-15" rx="5"/>
            </g>
            <path id="패스_9006" d="M4 0h32l4 32H0z" class="cls-10" transform="translate(1074 418)"/>
            <path id="사각형_8850" d="M0 0H100V10H0z" class="cls-10" transform="translate(1044 440)"/>
            <rect id="사각형_8852" width="48" height="43" class="cls-11" rx="5" transform="translate(1024 326)"/>
            <rect id="사각형_8853" width="88" height="16" class="cls-11" rx="4" transform="translate(1082 326)"/>
            <rect id="사각형_8854" width="88" height="16" class="cls-11" rx="4" transform="translate(1082 353)"/>
        </g>
        <g id="사각형_8851" fill="#e5ecf5" stroke="#8799b2" stroke-width="6px" transform="translate(976 346)">
            <rect width="80" height="130" class="cls-14" rx="12"/>
            <rect width="74" height="124" x="3" y="3" class="cls-15" rx="9"/>
        </g>
        <rect id="사각형_8855" width="48" height="27" class="cls-13" rx="5" transform="translate(992 366)"/>
        <rect id="사각형_8856" width="48" height="11" class="cls-13" rx="3" transform="translate(992 400)"/>
        <rect id="사각형_8857" width="48" height="11" class="cls-13" rx="3" transform="translate(992 418)"/>
    </g>
</svg>
