<svg xmlns="http://www.w3.org/2000/svg" width="80" height="80" viewBox="0 0 80 80">
    <defs>
        <style>
            .cls-5{fill:#afc1da}.cls-9{fill:#fff}
        </style>
    </defs>
    <g id="ic_checkprocess_04" transform="translate(3631.062 -1752.426)">
        <path id="Rectangle_6781" fill="none" d="M0 0H80V80H0z" opacity="0.2" transform="translate(-3631.062 1752.426)"/>
        <path id="Rectangle_8157" fill="none" d="M0 0H64V64H0z" transform="translate(-3623.062 1760.426)"/>
        <path id="Path_4094" fill="#bdcfe5" d="M-3578.126 1813.394h-38.836a3.536 3.536 0 0 1-3.536-3.536l3.2-16.518h39.969l3.2 16.05a4 4 0 0 1-3.997 4.004z" transform="translate(5.437 -4.157)"/>
        <path id="Path_4095" fill="#edf1f7" d="M-3576.528 1767.3v20.052h-39.97v-20.521a3.536 3.536 0 0 1 3.535-3.535h32.431a4 4 0 0 1 4.004 4.004z" transform="translate(4.64 1.83)"/>
        <path id="Rectangle_8150" d="M0 0H39.969V1.601H0z" class="cls-5" transform="translate(-3611.858 1771.691)"/>
        <path id="Rectangle_8151" d="M0 0H19.034V1.601H0z" class="cls-5" transform="translate(-3595.706 1776.032)"/>
        <path id="Rectangle_8152" d="M0 0H19.034V1.601H0z" class="cls-5" transform="translate(-3595.706 1779.935)"/>
        <path id="Rectangle_8153" d="M0 0H10.686V1.601H0z" class="cls-5" transform="translate(-3595.706 1784.126)"/>
        <path id="Rectangle_8154" fill="#3e79e8" d="M0 0H8.094V9.695H0z" transform="translate(-3607.977 1776.032)"/>
        <path id="Rectangle_8155" fill="#25c1b2" d="M0 0H38.898V21.936H0z" transform="translate(-3603.459 1797.66)"/>
        <path id="Rectangle_8156" fill="#2bd3c6" d="M0 0H38.898V21.936H0z" transform="translate(-3599.512 1793.713)"/>
        <circle id="Ellipse_757" cx="2.068" cy="2.068" r="2.068" class="cls-9" transform="translate(-3594.981 1802.613)"/>
        <path id="Path_4096" d="M-3578.585 1818.108a7.215 7.215 0 0 1-7.207-7.207 7.215 7.215 0 0 1 7.207-7.207 7.215 7.215 0 0 1 7.207 7.207 7.215 7.215 0 0 1-7.207 7.207zm0-13.613a6.413 6.413 0 0 0-6.406 6.406 6.413 6.413 0 0 0 6.406 6.406 6.414 6.414 0 0 0 6.406-6.406 6.413 6.413 0 0 0-6.406-6.406z" class="cls-9" transform="translate(-1.478 -6.22)"/>
        <circle id="Ellipse_758" cx="2.068" cy="2.068" r="2.068" class="cls-9" transform="translate(-3568.697 1802.613)"/>
        <path id="Path_8924" d="M3.818-3.605a.55.55 0 0 1 .332.105.622.622 0 0 1 .212.372l.448 1.9h.84l.456-2.04a.39.39 0 0 1 .212-.292.516.516 0 0 1 .34-.036.451.451 0 0 1 .292.184.436.436 0 0 1 .044.368l-.456 1.823h.64a.2.2 0 0 1 .176.084.359.359 0 0 1 .056.2.345.345 0 0 1-.056.2.2.2 0 0 1-.176.084H6.4L5.818 1.7a.6.6 0 0 1-.22.372.54.54 0 0 1-.648 0 .616.616 0 0 1-.22-.388L4.186-.653h-.768L2.826 1.7a.6.6 0 0 1-.224.372.58.58 0 0 1-.328.108.562.562 0 0 1-.324-.108.609.609 0 0 1-.22-.38L1.146-.653H.362a.2.2 0 0 1-.176-.084.345.345 0 0 1-.056-.2.359.359 0 0 1 .056-.2.2.2 0 0 1 .176-.084h.648L.562-3.037a.436.436 0 0 1 .044-.368.456.456 0 0 1 .3-.184.557.557 0 0 1 .344.028.4.4 0 0 1 .216.3l.456 2.04h.872l.48-1.9a.645.645 0 0 1 .2-.372.54.54 0 0 1 .344-.112zM2.33.611l.32-1.264h-.6zM5.242.6l.28-1.256h-.576zm-1.68-1.821h.488l-.232-1.008z" class="cls-9" transform="translate(-3583.806 1805.472)"/>
    </g>
</svg>
