<svg xmlns="http://www.w3.org/2000/svg" width="80" height="80" viewBox="0 0 80 80">
    <g transform="translate(0 -.439)">
        <path fill="none" d="M0 0H80V80H0z" transform="translate(0 .439)"/>
        <path fill="#3e79e8" d="M18.7 19H3.3a11 11 0 1 1 15.4 0z" transform="translate(29 9.439)"/>
        <path fill="#fff" d="M17.99 4.453a.767.767 0 0 1 .467.152.881.881 0 0 1 .3.521l.625 2.674h1.18l.638-2.864a.553.553 0 0 1 .3-.411.724.724 0 0 1 .478-.05.624.624 0 0 1 .409.258.605.605 0 0 1 .063.516L21.807 7.8h.9a.274.274 0 0 1 .247.117.5.5 0 0 1 .079.287.488.488 0 0 1-.079.276.274.274 0 0 1-.254.12h-1.084l-.816 3.3a.857.857 0 0 1-.308.523.763.763 0 0 1-.911 0 .87.87 0 0 1-.308-.545L18.506 8.6h-1.077l-.829 3.3a.848.848 0 0 1-.314.523.827.827 0 0 1-.46.151.8.8 0 0 1-.455-.151.857.857 0 0 1-.308-.534L14.241 8.6h-1.1a.274.274 0 0 1-.247-.117.488.488 0 0 1-.079-.276.5.5 0 0 1 .079-.287.274.274 0 0 1 .247-.117h.909l-.629-2.553a.611.611 0 0 1 .061-.516.641.641 0 0 1 .422-.258.782.782 0 0 1 .483.038.565.565 0 0 1 .3.422L15.33 7.8h1.224l.674-2.672a.9.9 0 0 1 .285-.521.751.751 0 0 1 .477-.154zm-2.09 5.916l.451-1.769h-.842zM17.631 7.8h.685l-.326-1.416zm2.357 2.559l.393-1.759h-.808z" transform="translate(22.169 12.545)"/>
        <path fill="none" stroke="#fff" stroke-width="0.2px" d="M17.99 4.453a.767.767 0 0 1 .467.152.881.881 0 0 1 .3.521l.625 2.674h1.18l.638-2.864a.553.553 0 0 1 .3-.411.724.724 0 0 1 .478-.05.624.624 0 0 1 .409.258.605.605 0 0 1 .063.516L21.807 7.8h.9a.274.274 0 0 1 .247.117.5.5 0 0 1 .079.287.488.488 0 0 1-.079.276.274.274 0 0 1-.254.12h-1.084l-.816 3.3a.857.857 0 0 1-.308.523.763.763 0 0 1-.911 0 .87.87 0 0 1-.308-.545L18.506 8.6h-1.077l-.829 3.3a.848.848 0 0 1-.314.523.827.827 0 0 1-.46.151.8.8 0 0 1-.455-.151.857.857 0 0 1-.308-.534L14.241 8.6h-1.1a.274.274 0 0 1-.247-.117.488.488 0 0 1-.079-.276.5.5 0 0 1 .079-.287.274.274 0 0 1 .247-.117h.909l-.629-2.553a.611.611 0 0 1 .061-.516.641.641 0 0 1 .422-.258.782.782 0 0 1 .483.038.565.565 0 0 1 .3.422L15.33 7.8h1.224l.674-2.672a.9.9 0 0 1 .285-.521.751.751 0 0 1 .477-.154zm-2.09 5.916l.451-1.769h-.842zM17.631 7.8h.685l-.326-1.416zm2.357 2.559l.393-1.759h-.808z" transform="translate(22.169 12.545)"/>
        <rect width="52" height="43" fill="#afc1da" rx="2" transform="translate(14 27.439)"/>
        <path fill="#edf1f7" d="M20.84 34.174a5.751 5.751 0 0 0-5.487-5.645h-.042a5.6 5.6 0 0 0-4.887 3.3 5.6 5.6 0 0 0-4.887-3.3h-.042a5.751 5.751 0 0 0-5.488 5.645c-.181 3.853 2.893 6.439 7.485 10.352.8.678 1.641 1.4 2.53 2.176l.4.352.4-.352c.889-.778 1.735-1.5 2.53-2.176 4.596-3.913 7.67-6.499 7.488-10.352z" transform="translate(29.668 11.563)"/>
    </g>
</svg>
