<svg xmlns="http://www.w3.org/2000/svg" width="79.997" height="79.997" viewBox="0 0 79.997 79.997">
    <defs>
        <style>
            .cls-3{fill:#edf1f7}.cls-5{fill:#fff}
        </style>
    </defs>
    <g id="ic_smasung_step_01" transform="translate(-1522.905 -614.452)">
        <path id="사각형_8158" fill="none" d="M0 0H79.997V79.997H0z" transform="translate(1522.905 614.452)"/>
        <path id="패스_9861" fill="#afc1da" d="M0 0h54.4v60.8H0z" transform="translate(1535.704 624.052)"/>
        <path id="패스_9860" d="M0 0h12.8v20.8H0z" class="cls-3" transform="translate(1541.303 664.05)"/>
        <path id="패스_9859" d="M0 0h14.4v20.8H0z" class="cls-3" transform="translate(1555.703 664.05)"/>
        <path id="패스_9858" d="M0 0h12.8v20.8H0z" class="cls-3" transform="translate(1571.702 664.05)"/>
        <path id="패스_9857" fill="#003e92" d="M0 0h51.2v16H0z" transform="translate(1529.304 636.851)"/>
        <g id="그룹_10061" transform="translate(1534.105 641.65)">
            <path id="패스_9811" d="M349.04 566.132l-.079-4.547h1.439v5.732h-2.062l-1.43-4.7h-.032l.08 4.7h-1.425v-5.732h2.151l1.331 4.547z" class="cls-5" transform="translate(-315.496 -561.401)"/>
            <path id="패스_9812" d="M166.953 562.122l-.791 5.255H164.6l1.073-5.792h2.577l1.068 5.792h-1.557l-.772-5.255z" class="cls-5" transform="translate(-159.468 -561.401)"/>
            <path id="패스_9813" d="M210.508 566.014l.715-4.429h2.362l.128 5.792h-1.449l-.037-5.206h-.027l-.968 5.206h-1.47l-.967-5.206h-.032l-.036 5.206h-1.449l.128-5.792h2.362l.714 4.429z" class="cls-5" transform="translate(-196.271 -561.401)"/>
            <path id="패스_9814" d="M130.031 564.588a.763.763 0 0 1 .012.429.5.5 0 0 1-.564.389.518.518 0 0 1-.583-.525v-.561h-1.553v.447c0 1.292 1.017 1.681 2.105 1.681 1.048 0 1.909-.357 2.047-1.324a2.826 2.826 0 0 0-.006-.949c-.244-1.214-2.443-1.576-2.605-2.253a.727.727 0 0 1-.007-.3.478.478 0 0 1 .529-.389.493.493 0 0 1 .538.525v.358h1.446v-.416c0-1.262-1.133-1.459-1.953-1.459-1.029 0-1.871.341-2.025 1.286a1.98 1.98 0 0 0 .014.781c.248 1.192 2.307 1.53 2.605 2.28z" class="cls-5" transform="translate(-127.341 -560.246)"/>
            <path id="패스_9815" d="M267.006 564.78a.749.749 0 0 1 .011.424.5.5 0 0 1-.559.385.512.512 0 0 1-.576-.519v-.556h-1.537v.443c0 1.279 1.007 1.665 2.084 1.665 1.038 0 1.89-.354 2.027-1.312a2.776 2.776 0 0 0-.006-.939c-.241-1.2-2.418-1.559-2.579-2.231a.725.725 0 0 1-.006-.3.473.473 0 0 1 .523-.386.488.488 0 0 1 .533.521v.354h1.432v-.4c0-1.249-1.122-1.444-1.934-1.444-1.018 0-1.852.337-2 1.272a1.974 1.974 0 0 0 .014.773c.24 1.17 2.278 1.508 2.573 2.25z" class="cls-5" transform="translate(-245.486 -560.449)"/>
            <path id="패스_9816" d="M306.269 566.5a.521.521 0 0 0 .556-.42 1.165 1.165 0 0 0 .013-.22v-4.285h1.462v4.153c0 .106-.009.324-.014.381-.1 1.08-.956 1.431-2.021 1.431s-1.919-.351-2.021-1.431c0-.057-.016-.274-.013-.381v-4.153h1.469v4.285a1.094 1.094 0 0 0 .014.22.52.52 0 0 0 .555.42z" class="cls-5" transform="translate(-279.887 -561.395)"/>
            <path id="패스_9817" d="M393.932 565.464a.542.542 0 0 0 .592-.421 1.25 1.25 0 0 0 .014-.22v-.84h-.594v-.844H396v1.553a3.763 3.763 0 0 1-.021.381c-.1 1.054-1.01 1.431-2.037 1.431s-1.941-.376-2.037-1.431a3.623 3.623 0 0 1-.021-.381v-2.437c0-.1.013-.284.025-.381.129-1.083 1.005-1.431 2.033-1.431s1.926.345 2.033 1.431a3.644 3.644 0 0 1 .013.381v.193h-1.46v-.324a1.32 1.32 0 0 0-.019-.221.527.527 0 0 0-.578-.42.536.536 0 0 0-.577.42 1.4 1.4 0 0 0-.023.274v2.647a1.281 1.281 0 0 0 .014.22.542.542 0 0 0 .587.42z" class="cls-5" transform="translate(-355.47 -560.415)"/>
        </g>
    </g>
</svg>
