<svg xmlns="http://www.w3.org/2000/svg" width="80" height="80" viewBox="0 0 80 80">
    <defs>
        <style>
            .cls-3{fill:#2bd3c6}.cls-5{fill:#edf1f7}
        </style>
    </defs>
    <g id="ic_donation_step_07" transform="translate(.001 .04)">
        <path id="사각형_8083" fill="none" d="M0 0H80V80H0z" transform="translate(-.001 -.04)"/>
        <g id="그룹_2155" transform="translate(14.432 8.113)">
            <path id="사각형_8084" fill="#3e79e8" d="M7.8 0h22.64a8.8 8.8 0 0 1 8.8 8.8v12.989H0V7.8A7.8 7.8 0 0 1 7.8 0z" transform="translate(6.04 26.35)"/>
            <path id="사각형_8085" d="M0 0H42.379V30.803H0z" class="cls-3" transform="translate(4.468 33.947)"/>
            <path id="사각형_8086" fill="#96eae2" d="M0 0H9.712V9.712H0z" transform="translate(20.802 33.947)"/>
            <g id="그룹_2153" transform="translate(0 43.085)">
                <path id="패스_4044" d="M1435.438 949.5a8.725 8.725 0 0 0-2.615.074c-1.783.38-2.559 1.58-3.353 3.059a4.279 4.279 0 0 0 0 4.151c.765 1.423 1.527 2.676 3.264 3.039 3.521.739 9.214-.622 9.214-5.115 0-2.939-2.542-4.517-5.155-5.009-.425-.084-.885-.154-1.355-.199z" class="cls-5" transform="translate(-1428.933 -949.434)"/>
                <path id="패스_4045" d="M1465.4 949.5a8.726 8.726 0 0 1 2.615.074c1.784.38 2.558 1.58 3.353 3.059a4.274 4.274 0 0 1 0 4.151c-.765 1.423-1.528 2.676-3.263 3.039-3.522.739-9.214-.622-9.214-5.115 0-2.939 2.542-4.517 5.154-5.009.426-.084.885-.154 1.355-.199z" class="cls-5" transform="translate(-1420.59 -949.434)"/>
            </g>
            <path id="패스_4046" d="M1461.881 928.734a1.71 1.71 0 0 0-.254-.029c-.947-5.793-5.08-10.155-10.035-10.155s-9.089 4.362-10.037 10.155a1.7 1.7 0 0 0-.253.029c-1.3.352-1.934 2.168-1.423 4.058a3.935 3.935 0 0 0 2.1 2.682c1.411 4.914 5.161 8.456 9.615 8.456s8.2-3.541 9.614-8.456a3.933 3.933 0 0 0 2.1-2.682c.508-1.892-.13-3.706-1.427-4.058z" class="cls-5" transform="translate(-1425.934 -914.949)"/>
            <path id="패스_4047" d="M1461.741 928.525c-.842 7.014-4.679-.578-10.449-.578s-9.67 7.6-10.45.578c-.8-7.221 3.95-12.726 10.45-12.791 6.531-.065 11.321 5.508 10.449 12.791z" class="cls-3" transform="translate(-1425.641 -915.733)"/>
            <g id="그룹_2154" transform="translate(18.458 7.432)">
                <path id="패스_4048" fill="#169387" d="M1457.29 924.2a.475.475 0 0 1-.239-.064c-6.253-3.6-12.9-.032-12.969.005a.48.48 0 0 1-.463-.84c.289-.161 7.181-3.871 13.91 0a.479.479 0 0 1-.239.895z" transform="translate(-1443.371 -921.547)"/>
            </g>
        </g>
    </g>
</svg>
