<svg xmlns="http://www.w3.org/2000/svg" width="80" height="80" viewBox="0 0 80 80">
    <defs>
        <style>
            .cls-5{fill:#afc1da;opacity:.5}.cls-9{fill:#fff}
        </style>
    </defs>
    <g id="ic_join_step_04" transform="translate(3631.063 -1752.426)">
        <rect id="사각형_12036" width="43.216" height="50.012" fill="#afc1da" rx="2" transform="translate(-3617.421 1767.463)"/>
        <path id="사각형_6781" fill="none" d="M0 0H80V80H0z" opacity="0.2" transform="translate(-3631.063 1752.426)"/>
        <path id="사각형_8157" fill="none" d="M0 0H64V64H0z" transform="translate(-3623.063 1760.426)"/>
        <rect id="사각형_8150" width="43.216" height="50.012" fill="#edf1f7" rx="2" transform="translate(-3613.439 1763.541)"/>
        <path id="사각형_8151" d="M0 0H19.055V2.403H0z" class="cls-5" transform="translate(-3593.261 1772.854)"/>
        <path id="사각형_8152" d="M0 0H19.055V2.403H0z" class="cls-5" transform="translate(-3593.261 1778.507)"/>
        <path id="사각형_8153" d="M0 0H10.697V2.403H0z" class="cls-5" transform="translate(-3593.261 1784.16)"/>
        <path id="사각형_8154" fill="#3e79e8" d="M0 0H11.306V13.709H0z" transform="translate(-3607.402 1772.854)"/>
        <path id="사각형_8155" fill="#25c1b2" d="M0 0H38.94V21.96H0z" transform="translate(-3603.43 1797.709)"/>
        <path id="사각형_8156" fill="#2bd3c6" d="M0 0H38.94V21.96H0z" transform="translate(-3599.478 1793.758)"/>
        <circle id="타원_757" cx="2.07" cy="2.07" r="2.07" class="cls-9" transform="translate(-3594.942 1802.667)"/>
        <path id="패스_4096" d="M-3578.578 1818.123a7.223 7.223 0 0 1-7.214-7.215 7.223 7.223 0 0 1 7.214-7.215 7.222 7.222 0 0 1 7.214 7.215 7.222 7.222 0 0 1-7.214 7.215zm0-13.627a6.42 6.42 0 0 0-6.413 6.413 6.42 6.42 0 0 0 6.413 6.413 6.42 6.42 0 0 0 6.413-6.413 6.42 6.42 0 0 0-6.413-6.409z" class="cls-9" transform="translate(-1.431 -6.172)"/>
        <circle id="타원_758" cx="2.07" cy="2.07" r="2.07" class="cls-9" transform="translate(-3568.63 1802.667)"/>
        <path id="패스_8924" d="M3.822-3.605a.55.55 0 0 1 .332.108.623.623 0 0 1 .212.372l.448 1.906h.841l.456-2.042a.391.391 0 0 1 .212-.292.516.516 0 0 1 .34-.036.452.452 0 0 1 .292.184.436.436 0 0 1 .045.369l-.455 1.818h.641a.2.2 0 0 1 .176.084.36.36 0 0 1 .056.2.345.345 0 0 1-.056.2.2.2 0 0 1-.176.084h-.777L5.824 1.7a.6.6 0 0 1-.22.372.541.541 0 0 1-.649 0 .617.617 0 0 1-.22-.388L4.19-.65h-.768L2.829 1.7a.6.6 0 0 1-.224.372.58.58 0 0 1-.328.108.562.562 0 0 1-.324-.108.61.61 0 0 1-.22-.38L1.147-.65H.362a.2.2 0 0 1-.176-.084A.345.345 0 0 1 .13-.93a.36.36 0 0 1 .056-.2.2.2 0 0 1 .176-.084h.649L.562-3.036A.436.436 0 0 1 .607-3.4a.457.457 0 0 1 .3-.184.558.558 0 0 1 .344.028.4.4 0 0 1 .216.3l.456 2.042H2.8l.481-1.906a.645.645 0 0 1 .2-.372.541.541 0 0 1 .341-.113zM2.332.616L2.653-.65h-.6zM5.248.608l.28-1.258h-.577zM3.566-1.218h.489l-.233-1.01z" class="cls-9" transform="translate(-3583.755 1805.526)"/>
    </g>
</svg>
