<svg xmlns="http://www.w3.org/2000/svg" width="80" height="80" viewBox="0 0 80 80">
    <defs>
        <style>
            .cls-2{fill:none}
        </style>
    </defs>
    <g id="ic_carrot_step_04" transform="translate(4321.062 -1752.424)">
        <path id="사각형_6781" fill="none" d="M0 0H80V80H0z" opacity="0.2" transform="translate(-4321.062 1752.424)"/>
        <path id="패스_9850" d="M0 0h64v64H0z" class="cls-2" transform="translate(-4313.062 1760.426)"/>
        <path id="패스_9849" fill="#afc1da" d="M4.8 0h25.6a4.8 4.8 0 0 1 4.8 4.8V56a4.8 4.8 0 0 1-4.8 4.8H4.8A4.8 4.8 0 0 1 0 56V4.8A4.8 4.8 0 0 1 4.8 0z" transform="translate(-4298.662 1762.025)"/>
        <path id="패스_9848" fill="#edf1f7" d="M0 0h27.2v44.8H0z" transform="translate(-4294.662 1771.626)"/>
        <path id="패스_9847" fill="#fae100" d="M12.8 0A12.8 12.8 0 1 1 0 12.8 12.8 12.8 0 0 1 12.8 0z" transform="translate(-4274.662 1803.626)"/>
        <g id="logo_kakotalk" transform="translate(-4269.861 1808.426)">
            <path id="패스_9851" d="M0 0h16v16H0z" class="cls-2"/>
            <path id="패스_3852" fill="#381e1f" stroke="rgba(0,0,0,0)" stroke-miterlimit="10" d="M464.231 44.151c-3.551 0-6.43 2.326-6.43 5.2a5.075 5.075 0 0 0 3.051 4.42c-.135.513-.487 1.859-.557 2.147-.088.357.128.353.269.257.111-.075 1.762-1.223 2.474-1.718a7.956 7.956 0 0 0 1.193.09c3.551 0 6.43-2.326 6.43-5.2s-2.879-5.196-6.43-5.196z" transform="translate(-456.23 -42.188)"/>
        </g>
    </g>
</svg>
