<svg xmlns="http://www.w3.org/2000/svg" width="80" height="80" viewBox="0 0 80 80">
    <defs>
        <style>
            .cls-2{fill:#afc1da}.cls-3{fill:#edf1f7}
        </style>
    </defs>
    <g id="ic_carrot_step_01" transform="translate(-1522.905 -614.452)">
        <path id="사각형_8158" fill="none" d="M0 0H80V80H0z" transform="translate(1522.905 614.452)"/>
        <path id="패스_9832" d="M3.2 0h35.183a3.2 3.2 0 0 1 3.2 3.2v51.175H0V3.2A3.2 3.2 0 0 1 3.2 0z" class="cls-2" transform="translate(1542.095 630.445)"/>
        <path id="패스_9831" d="M0 0h9.6a1.6 1.6 0 0 1 1.6 1.6v25.588H0z" class="cls-2" transform="translate(1584.476 657.633)"/>
        <path id="패스_9830" d="M1.6 0h9.6v27.188H0V1.6A1.6 1.6 0 0 1 1.6 0z" class="cls-2" transform="translate(1530.101 657.633)"/>
        <path id="패스_9829" d="M0 0h6.4v8H0z" class="cls-3" transform="translate(1547.693 643.239)"/>
        <path id="패스_9828" d="M0 0h6.4v8H0z" class="cls-3" transform="translate(1547.693 654.434)"/>
        <path id="패스_9827" d="M0 0h6.4v8H0z" class="cls-3" transform="translate(1555.689 643.239)"/>
        <path id="패스_9826" d="M0 0h6.4v8H0z" class="cls-3" transform="translate(1555.689 654.434)"/>
        <path id="패스_9825" d="M0 0h8v15.993H0z" class="cls-3" transform="translate(1554.49 668.828)"/>
        <path id="패스_9824" d="M0 0h6.4v8H0z" class="cls-3" transform="translate(1563.686 643.239)"/>
        <path id="패스_9823" d="M0 0h6.4v8H0z" class="cls-3" transform="translate(1571.682 643.239)"/>
        <path id="패스_9822" d="M0 0h6.4v8H0z" class="cls-3" transform="translate(1563.686 654.434)"/>
        <path id="패스_9821" d="M0 0h8v15.993H0z" class="cls-3" transform="translate(1563.286 668.828)"/>
        <path id="패스_9820" d="M0 0h6.4v8H0z" class="cls-3" transform="translate(1571.682 654.434)"/>
        <path id="패스_9819" fill="#3e79e8" d="M0 0h31.985v12.794H0z" transform="translate(1546.893 624.048)"/>
        <path id="패스_9818" fill="#fff" d="M5.509 2.1L5.5-1.261 3.853 1.506H3.27L1.63-1.189V2.1H.415v-5.6h1.072l2.1 3.478L5.645-3.5h1.063l.016 5.6zM11.738.9h-2.6l-.5 1.2H7.316l2.495-5.6h1.279l2.5 5.6h-1.356zm-.408-.986l-.888-2.143-.887 2.143zM17.743 2.1L16.664.538h-1.192V2.1h-1.3v-5.6H16.6a3.11 3.11 0 0 1 1.291.248 1.919 1.919 0 0 1 .844.7 1.939 1.939 0 0 1 .3 1.08 1.9 1.9 0 0 1-.3 1.076 1.9 1.9 0 0 1-.856.696l1.255 1.8zm-.024-3.566a.887.887 0 0 0-.3-.724 1.36 1.36 0 0 0-.888-.252h-1.059v1.949h1.056a1.345 1.345 0 0 0 .888-.256.889.889 0 0 0 .303-.72zm3.414-.976h-1.791V-3.5h4.878v1.056h-1.791V2.1h-1.3z" transform="translate(1550.34 631.546)"/>
    </g>
</svg>
