<svg xmlns="http://www.w3.org/2000/svg" width="80" height="80" viewBox="0 0 80 80">
    <g transform="translate(4321.063 -1752.426)">
        <path fill="none" d="M0 0H80V80H0z" opacity="0.2" transform="translate(-4321.063 1752.426)"/>
        <path fill="none" d="M0 0H64V64H0z" transform="translate(-4313.063 1760.426)"/>
        <rect width="36" height="62" fill="#afc1da" rx="3" transform="translate(-4299.063 1761.426)"/>
        <path fill="#edf1f7" d="M0 0H27.267V44.91H0z" transform="translate(-4294.597 1771.673)"/>
        <rect width="23" height="23" fill="#3e79e8" rx="11.5" transform="translate(-4273.063 1805.426)"/>
        <path fill="#fff" d="M6.725-8.652a.956.956 0 0 1 .577.188 1.082 1.082 0 0 1 .369.647l.779 3.311h1.461l.789-3.548a.679.679 0 0 1 .369-.508.9.9 0 0 1 .591-.063.785.785 0 0 1 .508.32.758.758 0 0 1 .077.64l-.793 3.158h1.113a.342.342 0 0 1 .306.146.625.625 0 0 1 .1.355.6.6 0 0 1-.1.341.342.342 0 0 1-.306.146h-1.346L10.2.571a1.049 1.049 0 0 1-.383.647.939.939 0 0 1-1.127 0 1.072 1.072 0 0 1-.379-.675l-.946-4.062H6.03L5 .571a1.034 1.034 0 0 1-.39.647 1.008 1.008 0 0 1-.57.188.977.977 0 0 1-.563-.188 1.06 1.06 0 0 1-.383-.661L2.079-3.519H.715a.342.342 0 0 1-.306-.146.6.6 0 0 1-.1-.341.625.625 0 0 1 .1-.355.341.341 0 0 1 .306-.146h1.127l-.779-3.157A.758.758 0 0 1 1.14-8.3a.793.793 0 0 1 .522-.32.968.968 0 0 1 .6.049.693.693 0 0 1 .376.522l.793 3.547h1.514l.835-3.311a1.121 1.121 0 0 1 .355-.647.939.939 0 0 1 .59-.192zM4.138-1.321l.556-2.2H3.651zM9.2-1.335l.487-2.184h-1zM6.28-4.506h.849l-.4-1.753z" transform="translate(-4268.283 1821.066)"/>
    </g>
</svg>
