<svg xmlns="http://www.w3.org/2000/svg" width="800" height="320" viewBox="0 0 800 320">
    <defs>
        <clipPath id="clip-path">
            <path id="사각형_8336" d="M0 0H800V320H0z" class="cls-1" transform="translate(238.459 735.939)"/>
        </clipPath>
        <style>
            .cls-1{fill:none}.cls-3{fill:#bfd7e6}.cls-4{fill:#fff}.cls-5{fill:#c9e3f2}.cls-6{fill:#054469}.cls-14{fill:#fec3a5}.cls-16{fill:#84996d}.cls-20{fill:#ffc93c}
        </style>
    </defs>
    <g id="_4" clip-path="url(#clip-path)" transform="translate(-238.459 -735.939)">
        <g id="그룹_2689" transform="translate(285.459 843.756)">
            <g id="그룹_2685">
                <g id="그룹_2683" transform="translate(154.431 76.88)">
                    <path id="패스_5530" d="M528.479 2324.894q2.514-9.188 4.414-18.569c2.7-13.645-7.823-27.543-21.428-31.66q-.826-11.6-2.693-23.166c-1.582-9.419-9.91-17.314-18.695-20.757-8.16-2.878-18.388-2.979-22.12 5.343l-.253.56c-3.019 6.721-.125 14.686 4.17 20.939q7.726 10.525 14.786 21.453c-.643.707-.966 1.061-1.614 1.769-7.557 8.256-7.886 22.417-1.173 32.749q5.336 8.436 10.269 17.075-2.363 2.636-4.753 5.247c-5.331 6.3-8.647 16-3.921 24.567.6 1.08 1.309 2.634 2.06 4.007H535.1q2.664-9.359 4.619-18.957a18.623 18.623 0 0 0-11.24-20.6z" class="cls-3" transform="translate(-466.459 -2228.972)"/>
                    <path id="패스_5531" d="M652.208 2473.635c-.243-40.388-11.371-80.821-30.652-118.381a1.517 1.517 0 0 0-1.432-.825c-.535.079-.751.595-.486 1.152 17.79 37.827 27.064 78.184 25.635 118.053z" class="cls-4" transform="translate(-599.685 -2338.159)"/>
                </g>
                <g id="그룹_2709" transform="translate(39 144.617)">
                    <path id="패스_5530-2" d="M497.469 2276.933q1.257-4.594 2.207-9.285c1.351-6.823-3.912-13.772-10.714-15.83q-.413-5.8-1.346-11.583c-.791-4.71-4.955-8.657-9.347-10.379-4.08-1.439-9.194-1.49-11.06 2.671l-.126.28c-1.51 3.361-.062 7.343 2.085 10.47q3.863 5.262 7.393 10.726l-.807.885c-3.779 4.128-3.943 11.209-.587 16.375q2.668 4.218 5.135 8.537-1.182 1.318-2.377 2.624c-2.666 3.151-4.323 8-1.96 12.283.3.54.654 1.317 1.03 2h23.785q1.332-4.68 2.31-9.479a9.312 9.312 0 0 0-5.621-10.295z" class="cls-3" transform="translate(-466.459 -2228.972)"/>
                    <path id="패스_5531-2" d="M635.866 2414.027c-.122-20.194-5.685-40.411-15.326-59.191a.759.759 0 0 0-.716-.413c-.267.04-.376.3-.243.576 8.9 18.914 13.532 39.092 12.817 59.027z" class="cls-4" transform="translate(-609.605 -2346.289)"/>
                </g>
                <g id="그룹_2684" transform="translate(195.277)">
                    <path id="패스_5532" d="M789.271 1647.153l-.712.871a30.835 30.835 0 0 0-4.175 32.317l14.932 32.713-2.975 2.687a39.5 39.5 0 0 0-7.385 49.651l15.6 25.978-6.934 8.018a30.782 30.782 0 0 0-1.857 37.893c4.2 5.946 7.951 10.9 8.791 10.9h67.9l3.413-34.041A30.776 30.776 0 0 0 857 1782.63l7.7-28.2a39.5 39.5 0 0 0-26.053-48.017l5.028-35.41a30.836 30.836 0 0 0-17.294-32.186 30.835 30.835 0 0 0-37.11 8.336z" class="cls-5" transform="translate(-781.6 -1635.829)"/>
                    <path id="패스_5533" d="M1018.548 1833.95a1.574 1.574 0 0 0-3.106.506l26.346 185.048h10.818z" class="cls-4" transform="translate(-985.119 -1807.148)"/>
                </g>
                <g id="그룹_2710" transform="translate(59.423 106.178)">
                    <path id="패스_5532-2" d="M785.436 1641.491l-.356.436a15.418 15.418 0 0 0-2.088 16.158l7.466 16.357-1.487 1.343a19.75 19.75 0 0 0-3.692 24.825l7.8 12.989-3.467 4.009a15.391 15.391 0 0 0-.928 18.946c2.1 2.973 3.976 5.452 4.4 5.452h33.95l1.706-17.02a15.388 15.388 0 0 0-9.435-15.757l3.849-14.1a19.75 19.75 0 0 0-13.027-24.009l2.514-17.705a15.418 15.418 0 0 0-8.647-16.093 15.418 15.418 0 0 0-18.558 4.169z" class="cls-5" transform="translate(-781.6 -1635.829)"/>
                    <path id="패스_5533-2" d="M1016.987 1833.3a.787.787 0 0 0-1.553.253l13.173 92.524h5.409z" class="cls-4" transform="translate(-1000.273 -1819.904)"/>
                </g>
            </g>
            <g id="그룹_2688" transform="translate(416.693)">
                <g id="그룹_2686" transform="translate(61.677 76.88)">
                    <path id="패스_5534" d="M2977.3 2324.894q-2.514-9.188-4.414-18.569c-2.7-13.645 7.823-27.543 21.428-31.66q.826-11.6 2.693-23.166c1.582-9.419 9.909-17.314 18.695-20.757 8.16-2.878 18.388-2.979 22.12 5.343l.253.56c3.02 6.721.125 14.686-4.17 20.939q-7.726 10.525-14.786 21.453c.643.707.966 1.061 1.614 1.769 7.557 8.256 7.886 22.417 1.173 32.749q-5.336 8.436-10.269 17.075 2.363 2.636 4.753 5.247c5.331 6.3 8.646 16 3.921 24.567-.6 1.08-1.309 2.634-2.06 4.007h-47.573q-2.663-9.359-4.619-18.957a18.623 18.623 0 0 1 11.241-20.6z" class="cls-3" transform="translate(-2965.717 -2228.972)"/>
                    <path id="패스_5535" d="M3128.318 2473.635c.243-40.388 11.371-80.821 30.652-118.381a1.517 1.517 0 0 1 1.432-.825c.535.079.751.595.486 1.152-17.791 37.827-27.064 78.184-25.635 118.053z" class="cls-4" transform="translate(-3107.243 -2338.159)"/>
                </g>
                <g id="그룹_2707" transform="translate(207.542 150.203)">
                    <path id="패스_5534-2" d="M2971.029 2272.979q-1.153-4.216-2.025-8.519c-1.24-6.26 3.589-12.636 9.831-14.525q.379-5.32 1.235-10.628c.726-4.321 4.546-7.943 8.576-9.523 3.744-1.321 8.436-1.366 10.148 2.451l.116.256c1.385 3.084.057 6.737-1.913 9.606q-3.544 4.828-6.783 9.842l.741.812c3.467 3.787 3.618 10.284.538 15.024q-2.448 3.87-4.711 7.833 1.085 1.208 2.181 2.407c2.446 2.891 3.967 7.339 1.8 11.271-.273.5-.6 1.208-.945 1.838h-21.825q-1.222-4.294-2.119-8.7a8.543 8.543 0 0 1 5.155-9.445z" class="cls-3" transform="translate(-2965.718 -2228.972)"/>
                    <path id="패스_5535-2" d="M3128.318 2409.112c.111-18.529 5.217-37.078 14.062-54.309a.7.7 0 0 1 .657-.379c.245.037.344.273.223.529-8.162 17.354-12.416 35.869-11.76 54.159z" class="cls-4" transform="translate(-3118.65 -2346.96)"/>
                </g>
                <g id="그룹_2687">
                    <path id="패스_5536" d="M2576.625 1647.153l.712.871a30.836 30.836 0 0 1 4.175 32.317l-14.932 32.713 2.974 2.687a39.5 39.5 0 0 1 7.385 49.651l-15.6 25.978 6.934 8.018a30.782 30.782 0 0 1 1.857 37.893c-4.2 5.946-7.951 10.9-8.791 10.9h-67.9l-3.413-34.041a30.776 30.776 0 0 1 18.869-31.513l-7.7-28.2a39.5 39.5 0 0 1 26.053-48.017l-5.028-35.41a30.835 30.835 0 0 1 17.294-32.186 30.836 30.836 0 0 1 37.111 8.339z" class="cls-5" transform="translate(-2489.869 -1635.829)"/>
                    <path id="패스_5537" d="M2731.785 1833.95a1.574 1.574 0 0 1 3.105.506l-26.345 185.044h-10.818z" class="cls-4" transform="translate(-2670.786 -1807.148)"/>
                </g>
                <g id="그룹_2708" transform="translate(179.247 114.933)">
                    <path id="패스_5536-2" d="M2529.67 1641.024l.327.4a14.146 14.146 0 0 1 1.915 14.826l-6.85 15.008 1.365 1.233a18.121 18.121 0 0 1 3.388 22.778l-7.159 11.918 3.181 3.678a14.122 14.122 0 0 1 .852 17.384c-1.926 2.728-3.648 5-4.033 5h-31.15l-1.566-15.617a14.12 14.12 0 0 1 8.657-14.457l-3.531-12.938a18.121 18.121 0 0 1 11.952-22.029l-2.307-16.245a14.147 14.147 0 0 1 7.934-14.766 14.146 14.146 0 0 1 17.025 3.827z" class="cls-5" transform="translate(-2489.869 -1635.829)"/>
                    <path id="패스_5537-2" d="M2713.352 1833.251a.722.722 0 0 1 1.425.232l-12.086 84.894h-4.963z" class="cls-4" transform="translate(-2685.367 -1820.956)"/>
                </g>
            </g>
        </g>
        <g id="그룹_2696" transform="translate(547.057 757.804)">
            <g id="그룹_2690">
                <rect id="사각형_8067" width="183.203" height="330.22" class="cls-6" rx="30"/>
                <rect id="사각형_8068" width="309.242" height="162.225" fill="#07689f" rx="20" transform="rotate(90 81.112 91.602)"/>
                <rect id="사각형_8069" width="27.214" height="4.762" class="cls-1" rx="2.381" transform="translate(77.994 2.738)"/>
            </g>
            <g id="그룹_2695" transform="translate(44.664 110.574)">
                <g id="그룹_2692" transform="translate(1.836)">
                    <path id="패스_5538" d="M1769.171 1967.339a31.134 31.134 0 0 1-18.514 6.1h-42.581a31.134 31.134 0 0 1-18.514-6.1 1.22 1.22 0 0 1 .725-2.2h78.158a1.22 1.22 0 0 1 .726 2.2z" class="cls-6" transform="translate(-1684.265 -1915.077)"/>
                    <path id="패스_5539" fill="#043b5c" d="M1769.174 1967.333q-.294.218-.593.428a1.106 1.106 0 0 0-.133-.007h-78.158a1.109 1.109 0 0 0-.133.007q-.3-.21-.592-.428a1.187 1.187 0 0 1-.5-.968 1.215 1.215 0 0 1 1.222-1.232h78.158a1.22 1.22 0 0 1 .729 2.2z" transform="translate(-1684.268 -1915.072)"/>
                    <path id="패스_5540" d="M1735.472 1629.505l-12.806 11.894-8.662 8.046h-33.738l-8.663-8.046-12.806-11.894c-11.735-10.9-7.627-29.556 7.895-35.013l.534-.182a29.152 29.152 0 0 1 29.908 7.453 29.153 29.153 0 0 1 29.909-7.453c.179.059.357.12.534.182 15.523 5.458 19.63 24.114 7.895 35.013z" opacity="0.13" transform="translate(-1652.033 -1591.081)"/>
                    <path id="패스_5541" fill="#fc7791" d="M1746.433 1616.694l-12.275 12.275-8.3 8.3h-32.34l-8.3-8.3-12.275-12.275c-11.249-11.249-7.311-30.5 7.568-36.135.17-.063.341-.126.512-.187a26.59 26.59 0 0 1 28.669 7.692 26.591 26.591 0 0 1 28.669-7.692c.171.061.343.124.512.187 14.871 5.632 18.81 24.886 7.56 36.135z" transform="translate(-1664.583 -1578.909)"/>
                    <g id="그룹_2691" transform="translate(30.767 20.168)">
                        <path id="패스_5542" d="M1966.544 1763.177a4.982 4.982 0 0 1-4.982-4.982v-18.7a4.982 4.982 0 0 1 4.982-4.982 4.982 4.982 0 0 1 4.982 4.982v18.7a4.982 4.982 0 0 1-4.982 4.982z" class="cls-4" transform="translate(-1952.21 -1734.508)"/>
                        <rect id="사각형_8070" width="9.964" height="28.669" class="cls-4" rx="4.982" transform="rotate(90 9.659 19.01)"/>
                    </g>
                    <path id="패스_5543" fill="#eb6f87" d="M1859.885 2013.842l1.991 1.991h32.34l1.991-1.991z" transform="translate(-1832.944 -1957.469)"/>
                </g>
                <g id="그룹_2694" transform="translate(0 84.597)">
                    <rect id="사각형_8071" width="93.874" height="24.474" class="cls-4" rx="12.237"/>
                    <g id="그룹_2693" transform="translate(19.442 7.681)">
                        <path id="패스_5544" d="M1787.87 2292.019h4a5.626 5.626 0 0 1 2.536.548 4.1 4.1 0 0 1 1.712 1.542 4.7 4.7 0 0 1 0 4.632 4.1 4.1 0 0 1-1.712 1.542 5.626 5.626 0 0 1-2.536.548h-4zm3.9 7.137a2.962 2.962 0 0 0 2.108-.736 2.923 2.923 0 0 0 0-3.99 2.962 2.962 0 0 0-2.108-.736h-1.863v5.462z" class="cls-6" transform="translate(-1787.87 -2291.868)"/>
                        <path id="패스_5545" d="M1866.154 2299.375a4.388 4.388 0 0 1-1.724-1.63 4.685 4.685 0 0 1 0-4.669 4.391 4.391 0 0 1 1.724-1.63 5.453 5.453 0 0 1 4.94 0 4.494 4.494 0 0 1 0 7.93 5.453 5.453 0 0 1-4.94 0zm3.883-1.5a2.575 2.575 0 0 0 .988-1 3.152 3.152 0 0 0 0-2.92 2.574 2.574 0 0 0-.988-1 2.948 2.948 0 0 0-2.819 0 2.571 2.571 0 0 0-.988 1 3.15 3.15 0 0 0 0 2.92 2.571 2.571 0 0 0 .988 1 2.948 2.948 0 0 0 2.819 0z" class="cls-6" transform="translate(-1853.964 -2290.854)"/>
                        <path id="패스_5546" d="M1958.119 2292.019v8.811h-1.674l-4.393-5.349v5.349h-2.014v-8.811h1.687l4.38 5.349v-5.349z" class="cls-6" transform="translate(-1929.019 -2291.868)"/>
                        <path id="패스_5547" d="M2026.526 2298.942h-4.091l-.78 1.888h-2.089l3.927-8.811h2.014l3.94 8.811h-2.14zm-.642-1.548l-1.4-3.373-1.4 3.373z" class="cls-6" transform="translate(-1989.535 -2291.868)"/>
                        <path id="패스_5548" d="M2094.634 2293.681h-2.82v-1.662h7.678v1.662h-2.819v7.149h-2.039z" class="cls-6" transform="translate(-2052.419 -2291.868)"/>
                        <path id="패스_5549" d="M2166.319 2299.194v1.636h-6.819v-8.811h6.658v1.636h-4.632v1.913h4.091v1.586h-4.091v2.039z" class="cls-6" transform="translate(-2111.329 -2291.868)"/>
                    </g>
                </g>
            </g>
        </g>
        <g id="그룹_4333" transform="translate(379.216 1007.193)">
            <path id="사각형_8072" fill="#f7d47a" d="M0 0H69.508V48.917H0z"/>
            <path id="사각형_8073" fill="#ebb423" d="M0 0H13.292V48.917H0z" transform="translate(28.108)"/>
            <path id="사각형_8074" d="M0 0H12.529V10.241H0z" class="cls-4" transform="translate(49.462 5.883)"/>
        </g>
        <g id="그룹_2705" transform="translate(704.951 819.473)">
            <g id="그룹_2698" transform="translate(0 34.762)">
                <path id="패스_5550" d="M2473.43 1828.674l-7.811 10.537a16.188 16.188 0 0 1-7.129 5.445 16.189 16.189 0 0 1-13.6-.858l-26.9-14.613-2.184-.139a9.569 9.569 0 0 1-8.581-6.891l-6.885-3.711a1.47 1.47 0 0 1-.342-2.334 1.471 1.471 0 0 1 1.271-.413l9.66 1.54 7.061 2.43 34.244 12.691 8.731-10.543z" class="cls-14" transform="translate(-2399.558 -1802.845)"/>
                <path id="패스_5551" fill="#7b8f66" d="M2824.976 1725.831l-12.037 16.77 17.481 7.342 12.761-15.733-2.134-17.538-3.487.8a21.343 21.343 0 0 0-12.584 8.359z" transform="translate(-2759.359 -1716.673)"/>
            </g>
            <g id="그룹_2699" transform="translate(83.737 94.604)">
                <path id="패스_5552" d="M3075.412 2178.367l5.769 126.564h-14.509l-21.062-126.564z" class="cls-6" transform="translate(-3045.609 -2178.367)"/>
                <path id="패스_5553" d="M3081.752 3154.835l1.235 12.074a3 3 0 0 1-2.988 3.309h-28.573a5.161 5.161 0 0 1-5.161-5.161 5.161 5.161 0 0 1 4.2-5.072l15.2-2.866a1.967 1.967 0 0 0 1.571-2.285h14.509z" class="cls-16" transform="translate(-3046.18 -3028.271)"/>
            </g>
            <g id="그룹_2700" transform="translate(42.916 94.604)">
                <path id="패스_5554" fill="#054063" d="M2903.626 2178.367l-4.37 126.564h16.957l16.98-126.564z" transform="translate(-2877.404 -2178.367)"/>
                <path id="패스_5555" d="M2769.474 3154.835l-1.508 13.269a2.384 2.384 0 0 1-2.369 2.115h-29.8a5.136 5.136 0 0 1-5.135-5.135 5.135 5.135 0 0 1 4.239-5.056l15.365-2.726a2.735 2.735 0 0 0 2.248-2.466h16.957z" class="cls-16" transform="translate(-2730.666 -3028.271)"/>
            </g>
            <g id="그룹_2701" transform="translate(69.121 32.196)">
                <path id="패스_5556" d="M2977.188 1759.285h-44.351l1.055-50.026a9.255 9.255 0 0 1 7.191-8.828l15.549-3.554 15.928 3.123a11.636 11.636 0 0 1 9.339 12.587z" class="cls-16" transform="translate(-2932.838 -1696.877)"/>
                <path id="패스_5557" fill="#798c64" d="M2968.293 1821.481h2.972l2.272 10.314-39.469 8.1-.082 3.894 9.483.593 35.754-3.8 3.674-36.43a11.722 11.722 0 0 0 .05-1.636l-15.879-.438z" transform="translate(-2933.838 -1788.442)"/>
            </g>
            <g id="그룹_2702" transform="translate(45.539 46.53)">
                <path id="사각형_8075" fill="#f0c24a" d="M0 0H35.487V35.487H0z"/>
                <path id="사각형_8076" d="M0 0H8.915V35.487H0z" class="cls-20" transform="translate(13.286)"/>
                <path id="사각형_8077" fill="#f0bd38" d="M0 0H20.453V35.487H0z" transform="rotate(180 27.97 17.744)"/>
                <path id="사각형_8078" d="M0 0H5.769V35.487H0z" class="cls-20" transform="rotate(180 24.299 17.744)"/>
                <path id="사각형_8079" d="M0 0H6.992V6.293H0z" class="cls-4" transform="translate(25.523 2.622)"/>
            </g>
            <g id="그룹_2703" transform="translate(61.966 34.643)">
                <path id="패스_5558" d="M2937.256 1909.973l1.409 10.451a10.773 10.773 0 0 1-2.855 8.848 10.776 10.776 0 0 1-6.726 3.308l-34.695 3.547a13.082 13.082 0 0 1-1.326.067h-6a13.041 13.041 0 0 1-9.418-4.021l15.039-.7 32.34-9.615-2.622-11.887z" class="cls-14" transform="translate(-2877.64 -1884.801)"/>
                <path id="패스_5559" d="M3193.946 1728.163l3.4 17.664-2.939-.1-16.639-.594-4.72-24.823 5.244-4.545 4.222.855a14.6 14.6 0 0 1 11.432 11.543z" class="cls-16" transform="translate(-3134.756 -1715.759)"/>
            </g>
            <g id="그룹_2704" transform="translate(78.878)">
                <path id="패스_5560" d="M3012.8 1491.217a12.53 12.53 0 0 0-1.361 5.216 12.815 12.815 0 0 0 2.154 7.484c3.738-3.715 4.549-8.341 2.722-10.772a5.361 5.361 0 0 0-3.515-1.928z" class="cls-6" transform="translate(-3011 -1485.677)"/>
                <path id="패스_5561" d="M3057.3 1615.444l-1.191 13.12a7.426 7.426 0 0 0 3.269 4.058c3.313 1.768 8.4.324 11.887-4.058l-.869-13.12z" class="cls-14" transform="translate(-3049.887 -1593.803)"/>
                <path id="패스_5562" fill="#feb996" d="M3057.858 1638.165a8.977 8.977 0 0 0 4.385-.528c4.648-1.809 5.682-6.7 5.745-7.03a10.731 10.731 0 0 0-9.415-.324z" transform="translate(-3051.411 -1605.903)"/>
                <path id="패스_5563" d="M3034.912 1526.391c-6.277 5.042-13.7 5.3-17.314 1.857a9.613 9.613 0 0 1-2.608-6.577l1.524-13.222 20.134-.612-1.736 18.554z" class="cls-14" transform="translate(-3014.099 -1500.144)"/>
                <path id="패스_5564" d="M3008.217 1453.9c-.63 2.213 1.943 4.925 4.082 6.123 4.543 2.546 9.864-.2 10.546-.567a3.8 3.8 0 0 0 1.247 1.927 4.239 4.239 0 0 0 4.423.34c.031 2.288-.062 4.576-.07 6.864a1.415 1.415 0 0 0 1.3 1.416h.017a1.415 1.415 0 0 0 1.5-1.126l2.089-10.205a5.276 5.276 0 0 0-1.639-4.98l-.023-.02a5.8 5.8 0 0 0-1.021-2.608c-4.046-5.568-17.269-.508-18.6 0-2.436.936-3.529 1.709-3.851 2.836z" class="cls-6" transform="translate(-3008.121 -1448.479)"/>
                <path id="패스_5565" d="M3140.009 1541.425c.164-2.13 2.031-4.323 3.628-4.025 1.237.231 2.037 1.9 2.1 3.232.113 2.458-2.242 4.96-3.855 4.592-1.241-.283-1.991-2.248-1.873-3.799z" class="cls-14" transform="translate(-3122.904 -1525.85)"/>
            </g>
        </g>
    </g>
</svg>
