<svg xmlns="http://www.w3.org/2000/svg" id="home-card-03" width="380" height="245" viewBox="0 0 380 245">
    <defs>
        <clipPath id="clip-path">
            <path id="패스_9479" d="M10 0h360a10 10 0 0 1 10 10v235H0V10A10 10 0 0 1 10 0z" class="cls-1"/>
        </clipPath>
        <style>
            .cls-1,.cls-13,.cls-15,.cls-17,.cls-5,.cls-6{fill:none}.cls-9{opacity:.2}.cls-5,.cls-6{stroke:#000;stroke-width:.5px}.cls-6{stroke-linecap:round}.cls-8{fill:#c4c9d6}.cls-9{isolation:isolate}.cls-10{fill:#5e3eea}.cls-13{stroke:#c4c9d6}.cls-15{stroke:#030923}.cls-17{stroke:#ebeaef}.cls-20{fill:#f8d3be}.cls-21{fill:#f75058}.cls-22{fill:#2d2d30}.cls-24{fill:#f8c700}.cls-25{fill:#07085b}
        </style>
    </defs>
    <g id="그룹_4876" clip-path="url(#clip-path)">
        <g id="_3">
            <path id="이미지_163" fill="#4693f7" d="M10 0h360a10 10 0 0 1 10 10v235H0V10A10 10 0 0 1 10 0z"/>
            <g id="그룹_4337" opacity="0.2">
                <g id="그룹_4326">
                    <path id="패스_8087" d="M319.282 47.6l14.264-11.5a58.322 58.322 0 0 0 8.024 10.681 59.489 59.489 0 0 0 10.475 7.573 31.51 31.51 0 0 1-5.463 6.942 68.018 68.018 0 0 1-8.849 6.8 52.622 52.622 0 0 1-10.442-8.344c-4.191-4.626-8.009-12.152-8.009-12.152z" class="cls-5"/>
                    <g id="패스_8088">
                        <path id="패스_9445" d="M323.978 49.255l.387-.375 1.64-1.6a.5.5 0 0 1 .694.135l1.636 2.425a.5.5 0 0 1-.135.694l-2.091 2.142a.5.5 0 0 1-.694-.135l-1.572-2.6a.5.5 0 0 1 .135-.686z" class="cls-1"/>
                        <path id="패스_9446" d="M326.291 47.707l-1.577 1.533-.387.375-.033.03-.036.025.014.021 1.551 2.566 2.018-2.068.036-.036.042-.029-1.63-2.416m-.284-.421a.5.5 0 0 1 .694.135l1.634 2.423a.5.5 0 0 1-.134.694l-2.09 2.141a.5.5 0 0 1-.694-.134l-1.572-2.6a.5.5 0 0 1 .135-.694l.387-.375 1.642-1.592z" class="cls-1"/>
                    </g>
                    <g id="패스_8089">
                        <path id="패스_9447" d="M326.94 53.647l.387-.375 1.64-1.6a.5.5 0 0 1 .694.135l1.588 2.354a.5.5 0 0 1-.135.694l-1.937 2.1a.5.5 0 0 1-.694-.135 13.724 13.724 0 0 1-.875-1.151c-.42-.622-.8-1.336-.8-1.336a.5.5 0 0 1 .132-.686z" class="cls-1"/>
                        <path id="패스_9448" d="M329.253 52.1l-1.577 1.533-.387.374-.033.031-.036.024.014.021.012.023c0 .006.376.7.776 1.292a13.242 13.242 0 0 0 .84 1.1l.019.023.009.013 1.856-2.017.04-.043.048-.032-1.582-2.342m-.284-.421a.5.5 0 0 1 .694.135l1.587 2.352a.5.5 0 0 1-.135.694l-1.937 2.1a.5.5 0 0 1-.694-.135 14.017 14.017 0 0 1-.875-1.151c-.42-.622-.8-1.336-.8-1.336a.5.5 0 0 1 .135-.694l.387-.375 1.642-1.593z" class="cls-1"/>
                    </g>
                    <g id="패스_8090">
                        <path id="패스_9449" d="M330.378 58.207l.966-1.027.957-.966c.284-.243.44-.045.694.135a6.317 6.317 0 0 0 1.045.893c.645.444 1.342.987 1.342.987a.5.5 0 0 1-.135.695l-1.5 1.656a.946.946 0 0 1-1.077.229 4.6 4.6 0 0 1-1.081-.644 12.176 12.176 0 0 1-1.345-1.264.5.5 0 0 1 .134-.694z" class="cls-1"/>
                        <path id="패스_9450" d="M332.569 56.655l-.863.871-.962 1.025-.039.042-.041.028a11.3 11.3 0 0 0 1.225 1.147 4.318 4.318 0 0 0 .948.572l.025.008.024.012a.307.307 0 0 0 .371-.046c.035-.024.069-.047.1-.071l.055-.039 1.465-1.616.041-.045.027-.019c-.228-.175-.724-.551-1.188-.87a7.219 7.219 0 0 1-1.1-.929l-.075-.058-.017-.012m-.207-.488c.247-.167.4.016.633.182a6.34 6.34 0 0 0 1.046.893c.646.443 1.343.988 1.343.988a.5.5 0 0 1-.135.694l-1.5 1.655c-.063.042-.131.1-.209.149a.8.8 0 0 1-.869.08 4.54 4.54 0 0 1-1.081-.644 12.193 12.193 0 0 1-1.343-1.261.5.5 0 0 1 .135-.694l.968-1.03.954-.965a.59.59 0 0 1 .062-.047z" class="cls-1"/>
                    </g>
                    <g id="패스_8094">
                        <path id="패스_9451" d="M334.521 61.443l.967-1.07.956-.926c.284-.244.44-.045.694.135l2.583 1.779a.5.5 0 0 1-.135.694l-1.937 2.1c-.229.155-.414.159-.713-.083l-2.385-1.761c-.284-.362-.251-.644-.03-.868z" class="cls-1"/>
                        <path id="패스_9452" d="M336.709 59.889l-.861.834-.954 1.058-.011.012-.01.01a.163.163 0 0 0-.026.03.4.4 0 0 0 .062.123l2.324 1.717.008.007.009.006a.659.659 0 0 0 .093.067l1.876-2.037.039-.043.017-.012-2.42-1.661c-.044-.03-.084-.061-.122-.091l-.019-.014m-.2-.486c.246-.166.4.017.632.183l2.584 1.774a.5.5 0 0 1-.135.694l-1.938 2.1c-.229.155-.413.16-.713-.083l-2.385-1.761c-.284-.364-.253-.647-.028-.868l.966-1.07.955-.926a.776.776 0 0 1 .054-.052z" class="cls-1"/>
                    </g>
                    <path id="패스_8091" d="M328.4 46.874l5.34-4.577" class="cls-6"/>
                    <path id="패스_8092" d="M331.561 51.556l5.624-5.178" class="cls-6"/>
                    <path id="패스_8093" d="M335.383 55.434l5.654-5.53" class="cls-6"/>
                    <path id="패스_8095" d="M339.45 59.058l3.168-3.317c1.3-1.36 2.424-2.721 2.424-2.721" class="cls-6"/>
                </g>
                <g id="그룹_4328">
                    <path id="패스_8087-2" d="M316.775 168.041l-15.886-9.123a58.265 58.265 0 0 1-6.254 11.805 59.423 59.423 0 0 1-9.166 9.118 31.463 31.463 0 0 0 6.485 6 67.955 67.955 0 0 0 9.8 5.33 52.643 52.643 0 0 0 9.01-9.875c3.415-5.223 6.011-13.255 6.011-13.255z" class="cls-5"/>
                    <g id="패스_8088-2">
                        <path id="패스_9453" d="M312.4 170.412l-.441-.31-1.872-1.314a.5.5 0 0 0-.664.242l-1.234 2.646a.5.5 0 0 0 .242.665l2.4 1.788a.5.5 0 0 0 .664-.241l1.146-2.811a.5.5 0 0 0-.241-.665z" class="cls-1"/>
                        <path id="패스_9454" d="M309.87 169.246l-1.232 2.641.046.022.041.03 2.318 1.727 1.133-2.778.01-.022-.041-.019-.036-.026-.44-.31-1.8-1.264m.215-.46l1.869 1.315.441.31a.5.5 0 0 1 .241.664l-1.145 2.812a.5.5 0 0 1-.664.241l-2.4-1.788a.5.5 0 0 1-.242-.665l1.235-2.649a.5.5 0 0 1 .665-.242z" class="cls-1"/>
                    </g>
                    <g id="패스_8089-2">
                        <path id="패스_9455" d="M310.158 175.213l-.44-.31-1.872-1.314a.5.5 0 0 0-.665.242l-.654 1.4-.544 1.167a.5.5 0 0 0 .242.665l2.242 1.773a.5.5 0 0 0 .665-.242 14.053 14.053 0 0 0 .684-1.274c.317-.68.584-1.445.584-1.445a.5.5 0 0 0-.242-.665z" class="cls-1"/>
                        <path id="패스_9456" d="M307.632 174.047l-1.2 2.565.053.024.046.036 2.15 1.7.006-.014.016-.027a13.157 13.157 0 0 0 .656-1.221c.3-.648.562-1.391.564-1.4l.009-.025.011-.022-.04-.019-.037-.026-.44-.309-1.8-1.265m.215-.461l1.871 1.316.44.31a.5.5 0 0 1 .242.665s-.267.765-.584 1.445a14.144 14.144 0 0 1-.684 1.274.5.5 0 0 1-.665.242l-2.242-1.775a.5.5 0 0 1-.241-.665l1.2-2.57a.5.5 0 0 1 .669-.238z" class="cls-1"/>
                    </g>
                    <g id="패스_8090-2">
                        <path id="패스_9457" d="M307.474 180.258l-1.116-.866-1.094-.8c-.319-.2-.441.025-.664.242a6.33 6.33 0 0 1-.894 1.046c-.568.539-1.171 1.185-1.171 1.185a.5.5 0 0 0 .242.664l1.744 1.4a.948.948 0 0 0 1.1.059 4.623 4.623 0 0 0 .968-.806 12.227 12.227 0 0 0 1.128-1.456.5.5 0 0 0-.243-.668z" class="cls-1"/>
                        <path id="패스_9458" d="M305.07 179.064l-.014.015-.067.068a7.033 7.033 0 0 1-.938 1.09c-.408.387-.839.836-1.038 1.046l.03.014.048.037 1.7 1.366.062.033c.033.016.069.035.108.053a.31.31 0 0 0 .375-.013l.019-.013.023-.013a4.291 4.291 0 0 0 .85-.715 11.514 11.514 0 0 0 1.031-1.323l-.046-.022-.044-.035-1.111-.862-.988-.725m.127-.515c.022.011.045.022.07.037l1.092.8 1.116.867a.5.5 0 0 1 .242.664 12.1 12.1 0 0 1-1.128 1.456 4.6 4.6 0 0 1-.968.806.8.8 0 0 1-.871.056c-.084-.04-.16-.083-.228-.115l-1.743-1.4a.5.5 0 0 1-.242-.664s.6-.646 1.171-1.186a6.276 6.276 0 0 0 .894-1.045c.205-.198.326-.401.598-.276z" class="cls-1"/>
                    </g>
                    <g id="패스_8094-2">
                        <path id="패스_9459" d="M303.89 184.1l-1.122-.906-1.089-.765c-.319-.2-.442.025-.665.242l-2.273 2.161a.5.5 0 0 0 .242.664l2.242 1.775c.25.117.434.092.692-.194l2.083-2.112c.221-.405.145-.68-.11-.865z" class="cls-1"/>
                        <path id="패스_9460" d="M301.486 182.907l-.016.017c-.034.035-.069.072-.107.108l-2.131 2.023.019.008.046.036 2.171 1.719a.8.8 0 0 0 .081-.08l.007-.008.008-.007 2.027-2.061a.351.351 0 0 0 .041-.132.117.117 0 0 0-.029-.024l-.012-.009-.012-.01-1.109-.9-.981-.689m.125-.513c.022.01.044.023.069.037l1.088.765 1.122.906c.256.182.332.457.107.861l-2.078 2.114c-.261.286-.444.309-.693.193l-2.242-1.775a.5.5 0 0 1-.242-.664l2.273-2.158c.203-.192.324-.394.592-.264z" class="cls-1"/>
                    </g>
                    <path id="패스_8091-2" d="M307.654 168.753l-5.99-3.685" class="cls-6"/>
                    <path id="패스_8092-2" d="M305.267 173.872l-6.365-4.235" class="cls-6"/>
                    <path id="패스_8093-2" d="M302.1 178.3l-6.449-4.577" class="cls-6"/>
                    <path id="패스_8095-2" d="M298.648 182.515L295 179.737c-1.5-1.14-2.818-2.315-2.818-2.315" class="cls-6"/>
                </g>
                <g id="그룹_4329">
                    <path id="패스_8087-3" d="M43.147 229.073L57 217.087a58.247 58.247 0 0 0 8.392 10.394 59.451 59.451 0 0 0 10.733 7.2 31.493 31.493 0 0 1-5.218 7.128 68.041 68.041 0 0 1-8.6 7.1 52.717 52.717 0 0 1-10.727-7.974c-4.353-4.472-8.433-11.862-8.433-11.862z" class="cls-5"/>
                    <g id="패스_8088-3">
                        <path id="패스_9461" d="M47.9 230.568l.37-.393 1.587-1.647a.5.5 0 0 1 .7.111L52.272 231a.5.5 0 0 1-.111.7l-2.014 2.214a.5.5 0 0 1-.7-.111l-1.659-2.538a.5.5 0 0 1 .112-.697z" class="cls-1"/>
                        <path id="패스_9462" d="M50.155 228.938l-1.524 1.586-.373.388-.031.032-.035.025.015.021 1.639 2.512 1.945-2.137.034-.038.042-.03-1.713-2.357m-.3-.411a.5.5 0 0 1 .7.11L52.271 231a.5.5 0 0 1-.111.7l-2.013 2.213a.5.5 0 0 1-.7-.111l-1.661-2.54a.5.5 0 0 1 .11-.7l.373-.388z" class="cls-1"/>
                    </g>
                    <g id="패스_8089-3">
                        <path id="패스_9463" d="M51.013 234.853l.37-.392 1.586-1.648a.5.5 0 0 1 .7.111l1.667 2.294a.5.5 0 0 1-.111.7l-1.86 2.172a.5.5 0 0 1-.7-.11 14.1 14.1 0 0 1-.916-1.123c-.443-.609-.847-1.3-.847-1.3a.5.5 0 0 1 .111-.7z" class="cls-1"/>
                        <path id="패스_9464" d="M53.269 233.224l-1.524 1.585-.374.388-.031.032-.035.026.014.02.013.023c.006.006.4.684.821 1.264a13.185 13.185 0 0 0 .878 1.074l.02.023.009.012 1.786-2.08.037-.045.047-.034-1.662-2.288m-.3-.411a.5.5 0 0 1 .7.111l1.667 2.294a.5.5 0 0 1-.111.7l-1.862 2.17a.5.5 0 0 1-.7-.111 13.691 13.691 0 0 1-.915-1.12c-.441-.607-.849-1.307-.849-1.307a.5.5 0 0 1 .111-.7l.373-.389z" class="cls-1"/>
                    </g>
                    <g id="패스_8090-3">
                        <path id="패스_9465" d="M54.608 239.291l.93-1.064.916-1c.276-.254.439-.06.7.11a6.34 6.34 0 0 0 1.08.859c.661.421 1.376.94 1.376.94a.5.5 0 0 1-.11.7l-1.444 1.708a.948.948 0 0 1-1.069.268 4.593 4.593 0 0 1-1.1-.606 12.206 12.206 0 0 1-1.386-1.214.5.5 0 0 1 .107-.701z" class="cls-1"/>
                        <path id="패스_9466" d="M56.741 237.66l-.832.9-.925 1.058-.037.043-.041.03a11.474 11.474 0 0 0 1.265 1.1 4.3 4.3 0 0 0 .968.538l.025.008.024.011a.307.307 0 0 0 .37-.059l.1-.074.054-.042 1.407-1.665.039-.047.027-.02c-.234-.167-.743-.526-1.218-.828a7.271 7.271 0 0 1-1.129-.889l-.076-.056-.017-.012m-.224-.481c.24-.174.4 0 .638.161a6.319 6.319 0 0 0 1.077.855c.661.421 1.376.941 1.376.941a.5.5 0 0 1-.111.7l-1.443 1.708c-.06.043-.128.1-.2.154a.8.8 0 0 1-.866.112 4.574 4.574 0 0 1-1.1-.606 12.165 12.165 0 0 1-1.386-1.214.5.5 0 0 1 .111-.7l.929-1.065.92-1 .052-.042z" class="cls-1"/>
                    </g>
                    <g id="패스_8094-3">
                        <path id="패스_9467" d="M58.861 242.381l.929-1.1.919-.962c.276-.253.438-.06.7.111l2.646 1.688a.5.5 0 0 1-.111.7l-1.862 2.17c-.223.163-.408.173-.716-.058l-2.447-1.675c-.297-.362-.275-.646-.058-.874z" class="cls-1"/>
                        <path id="패스_9468" d="M60.992 240.749l-.831.863-.918 1.09-.01.012-.01.012a.129.129 0 0 0-.024.03.377.377 0 0 0 .066.121l2.382 1.635.009.006.008.006a.9.9 0 0 0 .1.064l1.8-2.1.038-.045.017-.012-2.478-1.578q-.066-.045-.123-.087l-.021-.013m-.219-.48c.239-.174.4 0 .638.161l2.642 1.683a.5.5 0 0 1-.11.7l-1.862 2.17c-.224.162-.408.173-.716-.059l-2.444-1.677c-.3-.352-.276-.637-.059-.865l.928-1.1.923-.959c.015-.027.035-.044.054-.058z" class="cls-1"/>
                    </g>
                    <path id="패스_8091-3" d="M52.236 228.031l5.177-4.76" class="cls-6"/>
                    <path id="패스_8092-3" d="M55.556 232.6L61 227.229" class="cls-6"/>
                    <path id="패스_8093-3" d="M59.511 236.342l5.458-5.724" class="cls-6"/>
                    <path id="패스_8095-3" d="M63.7 239.823l3.05-3.422c1.253-1.406 2.324-2.811 2.324-2.811" class="cls-6"/>
                </g>
                <g id="그룹_4327">
                    <path id="패스_8087-4" d="M47.259 67.955l-16.484-7.992a58.187 58.187 0 0 1-5.415 12.212 59.465 59.465 0 0 1-8.508 9.735 31.492 31.492 0 0 0 6.889 5.536 67.853 67.853 0 0 0 10.15 4.633 52.666 52.666 0 0 0 8.3-10.479c3.039-5.451 5.068-13.645 5.068-13.645z" class="cls-5"/>
                    <g id="패스_8088-4">
                        <path id="패스_9469" d="M43.056 70.626l-.461-.279-1.959-1.18a.5.5 0 0 0-.646.287l-1.047 2.726a.5.5 0 0 0 .288.646l2.519 1.617a.5.5 0 0 0 .646-.287l.947-2.884a.5.5 0 0 0-.287-.646z" class="cls-1"/>
                        <path id="패스_9470" d="M40.454 69.639l-1.044 2.72.048.019.043.027 2.432 1.561.937-2.85.008-.023-.042-.016-.038-.023-.461-.279-1.882-1.136m.182-.474l1.957 1.182.461.278a.5.5 0 0 1 .287.646l-.942 2.885a.5.5 0 0 1-.646.287l-2.519-1.617a.5.5 0 0 1-.288-.646l1.048-2.729a.5.5 0 0 1 .646-.287z" class="cls-1"/>
                    </g>
                    <g id="패스_8089-4">
                        <path id="패스_9471" d="M41.158 75.571l-.46-.278-1.96-1.181a.5.5 0 0 0-.646.288l-.554 1.445-.462 1.2a.5.5 0 0 0 .288.646l2.361 1.613a.5.5 0 0 0 .646-.288 14.056 14.056 0 0 0 .594-1.319c.269-.7.481-1.482.481-1.482a.5.5 0 0 0-.288-.646z" class="cls-1"/>
                        <path id="패스_9472" d="M38.557 74.584l-1.014 2.642.054.02.049.033 2.263 1.547.005-.014.014-.028a13.163 13.163 0 0 0 .57-1.264c.256-.667.463-1.427.465-1.434l.007-.025.009-.023-.041-.016L40.9 76l-.461-.278-1.882-1.136m.182-.475l1.961 1.182.46.278a.5.5 0 0 1 .288.646s-.212.782-.481 1.482a14.062 14.062 0 0 1-.594 1.319.5.5 0 0 1-.646.288l-2.361-1.615a.5.5 0 0 1-.287-.646l1.014-2.645a.5.5 0 0 1 .646-.29z" class="cls-1"/>
                    </g>
                    <g id="패스_8090-4">
                        <path id="패스_9473" d="M38.833 80.791L37.659 80l-1.147-.727c-.332-.173-.439.056-.646.288a6.357 6.357 0 0 1-.818 1.1c-.529.578-1.086 1.264-1.086 1.264a.5.5 0 0 0 .287.646l1.838 1.276a.948.948 0 0 0 1.1-.019 4.571 4.571 0 0 0 .908-.871 12.077 12.077 0 0 0 1.025-1.53.5.5 0 0 0-.287-.636z" class="cls-1"/>
                        <path id="패스_9474" d="M36.351 79.767l-.012.017c-.021.024-.041.049-.063.072a6.97 6.97 0 0 1-.86 1.153c-.379.414-.778.892-.961 1.115l.03.012.051.034 1.79 1.244.064.028c.034.014.072.031.112.046a.307.307 0 0 0 .372-.039l.019-.014.022-.015a4.288 4.288 0 0 0 .8-.773 11.32 11.32 0 0 0 .936-1.392l-.047-.018-.047-.031-1.168-.783-1.036-.655m.09-.522c.023.009.046.019.072.032l1.144.722 1.174.787a.5.5 0 0 1 .288.646 12 12 0 0 1-1.025 1.53 4.533 4.533 0 0 1-.908.871.794.794 0 0 1-.865.117c-.087-.033-.166-.071-.236-.1l-1.837-1.27a.5.5 0 0 1-.287-.646s.556-.686 1.085-1.265a6.265 6.265 0 0 0 .819-1.1c.192-.219.298-.43.574-.324z" class="cls-1"/>
                    </g>
                    <g id="패스_8094-4">
                        <path id="패스_9475" d="M35.526 84.873l-1.183-.825-1.14-.687c-.332-.174-.439.055-.646.287l-2.116 2.314a.5.5 0 0 0 .287.646l2.36 1.615c.258.1.44.061.677-.242l1.93-2.252c.192-.42.098-.688-.169-.856z" class="cls-1"/>
                        <path id="패스_9476" d="M33.044 83.851l-.014.018c-.032.038-.064.077-.1.116l-1.986 2.167.02.007.049.033 2.285 1.563a.723.723 0 0 0 .076-.086l.006-.008.008-.008 1.878-2.2a.351.351 0 0 0 .032-.134.125.125 0 0 0-.031-.023l-.013-.008-.012-.009-1.169-.815-1.026-.619m.088-.521a.732.732 0 0 1 .071.033l1.14.687 1.181.825c.269.165.363.433.167.852l-1.925 2.253c-.24.305-.421.34-.678.242l-2.36-1.615a.5.5 0 0 1-.287-.646l2.116-2.31c.189-.209.296-.42.572-.314z" class="cls-1"/>
                    </g>
                    <path id="패스_8091-4" d="M38.209 69.3l-6.232-3.258" class="cls-6"/>
                    <path id="패스_8092-4" d="M36.185 74.574l-6.644-3.78" class="cls-6"/>
                    <path id="패스_8093-4" d="M33.334 79.212L26.581 75.1" class="cls-6"/>
                    <path id="패스_8095-4" d="M30.185 83.658l-3.832-2.517c-1.574-1.032-2.972-2.113-2.972-2.113" class="cls-6"/>
                </g>
                <g id="타원_1005">
                    <circle id="타원_1198" cx="2" cy="2" r="2" class="cls-1" transform="translate(78 132)"/>
                    <circle id="타원_1199" cx="1.75" cy="1.75" r="1.75" class="cls-5" transform="translate(78.25 132.25)"/>
                </g>
                <g id="타원_1023">
                    <circle id="타원_1200" cx="9.5" cy="9.5" r="9.5" class="cls-1" transform="translate(59 135)"/>
                    <circle id="타원_1201" cx="9.25" cy="9.25" r="9.25" class="cls-5" transform="translate(59.25 135.25)"/>
                </g>
                <path id="패스_7977" d="M67.512 86.82l7.922 18.895" class="cls-6"/>
                <path id="패스_7976" d="M63.276 104.013l10.329 4.844" class="cls-6"/>
                <path id="패스_8086" d="M64.5 144.652l2.852 3.137L73 141.5" class="cls-5"/>
            </g>
            <g id="그룹_4338">
                <rect id="사각형_8117" width="200" height="190" fill="#fafafa" rx="6" transform="translate(90 24)"/>
                <path id="사각형_8283" d="M96 24h188a6 6 0 0 1 6 6v10H90V30a6 6 0 0 1 6-6z" class="cls-8"/>
                <circle id="타원_1013" cx="2" cy="2" r="2" class="cls-9" transform="translate(96 30)"/>
                <circle id="타원_1014" cx="2" cy="2" r="2" class="cls-9" transform="translate(103 30)"/>
                <circle id="타원_1015" cx="2" cy="2" r="2" class="cls-9" transform="translate(110 30)"/>
            </g>
            <g id="그룹_4339">
                <rect id="사각형_8299" width="46" height="46" class="cls-10" rx="4" transform="translate(107 52)"/>
                <path id="패스_8075" fill="none" stroke="#f8c700" stroke-linecap="round" stroke-linejoin="round" stroke-width="3px" d="M118.5 74.48l8.7 7.8 13.934-13.78"/>
                <g id="사각형_8293">
                    <rect id="사각형_9284" width="46" height="80" class="cls-1" rx="10" transform="translate(167 95)"/>
                    <rect id="사각형_9285" width="43" height="77" fill="none" stroke="#eaecf0" stroke-width="3px" rx="8.5" transform="translate(168.5 96.5)"/>
                </g>
                <g id="타원_1018">
                    <circle id="타원_1202" cx="1.5" cy="1.5" r="1.5" class="cls-8" transform="translate(203 104)"/>
                    <circle id="타원_1203" cx="1" cy="1" r="1" class="cls-13" transform="translate(203.5 104.5)"/>
                </g>
                <g id="타원_1020">
                    <circle id="타원_1204" cx="1.5" cy="1.5" r="1.5" class="cls-8" transform="translate(190 169)"/>
                    <circle id="타원_1205" cx="1" cy="1" r="1" class="cls-13" transform="translate(190.5 169.5)"/>
                </g>
                <g id="타원_1021">
                    <circle id="타원_1206" cx="1.5" cy="1.5" r="1.5" class="cls-8" transform="translate(206 137)"/>
                    <circle id="타원_1207" cx="1" cy="1" r="1" class="cls-13" transform="translate(206.5 137.5)"/>
                </g>
                <g id="타원_1022">
                    <circle id="타원_1208" cx="1.5" cy="1.5" r="1.5" class="cls-8" transform="translate(171 136)"/>
                    <circle id="타원_1209" cx="1" cy="1" r="1" class="cls-13" transform="translate(171.5 136.5)"/>
                </g>
                <g id="타원_1019">
                    <circle id="타원_1210" cx="1.5" cy="1.5" r="1.5" fill="#030923" transform="translate(174 99)"/>
                    <circle id="타원_1211" cx="1" cy="1" r="1" class="cls-15" transform="translate(174.5 99.5)"/>
                </g>
                <path id="패스_8076" d="M204.742 105.324l10.823-23.844H228.4" class="cls-13"/>
                <path id="패스_8080" d="M191.224 170.48l8.341 20.489H212.4" class="cls-13"/>
                <path id="패스_8082" d="M207.224 138.5h43.1" class="cls-13"/>
                <path id="패스_8083" d="M172.588 137.575l-12.153-12.095H147.6" class="cls-13"/>
                <path id="패스_8077" d="M175.439 99.992l-7.676-24.711h-10.957" class="cls-15"/>
                <rect id="사각형_8294" width="20" height="20" fill="#f8d523" rx="2" transform="translate(233 71)"/>
                <rect id="사각형_8295" width="20" height="20" class="cls-10" rx="2" transform="translate(215 181)"/>
                <g id="사각형_8296">
                    <rect id="사각형_9287" width="19" height="19" class="cls-17" rx="1.5" transform="translate(253.5 128.5)"/>
                </g>
                <g id="사각형_8297">
                    <rect id="사각형_9289" width="19" height="19" class="cls-17" rx="1.5" transform="translate(125.5 115.5)"/>
                </g>
                <rect id="사각형_8290" width="1.001" height="10" class="cls-10" rx=".5" transform="rotate(-45 213.474 -249.715)"/>
                <rect id="사각형_8291" width="10" height="1.001" class="cls-10" rx=".5" transform="rotate(-45 221.153 -246.534)"/>
                <path id="패스_8081" fill="none" stroke="#f8d523" stroke-linecap="round" stroke-linejoin="round" d="M220.75 190.308l3.208 3.561 5.309-5.619"/>
                <g id="사각형_8298">
                    <path id="패스_9477" d="M187.5 164h5a1.5 1.5 0 0 1 1.5 1.5 1.5 1.5 0 0 1-1.5 1.5h-5a1.5 1.5 0 0 1-1.5-1.5 1.5 1.5 0 0 1 1.5-1.5z" class="cls-1"/>
                    <path id="패스_9478" fill="none" stroke="#eaecf0" stroke-width="2px" d="M187.5 165h5a.5.5 0 0 1 .5.5.5.5 0 0 1-.5.5h-5a.5.5 0 0 1-.5-.5.5.5 0 0 1 .5-.5z"/>
                </g>
            </g>
            <g id="그룹_4340">
                <path id="패스_8062" d="M116.119 95.23c1.36-3.518 3.432-9.016 3.683-10.231a13.661 13.661 0 0 0-2.605 2.837 46.475 46.475 0 0 1-2.756-8.914c-.672-.009.259 6.034.071 6.083s-2.156-5.856-2.156-5.856c-.61.27 1.175 5.992.966 6.056s-2.107-5.635-2.482-5.18c-.266.323 1.615 5.655 1.381 5.655s-1.973-4.587-2.267-3.948 1.475 6.211 2.9 9.5a9.294 9.294 0 0 1-.116 2.78c.568 1.138 3.381 1.218 3.381 1.218z" class="cls-20"/>
                <path id="패스_8063" d="M128.513 93.3c-.092-3.953-.184-10.111 0-11.4a14.353 14.353 0 0 1 1.563 3.723 48.764 48.764 0 0 0 5.883-7.814c.666.23-2.4 5.86-2.229 5.975s4.205-5.01 4.205-5.01c.506.483-3.286 5.492-3.1 5.63s4.078-4.81 4.287-4.228c.148.413-3.6 5-3.369 5.088s3.574-3.824 3.638-3.089-3.66 5.6-6.234 8.339a9.725 9.725 0 0 0-.872 2.783c-.969.928-3.772.003-3.772.003z" class="cls-20"/>
                <path id="패스_8064" d="M88.087 141.312c2.751-14.8 17.441-41.658 23.634-48.389a32.463 32.463 0 0 0 5.523 2.014c-7.806 16.341-12.79 40.7-13.127 45.608-2.637 6.444-17.493 8.637-16.03.767z" class="cls-21"/>
                <path id="패스_8065" d="M103.6 136.348a16.327 16.327 0 0 0 0 4.775 34.149 34.149 0 0 1-10.07-.383 26.093 26.093 0 0 0 1.093-4.68c3.8-.92 8.977.288 8.977.288z" class="cls-20"/>
                <path id="패스_8066" d="M103.7 112.083c6.115 6.272 7.5 16.456 4.3 23.4-2.95 2.163-11.527.232-11.527.232 2.609-9.437 7.227-23.632 7.227-23.632z" class="cls-20"/>
                <path id="패스_8067" d="M84.794 116.8c3.8-11.392 22.845-8.285 22.67.806.636 3.451-.524 7.366-2.5 10.9-1.256-2.551-3.54-2.6-4.063-.458-.546 2.241.376 3.81 1.724 4.01a11.49 11.49 0 0 1-8.148 4.9c-11.292-6.809-11.911-13.475-9.683-20.158z" class="cls-22"/>
                <path id="패스_8068" fill="#04053b" d="M94.907 114.463a9.052 9.052 0 0 0-1.36-4.783 10.7 10.7 0 0 0-8.754 7.124 16.978 16.978 0 0 0-1 6.522 9.089 9.089 0 0 0 11.114-8.863z"/>
                <path id="패스_8069" d="M94.524 113.645a9.092 9.092 0 1 1-9.094-9.09 9.092 9.092 0 0 1 9.094 9.09z" class="cls-22"/>
                <path id="패스_8070" d="M103.628 216.191c0 16.571-2.953 35.227-22.133 59.47-5.591 2.047-6.182-4.088-6.182-4.088 11.12-27 13.662-29.221 12.358-52.62-.732-13.13-.46-23.322-.46-23.322 11.277 3.68 16.417 20.56 16.417 20.56z" class="cls-24"/>
                <path id="패스_8071" d="M75.313 271.57l-4.092 5.916a1.253 1.253 0 0 0 .322 1.742l13.312 9.223a1.42 1.42 0 0 0 2.111-1.725l-5.473-11.069s-4.139 1.01-6.181-4.088z" class="cls-25"/>
                <path id="패스_8072" d="M111.836 184.35c1.975 9.46 8.056 27.889 10.817 45.34 2.365 14.941-.921 49.483-.921 49.483a4.35 4.35 0 0 1-7.411 0c-2.072-27.848-4.326-39.816-5.016-42.578s-11.9-21.864-15.848-25.087c-9.929-8.055-10.39-18.784-5.786-28.034 16.8-.965 24.165.876 24.165.876z" class="cls-24"/>
                <path id="패스_8073" d="M114.321 279.173l-.15 7.192a1.253 1.253 0 0 0 1.23 1.276l16.191.35a1.42 1.42 0 0 0 .81-2.6l-10.674-6.218s-2.892 3.126-7.408 0z" class="cls-25"/>
                <path id="패스_8074" d="M99.37 137.669c6.069-.329 7.326 1.266 12.927-3.721s11.622-12.428 12.313-13.809c3.222-13.119 2.8-25.938 3.486-27.434 2.531-.23 5.408-.46 5.523 0 2.532 23.13 3.769 28.228 1.812 34.327s-13.469 21.876-14.734 24.983-6.022 12.467-5.1 20.138-.237 12.563-3.92 14.1-9.889.478-15.566.171-9.511-1.534-11.354-3.524-.767-12.581-.153-21.174.762-15.95 3.356-19.946c2.784-4.293 9.11-3.978 11.41-4.106z" class="cls-21"/>
                <path id="패스_8084" fill="none" stroke="#4693f7" stroke-linecap="round" stroke-width="0.5px" d="M87.661 204.8a32.793 32.793 0 0 0 6.432 7.244c4.543 3.981 8.774 12.986 8.774 12.986"/>
            </g>
        </g>
    </g>
</svg>
