<svg xmlns="http://www.w3.org/2000/svg" width="380" height="245" viewBox="0 0 380 245">
    <defs>
        <clipPath id="clip-path">
            <path id="이미지_165" d="M10 0h360a10 10 0 0 1 10 10v235H0V10A10 10 0 0 1 10 0z" class="cls-1" transform="translate(18.83 72.106)"/>
        </clipPath>
        <style>
            .cls-1,.cls-27,.cls-28,.cls-29{fill:none}.cls-3{fill:#8863ff}.cls-5{fill:#fff}.cls-6{fill:#0e2549}.cls-9{fill:#f75058}.cls-11{opacity:.15}.cls-14{fill:#f8d3be}.cls-15{fill:#2d2d30}.cls-16{opacity:.3}.cls-17{fill:#f3bd3e}.cls-18{opacity:.1}.cls-20{fill:#e2474b}.cls-21{fill:#a32629}.cls-22{fill:#fab993}.cls-23{fill:#3f7fe9}.cls-25{fill:#f8c700}.cls-27,.cls-28,.cls-29{stroke:#000;stroke-width:.5px}.cls-27{stroke-linejoin:round}.cls-29{stroke-linecap:round}.cls-31{stroke:none}
        </style>
    </defs>
    <g id="_1" clip-path="url(#clip-path)" transform="translate(-18.83 -72.106)">
        <path id="이미지_164" d="M10 0h360a10 10 0 0 1 10 10v235H0V10A10 10 0 0 1 10 0z" class="cls-3" transform="translate(18.83 72.106)"/>
        <g id="atm" transform="translate(139.735 116.452)">
            <path id="사각형_8117" fill="#d1d1d1" d="M12 0h111a12 12 0 0 1 12 12v220H0V12A12 12 0 0 1 12 0z" transform="translate(-.905 -.346)"/>
            <path id="사각형_8283" d="M2 0h111a2 2 0 0 1 2 2v184H0V2a2 2 0 0 1 2-2z" class="cls-5" transform="translate(9.095 15.654)"/>
            <path id="패스_7660" d="M836.381 901.27h-117V709.622h51.405a1.242 1.242 0 0 1 .884.366 1.28 1.28 0 0 1 .374.912c0 3.406 2.331 6.17 5.2 6.17s5.2-2.764 5.2-6.161a1.285 1.285 0 0 1 .374-.922 1.241 1.241 0 0 1 .884-.366h52.685zm-116.352-.648h115.7V710.27H783.7a.6.6 0 0 0-.425.176.636.636 0 0 0-.185.454c0 3.764-2.622 6.819-5.845 6.819s-5.845-3.054-5.845-6.809a.642.642 0 0 0-.185-.464.6.6 0 0 0-.425-.176h-50.761z" class="cls-1" transform="translate(-709.946 -695.006)"/>
            <path id="패스_7661" d="M957.552 1629.484a7.375 7.375 0 1 1-7.375-7.375 7.375 7.375 0 0 1 7.375 7.375z" class="cls-5" transform="translate(-885.115 -1410.421)"/>
            <path id="패스_7662" d="M949 1636.006a7.7 7.7 0 1 1 7.7-7.7 7.707 7.707 0 0 1-7.7 7.7zm0-14.75a7.051 7.051 0 1 0 7.051 7.051 7.059 7.059 0 0 0-7.051-7.05z" class="cls-1" transform="translate(-883.939 -1409.245)"/>
            <path id="패스_7663" d="M996.182 923.047h-19.211a.324.324 0 0 1 0-.648h19.211a.324.324 0 1 1 0 .648z" class="cls-6" transform="translate(-911.65 -861.829)"/>
            <path id="사각형_8118" fill="#030923" d="M5.243 0h73.076a5.244 5.244 0 0 1 5.244 5.244 5.244 5.244 0 0 1-5.244 5.244H5.244A5.244 5.244 0 0 1 0 5.243 5.243 5.243 0 0 1 5.243 0z" transform="translate(25.698 57.528)"/>
            <path id="사각형_8119" fill="#d6dae3" d="M0 0H22.942V7.5H0z" transform="translate(80.508 170.905)"/>
            <path id="패스_7664" d="M1070.556 1439.922h-23.59v-8.148h23.59zm-22.943-.648h22.295v-6.852h-22.295z" class="cls-1" transform="translate(-966.782 -1261.194)"/>
            <path id="사각형_8120" d="M0 0H47.611V10.964H0z" class="cls-9" transform="translate(34.43 169.03)"/>
            <path id="패스_7665" fill="#8dd799" d="M843.648 1017.633v-82.664a4.854 4.854 0 0 0-4.854-4.854h55.338a4.736 4.736 0 0 1 4.854 4.734v82.783z" transform="translate(-803.569 -867.878)"/>
            <path id="패스_7668" d="M897.784 930.052a5.019 5.019 0 0 0-3.651-1.436h-55.338v.648a4.535 4.535 0 0 1 4.53 4.53v82.987h55.986v-83.107a5.021 5.021 0 0 0-1.527-3.622zm-53.812 86.081v-15.511c8.092.187 15.136 7.318 15.317 15.511zm15.96 0a16.682 16.682 0 0 0-4.84-11.213 16.275 16.275 0 0 0-11.12-4.941v-66.186a5.182 5.182 0 0 0-2.672-4.53h52.84a4.412 4.412 0 0 1 4.522 4.411v66.517a16.684 16.684 0 0 0-11.209 4.831 16.251 16.251 0 0 0-4.937 11.111zm38.731 0h-15.5c.186-8.083 7.315-15.117 15.5-15.3z" class="cls-1" transform="translate(-803.57 -866.702)"/>
            <circle id="타원_979" cx="10" cy="10" r="10" class="cls-11" transform="translate(58.635 88.853)"/>
            <circle id="타원_981" cx="4.468" cy="4.468" r="4.468" class="cls-11" transform="translate(64.084 70.49)"/>
            <circle id="타원_982" cx="4.468" cy="4.468" r="4.468" class="cls-11" transform="translate(64.084 118.621)"/>
            <path id="패스_7672" d="M930.831 1070.96c-7.979 0-14.47-5.323-14.47-11.867s6.491-11.867 14.47-11.867 14.47 5.323 14.47 11.867-6.492 11.867-14.47 11.867zm0-23.086c-7.621 0-13.822 5.032-13.822 11.219s6.2 11.219 13.822 11.219 13.822-5.033 13.822-11.219-6.201-11.219-13.822-11.219z" class="cls-1" transform="translate(-864.384 -959.697)"/>
            <path id="패스_7809" fill="#a0e1a9" d="M842.832 1010.323v-75.759a4.259 4.259 0 0 0-4.038-4.449h46.038a4.143 4.143 0 0 1 4.038 4.339v75.869z" transform="translate(-798.121 -868.202)"/>
            <path id="사각형_8130" d="M0 0H61.068V2.979H0z" transform="translate(34.293 59.307)"/>
            <path id="패스_7969" fill="#c2eec9" d="M0 0l55.33-.011V29.5L0 29.507z" transform="translate(40.095 120.251)"/>
        </g>
        <g id="lw" transform="translate(51.948 242.862)">
            <path id="패스_7674" d="M1207.495 613.282l-13.5-.149.835 5.714 14.114-.178z" class="cls-14" transform="translate(-1188.879 -545.694)"/>
            <path id="패스_7675" d="M1192.978 617.984l14.815-.187-1.625-6.027-14.121-.155zm13.972-.824l-13.413.169-.74-5.058 12.873.142z" class="cls-1" transform="translate(-1187.304 -544.504)"/>
            <path id="패스_7676" d="M1261.3 580.364s.333-8.754-3.422-8.464-3.484.494-3.484.494l2.109 14.886 4.532-.344s-2.049-5.423.265-6.572z" class="cls-9" transform="translate(-1254.284 -513.36)"/>
            <path id="사각형_8121" d="M0 0H15.62V0.867H0z" class="cls-6" transform="rotate(-98.065 33.319 36.16)"/>
            <path id="패스_7677" d="M915.524 575.648s3.548 13.5 0 14.332-81.609 0-81.609 0l-.807-7.881 62.739-6.451z" class="cls-6" transform="translate(-819.091 -516.305)"/>
            <path id="패스_7678" d="M987.26 535.031s-25.16-12.217-30.482-12.217c-3.145 0-24.515 18.023-24.515 18.023l11.774 3.71 13.926-9.432 16.8 6.46z" class="cls-6" transform="translate(-910.664 -474.881)"/>
            <path id="패스_7679" d="M728.632 598.144s2.9 6.23 4.052 6.592 8.82-.63 9.492 2.871h-10.56c-2.782-.4-7.217-6.621-7.217-6.621z" class="cls-14" transform="translate(-620.767 -533.942)"/>
            <path id="패스_7680" d="M741.246 605.9l-.074-.385c-.557-2.9-5.244-2.824-8.044-2.777a9.654 9.654 0 0 1-1.763-.049c-.634-.2-2.459-3.422-3.856-6.42l-.16-.343-4.83 3.243.2.273c.183.246 4.5 6.026 7.386 6.443h.046zm-6.894-2.527c2.382 0 5.362.208 6.067 1.879l-10.241-.012c-2.29-.356-5.841-4.768-6.73-5.914l3.635-2.44c.74 1.559 2.965 6.068 4.087 6.422a8.407 8.407 0 0 0 1.969.079c.373-.012.784-.019 1.213-.019z" class="cls-1" transform="translate(-619.35 -532.199)"/>
            <path id="패스_7681" d="M812.426 372.278s2.819-.287 2.843 3.019c0 0 3.046-1.6 3.076 2 0 0 3.878-1.9 4.995 2.971 0 0 1.946.118 2.271 2.771 0 0 3.917.674 2.583 4.141 0 0 2.519 4.874-.918 6.78-1.6.889-5.634.5-7.137-1.693a4.148 4.148 0 0 1-3.9-.912c-1.976-1.625-.388-2.6-.388-2.6s-2.245 1.115-2.5-.61.774-2.259.774-2.259a10.3 10.3 0 0 1-3.429.106c-1.34-.31-1.664-2.983-1.664-2.983s-3.052.768-3.036-.584a11.746 11.746 0 0 1 .994-3.513s-.461.273-.485-1.426 2.015-2.294 2.015-2.294z" class="cls-15" transform="translate(-725.216 -356.852)"/>
            <path id="패스_7682" d="M881.487 300.951a11.467 11.467 0 0 0-8.459 4.289c-3.436 4.344-.254 8.333 1.132 11.4 5.484 12.147 15.585 3.288 16.214 1.618 1.244-3.3 2.058-4.693 2.559-7.81.267-1.666-.663-10.478-11.446-9.497z" class="cls-15" transform="translate(-803.248 -300.875)"/>
            <path id="패스_7683" d="M838.307 366.909s1.243 9.384 1.541 9.928a34.724 34.724 0 0 0 6.471 7.637c3.287 2.971 8.573 10.283 6.811 10.663-3.805.82-19.747-7.9-19.747-7.9l-7.477-2.307 2.294-2.83a15.681 15.681 0 0 0 2.9-2.662c.827-1.177-.2-10.845-.2-10.845z" class="cls-14" transform="translate(-753.914 -352.647)"/>
            <path id="패스_7684" d="M851.642 394.08a3 3 0 0 0 .625-.058.726.726 0 0 0 .571-.544c.479-1.79-4.558-8.258-7.233-10.676a34.3 34.3 0 0 1-6.4-7.552c-.21-.467-1.034-6.269-1.5-9.815l-.047-.352-8.04 1.822.031.287c.394 3.691.813 9.84.261 10.624a15.447 15.447 0 0 1-2.822 2.585l-.035.025-2.623 3.242 7.9 2.438c.931.512 14.688 7.974 19.312 7.974zM837.1 365.872c.339 2.545 1.242 9.162 1.531 9.689a34.184 34.184 0 0 0 6.538 7.722c3.147 2.844 7.359 8.842 7.042 10.028a.085.085 0 0 1-.081.078 2.625 2.625 0 0 1-.546.051c-4.445 0-18.826-7.834-18.977-7.916l-.06-.026-7.02-2.166 1.966-2.43a15.442 15.442 0 0 0 2.938-2.713c.812-1.155.1-8.641-.117-10.779z" class="cls-1" transform="translate(-752.983 -351.216)"/>
            <path id="패스_7685" d="M901 333.755c.84-1.052 2.253-3.087 1.854-4.5s-1.942-.739-2.358-.361c-.277.251-2.195-6.851-2.195-6.851l-11.011 2.9s.329 6.53 1.958 10.267c1.635 3.753 3.736 4.185 6.6 3.4a6.931 6.931 0 0 0 3.145-1.765z" class="cls-14" transform="translate(-816.612 -317.471)"/>
            <path id="패스_7686" d="M892.579 337.835a8.377 8.377 0 0 0 2.186-.343 7.31 7.31 0 0 0 3.288-1.848.324.324 0 1 0-.457-.459 6.676 6.676 0 0 1-3 1.683c-2.655.724-4.622.438-6.216-3.221-1.4-3.223-1.833-8.643-1.915-9.892L896.906 321c1.8 6.621 2.116 6.715 2.308 6.772a.347.347 0 0 0 .333-.076 1.727 1.727 0 0 1 1.33-.381.755.755 0 0 1 .5.59c.26.922-.394 2.458-1.8 4.212a.324.324 0 1 0 .506.4c1.1-1.378 2.326-3.327 1.913-4.792a1.372 1.372 0 0 0-.944-1.037 2.24 2.24 0 0 0-1.651.312c-.361-.855-1.229-3.788-1.957-6.483l-.084-.311-11.577 3.049.013.263c.014.269.351 6.632 1.984 10.381 1.339 3.068 3.03 3.936 4.799 3.936z" class="cls-1" transform="translate(-815.447 -316.036)"/>
            <path id="패스_7690" d="M929.767 364.832a.324.324 0 0 0 .031-.646 1.733 1.733 0 0 1-.714-.2 4.157 4.157 0 0 1 .009-1.162c.019-.312.042-.7.065-1.183a.324.324 0 0 0-.308-.339.32.32 0 0 0-.339.308c-.023.481-.046.865-.064 1.176-.056.932-.075 1.246.08 1.527.209.38.916.487 1.211.515z" class="cls-15" transform="translate(-852.661 -348.253)"/>
            <path id="패스_7692" d="M890.162 321.214a40.91 40.91 0 0 0 4.1-4.307c.171-.214 8.487 2.09 9.7 4.079a2.871 2.871 0 0 1 1.052-.428 1.379 1.379 0 0 1 .837.115l-2.009-8.2-13.65 3.011z" class="cls-15" transform="translate(-820.164 -309.968)"/>
            <path id="패스_7693" d="M1061.07 462.81s-2.08-1.764-3.029-2.507-.014-3.8-1.144-3.453c-.541.167-1.041 2.784-1.041 2.784l-3.233-2.077s-2.359 4.747-.6 6.011c2.021 1.449 8.359 2.386 8.27 1.408-.008-.111.777-2.166.777-2.166z" class="cls-14" transform="translate(-1010.199 -423.142)"/>
            <path id="패스_7695" d="M1078.482 439.98l.046 10.713-5.059.313-.365-11.169z" class="cls-6" transform="translate(-1032.35 -409.825)"/>
            <path id="패스_7696" d="M1079.536 445.127l.173 9.173-3.3-.2-.263-9.037z" class="cls-5" transform="translate(-1034.187 -413.924)"/>
            <path id="패스_7697" d="M1078.843 453.446l-.185-9.836-4.046-.073.281 9.673zm-.821-9.2l.16 8.51-2.658-.159-.245-8.4z" class="cls-6" transform="translate(-1032.99 -412.726)"/>
            <path id="패스_7698" d="M816.077 438.862c-18.4-1.613-18.559-5.691-21.107-3.695-1.871 1.465-11.008 13.306-11.008 13.306l-11.612-5.322-3.629 5.322s12.119 11.2 15.8 11.343 10.932-10.016 10.932-10.016l.912 15.3 23.079.3-1.613-6.371 9.435 17.5 7.016-4.1s-10.895-32.929-18.205-33.567z" class="cls-9" transform="translate(-722.365 -405.742)"/>
            <path id="패스_7699" d="M1085.242 463.052a2.715 2.715 0 0 1 1.665 1.39c.83 1.36 1.283 3.479.79 3.729-2.242 1.139-3.497 1.756-2.455-5.119z" class="cls-14" transform="translate(-1044.297 -427.942)"/>
            <path id="패스_7701" d="M918.518 377.775c-.162.266 1.073.983 1.94.819 2.179-.413 2.557-2.09 2.113-1.753a5.293 5.293 0 0 1-2.265.955c-1.406.161-1.606-.323-1.788-.021z" class="cls-15" transform="translate(-843.168 -360.399)"/>
            <path id="패스_7702" d="M956.739 583.619h.034l43.917-4.536a.324.324 0 0 0-.067-.644l-43.917 4.536a.324.324 0 0 0 .033.646z" class="cls-3" transform="translate(-929.601 -518.49)"/>
            <path id="패스_7703" d="M849.273 515.69a.324.324 0 0 0 .289-.471l-3.387-6.653a.324.324 0 1 0-.578.294l3.387 6.653a.324.324 0 0 0 .289.177z" class="cls-16" transform="translate(-754.275 -463.572)"/>
            <circle id="타원_999" cx=".75" cy=".75" r=".75" class="cls-15" transform="translate(73.382 12.244)"/>
            <circle id="타원_1000" cx=".75" cy=".75" r=".75" class="cls-15" transform="translate(78.382 11.244)"/>
        </g>
        <g id="money" transform="translate(270.892 217.239)">
            <path id="사각형_8127" d="M0 0H42V131H0z" class="cls-17" transform="translate(-.062 -.133)"/>
            <path id="사각형_8273" d="M0 0H42V0.5H0z" class="cls-18" transform="translate(-.062 10.367)"/>
            <path id="사각형_8280" d="M0 0H42V0.5H0z" class="cls-18" transform="translate(-.062 54.367)"/>
            <path id="사각형_8276" d="M0 0H42V0.5H0z" class="cls-18" transform="translate(-.062 32.367)"/>
            <path id="사각형_8278" d="M0 0H42V0.5H0z" class="cls-18" transform="translate(-.062 76.367)"/>
            <path id="사각형_8274" d="M0 0H42V0.5H0z" class="cls-18" transform="translate(-.062 21.367)"/>
            <path id="사각형_8279" d="M0 0H42V0.5H0z" class="cls-18" transform="translate(-.062 65.367)"/>
            <path id="사각형_8275" d="M0 0H42V0.5H0z" class="cls-18" transform="translate(-.062 43.367)"/>
            <path id="사각형_8277" d="M0 0H42V0.5H0z" class="cls-18" transform="translate(-.062 87.367)"/>
            <path id="사각형_8281" d="M0 0H42V0.5H0z" class="cls-18" transform="translate(-.062 98.367)"/>
        </g>
        <g id="money-2" transform="translate(312.892 283.239)">
            <path id="사각형_8127-2" d="M0 0H42V37H0z" class="cls-17" transform="translate(-.062 -.133)"/>
            <path id="사각형_8273-2" d="M0 0H42V0.5H0z" class="cls-18" transform="translate(-.062 10.367)"/>
            <path id="사각형_8280-2" d="M0 0H42V0.5H0z" class="cls-18" transform="translate(-.062 54.367)"/>
            <path id="사각형_8276-2" d="M0 0H42V0.5H0z" class="cls-18" transform="translate(-.062 32.367)"/>
            <path id="사각형_8278-2" d="M0 0H42V0.5H0z" class="cls-18" transform="translate(-.062 76.367)"/>
            <path id="사각형_8274-2" d="M0 0H42V0.5H0z" class="cls-18" transform="translate(-.062 21.367)"/>
            <path id="사각형_8284" fill="#daaa38" d="M0 0H0.5V36H0z" transform="translate(-.062 -.133)"/>
        </g>
        <g id="그룹_4204" transform="translate(277.198 134.739)">
            <path id="패스_7754" d="M1482.746 1335.568c2.624 9.552 7.138 12.558 9.5 11.68a2.423 2.423 0 0 0 1.48-1.992c.729-4.2-2.36-9.893-4.653-12.951-1.073-1.423-7.009.779-6.327 3.263z" class="cls-20" transform="translate(-1445.865 -1201.141)"/>
            <path id="패스_7755" d="M1482.66 1341.24c2.629 9.551 7.138 12.559 9.5 11.68-7.352-4.094-8.54-13.829-8.54-13.829a3.465 3.465 0 0 0-.859.983 1.379 1.379 0 0 0-.101 1.166z" class="cls-21" transform="translate(-1445.779 -1206.813)"/>
            <path id="패스_7756" d="M1485.479 1290.382s.551 9.42 1.1 11.123 2.713 3.874 3.537 4.009c1.487.243 2.53-.874 1.108-5.111l1.518-10.372z" class="cls-22" transform="translate(-1448.05 -1168.349)"/>
            <path id="패스_7757" d="M1489.242 1304.625a2.552 2.552 0 0 1-.419-.036c-1.011-.165-3.222-2.461-3.793-4.228-.558-1.723-1.095-10.818-1.118-11.2l-.019-.327 7.985-.386-1.563 10.685c.819 2.47.881 4.138.185 4.957a1.58 1.58 0 0 1-1.258.535zm-4.663-15.179c.1 1.673.592 9.247 1.067 10.716.53 1.638 2.634 3.683 3.281 3.789a1.1 1.1 0 0 0 1.079-.283c.307-.362.673-1.415-.33-4.405l-.024-.073 1.472-10.059z" class="cls-1" transform="translate(-1446.808 -1167.105)"/>
            <path id="패스_7758" d="M1618.047 1290.235c7.105 6.9 12.52 7.206 14.106 5.253a2.422 2.422 0 0 0 .266-2.467c-1.5-3.994-7.05-7.331-10.577-8.8-1.642-.689-5.642 4.219-3.795 6.014z" class="cls-20" transform="translate(-1551.614 -1163.74)"/>
            <path id="패스_7759" d="M1617.9 1303.836c7.109 6.9 12.52 7.206 14.106 5.253-8.413.2-14.372-7.59-14.372-7.59a3.472 3.472 0 0 0-.242 1.283 1.378 1.378 0 0 0 .508 1.054z" class="cls-21" transform="translate(-1551.469 -1177.34)"/>
            <path id="패스_7760" d="M1659.452 1314.94a.324.324 0 0 1-.266-.509l2.228-3.2a.324.324 0 0 1 .532.37l-2.228 3.2a.324.324 0 0 1-.266.139z" class="cls-16" transform="translate(-1584.196 -1184.861)"/>
            <path id="패스_7761" d="M1649.98 1306.873a.324.324 0 0 1-.266-.509l2.228-3.2a.324.324 0 1 1 .532.37l-2.228 3.2a.325.325 0 0 1-.266.139z" class="cls-16" transform="translate(-1576.769 -1178.536)"/>
            <path id="패스_7762" d="M1592.869 1247.1s5.8 7.2 7.141 8.385 4.059 2.05 4.838 1.747c1.4-.544 1.429-1.478-1.944-4.409l-3.95-9.709z" class="cls-22" transform="translate(-1532.247 -1131.565)"/>
            <path id="패스_7763" d="M1602.69 1255.849a8.688 8.688 0 0 1-4.627-1.889c-1.344-1.193-6.94-8.13-7.178-8.425l-.224-.278 6.713-4.4 4.07 10c2.187 1.907 3.021 3.029 2.875 3.865a1.713 1.713 0 0 1-1.628 1.122zm-11.076-10.442c1.08 1.334 5.724 7.042 6.879 8.069 1.341 1.191 3.935 1.908 4.506 1.688s.658-.417.681-.547c.1-.549-.82-1.664-2.72-3.316l-.058-.05-.029-.072-3.8-9.344z" class="cls-1" transform="translate(-1530.516 -1129.797)"/>
            <path id="패스_7764" d="M1410.5 1048.917s30.855 5.156 32.786 9.055 18.207 33.749 18.207 33.749l-18.207 11.85-9.8-34.5z" class="cls-23" transform="translate(-1389.263 -979.309)"/>
            <path id="패스_7765" d="M1313.694 1047.517c.967 3.387-7.5 13.306 7.5 15.241s21.531 1.693 21.531 1.693l2.88 40.4h25.183s-13.09-45.107-14.273-47.739c-.52-1.156-5.061-3.147-9.992-5.017-6.3-2.389-13.233-4.579-13.233-4.579z" class="cls-23" transform="translate(-1312.176 -978.211)"/>
            <path id="패스_7766" d="M1381.759 768.7s5.814-5.248 1.163-11.694c-5.679-7.872-25.593.818-13.637 14.752 6.325 7.375 12.474-3.058 12.474-3.058z" class="cls-15" transform="translate(-1354.007 -748.109)"/>
            <path id="패스_7767" d="M1348.248 828.954s-2.691 7.383-2.347 8.321 1.718 4.489 1.718 4.489l-8.846 12.537-11.322-4.406 3.309-9.89s8.308-5.87 8.879-6.668c.79-1.1 1.816-5.045 1.816-5.045z" class="cls-22" transform="translate(-1324.153 -806.333)"/>
            <path id="패스_7768" d="M1337.421 853.519l-11.846-4.61 3.441-10.284.087-.061c3.195-2.257 8.41-6.043 8.8-6.592a25.172 25.172 0 0 0 1.766-4.938.324.324 0 1 1 .627.163c-.042.163-1.05 4.011-1.866 5.152-.57.8-7.687 5.847-8.869 6.683l-3.178 9.5 10.8 4.2 8.6-12.188c-.273-.707-1.359-3.518-1.658-4.333-.357-.973 1.706-6.785 2.347-8.543a.324.324 0 1 1 .609.222c-1.3 3.556-2.528 7.557-2.347 8.1.339.923 1.7 4.448 1.716 4.484l.063.162z" class="cls-1" transform="translate(-1322.681 -805.157)"/>
            <path id="패스_7769" fill="#f0ae88" d="M1434.25 941.548s8.49 2.393 9.475 2.047 1.068-3.115 1.9-2.515c.4.286.08 2.574.08 2.574l4.032.406s-.292 3.505-2.767 4.258c-2.061.627-18.882-2.107-18.893-2.15s-12.03-2.612-.449-8.79c1.239-.662 6.622 4.17 6.622 4.17z" transform="translate(-1398.743 -891.811)"/>
            <path id="패스_7771" d="M1529.268 942.033l-3.016 8.779 4.065 1.663 3.4-9.064z" class="cls-6" transform="translate(-1480.018 -895.509)"/>
            <path id="패스_7772" d="M1532.071 947.025l-2.692 7.48 2.766.757 2.727-7.344z" class="cls-5" transform="translate(-1482.469 -899.423)"/>
            <path id="패스_7773" d="M1530.808 954.187l-3.39-.927 2.916-8.1 3.424 1.091zm-2.543-1.367l2.142.586 2.506-6.747-2.181-.695z" class="cls-6" transform="translate(-1480.931 -897.958)"/>
            <path id="패스_7774" d="M1326.973 851.685c1.583.314 4.7 6.989 7.829 7.5.947.155.669-1.729 1.393-2.5 3.254-3.469 4.713 6.33 6.863 8.007 0 0 4.052 1.731 4.125 3.79.052 1.494-1.192 2.712-2.289 3.728-4.476 4.146-5.939 3.207-5.939 3.207-3.344 2.279.787 16.475-1.327 19.366-.269.367-22.337 1.366-22.378.914-2.522-27.679 4.501-45.446 11.723-44.012z" class="cls-25" transform="translate(-1314.176 -824.61)"/>
            <path id="패스_7775" d="M1401.119 970.906s14.779-1.669 16-1.225a4.274 4.274 0 0 0 4.869-3.034c.755-2.661-.584-3.016-.584-3.016s-.653 1.493-.827 1.749a7.021 7.021 0 0 1-1.955 1.036s.373-2.543-.318-2.981-1.683 2.963-1.683 2.963l-15.5-1.781-7.782-2.742-8.376 6.774z" class="cls-22" transform="translate(-1369.241 -911.065)"/>
            <path id="패스_7777" d="M1338.889 879.882c4.455-1.665 2.551 3.064 10.663 9.933 7.435 6.3 8.306 5.7-1.532 14.689-4.076 3.723-6.758-3.544-11.076-9.217-2.452-3.22-2.319-13.811 1.945-15.405z" class="cls-25" transform="translate(-1330.335 -846.518)"/>
            <path id="패스_7778" d="M1350.488 921.093a2.8 2.8 0 0 1-.347-.022c-2.114-.271-3.9-3.019-5.962-6.2-.892-1.375-1.815-2.8-2.838-4.141a.324.324 0 1 1 .515-.392c1.037 1.363 1.967 2.8 2.866 4.181 1.977 3.046 3.684 5.677 5.5 5.91a2.794 2.794 0 0 0 2.234-.917c4.978-4.546 7.176-6.625 7.14-8.256-.029-1.3-1.478-2.506-4.108-4.7-.462-.385-.96-.8-1.491-1.249a28.044 28.044 0 0 1-5.271-5.812.324.324 0 0 1 .538-.361 27.378 27.378 0 0 0 5.152 5.678c.529.448 1.025.862 1.487 1.246 2.775 2.313 4.3 3.587 4.341 5.18.044 1.918-2.09 3.944-7.351 8.749a3.581 3.581 0 0 1-2.405 1.106z" class="cls-18" transform="translate(-1334.991 -861.764)"/>
            <path id="패스_7779" d="M1379.888 786.732c-.789-.989-3.085-5.343-2.708-6.672s1.826-.692 2.217-.337c.26.236 2.2-7.294 2.2-7.294l10.392 2.516s-.495 7.214-2.029 10.725-3.515 3.93-6.2 3.193z" class="cls-22" transform="translate(-1363.108 -762.535)"/>
            <path id="패스_7780" d="M1384.554 788.071a7.819 7.819 0 0 1-2.049-.311.324.324 0 0 1 .171-.625c2.484.681 4.325.415 5.822-3.01 1.327-3.038 1.873-9 1.982-10.346l-9.814-2.376c-1.831 7.071-2.116 7.156-2.324 7.219l-.175.052-.155-.127a1.6 1.6 0 0 0-1.231-.356.691.691 0 0 0-.456.541c-.314 1.109 1.8 5.32 2.649 6.382a.324.324 0 1 1-.506.4c-.676-.849-3.205-5.414-2.766-6.963a1.308 1.308 0 0 1 .9-.987 2.114 2.114 0 0 1 1.538.279c.363-.917 1.244-4.071 1.978-6.915l.08-.309 10.968 2.655-.019.273c-.02.3-.517 7.31-2.056 10.833-1.102 2.528-2.485 3.691-4.537 3.691z" class="cls-22" transform="translate(-1361.943 -761.119)"/>
            <path id="패스_7784" d="M1400.561 776.093s.322-4.172-3.241-5.28c-1.879-.584-4.285-.907-5.66-.3-1.325.588-3.685 4.261-3.685 4.261l1.055-8.024 12.1 2.119z" class="cls-15" transform="translate(-1371.797 -758.085)"/>
            <path id="패스_7785" d="M1399.7 733.043s3.409-1.554 1.891-4.744-12.888-2.027-6.574 5.1 4.683-.356 4.683-.356z" class="cls-15" transform="translate(-1375.643 -726.617)"/>
            <path id="패스_7786" d="M1414.323 828.482c.119.231-.95.755-1.661.566-1.787-.472-2-1.889-1.654-1.582a4.411 4.411 0 0 0 1.828.928c1.156.217 1.352-.174 1.487.088z" class="cls-15" transform="translate(-1389.553 -805.652)"/>
            <path id="패스_7787" d="M1419.757 809.169a6.411 6.411 0 0 1-.905-.077.324.324 0 0 1 .093-.641 5.115 5.115 0 0 0 1.087.056c-.016-.047-.037-.1-.055-.151a6.311 6.311 0 0 1-.427-2.045c-.054-.939.591-1.011.647-.037a5.666 5.666 0 0 0 .386 1.854c.106.28.189.5.065.733-.048.095-.165.308-.891.308z" class="cls-15" transform="translate(-1395.595 -787.575)"/>
            <path id="패스_7788" d="M1409.588 899.653a.308.308 0 0 1-.323-.289 32.913 32.913 0 0 0-1.17-9.006.286.286 0 0 1 .224-.355.331.331 0 0 1 .4.2 33.447 33.447 0 0 1 1.193 9.164.308.308 0 0 1-.324.286z" class="cls-18" transform="translate(-1387.369 -854.707)"/>
            <path id="패스_7789" d="M1473.668 1111.256a.324.324 0 0 1-.309-.227l-12.66-40.295-14.108-4.625a.324.324 0 1 1 .2-.615l14.424 4.729.05.159 12.71 40.453a.324.324 0 0 1-.212.406.315.315 0 0 1-.095.015z" class="cls-18" transform="translate(-1417.386 -992.293)"/>
            <path id="패스_7790" d="M1389.576 758.8c.042-.052.083-.106.124-.162.991-1.372 1.328-1.54 1.435-1.538-.378-.163-3-1.2-4.246 1.035a2.934 2.934 0 0 0-1.536-1.313c-1.572-.627-1.817-.912-1.842-1.016-.056.34-.318 2.356 1.046 3.392-3.521 1.975-4.771 6.688-4.771 6.688a1.4 1.4 0 0 1 .468.138c.372.089.433.177.433.177s1.416-4.218 4.213-5.2c4.117-1.452 6.974.223 8.11 1.746s-.445 7.035-.445 7.035c2.978-5.312.63-9.888-2.989-10.982z" class="cls-20" transform="translate(-1364.507 -749.5)"/>
            <circle id="타원_1006" cx=".75" cy=".75" r=".75" class="cls-15" transform="translate(20.633 16.368)"/>
            <circle id="타원_1007" cx=".75" cy=".75" r=".75" class="cls-15" transform="translate(25.633 17.368)"/>
        </g>
        <path id="패스_7740" d="M1509.326 1376a.324.324 0 0 1-.136-.619l3.543-1.629a.324.324 0 1 1 .271.589l-3.543 1.629a.32.32 0 0 1-.135.03z" class="cls-16" transform="translate(-1189.295 -1099.224)"/>
        <path id="패스_7741" d="M1505.252 1364.24a.324.324 0 0 1-.136-.618l3.543-1.629a.324.324 0 0 1 .271.589l-3.543 1.629a.324.324 0 0 1-.135.029z" class="cls-16" transform="translate(-1186.101 -1090.007)"/>
        <g id="그룹_4311" opacity="0.2">
            <path id="패스_8114" d="M-5.616-8.628a.5.5 0 0 1 .312.1.6.6 0 0 1 .192.342l.8 3.2H-2.5l.816-3.336a.374.374 0 0 1 .18-.27.445.445 0 0 1 .3-.03.473.473 0 0 1 .258.168.353.353 0 0 1 .03.324l-.8 3.144h1.14A.2.2 0 0 1-.39-4.9a.393.393 0 0 1 .054.216.369.369 0 0 1-.054.2.2.2 0 0 1-.186.084h-1.272L-2.856-.444a.568.568 0 0 1-.2.342.529.529 0 0 1-.312.1.5.5 0 0 1-.306-.1.583.583 0 0 1-.2-.342l-.986-3.948H-6.4l-1 3.948a.568.568 0 0 1-.2.344.529.529 0 0 1-.312.1.529.529 0 0 1-.308-.1.568.568 0 0 1-.2-.342l-1-3.948h-1.26a.2.2 0 0 1-.186-.084.369.369 0 0 1-.054-.2.393.393 0 0 1 .054-.216.2.2 0 0 1 .186-.084h1.1l-.792-3.144a.377.377 0 0 1 .042-.324.473.473 0 0 1 .258-.168.445.445 0 0 1 .3.03.374.374 0 0 1 .18.27l.8 3.336h1.836l.828-3.2a.6.6 0 0 1 .192-.342.5.5 0 0 1 .32-.112zM-5-4.98l-.612-2.472-.64 2.472zm-2.088.588H-8.64l.756 3.108zm4.464 0h-1.54l.78 3.1z" transform="translate(354.93 180.106)"/>
            <path id="패스_8115" d="M-5.616 1.628a.5.5 0 0 0 .312-.1.6.6 0 0 0 .192-.342l.8-3.2H-2.5l.816 3.336a.374.374 0 0 0 .18.27.445.445 0 0 0 .3.03.473.473 0 0 0 .258-.168.353.353 0 0 0 .03-.324l-.8-3.144h1.14A.2.2 0 0 0-.39-2.1a.393.393 0 0 0 .054-.22.369.369 0 0 0-.054-.2.2.2 0 0 0-.186-.084h-1.272l-1.008-3.952a.568.568 0 0 0-.2-.342A.529.529 0 0 0-3.372-7a.5.5 0 0 0-.306.1.583.583 0 0 0-.2.342l-.982 3.95H-6.4l-1-3.948a.568.568 0 0 0-.2-.344.529.529 0 0 0-.308-.1.529.529 0 0 0-.312.1.568.568 0 0 0-.2.342l-1 3.948h-1.26a.2.2 0 0 0-.186.084.369.369 0 0 0-.054.2.393.393 0 0 0 .054.216.2.2 0 0 0 .186.084h1.1l-.792 3.144a.377.377 0 0 0 .042.324.473.473 0 0 0 .258.168.445.445 0 0 0 .3-.03.374.374 0 0 0 .18-.27l.8-3.336h1.836l.828 3.2a.6.6 0 0 0 .192.342.5.5 0 0 0 .32.112zM-5-2.02L-5.616.452l-.636-2.472zm-2.088-.588H-8.64l.756-3.108zm4.464 0h-1.54l.78-3.1z" transform="rotate(180 35.367 130.053)"/>
            <g id="그룹_4314" transform="rotate(-134.03 209.43 1.391)">
                <path id="패스_7965" d="M11.064 25.562s3.967-5.346 9.275-7.56S32.3 16.7 32.3 16.7V0S21.189.454 13.114 4.631 0 16.7 0 16.7z" class="cls-27"/>
                <path id="패스_7966" d="M10.714 19.916a25.366 25.366 0 0 1 7.15-4.964 22.23 22.23 0 0 1 8.365-1.448l2.2-2.092.021-8.692-2.54-2.3A40.268 40.268 0 0 0 12.5 3.948a39.676 39.676 0 0 0-10.95 8.667l.395 3.668L7.1 20.607z" class="cls-27" transform="translate(2.111 1.589)"/>
                <g id="타원_1001" class="cls-28" transform="translate(12.958 7.739)">
                    <ellipse cx="4.129" cy="3.716" class="cls-31" rx="4.129" ry="3.716"/>
                    <ellipse cx="4.129" cy="3.716" class="cls-1" rx="3.879" ry="3.466"/>
                </g>
            </g>
            <g id="그룹_4342" transform="scale(-1) rotate(-23 -388.342 263.228)">
                <path id="패스_7965-2" d="M11.064 25.562s3.967-5.346 9.275-7.56S32.3 16.7 32.3 16.7V0S21.189.454 13.114 4.631 0 16.7 0 16.7z" class="cls-27"/>
                <path id="패스_7966-2" d="M10.714 19.916a25.366 25.366 0 0 1 7.15-4.964 22.23 22.23 0 0 1 8.365-1.448l2.2-2.092.021-8.692-2.54-2.3A40.268 40.268 0 0 0 12.5 3.948a39.676 39.676 0 0 0-10.95 8.667l.395 3.668L7.1 20.607z" class="cls-27" transform="translate(2.111 1.589)"/>
                <g id="타원_1001-2" class="cls-28" transform="translate(12.958 7.739)">
                    <ellipse cx="4.129" cy="3.716" class="cls-31" rx="4.129" ry="3.716"/>
                    <ellipse cx="4.129" cy="3.716" class="cls-1" rx="3.879" ry="3.466"/>
                </g>
            </g>
            <g id="그룹_4343" transform="rotate(-117 94.409 89.076)">
                <path id="패스_7965-3" d="M11.064 25.562s3.967-5.346 9.275-7.56S32.3 16.7 32.3 16.7V0S21.189.454 13.114 4.631 0 16.7 0 16.7z" class="cls-27"/>
                <path id="패스_7966-3" d="M10.714 19.916a25.366 25.366 0 0 1 7.15-4.964 22.23 22.23 0 0 1 8.365-1.448l2.2-2.092.021-8.692-2.54-2.3A40.268 40.268 0 0 0 12.5 3.948a39.676 39.676 0 0 0-10.95 8.667l.395 3.668L7.1 20.607z" class="cls-27" transform="translate(2.111 1.589)"/>
                <g id="타원_1001-3" class="cls-28" transform="translate(12.958 7.739)">
                    <ellipse cx="4.129" cy="3.716" class="cls-31" rx="4.129" ry="3.716"/>
                    <ellipse cx="4.129" cy="3.716" class="cls-1" rx="3.879" ry="3.466"/>
                </g>
            </g>
            <g id="타원_1002" class="cls-28" transform="translate(335.83 183.106)">
                <circle cx="2" cy="2" r="2" class="cls-31"/>
                <circle cx="2" cy="2" r="1.75" class="cls-1"/>
            </g>
            <g id="타원_1005" class="cls-28" transform="translate(83.83 272.106)">
                <circle cx="2" cy="2" r="2" class="cls-31"/>
                <circle cx="2" cy="2" r="1.75" class="cls-1"/>
            </g>
            <g id="타원_1003" class="cls-28" transform="translate(339.83 166.106)">
                <circle cx="9.5" cy="9.5" r="9.5" class="cls-31"/>
                <circle cx="9.5" cy="9.5" r="9.25" class="cls-1"/>
            </g>
            <g id="타원_1004" class="cls-28" transform="translate(66.83 253.106)">
                <circle cx="9.5" cy="9.5" r="9.5" class="cls-31"/>
                <circle cx="9.5" cy="9.5" r="9.25" class="cls-1"/>
            </g>
            <path id="패스_7974" d="M-8416.765 12301.151l-1.317 11.09" class="cls-29" transform="translate(8695.83 -12205.894)"/>
            <path id="패스_7977" d="M-8420.233 12292.049l3.468 20.192" class="cls-29" transform="translate(8469.316 -12013.894)"/>
            <path id="패스_7975" d="M-8400.279 12295.522l-19.089 15.343" class="cls-29" transform="translate(8699.83 -12197.894)"/>
            <path id="패스_7976" d="M-8409.255 12303.821l8.975 7.044" class="cls-29" transform="translate(8450.117 -12008.894)"/>
        </g>
        <path id="패스_8116" fill="#1c8261" d="M-30.657-7.7V0h-1.43v-6.5h-1.628v-1.2zm4.741 7.81a2.981 2.981 0 0 1-1.65-.468 3.157 3.157 0 0 1-1.144-1.364 5 5 0 0 1-.418-2.129 5 5 0 0 1 .418-2.128 3.157 3.157 0 0 1 1.144-1.364 2.981 2.981 0 0 1 1.65-.468 3.008 3.008 0 0 1 1.655.468 3.143 3.143 0 0 1 1.15 1.364 5 5 0 0 1 .418 2.128 5 5 0 0 1-.418 2.129 3.143 3.143 0 0 1-1.15 1.364 3.008 3.008 0 0 1-1.655.468zm0-1.243a1.51 1.51 0 0 0 1.3-.682 3.548 3.548 0 0 0 .479-2.035 3.548 3.548 0 0 0-.479-2.035 1.51 1.51 0 0 0-1.3-.682 1.5 1.5 0 0 0-1.293.682 3.548 3.548 0 0 0-.478 2.035 3.548 3.548 0 0 0 .478 2.035 1.5 1.5 0 0 0 1.293.682zm7.4 1.243a2.981 2.981 0 0 1-1.65-.468 3.157 3.157 0 0 1-1.144-1.364 5 5 0 0 1-.418-2.129 5 5 0 0 1 .418-2.128 3.157 3.157 0 0 1 1.144-1.364 2.981 2.981 0 0 1 1.65-.468 3.008 3.008 0 0 1 1.655.468 3.143 3.143 0 0 1 1.15 1.364 5 5 0 0 1 .421 2.129 5 5 0 0 1-.418 2.129 3.143 3.143 0 0 1-1.15 1.364 3.008 3.008 0 0 1-1.655.467zm0-1.243a1.51 1.51 0 0 0 1.3-.682 3.548 3.548 0 0 0 .479-2.035 3.548 3.548 0 0 0-.479-2.035 1.51 1.51 0 0 0-1.3-.682 1.5 1.5 0 0 0-1.293.682 3.548 3.548 0 0 0-.478 2.035 3.548 3.548 0 0 0 .478 2.035 1.5 1.5 0 0 0 1.296.682zM-11.11.11a2.981 2.981 0 0 1-1.65-.468 3.157 3.157 0 0 1-1.14-1.364 5 5 0 0 1-.418-2.129 5 5 0 0 1 .418-2.127 3.157 3.157 0 0 1 1.14-1.365 2.981 2.981 0 0 1 1.65-.468 3.008 3.008 0 0 1 1.656.468 3.143 3.143 0 0 1 1.149 1.365 5 5 0 0 1 .418 2.128 5 5 0 0 1-.418 2.129 3.143 3.143 0 0 1-1.15 1.363A3.008 3.008 0 0 1-11.11.11zm0-1.243a1.51 1.51 0 0 0 1.3-.682 3.548 3.548 0 0 0 .482-2.035 3.548 3.548 0 0 0-.479-2.035 1.51 1.51 0 0 0-1.3-.682 1.5 1.5 0 0 0-1.293.682 3.548 3.548 0 0 0-.478 2.035 3.548 3.548 0 0 0 .478 2.035 1.5 1.5 0 0 0 1.29.682zM-3.707.11a2.981 2.981 0 0 1-1.65-.468A3.157 3.157 0 0 1-6.5-1.722a5 5 0 0 1-.419-2.128A5 5 0 0 1-6.5-5.978a3.157 3.157 0 0 1 1.143-1.365 2.981 2.981 0 0 1 1.65-.468 3.008 3.008 0 0 1 1.656.468A3.143 3.143 0 0 1-.9-5.978 5 5 0 0 1-.484-3.85 5 5 0 0 1-.9-1.722 3.143 3.143 0 0 1-2.052-.358 3.008 3.008 0 0 1-3.707.11zm0-1.243a1.51 1.51 0 0 0 1.3-.682 3.548 3.548 0 0 0 .482-2.035A3.548 3.548 0 0 0-2.4-5.885a1.51 1.51 0 0 0-1.3-.682 1.5 1.5 0 0 0-1.3.682 3.548 3.548 0 0 0-.478 2.035A3.548 3.548 0 0 0-5-1.815a1.5 1.5 0 0 0 1.293.682z" transform="rotate(-90 226.468 -.862)"/>
    </g>
</svg>
