<svg xmlns="http://www.w3.org/2000/svg" width="380" height="245" viewBox="0 0 380 245">
    <defs>
        <clipPath id="clip-path">
            <path id="사각형_8335" d="M10 0h360a10 10 0 0 1 10 10v235H0V10A10 10 0 0 1 10 0z" class="cls-1" transform="translate(0 7)"/>
        </clipPath>
        <clipPath id="clip-path-2">
            <path id="사각형_8249" fill="#37c7b0" stroke="#707070" d="M0 0H380V112H0z" transform="translate(0 141)"/>
        </clipPath>
        <clipPath id="clip-path-3">
            <path id="사각형_8288" fill="#fff" stroke="#707070" d="M0 0H380V148H0z" transform="translate(0 20)"/>
        </clipPath>
        <style>
            .cls-1,.cls-11,.cls-12,.cls-16,.cls-19,.cls-20,.cls-31,.cls-43,.cls-54,.cls-9{fill:none}.cls-17{fill:#fff}.cls-7{fill:#1ea648}.cls-54{opacity:.2}.cls-11,.cls-12,.cls-16,.cls-19,.cls-54,.cls-9{stroke:#000}.cls-16,.cls-19,.cls-20,.cls-26,.cls-31,.cls-38,.cls-43,.cls-9{stroke-miterlimit:10}.cls-11,.cls-12,.cls-9{stroke-width:.5px}.cls-12{stroke-linecap:round}.cls-13{fill:#f8d3be}.cls-14{fill:#9e3234}.cls-15{fill:#e2474b}.cls-16,.cls-20{stroke-width:.467px}.cls-16{opacity:.3}.cls-19,.cls-26,.cls-31,.cls-38,.cls-54{stroke-width:.25px}.cls-19{opacity:.1}.cls-20{stroke:#7b170c}.cls-22{fill:#df722e}.cls-23{fill:#2d2d30}.cls-25{fill:#0c0c0c}.cls-26{fill:snow;stroke:#0c0c0c}.cls-27{fill:#e06d57}.cls-28{fill:#eab1a5}.cls-31{stroke:#fff}.cls-33{fill:#3f7fe9}.cls-34{fill:#235dbc}.cls-38,.cls-42{fill:#020a23}.cls-38{stroke:#020001}.cls-43{stroke-width:1.5px;stroke:#e2474b}.cls-46{fill:#42a647}.cls-48{fill:#0e2549}.cls-49{fill:#41a647}
        </style>
    </defs>
    <g id="_2" clip-path="url(#clip-path)" transform="translate(0 -7)">
        <path id="사각형_8250" d="M10 0h360a10 10 0 0 1 10 10v188H0V10A10 10 0 0 1 10 0z" class="cls-1" transform="translate(0 7)"/>
        <path id="사각형_8289" fill="#ffd424" d="M10 0h360a10 10 0 0 1 10 10v235H0V10A10 10 0 0 1 10 0z" transform="translate(0 7)"/>
        <g id="마스크_그룹_1" clip-path="url(#clip-path-2)" transform="translate(0 -1)">
            <path id="패스_7932" d="M647.158 451.973s-29.53-5.269-29.841-21.882 37.324-1.3 37.324-1.3-24.4-21.061-11.664-31.818c13.865-11.714 24.21 9.108 26.41 25.793 0 0-1.265-20.5 8.364-22.6 15.627-3.411 16.727 17.5 11.225 43.467s-32.354 9.419-41.818 8.34z" class="cls-7" transform="rotate(-6.02 -1381.542 3198.44)"/>
            <path id="패스_7934" d="M-19.56 430.406s-3.939-54.721 5.942-62.647c11.445-9.181 12.765 9.385 9.9 40.638 0 0 4.182-23.46 14.306-21.7S3.77 415.88 3.77 415.88s26.884-39.6 42-30.592c19.94 11.884-28.57 36.534-28.57 36.534s33.106-12.545 39.147-3.081-5.224 17.387-16.683 18.487-58.795 3.724-59.224-6.822z" class="cls-7" transform="rotate(-2 -5108.724 -118.343)"/>
        </g>
        <g id="그룹_4315" opacity="0.2">
            <path id="선_39" d="M0 0L139.916 0" class="cls-9" transform="translate(68.584 200.776)"/>
            <path id="선_41" d="M0 0L116.041 0" class="cls-9" transform="translate(189.459 242.369)"/>
            <g id="마스크_그룹_3" clip-path="url(#clip-path-3)">
                <path id="패스_7978" d="M667.047 79.789a6.483 6.483 0 0 0-5.712-8.9 10.123 10.123 0 0 0-19.665-.24 9.831 9.831 0 0 0-11.888 4.851 3.68 3.68 0 0 0-4.381 4.289z" class="cls-11" transform="translate(-598.5 33.896)"/>
                <path id="패스_7979" d="M478.985 102.677a7.872 7.872 0 0 0 .446-2.619c0-3.765-2.6-6.829-5.855-7.007-.981-4.854-4.787-8.476-9.337-8.476-4.469 0-8.223 3.492-9.284 8.216a8.255 8.255 0 0 0-2.963-.553 9.261 9.261 0 0 0-8.294 5.8 3.073 3.073 0 0 0-.717-.085 3.765 3.765 0 0 0-3.492 3.988 4.57 4.57 0 0 0 .062.735z" class="cls-11" transform="translate(-351.89 -45.054)"/>
                <path id="패스_8051" d="M79.322 57.225l5.321 9.968" class="cls-12" transform="translate(-5 73)"/>
                <path id="패스_8054" d="M84.643 57.225l-5.321 9.968" class="cls-12" transform="translate(192.61)"/>
                <path id="패스_8052" d="M64.933 62.4l18.021 8.666" class="cls-12" transform="translate(-6 71)"/>
                <path id="패스_8053" d="M87.743 60.016l-22.81 11.053" class="cls-12" transform="translate(207.689 1)"/>
                <path id="패스_8055" d="M34 120.245a6.068 6.068 0 0 1 5.347-8.334 9.476 9.476 0 0 1 18.409-.224 9.2 9.2 0 0 1 11.128 4.543 3.446 3.446 0 0 1 4.1 4.015z" class="cls-11" transform="translate(230.441 -79.259)"/>
                <path id="패스_8056" d="M663.53 202.353h-36.394c0-.1-.008-.195-.008-.294a8.186 8.186 0 0 1 6.02-7.893 12.307 12.307 0 1 1 24.337 2.764 6.427 6.427 0 0 1 6.045 5.423z" class="cls-11" transform="translate(-315.491 -60.433)"/>
            </g>
        </g>
        <g id="그룹_4319" transform="translate(-40 24.56)">
            <path id="패스_7522" d="M629.214 364.283l-4.692-9.946-10.187 6.4 7.345 9.184s7.937-4.931 7.534-5.638z" class="cls-13" transform="translate(-303.072 -174.806)"/>
            <path id="패스_8050" d="M641.132 380.8l-10.839-10.065c-.939-.9-1.224-1.086-1.555-.913-2.636 1.375-5.658 4.084-8.206 6.216-2.051 1.717-1.926 1.912-1.6 2.6.625 1.342 3.081 5.276 3.081 5.276s-.919 2.927-1.926 6.206c-2.056 1.355-6.787 4.158-7.225 4.521-2.679 4.115 5.151 4.36 7.568 4.3 2.365-.011 4.508-.051 6.454-.112 8.206-7.279 13.79-13.381 14.938-14.543 1.339-1.364-.69-3.486-.69-3.486z" class="cls-14" transform="translate(-301.824 -181.415)"/>
            <path id="패스_7523" d="M641.14 381.074l-10.847-10.342c-.939-.9-1.224-1.086-1.555-.913-2.636 1.375-5.658 4.084-8.206 6.216-2.051 1.717-1.926 1.912-1.6 2.6.625 1.342 3.081 5.276 3.081 5.276s-.919 2.927-1.926 6.206c-2.056 1.355-3.776 2.514-4.214 2.877-8.246 6.837 3.937 5.942 4.557 5.939 2.365-.011 4.508-.051 6.454-.112 8.206-7.279 13.79-13.381 14.938-14.543 1.339-1.356-.682-3.204-.682-3.204z" class="cls-15" transform="translate(-302.42 -182.415)"/>
            <path id="선_7" d="M4.843 0L0 0.231" class="cls-16" transform="translate(318.711 203.17)"/>
            <path id="선_8" d="M5.89 0L0 0.038" class="cls-16" transform="translate(316.922 207.793)"/>
            <path id="패스_7524" d="M635.687 382.913a3.935 3.935 0 1 0 4.722-2.946 3.935 3.935 0 0 0-4.722 2.946z" class="cls-17" transform="translate(-313.555 -187.4)"/>
            <path id="패스_7525" fill="#5a3be0" d="M587.08 295.907l12.544-5.86s-8.6-27.744-10.1-44.9c-1.474-16.905-3.865-31.695-3.865-31.695l-29.448 3.468s9.798 52.485 30.869 78.987z" transform="translate(-274.398 -105.304)"/>
            <path id="선_9" d="M0 6.645L14.041 0" class="cls-19" transform="translate(308.934 178.809)"/>
            <path id="패스_7526" d="M512.778 377.278l6-9.373-9.766-5.451-4.728 10.767s8.055 4.743 8.494 4.057z" class="cls-13" transform="translate(-248.779 -178.811)"/>
            <path id="패스_8049" d="M489.278 388.241l-5.336 13.6s-1.2 2.874-2.964 2.132a147 147 0 0 1-21.405-9.746c-3.071-1.7-7.4-4.051-4.546-6.841 1.6-.32 18.933-1.942 18.933-1.942s2.741-3.741 3.754-4.82c.523-.557.658-.745 3.014.521 2.927 1.574 6.564 3.374 8.82 5.31.283.245.213.581-.27 1.786z" class="cls-14" transform="translate(-224.523 -186.564)"/>
            <path id="패스_7527" d="M489.278 388.241l-5.578 13.913s-.965 2.563-2.727 1.821a147 147 0 0 1-21.405-9.746c-.547-.292-11.694-5.288-1.191-7.391 1.6-.32 15.578-1.392 15.578-1.392s2.741-3.741 3.754-4.82c.523-.557.658-.745 3.014.521 2.927 1.574 6.564 3.374 8.82 5.31.288.243.218.579-.265 1.784z" class="cls-15" transform="translate(-223.92 -187.564)"/>
            <path id="선_10" d="M2.014 4.411L0 0" class="cls-20" transform="translate(246.227 198.463)"/>
            <path id="선_11" d="M2.223 5.454L0 0" class="cls-20" transform="translate(241.449 198.448)"/>
            <path id="패스_7528" d="M503.088 390.785a3.935 3.935 0 1 0 4.489 3.289 3.935 3.935 0 0 0-4.489-3.289z" class="cls-17" transform="translate(-246.543 -192.764)"/>
            <path id="패스_7529" fill="#5e3eea" d="M507.519 287.727l12.493 5.754 44.017-84.165-31.344-5.028z" transform="translate(-250.375 -100.782)"/>
            <path id="패스_7530" d="M509.263 357.56l13.723 5.85z" class="cls-19" transform="translate(-250.375 -176.396)"/>
            <rect id="사각형_8101" width="40.276" height="12.187" class="cls-22" rx="3.417" transform="translate(275.404 101.906)"/>
            <path id="패스_7532" d="M578.433 126.738s11.439 4.486 14.94 22.806c2.532 13.248 0 16.774 0 16.774l-33.982-1.469s-.519-24.133 10.129-36.967z" class="cls-22" transform="translate(-275.963 -62.524)"/>
            <path id="패스_7533" d="M593.636 108.546a2.819 2.819 0 0 0 1.465-.488c.443-.429-.1-3.315-.421-3.209s-1.021 3.593-1.044 3.697z" class="cls-23" transform="translate(-292.857 -51.724)"/>
            <path id="패스_7534" d="M581.514 99.459a4.794 4.794 0 0 0 1.257-3.253l-.026-5.428a4.834 4.834 0 0 0-4.844-4.8l-3.987.02a4.833 4.833 0 0 0-4.8 4.843l.027 5.428a4.833 4.833 0 0 0 4.843 4.8l1.529-.008.015 3.017a2.573 2.573 0 0 0 2.578 2.553h.9a2.573 2.573 0 0 0 2.553-2.578l-.021-4.235a2.562 2.562 0 0 0-.024-.359z" class="cls-13" transform="translate(-280.762 -42.417)"/>
            <path id="패스_7535" d="M575.118 77.041a7.077 7.077 0 0 1-3.277 2.842c-2.357 1.057-5.371 2.039-6.736.033a2.2 2.2 0 0 1 .448-3.215 6.518 6.518 0 0 1-.455-5.882c1.379-3.142 6.826-5.3 10.938-3.577s4.358 4.469 4.358 4.469 1.854-.822 4.538 1.836 1.339 8.394.051 10.414a41.286 41.286 0 0 1-4.271 5.286c-.4.261-.057-.962.011-1.988A3.034 3.034 0 0 0 580.5 86l.155-3.6s-5.087-.367-5.537-5.359z" class="cls-23" transform="translate(-278.527 -32.872)"/>
            <path id="패스_7536" d="M600.7 99.048a3.34 3.34 0 1 1-3.21-3.467 3.34 3.34 0 0 1 3.21 3.467z" class="cls-13" transform="translate(-293.051 -47.152)"/>
            <path id="패스_7537" d="M600.832 98.266a3.269 3.269 0 0 1 .663 2.212 3.333 3.333 0 0 1-5.823 1.941" class="cls-1" transform="translate(-293.863 -48.478)"/>
            <path id="패스_7538" fill="none" stroke="#020a23" stroke-miterlimit="10" stroke-width="0.25px" d="M596.981 101.16a1.815 1.815 0 0 1 2.145-2" opacity="0.1" transform="translate(-294.508 -48.909)"/>
            <path id="패스_7539" d="M583.128 97.035a.9.9 0 1 1-.9-.894.9.9 0 0 1 .9.894z" class="cls-25" transform="translate(-286.787 -47.43)"/>
            <path id="패스_7540" d="M571.769 96.961A.767.767 0 1 1 571 96.2a.767.767 0 0 1 .769.761z" class="cls-25" transform="translate(-281.313 -47.457)"/>
            <path id="패스_7541" d="M574.992 104.561s.458 1.314 1.414 1.4 1.7-.976 1.746-1.8z" class="cls-26" transform="translate(-283.66 -51.385)"/>
            <path id="패스_7542" d="M575.034 96.175l.2 3.06-1.466-.883z" class="cls-27" transform="translate(-283.057 -47.446)"/>
            <path id="패스_7543" d="M586.725 102.235a2.234 2.234 0 1 1-2.245-2.223 2.234 2.234 0 0 1 2.245 2.223z" class="cls-28" transform="translate(-287.244 -49.339)"/>
            <path id="패스_7544" d="M570.01 101.327a1.714 1.714 0 0 0-.394.05l.012 2.317a4.779 4.779 0 0 0 .113 1.009 1.719 1.719 0 0 0 .286.024 1.7 1.7 0 1 0-.017-3.4z" class="cls-28" transform="translate(-281.008 -49.988)"/>
            <rect id="사각형_8102" width="9.922" height="4.781" class="cls-22" rx="2.391" transform="translate(293.07 61.292)"/>
            <path id="선_12" fill="#fff" stroke="#df464a" stroke-miterlimit="10" stroke-width="0.75px" d="M16.483 7.256L0 0" transform="translate(279.082 30.162)"/>
            <path id="패스_7545" fill="#df464a" stroke="#df464a" stroke-miterlimit="10" stroke-width="0.5px" d="M585.172 60.24a9.965 9.965 0 0 0-13.141 5.091l18.233 8.05a9.965 9.965 0 0 0-5.092-13.141z" transform="translate(-282.395 -30.298)"/>
            <path id="패스_7546" d="M601.452 82.732l3.326 1.469a9.951 9.951 0 0 0 .733-2.566c-.026-.012-.051-.027-.078-.039a3.239 3.239 0 0 0-3.981 1.136z" class="cls-23" transform="translate(-296.908 -41.117)"/>
            <path id="패스_7547" d="M569.577 99.689c2.853-1.682 4.1.156 7.158 1.095 1.922.591 2.879-.058 3.325-.62a.259.259 0 0 1 .465.126 29.278 29.278 0 0 1 .233 4.424c-.031 1.417-2.409 2.849-4.621 3.228a15.269 15.269 0 0 1-2.443-.093c-2.808 0-5.106-2.681-5.106-5.957V100.3c.279-.179.602-.383.989-.611z" class="cls-17" transform="translate(-280.504 -48.843)"/>
            <path id="선_13" d="M1.955 0L0 1.88" class="cls-31" transform="translate(299.854 49.486)"/>
            <path id="패스_8061" fill="none" stroke="#fff" stroke-width="0.25px" d="M2.149 1.918L-.2.009" transform="translate(300.199 52.524)"/>
            <path id="사각형_8103" d="M0 0H45.847V45.847H0z" class="cls-33" transform="translate(254.418 63.215)"/>
            <path id="사각형_8104" d="M0 0H6.542V10.178H0z" class="cls-34" transform="translate(274.07 63.215)"/>
            <path id="사각형_8105" d="M0 0H6.542V9.784H0z" class="cls-34" transform="translate(274.07 99.278)"/>
            <path id="패스_7548" d="M566.132 182.7c3.4 1.975 6.083 3.491 6.083 3.491l5.519-7.761a61.714 61.714 0 0 1-6.591-4.115z" class="cls-13" transform="translate(-279.291 -85.994)"/>
            <path id="패스_7549" d="M559.158 167.533c-.713-.48-1.428-.986-2.092-1.5-3.063-2.384-8.07-8.18-8.675-7.46s2.491 5.173 2.491 5.173-8.353-5.215-8.879-4.563 3.887 4.709 3.887 4.709-5.167-3.219-5.513-2.454 4.722 4.57 4.722 4.57-5.48-3.118-5.683-2.342 4.3 4 4.3 4-5.343-3.035-4.77-1.588c.388.98 9.357 6.287 15.1 9.607z" class="cls-17" transform="translate(-265.857 -78.197)"/>
            <path id="패스_7550" d="M612.618 147.444c-2.711-4.5-9.746-11.879-16.618-16.27-3.234-2.066-6.431-3.469-9.125-3.6-.643-.031-.329 1.42-.908 1.543l2.971 14.129c5.608 5.3 10.377 10.335 7.668 13.109-5.236 5.364-16.859-3.168-16.859-3.168l-5.26 9.44s12.05 8.749 27.566 9.739 17.332-13.697 10.565-24.922z" class="cls-22" transform="translate(-283.412 -62.938)"/>
            <path id="패스_7551" fill="#df722e" stroke="#df722e" stroke-miterlimit="10" stroke-width="0.25px" d="M574.487 187.57a44.676 44.676 0 0 0 4.188 2.576l4.75-9.748a34.419 34.419 0 0 1-3.677-2.268z" transform="translate(-283.412 -87.877)"/>
            <path id="패스_7559" fill="none" stroke="#000" stroke-miterlimit="10" stroke-width="0.25px" d="M588.938 143.069c5.634 4.082 10.216 10.5 7.668 13.109-3.267 3.347-9.022 1.284-13.161-.887-.875 1.751-3.9 8.034-4.715 9.767a57.106 57.106 0 0 0 23.323 7.131c15.517.991 17.332-13.7 10.565-24.925-4.186-6.942-16.143-18.95-26.461-20.052" opacity="0.2" transform="translate(-283.412 -62.758)"/>
        </g>
        <g id="w" transform="translate(10)">
            <rect id="사각형_8285" width="36.858" height="36.858" class="cls-33" rx="8.991" transform="translate(88.635 68.18)"/>
            <path id="사각형_8286" fill="#305dbc" d="M3.719 0h32.953a3.719 3.719 0 0 1 3.719 3.719v.738a3.72 3.72 0 0 1-3.72 3.72H3.719A3.719 3.719 0 0 1 0 4.457v-.738A3.719 3.719 0 0 1 3.719 0z" transform="translate(86.869 65.343)"/>
            <path id="패스_7981" d="M148.979 158.453a1.475 1.475 0 0 1-1.475-1.475v-4.968a1.475 1.475 0 0 1 1.475-1.475 1.475 1.475 0 0 1 1.475 1.475v4.968a1.475 1.475 0 0 1-1.475 1.475z" class="cls-38" transform="translate(-52.77 -79.264)"/>
            <path id="패스_7982" d="M191.826 157.6a1.475 1.475 0 0 1-1.475-1.475v-4.968a1.475 1.475 0 0 1 1.475-1.474 1.475 1.475 0 0 1 1.475 1.474v4.968a1.475 1.475 0 0 1-1.475 1.475z" class="cls-38" transform="translate(-73.908 -78.846)"/>
            <path id="선_30" fill="none" stroke="#020a23" stroke-miterlimit="10" stroke-width="0.75px" d="M0 0L5.62 26.145" transform="translate(162.756 101.219)"/>
            <path id="선_31" fill="none" stroke="#020a23" stroke-miterlimit="10" stroke-width="1.5px" d="M0 0L12.657 58.881" transform="translate(168.016 125.688)"/>
            <path id="선_32" fill="none" stroke="#020a23" stroke-miterlimit="10" d="M0 0L81.876 0" transform="translate(94.73 190.837)"/>
            <circle id="타원_1008" cx="6.899" cy="6.899" r="6.899" class="cls-42" transform="rotate(-80.783 155.691 54.425)"/>
            <path id="패스_7983" d="M128.244 389.866a2.334 2.334 0 1 1-2.334-2.334 2.334 2.334 0 0 1 2.334 2.334z" class="cls-17" transform="translate(-40.965 -196.183)"/>
            <path id="패스_7984" d="M107.7 381.136a10.38 10.38 0 0 1 20.759 0" class="cls-43" transform="translate(-33.131 -187.906)"/>
            <circle id="타원_1009" cx="6.899" cy="6.899" r="6.899" class="cls-42" transform="rotate(-80.743 206.492 -5.267)"/>
            <path id="패스_7985" d="M328.465 389.866a2.334 2.334 0 1 1-2.334-2.334 2.334 2.334 0 0 1 2.334 2.334z" class="cls-17" transform="translate(-139.74 -196.183)"/>
            <path id="패스_7986" d="M307.918 381.136a10.379 10.379 0 1 1 20.759 0" class="cls-43" transform="translate(-131.906 -187.906)"/>
            <path id="패스_7987" d="M261.731 193.438a15.465 15.465 0 0 0 3.24.541l1.5-5.563c-2.023-.524-3.553-1.078-3.553-1.078s-2.666 5.478-1.187 6.1z" class="cls-13" transform="translate(-108.898 -97.42)"/>
            <path id="패스_7988" d="M272.417 198.615a6.182 6.182 0 0 0 4.548-3.962c.4-.953 2.089-4.867-1.85-4.614a25.671 25.671 0 0 1-7.742-1.228l-1.8 5.718c1.239.17 2.839.3 4.133.416a1.221 1.221 0 0 0-.577.836c-.562 1.888 2.014 2.959 3.288 2.834zm-.478-3.319c-.3.11-.714-.088-1.145-.249.861.087 1.37.166 1.145.253z" class="cls-17" transform="translate(-111.012 -98.147)"/>
            <path id="패스_7990" fill="#8ba5e2" d="M276.651 200.751c-.3.09-.7-.143-.976-.249l-.084.622c.244.025.488.048.731.086.07.011.14.022.209.038a.544.544 0 0 0 .091.024c.02.007.02.006 0 0q-.255-.1.03-.519a.328.328 0 0 0-.221.39.319.319 0 0 0 .39.221.356.356 0 0 0 0-.692 5.428 5.428 0 0 0-1.227-.179c-.38-.039-.393.5-.084.622a2.1 2.1 0 0 0 1.313.249.317.317 0 0 0-.172-.613z" transform="translate(-115.807 -103.908)"/>
            <path id="패스_7991" fill="none" stroke="#e0ae91" stroke-width="0.25px" d="M1.271 4.557l1.4.33" transform="translate(152.385 89.918)"/>
            <path id="패스_7992" d="M197.491 160.448c.5 13.4 21.863 18.629 33.119 18.727l2-6.007s-13.956-3.175-18.78-15.119" class="cls-46" transform="translate(-77.428 -82.971)"/>
            <path id="패스_7994" d="M227.376 165.95l2.536 2.635-3.55.878z" class="cls-27" transform="translate(-91.672 -86.868)"/>
            <path id="패스_7995" d="M222.468 180.205l2.532 2.636-3.55.878z" class="cls-27" transform="translate(-89.25 -93.901)"/>
            <path id="패스_7997" d="M240.389 188.493l2.536 2.635-3.55.878z" class="cls-27" transform="translate(-98.092 -97.99)"/>
            <path id="패스_7999" d="M210.078 173.005l2.536 2.635-3.55.878z" class="cls-27" transform="translate(-83.137 -90.35)"/>
            <path id="패스_8002" d="M198.791 346.816l1.831-12.835h7.769l-2.339 13.691z" class="cls-13" transform="translate(-78.07 -169.764)"/>
            <path id="패스_8003" d="M197.525 284.13l12.785 1.07s16.468-41.393 8.125-62.891h-19.723s3.251 33.157-1.187 61.821z" class="cls-48" transform="translate(-77.445 -114.673)"/>
            <path id="패스_8048" d="M194.771 357.312l-1.13 11.005s-.407 1.874 1.029 1.984a144.049 144.049 0 0 0 18.225.63c1.757.025 4.756-1.267 3.052-3.381-.96-.765-9.952-6.831-9.952-6.831s-.547-3.451-.853-4.523c-.159-.553-.184-.726-2.2-.689a40.582 40.582 0 0 0-7.738.517c-.274.066-.341.314-.433 1.288z" class="cls-14" transform="translate(-75.525 -180.583)"/>
            <path id="패스_8004" d="M194.771 357.312l-1.062 11.239s-.475 1.64.961 1.75a144.049 144.049 0 0 0 18.225.63c.466-.007 7.009-.161.7-5.19-.96-.765-7.6-5.023-7.6-5.023s-.547-3.451-.853-4.523c-.159-.553-.184-.726-2.2-.689a40.582 40.582 0 0 0-7.738.517c-.274.067-.341.315-.433 1.289z" class="cls-15" transform="translate(-75.525 -181.381)"/>
            <path id="선_33" d="M0 2.26L2.869 0" class="cls-16" transform="translate(129.955 181.042)"/>
            <path id="선_34" d="M0 2.887L3.369 0" class="cls-16" transform="translate(131.754 182.583)"/>
            <path id="패스_8005" d="M202.757 368.254c-1.208-.75-2.821-3.846-1.655-5.561s2.7 1.579 2.7 1.579 1.307-2.891 3.1-2.037-1.724 7.522-4.145 6.019z" class="cls-17" transform="translate(-79.012 -184.625)"/>
            <path id="패스_8006" d="M124.176 298.993l8.583.112-1.14 7.444-8.021-.1z" class="cls-13" transform="translate(-40.975 -152.503)"/>
            <path id="패스_8047" d="M108.6 294l-11.117-2.66s-1.454-.534-1.75.876a143.991 143.991 0 0 0-2.989 17.989c-.2 1.526.461 5.092 3.909 3.027.883-.853 7.112-8.545 7.112-8.545s3.492-.095 4.595-.26c.569-.085.744-.088.969-2.091a40.578 40.578 0 0 0 .491-7.739c-.027-.279-.265-.378-1.22-.597z" class="cls-14" transform="translate(-26.593 -148.721)"/>
            <path id="패스_8007" d="M108.6 294l-11.007-2.51s-1.564-.684-1.859.726a143.991 143.991 0 0 0-2.989 17.989c-.053.463-.749 6.971 5.056 1.366.883-.853 5.966-6.884 5.966-6.884s3.492-.095 4.595-.26c.569-.085.744-.088.969-2.091a40.578 40.578 0 0 0 .491-7.739c-.029-.279-.267-.378-1.222-.597z" class="cls-15" transform="translate(-25.729 -148.721)"/>
            <path id="선_35" d="M0 0L1.869 3.138" class="cls-16" transform="translate(74.174 154.944)"/>
            <path id="선_36" d="M0 0L2.426 3.715" class="cls-16" transform="translate(71.791 156.447)"/>
            <path id="패스_8008" d="M107.553 301.946c.9-1.1 4.179-2.3 5.728-.92s-1.915 2.469-1.915 2.469 2.7 1.67 1.618 3.335-7.236-2.679-5.431-4.884z" class="cls-17" transform="translate(-32.896 -153.2)"/>
            <path id="패스_8009" d="M134.3 257.954v11.656s24.859 2.288 35.773-13.909 8.538-36.587 8.538-36.587l-20.887.656s-.642 19.573-5.615 26.953-11.584 11.048-17.809 11.231z" class="cls-48" transform="translate(-46.256 -113.097)"/>
            <path id="패스_8011" d="M175.148 178.536s.642-40.2 15.83-40.2h6.307s11.91 9.843 12.09 40.2z" class="cls-46" transform="translate(-66.406 -73.247)"/>
            <path id="패스_8012" d="M0 0l34.322-.187.121 3.61a3 3 0 0 1-3.063 2.939H3a3 3 0 0 1-3-3z" class="cls-49" transform="translate(108.564 102.837)"/>
            <path id="패스_8013" d="M192.266 144.479a102.1 102.1 0 0 1-14.666 22.567c-7.362 8.236-14.665 13.144-18.129 14.246h6.564c2.026-.908 5.1-2.819 9.646-6.736 10.3-8.867 18.849-26.468 18.849-26.468a17.676 17.676 0 0 0-.91-1.677c-.559-.917-1.354-1.932-1.354-1.932z" class="cls-42" transform="translate(-58.674 -76.254)"/>
            <path id="패스_8014" d="M259.056 202.6a17.267 17.267 0 0 0 3.646.323l1.186-6.309c-2.292-.409-4.039-.894-4.039-.894s-2.489 6.312-.793 6.88z" class="cls-13" transform="translate(-107.51 -101.555)"/>
            <path id="패스_8015" d="M271.433 207.419a6.889 6.889 0 0 0 4.713-4.791c.358-1.093 1.9-5.586-2.451-4.968a28.594 28.594 0 0 1-8.706-.7l-1.515 6.507c1.391.083 3.179.092 4.627.108a1.359 1.359 0 0 0-.569.978c-.457 2.147 2.496 3.113 3.901 2.866zm-.815-3.647c-.321.147-.8-.036-1.293-.178.962.022 1.535.066 1.292.178z" class="cls-17" transform="translate(-109.98 -102.167)"/>
            <path id="패스_8017" d="M275.93 209.617c-.348.134-.79-.081-1.124-.179l-.085.622c.291.007.582.015.871.035.077.006.155.009.23.021a.61.61 0 0 0 .085.017c.19 0 .127-.577-.053-.485-.363.185-.043.732.32.547.346-.176.217-.588-.113-.675a5.9 5.9 0 0 0-1.34-.093.318.318 0 0 0-.084.622 2.364 2.364 0 0 0 1.461.178c.377-.144.213-.757-.168-.61z" class="cls-42" transform="translate(-115.379 -108.317)"/>
            <path id="패스_8018" d="M275.241 209.06a1.853 1.853 0 1 1-1.964-1.735 1.853 1.853 0 0 1 1.964 1.735z" class="cls-42" transform="translate(-113.959 -107.278)"/>
            <path id="패스_8019" d="M196.4 136.541s-13.857 2.268-11.932 19.069c1.7 14.845 25.884 18.824 38.4 17.968l1.711-6.845S208.8 164.4 202.42 151.546a27.94 27.94 0 0 1-2.028-5.16" class="cls-49" transform="translate(-70.914 -72.36)"/>
            <path id="패스_8032" d="M191.8 106.509a15.177 15.177 0 0 0-6.757 5.37 5.408 5.408 0 0 0 2.252 7.852c1.861.653 6.2 1.143 8.325-.458s1.35-11.2.659-12.536-4.018-.62-4.479-.228z" class="cls-23" transform="translate(-70.848 -57.274)"/>
            <path id="패스_8033" d="M213.5 98.438h-3.51c-2.333 0-4.242 2.174-4.242 4.83v5.44c0 .154.008.3.02.454a2.158 2.158 0 0 0-.06.5v6.808a2.191 2.191 0 0 0 2.185 2.185h1.392a2.191 2.191 0 0 0 2.185-2.185v-2.931h2.03c2.333 0 4.242-2.174 4.242-4.83v-5.44c.002-2.657-1.906-4.831-4.242-4.831z" class="cls-13" transform="translate(-81.484 -53.563)"/>
            <path id="패스_8034" d="M201.732 101.76s3.441-1.143 4.484-3.363.783-2.7.783-2.7a9.357 9.357 0 0 0 5 3.308c2.53.539 2.427.165 2.677-.424.229-.539.383-4.287-3.46-6.595s-7.972-2.078-10.82.794-2.5 7.4-1.543 8.532 2.226 1.765 2.879.448z" class="cls-23" transform="translate(-77.762 -49.608)"/>
            <circle id="타원_1010" cx="4.607" cy="4.607" r="4.607" class="cls-23" transform="translate(115.238 36.207)"/>
            <path id="패스_8035" d="M197.063 112.712a2.794 2.794 0 1 0 2.794-2.771 2.783 2.783 0 0 0-2.794 2.771z" class="cls-13" transform="translate(-77.217 -59.237)"/>
            <path id="패스_8036" d="M203.8 114.488a1.525 1.525 0 0 0-1.81-1.674" class="cls-19" transform="translate(-79.646 -60.646)"/>
            <circle id="타원_1011" cx=".791" cy=".791" r=".791" class="cls-25" transform="translate(129.238 50.691)"/>
            <path id="패스_8037" d="M225.822 110.593a.675.675 0 1 0 .675-.675.676.676 0 0 0-.675.675z" class="cls-25" transform="translate(-91.404 -59.227)"/>
            <path id="패스_8038" d="M221.622 117.307s-.4 1.158-1.238 1.238-1.5-.852-1.545-1.579z" class="cls-26" transform="translate(-87.961 -62.703)"/>
            <circle id="타원_1012" cx="1.966" cy="1.966" r="1.966" class="cls-28" transform="translate(126.488 52.426)"/>
            <path id="패스_8039" d="M226.964 114.59a1.483 1.483 0 0 1 .347.043v2.039a4.2 4.2 0 0 1-.073.887 1.807 1.807 0 0 1-.274.025 1.5 1.5 0 1 1 0-2.993z" class="cls-28" transform="translate(-91.23 -61.531)"/>
            <path id="패스_8040" d="M222.42 109.918l-.162 2.694 1.286-.784z" class="cls-27" transform="translate(-89.646 -59.226)"/>
            <rect id="사각형_8287" width="9.415" height="4.537" class="cls-46" rx="2.269" transform="translate(122.342 61.912)"/>
            <g id="그룹_4321">
                <path id="패스_8041" fill="#fff" stroke="#fff" stroke-miterlimit="10" stroke-width="0.25px" d="M218.666 113.251c-2.5-1.475-3.6.137-6.282.961-1.687.518-2.527-.051-2.918-.544a.227.227 0 0 0-.408.11 25.717 25.717 0 0 0-.2 3.883c.028 1.243 2.114 2.5 4.055 2.833a13.411 13.411 0 0 0 2.144-.082c2.464 0 4.48-2.352 4.48-5.228v-1.393c-.248-.161-.537-.34-.871-.54z" transform="translate(-83.031 -60.575)"/>
                <path id="선_37" d="M0 0L1.603 1.766" class="cls-31" transform="translate(124.57 51.367)"/>
                <path id="선_38" d="M0 1.497L1.878 0" class="cls-31" transform="translate(124.01 54.556)"/>
            </g>
            <path id="패스_8046" fill="none" stroke="#f8c700" stroke-width="0.25px" d="M132.714 113.781s1.46 15.733-10.39 30.776"/>
            <path id="패스_8057" fill="none" stroke="#e6e6e6" stroke-linecap="round" stroke-linejoin="round" stroke-width="0.25px" d="M155.186 94.837a20.514 20.514 0 0 0 3.482.618c4.5.532 5.159-.381 6.9.153"/>
            <path id="패스_8060" fill="none" stroke="#000" stroke-linecap="round" stroke-width="0.25px" d="M139.475 80.838a37.169 37.169 0 0 1 2.067 8.9" opacity="0.2"/>
            <path id="패스_8058" d="M129.316 74.082a30.181 30.181 0 0 0 24.222 20.555" class="cls-54"/>
            <path id="패스_8059" d="M113.3 76.653s-2.055 14.894 10.186 19.439 20.705 5.514 28.076 5.192" class="cls-54"/>
        </g>
    </g>
</svg>
