<svg xmlns="http://www.w3.org/2000/svg" width="360" height="228" viewBox="0 0 360 228">
    <defs>
        <clipPath id="clip-path">
            <path id="사각형_8334" d="M0 0H360V228H0z" class="cls-1" transform="translate(373.459 746.939)"/>
        </clipPath>
        <style>
            .cls-1{fill:none}.cls-3{fill:#bfd7e6}.cls-4{fill:#fff}.cls-5{fill:#c9e3f2}.cls-6{fill:#054469}.cls-14{fill:#fec3a5}.cls-16{fill:#84996d}.cls-20{fill:#ffc93c}
        </style>
    </defs>
    <g id="_4" clip-path="url(#clip-path)" transform="translate(-373.459 -746.939)">
        <g id="그룹_2689" transform="translate(324.459 820.465)">
            <g id="그룹_2685">
                <g id="그룹_2683" transform="translate(84.152 56.047)">
                    <path id="패스_5530" d="M511.673 2298.9q1.833-6.7 3.218-13.537c1.97-9.948-5.7-20.08-15.622-23.081q-.6-8.454-1.963-16.888c-1.154-6.867-7.224-12.622-13.629-15.133-5.949-2.1-13.4-2.172-16.126 3.895l-.184.408c-2.2 4.9-.091 10.706 3.04 15.265q5.632 7.673 10.779 15.64c-.469.516-.7.774-1.177 1.29-5.509 6.019-5.749 16.343-.855 23.875q3.89 6.151 7.486 12.448-1.723 1.922-3.465 3.825c-3.887 4.594-6.3 11.663-2.859 17.91.434.787.954 1.92 1.5 2.921H516.5q1.942-6.823 3.368-13.82a13.577 13.577 0 0 0-8.195-15.018z" class="cls-3" transform="translate(-466.459 -2228.972)"/>
                    <path id="패스_5531" d="M643.351 2441.33c-.177-29.443-8.289-58.92-22.346-86.3a1.106 1.106 0 0 0-1.044-.6c-.39.058-.548.434-.354.84 12.969 27.577 19.73 57 18.688 86.064z" class="cls-4" transform="translate(-605.061 -2342.565)"/>
                </g>
                <g id="그룹_2684" transform="translate(113.93)">
                    <path id="패스_5532" d="M787.193 1644.085l-.519.635a22.48 22.48 0 0 0-3.044 23.56l10.886 23.849-2.169 1.959a28.8 28.8 0 0 0-5.384 36.2l11.376 18.939-5.055 5.845a22.441 22.441 0 0 0-1.354 27.625c3.061 4.335 5.8 7.949 6.409 7.949h49.5l2.488-24.817a22.437 22.437 0 0 0-13.756-22.974l5.612-20.559a28.8 28.8 0 0 0-18.993-35.006l3.666-25.815a22.479 22.479 0 0 0-12.608-23.464 22.479 22.479 0 0 0-27.055 6.074z" class="cls-5" transform="translate(-781.6 -1635.829)"/>
                    <path id="패스_5533" d="M1017.7 1833.6a1.147 1.147 0 0 0-2.264.369l19.207 134.9h7.886z" class="cls-4" transform="translate(-993.332 -1814.061)"/>
                </g>
            </g>
            <g id="그룹_2688" transform="translate(275.347)">
                <g id="그룹_2686" transform="translate(44.964 56.047)">
                    <path id="패스_5534" d="M2974.158 2298.9q-1.833-6.7-3.218-13.537c-1.97-9.948 5.7-20.08 15.622-23.081q.6-8.454 1.963-16.888c1.153-6.867 7.224-12.622 13.629-15.133 5.949-2.1 13.4-2.172 16.126 3.895l.185.408c2.2 4.9.091 10.706-3.04 15.265q-5.632 7.673-10.779 15.64c.469.516.7.774 1.177 1.29 5.509 6.019 5.749 16.343.855 23.875q-3.891 6.151-7.487 12.448 1.723 1.922 3.465 3.825c3.887 4.594 6.3 11.663 2.859 17.91-.434.787-.954 1.92-1.5 2.921h-34.682q-1.942-6.823-3.367-13.82a13.577 13.577 0 0 1 8.192-15.018z" class="cls-3" transform="translate(-2965.717 -2228.972)"/>
                    <path id="패스_5535" d="M3128.318 2441.33c.177-29.443 8.289-58.92 22.346-86.3a1.106 1.106 0 0 1 1.044-.6c.39.058.548.434.354.84-12.969 27.577-19.73 57-18.688 86.064z" class="cls-4" transform="translate(-3112.954 -2342.565)"/>
                </g>
                <g id="그룹_2687">
                    <path id="패스_5536" d="M2553.116 1644.085l.519.635a22.481 22.481 0 0 1 3.043 23.56l-10.885 23.849 2.168 1.959a28.8 28.8 0 0 1 5.384 36.2l-11.376 18.939 5.055 5.845a22.441 22.441 0 0 1 1.354 27.625c-3.062 4.335-5.8 7.949-6.409 7.949h-49.5l-2.488-24.817a22.437 22.437 0 0 1 13.756-22.974l-5.612-20.559a28.8 28.8 0 0 1 18.994-35.006l-3.666-25.815a22.48 22.48 0 0 1 12.608-23.464 22.48 22.48 0 0 1 27.055 6.074z" class="cls-5" transform="translate(-2489.868 -1635.829)"/>
                    <path id="패스_5537" d="M2722.556 1833.6a1.147 1.147 0 0 1 2.264.369l-19.206 134.9h-7.887z" class="cls-4" transform="translate(-2678.086 -1814.061)"/>
                </g>
            </g>
        </g>
        <g id="그룹_2696" transform="translate(486.738 757.804)">
            <g id="그룹_2690">
                <rect id="사각형_8067" width="133.559" height="240.738" class="cls-6" rx="20"/>
                <rect id="사각형_8068" width="225.445" height="118.266" fill="#07689f" rx="14" transform="rotate(90 59.133 66.78)"/>
                <rect id="사각형_8069" width="19.84" height="3.472" class="cls-1" rx="1.736" transform="translate(56.86 1.996)"/>
            </g>
            <g id="그룹_2695" transform="translate(32.561 80.611)">
                <g id="그룹_2692" transform="translate(1.338)">
                    <path id="패스_5538" d="M1747.464 1966.742a22.7 22.7 0 0 1-13.5 4.449h-31.043a22.7 22.7 0 0 1-13.5-4.449.889.889 0 0 1 .529-1.6h56.979a.889.889 0 0 1 .535 1.6z" class="cls-6" transform="translate(-1685.566 -1928.643)"/>
                    <path id="패스_5539" fill="#043b5c" d="M1747.467 1966.737c-.143.106-.287.21-.432.312a.786.786 0 0 0-.1-.005h-56.979a.792.792 0 0 0-.1.005c-.145-.1-.289-.207-.432-.312a.866.866 0 0 1-.362-.706.886.886 0 0 1 .891-.9h56.979a.889.889 0 0 1 .535 1.606z" transform="translate(-1685.568 -1928.637)"/>
                    <path id="패스_5540" d="M1712.862 1619.584l-9.336 8.671-6.315 5.866h-24.6l-6.315-5.866-9.336-8.671c-8.555-7.946-5.56-21.547 5.756-25.525l.39-.132a21.253 21.253 0 0 1 21.8 5.433 21.252 21.252 0 0 1 21.8-5.433l.39.132c11.326 3.979 14.321 17.579 5.766 25.525z" opacity="0.13" transform="translate(-1652.032 -1591.572)"/>
                    <path id="패스_5541" fill="#fc7791" d="M1724.76 1606.455l-8.949 8.949-6.053 6.054h-23.577l-6.054-6.054-8.949-8.949a16.047 16.047 0 0 1 5.517-26.343c.124-.046.248-.092.373-.136a19.385 19.385 0 0 1 20.9 5.607 19.386 19.386 0 0 1 20.9-5.607c.125.045.25.09.373.136a16.047 16.047 0 0 1 5.519 26.343z" transform="translate(-1665.089 -1578.909)"/>
                    <g id="그룹_2691" transform="translate(22.43 14.703)">
                        <path id="패스_5542" d="M1965.194 1755.409a3.632 3.632 0 0 1-3.632-3.632v-13.637a3.632 3.632 0 0 1 3.632-3.632 3.632 3.632 0 0 1 3.632 3.632v13.636a3.632 3.632 0 0 1-3.632 3.633z" class="cls-4" transform="translate(-1954.744 -1734.508)"/>
                        <rect id="사각형_8070" width="7.264" height="20.9" class="cls-4" rx="3.632" transform="rotate(90 7.041 13.859)"/>
                    </g>
                    <path id="패스_5543" fill="#eb6f87" d="M1859.884 2013.842l1.451 1.451h23.577l1.451-1.451z" transform="translate(-1840.244 -1972.745)"/>
                </g>
                <g id="그룹_2694" transform="translate(0 61.674)">
                    <rect id="사각형_8071" width="68.436" height="17.842" class="cls-4" rx="8.921"/>
                    <g id="그룹_2693" transform="translate(14.174 5.599)">
                        <path id="패스_5544" d="M1787.87 2292.019h2.918a4.1 4.1 0 0 1 1.849.4 2.99 2.99 0 0 1 1.248 1.124 3.424 3.424 0 0 1 0 3.377 2.989 2.989 0 0 1-1.248 1.124 4.1 4.1 0 0 1-1.849.4h-2.918zm2.844 5.2a2.159 2.159 0 0 0 1.537-.537 2.131 2.131 0 0 0 0-2.909 2.159 2.159 0 0 0-1.537-.537h-1.358v3.982z" class="cls-6" transform="translate(-1787.87 -2291.909)"/>
                        <path id="패스_5545" d="M1865.518 2297.066a3.192 3.192 0 0 1-1.257-1.188 3.414 3.414 0 0 1 0-3.4 3.2 3.2 0 0 1 1.257-1.189 3.976 3.976 0 0 1 3.6 0 3.276 3.276 0 0 1 0 5.781 3.972 3.972 0 0 1-3.6 0zm2.831-1.1a1.871 1.871 0 0 0 .72-.729 2.3 2.3 0 0 0 0-2.128 1.874 1.874 0 0 0-.72-.729 2.149 2.149 0 0 0-2.055 0 1.871 1.871 0 0 0-.72.729 2.295 2.295 0 0 0 0 2.128 1.867 1.867 0 0 0 .72.729 2.149 2.149 0 0 0 2.055 0z" class="cls-6" transform="translate(-1856.631 -2290.854)"/>
                        <path id="패스_5546" d="M1955.929 2292.019v6.423h-1.22l-3.2-3.9v3.9h-1.468v-6.423h1.229l3.193 3.9v-3.9z" class="cls-6" transform="translate(-1934.715 -2291.909)"/>
                        <path id="패스_5547" d="M2024.64 2297.066h-2.982l-.569 1.376h-1.523l2.863-6.423h1.468l2.872 6.423h-1.56zm-.468-1.129l-1.019-2.459-1.019 2.459z" class="cls-6" transform="translate(-1997.672 -2291.909)"/>
                        <path id="패스_5548" d="M2093.869 2293.23h-2.055v-1.211h5.6v1.211h-2.055v5.212h-1.487z" class="cls-6" transform="translate(-2063.094 -2291.909)"/>
                        <path id="패스_5549" d="M2164.47 2297.249v1.193h-4.97v-6.423h4.854v1.193h-3.376v1.395h2.982v1.156h-2.982v1.487z" class="cls-6" transform="translate(-2124.382 -2291.909)"/>
                    </g>
                </g>
            </g>
        </g>
        <g id="그룹_4333" transform="translate(456.378 939.615)">
            <path id="사각형_8072" fill="#f7d47a" d="M0 0H50.673V35.662H0z"/>
            <path id="사각형_8073" fill="#ebb423" d="M0 0H9.69V35.662H0z" transform="translate(20.492)"/>
            <path id="사각형_8074" d="M0 0H9.134V7.466H0z" class="cls-4" transform="translate(36.059 4.289)"/>
        </g>
        <g id="그룹_2705" transform="translate(601.847 802.762)">
            <g id="그룹_2698" transform="translate(0 25.342)">
                <path id="패스_5550" d="M2453.412 1825.152l-5.694 7.682a11.8 11.8 0 0 1-5.2 3.969 11.8 11.8 0 0 1-9.918-.626l-19.614-10.654-1.593-.1a6.975 6.975 0 0 1-6.256-5.023l-5.02-2.706a1.072 1.072 0 0 1-.25-1.7 1.071 1.071 0 0 1 .927-.3l7.043 1.123 5.148 1.772 24.965 9.252 6.365-7.686z" class="cls-14" transform="translate(-2399.558 -1806.322)"/>
                <path id="패스_5551" fill="#7b8f66" d="M2821.714 1723.349l-8.776 12.226 12.744 5.352 9.3-11.47-1.555-12.785-2.542.581a15.559 15.559 0 0 0-9.171 6.096z" transform="translate(-2773.878 -1716.673)"/>
            </g>
            <g id="그룹_2699" transform="translate(61.046 68.968)">
                <path id="패스_5552" d="M3067.336 2178.367l4.206 92.268h-10.578l-15.355-92.268z" class="cls-6" transform="translate(-3045.609 -2178.367)"/>
                <path id="패스_5553" d="M3072.135 3154.835l.9 8.8a2.19 2.19 0 0 1-2.178 2.413h-20.83a3.762 3.762 0 0 1-3.763-3.762 3.763 3.763 0 0 1 3.065-3.7l11.082-2.089a1.434 1.434 0 0 0 1.146-1.666h10.578z" class="cls-16" transform="translate(-3046.203 -3062.567)"/>
            </g>
            <g id="그룹_2700" transform="translate(31.287 68.968)">
                <path id="패스_5554" fill="#054063" d="M2902.441 2178.367l-3.186 92.268h12.362l12.383-92.268z" transform="translate(-2883.325 -2178.367)"/>
                <path id="패스_5555" d="M2758.958 3154.835l-1.1 9.673a1.738 1.738 0 0 1-1.727 1.542h-21.721a3.744 3.744 0 0 1-3.744-3.744 3.743 3.743 0 0 1 3.09-3.686l11.2-1.987a2 2 0 0 0 1.638-1.8h12.362z" class="cls-16" transform="translate(-2730.666 -3062.567)"/>
            </g>
            <g id="그룹_2701" transform="translate(50.391 23.472)">
                <path id="패스_5556" d="M2965.17 1742.374h-32.333l.769-36.47a6.747 6.747 0 0 1 5.242-6.436l11.336-2.591 11.611 2.276a8.483 8.483 0 0 1 6.808 9.176z" class="cls-16" transform="translate(-2932.838 -1696.877)"/>
                <path id="패스_5557" fill="#798c64" d="M2959 1816.223h2.167l1.657 7.519-28.774 5.9-.06 2.839 6.913.432 26.065-2.771 2.679-26.558a8.58 8.58 0 0 0 .037-1.193l-11.576-.319z" transform="translate(-2933.878 -1792.136)"/>
            </g>
            <g id="그룹_2702" transform="translate(33.199 33.922)">
                <path id="사각형_8075" fill="#f0c24a" d="M0 0H25.871V25.871H0z"/>
                <path id="사각형_8076" d="M0 0H6.5V25.871H0z" class="cls-20" transform="translate(9.686)"/>
                <path id="사각형_8077" fill="#f0bd38" d="M0 0H14.911V25.871H0z" transform="rotate(180 20.39 12.936)"/>
                <path id="사각형_8078" d="M0 0H4.206V25.871H0z" class="cls-20" transform="rotate(180 17.715 12.936)"/>
                <path id="사각형_8079" d="M0 0H5.098V4.588H0z" class="cls-4" transform="translate(18.607 1.912)"/>
            </g>
            <g id="그룹_2703" transform="translate(45.175 25.256)">
                <path id="패스_5558" d="M2921.1 1909.973l1.027 7.619a7.855 7.855 0 0 1-2.081 6.451 7.856 7.856 0 0 1-4.9 2.412l-25.293 2.586a9.55 9.55 0 0 1-.967.049h-4.378a9.508 9.508 0 0 1-6.866-2.931l10.963-.51 23.577-7.01-1.912-8.666z" class="cls-14" transform="translate(-2877.64 -1891.622)"/>
                <path id="패스_5559" d="M3188.282 1724.8l2.476 12.877-2.143-.077-12.131-.433-3.441-18.1 3.823-3.313 3.078.624a10.64 10.64 0 0 1 8.338 8.422z" class="cls-16" transform="translate(-3145.131 -1715.759)"/>
            </g>
            <g id="그룹_2704" transform="translate(57.504)">
                <path id="패스_5560" d="M3012.426 1491.217a9.141 9.141 0 0 0-.992 3.8 9.341 9.341 0 0 0 1.57 5.456c2.725-2.708 3.317-6.081 1.984-7.853a3.907 3.907 0 0 0-2.562-1.403z" class="cls-6" transform="translate(-3011.116 -1487.178)"/>
                <path id="패스_5561" d="M3056.975 1615.444l-.868 9.565a5.414 5.414 0 0 0 2.384 2.958c2.415 1.289 6.122.237 8.666-2.958l-.634-9.565z" class="cls-14" transform="translate(-3051.573 -1599.668)"/>
                <path id="패스_5562" fill="#feb996" d="M3057.858 1635.775a6.548 6.548 0 0 0 3.2-.385 7.254 7.254 0 0 0 4.188-5.125 7.823 7.823 0 0 0-6.864-.236z" transform="translate(-3053.158 -1612.256)"/>
                <path id="패스_5563" d="M3029.513 1521.364c-4.576 3.676-9.985 3.863-12.622 1.354a7.01 7.01 0 0 1-1.9-4.795l1.111-9.639 14.678-.446-1.267 13.526z" class="cls-14" transform="translate(-3014.34 -1502.229)"/>
                <path id="패스_5564" d="M3008.191 1452.434c-.459 1.613 1.417 3.59 2.975 4.464 3.312 1.856 7.191-.147 7.688-.413a2.77 2.77 0 0 0 .909 1.405 3.091 3.091 0 0 0 3.224.248c.022 1.668-.045 3.336-.052 5a1.032 1.032 0 0 0 .95 1.032h.012a1.032 1.032 0 0 0 1.093-.821l1.523-7.44a3.846 3.846 0 0 0-1.2-3.63l-.016-.015a4.228 4.228 0 0 0-.744-1.9c-2.949-4.059-12.589-.37-13.557 0-1.774.684-2.57 1.245-2.805 2.07z" class="cls-6" transform="translate(-3008.121 -1448.478)"/>
                <path id="패스_5565" d="M3140.006 1540.327c.119-1.553 1.481-3.152 2.645-2.935.9.168 1.485 1.387 1.53 2.356.083 1.792-1.635 3.616-2.811 3.348-.904-.206-1.451-1.638-1.364-2.769z" class="cls-14" transform="translate(-3127.536 -1528.972)"/>
            </g>
        </g>
    </g>
</svg>
