<svg xmlns="http://www.w3.org/2000/svg" width="300" height="340" viewBox="0 0 300 340">
    <defs>
        <style>
            .cls-2{fill:#0f0f0f}.cls-5{fill:#e9e9e9}
        </style>
    </defs>
    <g id="img_phone" transform="translate(-77 -268)">
        <g id="패스_9345" fill="#f2f2f2" stroke="none">
            <path d="M296 336H4V35c0-4.187.82-8.246 2.435-12.065 1.56-3.691 3.796-7.007 6.645-9.855 2.848-2.849 6.164-5.084 9.855-6.645C26.754 4.819 30.813 4 35 4h230c4.187 0 8.246.82 12.065 2.435 3.691 1.56 7.007 3.796 9.855 6.645 2.849 2.848 5.084 6.164 6.645 9.855C295.181 26.754 296 30.813 296 35v301z" transform="translate(77 268)"/>
            <path fill="#0f0f0f" d="M35 8C20.112 8 8 20.112 8 35v297h284V35c0-14.888-12.112-27-27-27H35m0-8h230c19.33 0 35 15.67 35 35v305H0V35C0 15.67 15.67 0 35 0z" transform="translate(77 268)"/>
        </g>
        <path id="패스_9344" d="M-57.568-20.272h-8.848v-2.912h-2.324v2.912h-9.016v1.848h20.188zm-4.256 7.42c0 1.54-2.1 2.408-5.74 2.408-3.668 0-5.8-.868-5.8-2.408 0-1.512 2.128-2.408 5.8-2.408 3.64 0 5.74.896 5.74 2.408zm-13.916 0c0 2.688 3.052 4.172 8.176 4.172 5.068 0 8.12-1.484 8.12-4.172 0-2.66-3.052-4.144-8.12-4.144-5.124-.004-8.176 1.484-8.176 4.144zm19.572 5.88h-22.764v1.848h5.908V2.1h2.3v-7.224h6.324V2.1h2.3v-7.224h5.936zm6.16-11.144h7.084v-1.876h-9.352v15.876h1.652a41.238 41.238 0 0 0 9.3-.756l-.2-1.9a39.5 39.5 0 0 1-8.484.756zm15.96-4.928v10.08H-37.6v-9.52h-2.16V.812h2.16v-11.9h3.556v13.16h2.212v-25.116zm19.964 6.944v1.876h5.04v9.6h2.324v-18.4h-2.324v6.924zm1.484 5.908c-3.64-1.288-6.1-4.424-6.1-7.7v-1.232h5.516V-21H-26.6v1.876h5.6v1.26c0 3.556-2.6 6.888-6.328 8.232l1.2 1.792a10.719 10.719 0 0 0 6.328-6.244A10.362 10.362 0 0 0-13.748-8.4zm-7.868 9.828v-5.88h-2.324v7.756H-6.02V-.364zM13.5-19.992H7.168v-3.024h-2.3v3.024h-6.38v1.82H13.5zM2.268-12.04c0-1.736 1.512-2.884 3.752-2.884s3.752 1.148 3.752 2.884S8.26-9.184 6.02-9.184 2.268-10.3 2.268-12.04zm4.9 4.592c2.884-.364 4.788-2.1 4.788-4.592 0-2.828-2.436-4.648-5.936-4.648S.084-14.868.084-12.04c0 2.492 1.9 4.228 4.788 4.592V-4.7c-2.436.084-4.788.084-6.8.084l.308 1.932A92.7 92.7 0 0 0 14.056-3.7l-.14-1.7a65.652 65.652 0 0 1-6.748.616zm14.448-4.928H17.7v-10.668h-2.3V2.072h2.3v-12.516h3.92zm22.176-4.144v1.876h4.956v6.58h2.324v-14.952h-2.324v6.5zm1.4 5.712c-3.64-1.288-6.1-4.452-6.1-7.672v-.868H44.6V-21.2H31.192v1.848h5.6v.868a9.258 9.258 0 0 1-6.328 8.372l1.2 1.82A10.869 10.869 0 0 0 38-14.672a10.318 10.318 0 0 0 6.048 5.656zM42.784.28C39 .28 36.708-.784 36.708-2.6S39-5.516 42.784-5.516 48.86-4.424 48.86-2.6 46.564.28 42.784.28zm0-7.56c-5.152 0-8.372 1.708-8.372 4.676s3.22 4.676 8.372 4.676S51.128.364 51.128-2.6s-3.192-4.68-8.344-4.68zM61.1-14.9h12.82v4.62H61.1zm7.56 11.872v-5.4h7.5v-12.824h-2.24v4.48H61.1v-4.48h-2.272v12.824h7.5v5.4H56.14v1.876H78.9v-1.872z" class="cls-2" transform="translate(227 376)"/>
        <path id="패스_9343" fill="#f2f2f2" d="M0 0h284v22H0z" transform="translate(85 586)"/>
        <path id="패스_9342" fill="#fff" d="M20 0h244a20 20 0 0 1 20 20v173H0V20A20 20 0 0 1 20 0z" transform="translate(85 415)"/>
        <path id="패스_9341" d="M2 0h226a2 2 0 0 1 2 2v11a2 2 0 0 1-2 2H2a2 2 0 0 1-2-2V2a2 2 0 0 1 2-2z" class="cls-5" transform="translate(112 459)"/>
        <path id="패스_9340" d="M2 0h156a2 2 0 0 1 2 2v11a2 2 0 0 1-2 2H2a2 2 0 0 1-2-2V2a2 2 0 0 1 2-2z" class="cls-5" transform="translate(112 508)"/>
        <path id="패스_9818" d="M.912-5.167h.853V2.9H.912zm11.855 0V2.9h-.818v-6.454L8.781 1.874h-.4L5.209-3.519V2.9h-.818v-8.067h.7L8.6.813l3.468-5.98zM21.1 2.162V2.9h-5.7v-8.067h5.53v.737h-4.684v2.87h4.171v.726h-4.171v3zm2-7.328h.853V2.9H23.1zm7.5 10.335l.657-.311a10.623 10.623 0 0 1-1.474-5.542 10.652 10.652 0 0 1 1.475-5.542l-.657-.3a10.762 10.762 0 0 0-1.693 5.842A10.8 10.8 0 0 0 30.6 5.169zm7.731-7.225a21.844 21.844 0 0 1-4.562.346v-3.215H37.4v-.76h-4.575v4.747h.806a22.346 22.346 0 0 0 4.8-.357zM34.887.145h-.945v3.376h6.89v-.772h-5.945zm5.484-3.664v-3.065h-.945V.894h.945v-3.63H41.9v-.784zm6.832.91H44.3v-2.638h2.9zM48.125-6h-4.747v4.14h4.747zM45.36 1.7h5.611V-.834H44.4v.749h5.634V1h-5.6v2.613h6.913v-.76H45.36zm5.611-6.06v-2.212h-.945v5.254h.945v-2.259H52.5v-.783zm3.191-1.106v.76h3.883c-.2 2.454-1.578 4.436-4.355 5.761l.507.772C57.63.145 59-2.482 59-5.466zm6.924-1.118V3.752h.945V-6.584zm11.878 4.863a3.68 3.68 0 0 1-2.592-3.365V-6.1h-.945v1.014a3.865 3.865 0 0 1-2.6 3.549l.484.749a4.461 4.461 0 0 0 2.6-2.639 4.344 4.344 0 0 0 2.581 2.454zM68.3.929h5.968v2.834h.945V.168H68.3zm5.968-7.5v6.209h.945v-6.21zm10.622 2.2v1.141H82.5v-1.142zm-3.32 2.016h-2.788v-1.533h2.788zm.933-.138h2.385v1.313h.945v-5.392h-.945v1.463H82.5v-.979h-.93v1.463h-2.788V-6.1h-.933v4.505H82.5zM80.13 2.865V1.77h5.7V-.684h-6.656v.749H84.9v.991h-5.7v2.557h7.028v-.748zm12.039-4.321h-2.788v-1.867h2.788zM93.1-2.9h2.385v3.967h.956v-7.651h-.956v2.915H93.1v-2.224h-.933v1.821h-2.786v-1.821h-.933V-.7H93.1zm-2.359 5.649V.318H89.8v3.2h6.89v-.769zm16.636-7.824h-3.7v-1.348h-.945v1.348H98.99v.775h8.387zm-6.613 3.434c0-.76.933-1.221 2.442-1.221 1.486 0 2.408.461 2.408 1.221s-.922 1.233-2.408 1.233c-1.506 0-2.442-.461-2.442-1.233zm2.915 3.411V.318c1.8-.115 2.892-.807 2.892-1.959 0-1.244-1.3-1.959-3.364-1.959-2.1 0-3.4.714-3.4 1.959 0 1.152 1.106 1.855 2.926 1.959V1.77h-4.204v.772h9.371V1.77zm5.979 3.4a10.713 10.713 0 0 0 1.705-5.853 10.674 10.674 0 0 0-1.705-5.842l-.645.3a10.762 10.762 0 0 1 1.475 5.542 10.732 10.732 0 0 1-1.475 5.542z" class="cls-2" transform="translate(112 566.951)"/>
        <path id="패스_9819" fill="#648de5" d="M3.535-5.558v8.066H1.669V-4.06H.056v-1.5zM10.966.987v1.521H4.872V1.3l3.11-2.94a3.3 3.3 0 0 0 .668-.812 1.478 1.478 0 0 0 .173-.674.891.891 0 0 0-.323-.744 1.528 1.528 0 0 0-.962-.259 2.209 2.209 0 0 0-.956.2 1.831 1.831 0 0 0-.714.6L4.5-4.2a3.189 3.189 0 0 1 1.3-1.1 4.347 4.347 0 0 1 1.9-.4 3.908 3.908 0 0 1 1.579.3 2.424 2.424 0 0 1 1.048.83 2.147 2.147 0 0 1 .373 1.259 2.813 2.813 0 0 1-.277 1.233 4.746 4.746 0 0 1-1.07 1.314L7.5.987zm4.539-3.261a2.714 2.714 0 0 1 1.624.789 2.176 2.176 0 0 1 .566 1.527 2.41 2.41 0 0 1-.369 1.3 2.568 2.568 0 0 1-1.123.951 4.3 4.3 0 0 1-1.849.357 6.342 6.342 0 0 1-1.676-.225 4.318 4.318 0 0 1-1.4-.64L12 .353a3.516 3.516 0 0 0 1.066.536 4.106 4.106 0 0 0 1.239.19 1.963 1.963 0 0 0 1.108-.271.87.87 0 0 0 .4-.766q0-.991-1.509-.991h-.853v-1.233l1.663-1.878h-3.433v-1.5h5.645v1.21zM25.944.814H24.63v1.694h-1.82V.814h-4.344V-.442l3.8-5.116h1.959L20.7-.707h2.166v-1.509h1.764v1.509h1.313zm3.295-3.342a3.873 3.873 0 0 1 2.517.68 2.253 2.253 0 0 1 .812 1.821 2.529 2.529 0 0 1-.368 1.342 2.575 2.575 0 0 1-1.123.968 4.274 4.274 0 0 1-1.861.363 6.342 6.342 0 0 1-1.676-.225 4.318 4.318 0 0 1-1.4-.64l.737-1.428a3.529 3.529 0 0 0 1.06.536 4.051 4.051 0 0 0 1.233.19A1.931 1.931 0 0 0 30.275.8a.884.884 0 0 0 .4-.772.867.867 0 0 0-.421-.784 2.9 2.9 0 0 0-1.454-.262h-2.061l.415-4.54h4.919v1.5h-3.364l-.127 1.533zm7.972-.023a3.146 3.146 0 0 1 1.406.311 2.456 2.456 0 0 1 1 .881 2.376 2.376 0 0 1 .369 1.319 2.513 2.513 0 0 1-.4 1.417 2.631 2.631 0 0 1-1.1.939 3.591 3.591 0 0 1-1.55.328 3.425 3.425 0 0 1-2.65-1.037 4.212 4.212 0 0 1-.956-2.961 4.964 4.964 0 0 1 .517-2.346 3.531 3.531 0 0 1 1.446-1.486 4.408 4.408 0 0 1 2.148-.514 5.233 5.233 0 0 1 1.239.144 3.314 3.314 0 0 1 1.008.409L39-3.772a2.646 2.646 0 0 0-1.509-.4 2.195 2.195 0 0 0-1.624.6 2.508 2.508 0 0 0-.645 1.74 2.694 2.694 0 0 1 1.989-.718zm-.38 3.8a1.439 1.439 0 0 0 .969-.32 1.1 1.1 0 0 0 .374-.876 1.113 1.113 0 0 0-.374-.881 1.457 1.457 0 0 0-1-.328 1.474 1.474 0 0 0-1 .34 1.1 1.1 0 0 0-.392.87 1.1 1.1 0 0 0 .38.864 1.516 1.516 0 0 0 1.043.334zm10.1-6.81v1.21l-3 6.856h-2.019L44.8-4.037h-2.669v1.314h-1.66v-2.835zm6.152 3.825A2.282 2.282 0 0 1 54-.949a1.994 1.994 0 0 1 .32 1.118 2.1 2.1 0 0 1-.426 1.308 2.722 2.722 0 0 1-1.2.864 4.832 4.832 0 0 1-1.786.305 4.786 4.786 0 0 1-1.78-.305 2.685 2.685 0 0 1-1.187-.864 2.114 2.114 0 0 1-.419-1.308 1.994 1.994 0 0 1 .317-1.118 2.3 2.3 0 0 1 .9-.784 1.968 1.968 0 0 1-.691-.7 1.9 1.9 0 0 1-.242-.962 1.969 1.969 0 0 1 .394-1.218 2.5 2.5 0 0 1 1.094-.8 4.3 4.3 0 0 1 1.615-.287 4.38 4.38 0 0 1 1.63.282 2.5 2.5 0 0 1 1.1.8 1.969 1.969 0 0 1 .392 1.221 1.894 1.894 0 0 1-.242.962 1.941 1.941 0 0 1-.702.703zm-2.174-2.589a1.41 1.41 0 0 0-.9.271.9.9 0 0 0-.34.743.876.876 0 0 0 .331.726 1.426 1.426 0 0 0 .91.265 1.476 1.476 0 0 0 .922-.265.865.865 0 0 0 .346-.726.893.893 0 0 0-.346-.743 1.454 1.454 0 0 0-.923-.271zm0 5.6a1.771 1.771 0 0 0 1.112-.317 1.017 1.017 0 0 0 .409-.847 1 1 0 0 0-.409-.841 1.794 1.794 0 0 0-1.112-.311 1.748 1.748 0 0 0-1.094.311 1.007 1.007 0 0 0-.4.841 1.018 1.018 0 0 0 .4.853 1.748 1.748 0 0 0 1.094.311zm7.1-6.971a3.435 3.435 0 0 1 2.65 1.031 4.208 4.208 0 0 1 .953 2.965A5.01 5.01 0 0 1 61.1.653a3.487 3.487 0 0 1-1.446 1.486 4.442 4.442 0 0 1-2.154.507 5.161 5.161 0 0 1-1.233-.146 3.318 3.318 0 0 1-1-.409l.689-1.369a2.612 2.612 0 0 0 1.509.4 2.183 2.183 0 0 0 1.624-.6 2.53 2.53 0 0 0 .645-1.746 2.709 2.709 0 0 1-2 .726 3.146 3.146 0 0 1-1.41-.312 2.456 2.456 0 0 1-1-.881 2.376 2.376 0 0 1-.369-1.319 2.513 2.513 0 0 1 .4-1.417 2.631 2.631 0 0 1 1.1-.939 3.591 3.591 0 0 1 1.551-.334zm.138 3.8a1.452 1.452 0 0 0 1-.34 1.107 1.107 0 0 0 .386-.87 1.1 1.1 0 0 0-.374-.864 1.494 1.494 0 0 0-1.037-.33 1.439 1.439 0 0 0-.974.323 1.1 1.1 0 0 0-.374.876 1.114 1.114 0 0 0 .374.881 1.457 1.457 0 0 0 .997.326zm7.823 4.54a3.27 3.27 0 0 1-1.786-.5A3.325 3.325 0 0 1 62.955.716a5.207 5.207 0 0 1-.444-2.241 5.207 5.207 0 0 1 .444-2.241A3.325 3.325 0 0 1 64.182-5.2a3.27 3.27 0 0 1 1.786-.5 3.27 3.27 0 0 1 1.786.5 3.325 3.325 0 0 1 1.226 1.434 5.207 5.207 0 0 1 .444 2.241A5.207 5.207 0 0 1 68.98.716a3.325 3.325 0 0 1-1.227 1.435 3.27 3.27 0 0 1-1.786.495zm0-1.579a1.319 1.319 0 0 0 1.155-.631 3.6 3.6 0 0 0 .421-1.959 3.6 3.6 0 0 0-.421-1.959 1.319 1.319 0 0 0-1.158-.634 1.309 1.309 0 0 0-1.146.634 3.6 3.6 0 0 0-.421 1.959 3.6 3.6 0 0 0 .421 1.959 1.309 1.309 0 0 0 1.146.634zm7.408-6.625v8.068h-1.869V-4.06H69.9v-1.5zM80.806.987v1.521h-6.094V1.3l3.11-2.94a3.3 3.3 0 0 0 .668-.812 1.478 1.478 0 0 0 .173-.674.891.891 0 0 0-.328-.743 1.528 1.528 0 0 0-.962-.259 2.209 2.209 0 0 0-.956.2 1.831 1.831 0 0 0-.714.6l-1.36-.872a3.189 3.189 0 0 1 1.3-1.1 4.347 4.347 0 0 1 1.9-.4 3.908 3.908 0 0 1 1.573.294 2.424 2.424 0 0 1 1.048.83 2.147 2.147 0 0 1 .374 1.262 2.813 2.813 0 0 1-.277 1.233 4.746 4.746 0 0 1-1.068 1.317L77.339.987zm4.539-3.261a2.714 2.714 0 0 1 1.624.789 2.176 2.176 0 0 1 .566 1.527 2.41 2.41 0 0 1-.369 1.3 2.568 2.568 0 0 1-1.123.951 4.3 4.3 0 0 1-1.849.357 6.342 6.342 0 0 1-1.676-.225 4.318 4.318 0 0 1-1.4-.64l.725-1.432a3.516 3.516 0 0 0 1.066.536 4.106 4.106 0 0 0 1.238.19 1.963 1.963 0 0 0 1.106-.271.87.87 0 0 0 .4-.766q0-.991-1.509-.991h-.853v-1.233l1.663-1.878h-3.433v-1.5h5.645v1.21zM95.784.814H94.47v1.694h-1.82V.814h-4.344V-.442l3.8-5.116h1.959L90.542-.707h2.166v-1.509h1.762v1.509h1.313zm3.3-3.342a3.873 3.873 0 0 1 2.517.68 2.253 2.253 0 0 1 .812 1.821 2.529 2.529 0 0 1-.369 1.342 2.575 2.575 0 0 1-1.123.968 4.274 4.274 0 0 1-1.861.363 6.342 6.342 0 0 1-1.676-.225 4.318 4.318 0 0 1-1.4-.64l.733-1.428a3.529 3.529 0 0 0 1.06.536 4.051 4.051 0 0 0 1.233.19A1.931 1.931 0 0 0 100.115.8a.884.884 0 0 0 .4-.772.867.867 0 0 0-.421-.784 2.9 2.9 0 0 0-1.457-.265h-2.058l.415-4.54h4.919v1.5h-3.364l-.127 1.533z" transform="translate(239.795 567.195)"/>
    </g>
</svg>
