<svg xmlns="http://www.w3.org/2000/svg" width="200" height="200" viewBox="0 0 200 200">
    <defs>
        <style>
            .cls-2{fill:#0f0f0f}.cls-5{fill:#e9e9e9}.cls-6{fill:none;stroke:#141414;stroke-linecap:round;stroke-width:1.5px}.cls-10,.cls-11{stroke:none}.cls-11{fill:#0f0f0f}
        </style>
    </defs>
    <g id="img_phone" transform="translate(-77 -268)">
        <g id="패스_9338" fill="#f2f2f2">
            <path d="M196 196H4V25c0-5.61 2.184-10.883 6.15-14.85C14.118 6.185 19.39 4 25 4h150c5.61 0 10.883 2.184 14.85 6.15C193.815 14.118 196 19.39 196 25v171z" class="cls-10" transform="translate(77 268)"/>
            <path d="M25 8C15.626 8 8 15.626 8 25v167h184V25c0-9.374-7.626-17-17-17H25m0-8h150c13.807 0 25 11.193 25 25v175H0V25C0 11.193 11.193 0 25 0z" class="cls-11" transform="translate(77 268)"/>
        </g>
        <path id="패스_9337" d="M-32.9-11.584h-5.056v-1.664h-1.324v1.664h-5.152v1.056H-32.9zm-2.432 4.24c0 .88-1.2 1.376-3.28 1.376-2.1 0-3.312-.5-3.312-1.376 0-.864 1.216-1.376 3.312-1.376 2.084 0 3.284.512 3.284 1.376zm-7.952 0c0 1.536 1.744 2.384 4.672 2.384 2.9 0 4.64-.848 4.64-2.384 0-1.52-1.744-2.368-4.64-2.368-2.924 0-4.668.848-4.668 2.368zm11.184 3.36h-13v1.056h3.376V1.2h1.312v-4.128h3.612V1.2h1.312v-4.128h3.388zm3.52-6.368h4.048v-1.072h-5.344v9.072h.944a23.564 23.564 0 0 0 5.312-.432l-.112-1.088a22.573 22.573 0 0 1-4.848.432zm9.12-2.816v5.76h-2.032v-5.44h-1.228V.464h1.232v-6.8h2.032v7.52h1.264v-14.352zM-8.048-9.2v1.072h2.88v5.488h1.328v-10.512h-1.328V-9.2zm.848 3.376a4.927 4.927 0 0 1-3.488-4.4v-.7h3.152V-12H-15.2v1.072h3.2v.72a5.23 5.23 0 0 1-3.616 4.7l.688 1.024a6.125 6.125 0 0 0 3.616-3.568A5.921 5.921 0 0 0-7.856-4.8zm-4.5 5.616v-3.36h-1.328V.864h9.588V-.208zM7.712-11.424H4.1v-1.728H2.784v1.728H-.864v1.04h8.576zM1.3-6.88c0-.992.864-1.648 2.144-1.648s2.144.656 2.144 1.648S4.72-5.248 3.44-5.248 1.3-5.888 1.3-6.88zm2.8 2.624c1.648-.208 2.736-1.2 2.736-2.624C6.832-8.5 5.44-9.536 3.44-9.536S.048-8.5.048-6.88c0 1.424 1.088 2.416 2.736 2.624v1.568C1.392-2.64.048-2.64-1.1-2.64l.176 1.1a52.97 52.97 0 0 0 8.96-.576l-.08-.976a37.515 37.515 0 0 1-3.856.356zm8.256-2.816h-2.24v-6.1H8.8V1.184h1.312v-7.152h2.24zM25.024-9.44v1.072h2.832v3.76h1.328v-8.544h-1.328v3.712zm.8 3.264a4.941 4.941 0 0 1-3.488-4.384v-.5h3.152v-1.056h-7.664v1.056h3.2v.5a5.29 5.29 0 0 1-3.616 4.784l.688 1.04a6.211 6.211 0 0 0 3.616-3.648 5.9 5.9 0 0 0 3.456 3.232zM24.448.16c-2.16 0-3.472-.608-3.472-1.648s1.312-1.664 3.472-1.664 3.472.624 3.472 1.664S26.608.16 24.448.16zm0-4.32c-2.944 0-4.784.976-4.784 2.672s1.84 2.672 4.784 2.672 4.768-.976 4.768-2.672-1.824-2.672-4.768-2.672zm10.464-4.352h7.328v2.64h-7.328zm4.32 6.784v-3.088h4.288v-7.328h-1.28v2.56h-7.328v-2.56h-1.3v7.328H37.9v3.088h-5.82v1.072h13.008v-1.072z" class="cls-2" transform="translate(177 340)"/>
        <path id="패스_9336" fill="#f2f2f2" d="M0 0h184v15H0z" transform="translate(85 453)"/>
        <path id="패스_9335" fill="#fff" d="M10 0h164a10 10 0 0 1 10 10v97H0V10A10 10 0 0 1 10 0z" transform="translate(85 361)"/>
        <path id="패스_9334" d="M2 0h156a2 2 0 0 1 2 2v6a2 2 0 0 1-2 2H2a2 2 0 0 1-2-2V2a2 2 0 0 1 2-2z" class="cls-5" transform="translate(97 381)"/>
        <path id="패스_9333" d="M2 0h117a2 2 0 0 1 2 2v6a2 2 0 0 1-2 2H2a2 2 0 0 1-2-2V2a2 2 0 0 1 2-2z" class="cls-5" transform="translate(97 411)"/>
        <g id="그룹_1609" transform="translate(98 290.098)">
            <path id="패스_9341" d="M0 0h14" class="cls-6" transform="translate(0 8.252)"/>
            <path id="패스_9340" d="M0 0v7.5" class="cls-6" transform="rotate(45 -1.029 7.425)"/>
            <path id="패스_9339" d="M0 0v7.5" class="cls-6" transform="rotate(135 -.343 7.828)"/>
        </g>
        <g id="그룹_4873" transform="translate(-3 10.748)">
            <path id="패스_9343" d="M0 0h12" class="cls-6" transform="translate(248 284.252)"/>
            <path id="패스_9342" d="M0 0h12" class="cls-6" transform="translate(248 291.252)"/>
        </g>
        <g id="그룹_4872" transform="translate(-3 11.721)">
            <g id="패스_9345" fill="#fff">
                <path d="M.75 5C.612 5 .5 4.888.5 4.75v-4C.5.612.612.5.75.5S1 .612 1 .75v4C1 4.888.888 5 .75 5z" class="cls-10" transform="rotate(-45 465.36 -134.417)"/>
                <path d="M.75 0c.414 0 .75.336.75.75v4c0 .414-.336.75-.75.75S0 5.164 0 4.75v-4C0 .336.336 0 .75 0z" class="cls-11" transform="rotate(-45 465.36 -134.417)"/>
            </g>
            <g id="패스_9344" fill="none">
                <path d="M5.5 0A5.5 5.5 0 1 1 0 5.5 5.5 5.5 0 0 1 5.5 0z" class="cls-10" transform="translate(224.15 280.279)"/>
                <path d="M5.5 1.5c-2.206 0-4 1.794-4 4s1.794 4 4 4 4-1.794 4-4-1.794-4-4-4m0-1.5C8.538 0 11 2.462 11 5.5S8.538 11 5.5 11 0 8.538 0 5.5 2.462 0 5.5 0z" class="cls-11" transform="translate(224.15 280.279)"/>
            </g>
        </g>
        <path id="패스_9818" d="M.912-5.6H1.5V0H.912zm8.232 0V0h-.568v-4.48l-2.2 3.768H6.1L3.9-4.456V0h-.572v-5.6h.488l2.432 4.152L8.656-5.6zm5.784 5.088V0h-3.96v-5.6h3.84v.512H11.56V-3.1h2.9v.5h-2.9v2.08zM16.32-5.6h.592V0h-.592zm5.208 7.176l.456-.216a7.375 7.375 0 0 1-1.024-3.848 7.4 7.4 0 0 1 1.024-3.848l-.456-.208a7.472 7.472 0 0 0-1.176 4.056 7.5 7.5 0 0 0 1.176 4.064zM26.9-3.44a15.17 15.17 0 0 1-3.168.24v-2.232h2.52v-.528h-3.18v3.3h.56a15.519 15.519 0 0 0 3.336-.248zm-2.4 1.528h-.656V.432h4.784V-.1H24.5zm3.808-2.544v-2.128h-.656v5.192h.656v-2.52h1.064v-.544zm4.744.632H31.04v-1.832h2.016zm.64-2.352H30.4V-3.3h3.3zM31.776-.832h3.9v-1.76h-4.56v.52h3.912v.752h-3.892V.5h4.8v-.532h-4.16zm3.9-4.208v-1.536h-.656v3.648h.656V-4.5h1.064v-.54zm2.216-.768v.528h2.7a4.745 4.745 0 0 1-3.024 4l.352.536a5.374 5.374 0 0 0 3.336-5.064zm4.808-.776V.592h.656v-7.176zm8.248 3.376a2.555 2.555 0 0 1-1.8-2.336v-.7h-.656v.7A2.683 2.683 0 0 1 46.68-3.08l.336.52a3.1 3.1 0 0 0 1.808-1.832 3.016 3.016 0 0 0 1.792 1.7zM47.7-1.368h4.144V.6h.656v-2.5h-4.8zm4.144-5.208v4.312h.656v-4.312zm7.376 1.528v.792h-1.652v-.792zm-2.3 1.4h-1.936v-1.064h1.936zm.648-.1h1.656v.912h.656v-3.74h-.656v1.016h-1.656v-.68h-.648v1.016h-1.936v-1.024h-.648v3.128h3.232zM55.92-.024v-.76h3.96v-1.7h-4.624v.52h3.976v.688h-3.96V.5h4.88v-.52zm8.36-3h-1.936v-1.3h1.936zm.648-1h1.656v2.752h.664v-5.312h-.664v2.024h-1.656V-6.1h-.648v1.26h-1.936V-6.1H61.7v3.6h3.232zM63.288-.1v-1.692h-.656V.432h4.784V-.1zM74.84-5.536h-2.568v-.936h-.656v.936h-2.6V-5h5.824zm-4.592 2.384c0-.528.648-.848 1.7-.848 1.032 0 1.672.32 1.672.848s-.64.856-1.672.856c-1.048-.004-1.7-.32-1.7-.856zm2.024 2.368v-1.008c1.248-.08 2.008-.56 2.008-1.36 0-.864-.9-1.36-2.336-1.36-1.456 0-2.36.5-2.36 1.36 0 .8.768 1.288 2.032 1.36v1.008H68.7v.536h6.5v-.536zm4.152 2.36a7.437 7.437 0 0 0 1.184-4.064 7.41 7.41 0 0 0-1.184-4.056l-.448.208A7.471 7.471 0 0 1 77-2.488a7.451 7.451 0 0 1-1.024 3.848z" class="cls-2" transform="translate(97 450)"/>
        <path id="패스_9819" fill="#648de5" d="M2.472-5.6V0h-1.3v-4.56H.056V-5.6zm5.16 4.544V0H3.4v-.84l2.16-2.04a2.294 2.294 0 0 0 .464-.564 1.026 1.026 0 0 0 .12-.468.619.619 0 0 0-.228-.516 1.061 1.061 0 0 0-.668-.18 1.534 1.534 0 0 0-.664.14 1.272 1.272 0 0 0-.5.42l-.944-.608a2.215 2.215 0 0 1 .9-.764 3.019 3.019 0 0 1 1.328-.28 2.714 2.714 0 0 1 1.092.2 1.683 1.683 0 0 1 .728.576 1.49 1.49 0 0 1 .26.876 1.953 1.953 0 0 1-.192.856 3.3 3.3 0 0 1-.744.912L5.224-1.056zm3.152-2.264a1.885 1.885 0 0 1 1.128.548 1.511 1.511 0 0 1 .392 1.06 1.673 1.673 0 0 1-.256.9 1.783 1.783 0 0 1-.78.66A2.988 2.988 0 0 1 9.984.1 4.4 4.4 0 0 1 8.82-.06a3 3 0 0 1-.972-.44l.5-.992a2.442 2.442 0 0 0 .74.372 2.852 2.852 0 0 0 .86.132 1.363 1.363 0 0 0 .768-.188.6.6 0 0 0 .284-.536Q11-2.4 9.952-2.4H9.36v-.856l1.152-1.3H8.128V-5.6h3.92v.84zm7.248 2.144h-.912V0h-1.264v-1.176H12.84v-.872L15.48-5.6h1.36l-2.448 3.368h1.5V-3.28h1.228v1.048h.912zM20.32-3.5a2.689 2.689 0 0 1 1.748.472 1.564 1.564 0 0 1 .564 1.264 1.756 1.756 0 0 1-.256.932 1.788 1.788 0 0 1-.78.672A2.968 2.968 0 0 1 20.3.1a4.4 4.4 0 0 1-1.16-.16 3 3 0 0 1-.972-.44l.512-1a2.45 2.45 0 0 0 .736.372 2.813 2.813 0 0 0 .856.132 1.341 1.341 0 0 0 .768-.192.614.614 0 0 0 .28-.536.6.6 0 0 0-.292-.544 2.015 2.015 0 0 0-1.012-.184h-1.432l.288-3.148h3.416v1.04h-2.336l-.088 1.06zm5.536-.016a2.185 2.185 0 0 1 .976.216 1.705 1.705 0 0 1 .7.612 1.65 1.65 0 0 1 .256.916 1.744 1.744 0 0 1-.28.984 1.827 1.827 0 0 1-.764.652 2.494 2.494 0 0 1-1.08.236 2.379 2.379 0 0 1-1.84-.72 2.924 2.924 0 0 1-.664-2.06 3.446 3.446 0 0 1 .36-1.632 2.451 2.451 0 0 1 1-1.032 3.062 3.062 0 0 1 1.496-.356 3.634 3.634 0 0 1 .86.1 2.3 2.3 0 0 1 .7.284l-.48.952a1.837 1.837 0 0 0-1.048-.28 1.524 1.524 0 0 0-1.128.416 1.741 1.741 0 0 0-.448 1.208 1.871 1.871 0 0 1 1.384-.492zm-.264 2.64a1 1 0 0 0 .676-.224.761.761 0 0 0 .26-.608.773.773 0 0 0-.26-.612 1.012 1.012 0 0 0-.692-.228 1.024 1.024 0 0 0-.7.236.764.764 0 0 0-.272.6.762.762 0 0 0 .264.6 1.053 1.053 0 0 0 .724.24zM32.608-5.6v.84L30.528 0H29.12l2.008-4.544h-1.856v.912H28.12V-5.6zm4.272 2.656a1.585 1.585 0 0 1 .636.544 1.384 1.384 0 0 1 .22.776 1.455 1.455 0 0 1-.3.908 1.89 1.89 0 0 1-.832.6A3.356 3.356 0 0 1 35.368.1a3.324 3.324 0 0 1-1.236-.212 1.864 1.864 0 0 1-.824-.6 1.468 1.468 0 0 1-.292-.908 1.384 1.384 0 0 1 .22-.776 1.6 1.6 0 0 1 .628-.544 1.366 1.366 0 0 1-.48-.484 1.315 1.315 0 0 1-.168-.668 1.367 1.367 0 0 1 .272-.848 1.736 1.736 0 0 1 .76-.556 2.987 2.987 0 0 1 1.12-.2 3.042 3.042 0 0 1 1.132.2 1.733 1.733 0 0 1 .764.556 1.367 1.367 0 0 1 .272.848 1.315 1.315 0 0 1-.168.668 1.348 1.348 0 0 1-.488.48zm-1.512-1.8a.979.979 0 0 0-.628.188.624.624 0 0 0-.236.516.608.608 0 0 0 .232.5.99.99 0 0 0 .632.184 1.025 1.025 0 0 0 .64-.184.6.6 0 0 0 .24-.5.62.62 0 0 0-.24-.516 1.01 1.01 0 0 0-.64-.188zm0 3.888a1.23 1.23 0 0 0 .772-.22.706.706 0 0 0 .284-.588.7.7 0 0 0-.284-.584 1.246 1.246 0 0 0-.772-.216 1.214 1.214 0 0 0-.76.216.7.7 0 0 0-.28.584.707.707 0 0 0 .28.592 1.214 1.214 0 0 0 .76.216zM40.3-5.7a2.386 2.386 0 0 1 1.84.716 2.922 2.922 0 0 1 .66 2.064 3.478 3.478 0 0 1-.356 1.632 2.421 2.421 0 0 1-1 1.032 3.085 3.085 0 0 1-1.5.352 3.584 3.584 0 0 1-.856-.1 2.3 2.3 0 0 1-.7-.284l.48-.952a1.814 1.814 0 0 0 1.048.28 1.516 1.516 0 0 0 1.128-.42 1.757 1.757 0 0 0 .456-1.212 1.881 1.881 0 0 1-1.392.5 2.185 2.185 0 0 1-.976-.216 1.705 1.705 0 0 1-.7-.612 1.65 1.65 0 0 1-.256-.916 1.744 1.744 0 0 1 .28-.984 1.827 1.827 0 0 1 .764-.652A2.494 2.494 0 0 1 40.3-5.7zm.1 2.64a1.009 1.009 0 0 0 .692-.236.769.769 0 0 0 .268-.6.767.767 0 0 0-.26-.6 1.037 1.037 0 0 0-.716-.232 1 1 0 0 0-.684.228.761.761 0 0 0-.26.608.773.773 0 0 0 .26.612 1.012 1.012 0 0 0 .692.224zM45.824.1a2.271 2.271 0 0 1-1.24-.344 2.309 2.309 0 0 1-.852-1 3.615 3.615 0 0 1-.308-1.556 3.615 3.615 0 0 1 .308-1.556 2.309 2.309 0 0 1 .852-1 2.271 2.271 0 0 1 1.24-.344 2.271 2.271 0 0 1 1.24.344 2.309 2.309 0 0 1 .852 1 3.615 3.615 0 0 1 .308 1.556 3.615 3.615 0 0 1-.308 1.556 2.309 2.309 0 0 1-.852 1 2.271 2.271 0 0 1-1.24.344zm0-1.1a.916.916 0 0 0 .8-.44 2.5 2.5 0 0 0 .296-1.36 2.5 2.5 0 0 0-.292-1.36.916.916 0 0 0-.8-.44.909.909 0 0 0-.8.44 2.5 2.5 0 0 0-.292 1.36 2.5 2.5 0 0 0 .292 1.36.909.909 0 0 0 .796.44zm5.144-4.6V0h-1.3v-4.56h-1.12V-5.6zm5.16 4.544V0H51.9v-.84l2.16-2.04a2.294 2.294 0 0 0 .464-.564 1.026 1.026 0 0 0 .12-.468.619.619 0 0 0-.228-.516 1.061 1.061 0 0 0-.668-.18 1.534 1.534 0 0 0-.664.14 1.272 1.272 0 0 0-.5.42l-.944-.608a2.215 2.215 0 0 1 .9-.764 3.019 3.019 0 0 1 1.32-.276 2.714 2.714 0 0 1 1.092.2 1.683 1.683 0 0 1 .728.576 1.49 1.49 0 0 1 .26.876 1.953 1.953 0 0 1-.192.856 3.3 3.3 0 0 1-.744.912l-1.284 1.22zM59.28-3.32a1.885 1.885 0 0 1 1.128.548 1.511 1.511 0 0 1 .392 1.06 1.673 1.673 0 0 1-.256.9 1.783 1.783 0 0 1-.78.66A2.988 2.988 0 0 1 58.48.1a4.4 4.4 0 0 1-1.164-.16 3 3 0 0 1-.972-.44l.5-.992a2.442 2.442 0 0 0 .74.372 2.852 2.852 0 0 0 .86.132 1.363 1.363 0 0 0 .768-.188.6.6 0 0 0 .28-.532q0-.688-1.048-.688h-.592v-.856l1.152-1.3h-2.38V-5.6h3.92v.84zm7.248 2.144h-.912V0h-1.264v-1.176h-3.016v-.872l2.64-3.552h1.36l-2.448 3.368h1.5V-3.28h1.224v1.048h.912zM68.816-3.5a2.689 2.689 0 0 1 1.748.472 1.564 1.564 0 0 1 .564 1.264 1.756 1.756 0 0 1-.256.932 1.788 1.788 0 0 1-.78.672A2.968 2.968 0 0 1 68.8.1a4.4 4.4 0 0 1-1.164-.16 3 3 0 0 1-.972-.44l.512-.992a2.45 2.45 0 0 0 .736.372 2.813 2.813 0 0 0 .856.132 1.341 1.341 0 0 0 .768-.192.614.614 0 0 0 .28-.536.6.6 0 0 0-.292-.544 2.015 2.015 0 0 0-1.012-.184H67.08l.288-3.156h3.416v1.04h-2.336L68.36-3.5z" transform="translate(186 449.896)"/>
    </g>
</svg>
