<svg xmlns="http://www.w3.org/2000/svg" width="100" height="100" viewBox="0 0 100 100">
    <defs>
        <clipPath id="clip-path">
            <rect id="사각형_8520" width="33.45" height="56.337" fill="#eef2f8" rx="1"/>
        </clipPath>
        <style>
            .cls-3{fill:#ebcdb7}
        </style>
    </defs>
    <g id="insurance-guide-02" transform="translate(-20 -336)">
        <path id="사각형_8580" fill="none" d="M0 0H100V100H0z" transform="translate(20 336)"/>
        <g id="그룹_4601" transform="translate(42.5 342.25)">
            <path id="패스_8833" d="M6695.831-8905.569l5.493-13.307a24.287 24.287 0 0 0 .545-6.521c-.035-4.667.659-21.229.659-21.229s-.53-2.827 2.872-5.873 37.281-21.52 37.281-21.52 3.279-1.895 5.113-.572 1.347 4.348-1.973 6.841-6.538 5.095-6.538 5.095l-1.36 2.877h4.758a3.786 3.786 0 0 1 3.141 1.638c1.111 1.722 6.014 5.386 4.832 6.846s-4.285 1.709-8.919-.788-7.559.735-7.559 1.4 7.559 1.255 7.559 1.255l4.087 2.8s.637-.711.972 3.69 2.776 10.7 0 8.849c-.613-.408-1.214-.76-.972 0 .328 1.055 2.007 4.738 1.323 5.551s-2.43 1.13-5.41-1.673-11.117 8.4-11.117 8.4a37.685 37.685 0 0 1-4.1 9.313c-2.01 3.205-6.64 6.93-6.64 6.93l-1.868 9.177" class="cls-3" transform="translate(-6695.831 8983.809)"/>
            <g id="그룹_4559" transform="translate(13.945)">
                <rect id="사각형_6170" width="38.96" height="71.045" fill="#9d9d9d" rx="4"/>
                <rect id="사각형_6175" width="33.45" height="56.337" fill="#ebebeb" rx="1" transform="translate(2.929 7.804)"/>
            </g>
            <path id="패스_8832" d="M6704.727-8926.328l6.047-21.1s1.233-3.45 4.115-3.848 12.45-4.693 12.45-4.693 2.7-1.157 1.963 3.023a13.083 13.083 0 0 1-3.285 6.871c-2.809 2.783-6.784 3.771-7.3 4.454s0 9.436 0 9.436 3.738 9.314 1.622 15.691-4.68 8.954-4.68 8.954" class="cls-3" transform="translate(-6696.002 8986.825)"/>
        </g>
    </g>
</svg>
