<svg xmlns="http://www.w3.org/2000/svg" width="100" height="100" viewBox="0 0 100 100">
    <defs>
        <clipPath id="clip-path">
            <rect id="Rectangle_8520" width="32.84" height="55.309" class="cls-1" rx="1"/>
        </clipPath>
        <style>
            .cls-1{fill:#eef2f8}.cls-6{fill:#707070}
        </style>
    </defs>
    <g id="ic_insurance_1" transform="translate(-29.679 -184.359)">
        <path id="Rectangle_8579" fill="none" d="M0 0H100V100H0z" transform="translate(29.679 184.359)"/>
        <path id="Path_8828" fill="#ee7674" d="M6.821 9.427L0 15.64h12.736l3.307 5.609 5.078-5.049 10.329 4.11-2.785-7.727L38.5 9.925l-9.435-3.908V0l-9.443 4.945-15.917-.588z" transform="translate(60.185 255.641)"/>
        <g id="Group_4558" transform="rotate(30 -317.765 246.139)">
            <rect id="Rectangle_6170" width="38.025" height="69.136" fill="#afc2dc" rx="4"/>
            <rect id="Rectangle_6175" width="32.84" height="55.309" class="cls-1" rx="1" transform="translate(2.593 7.662)"/>
            <g id="Mask_Group_64" clip-path="url(#clip-path)" transform="translate(2.593 7.662)">
                <path id="Path_8829" d="M3.855 0L1.7 13.928l3.572 6.045-3.147 11.6 1.731-11.6L0 13.928 1.7 0z" class="cls-6" transform="rotate(-18.01 -.888 2.72)"/>
                <path id="Path_8830" d="M3.779 29.642l-2.08-12L5.271 11.6 2.124 0l1.731 11.6L0 17.646l1.57 13.5s.736.52 1.295.148a3.7 3.7 0 0 0 .914-1.652z" class="cls-6" transform="rotate(-34 57.344 -6.936)"/>
                <path id="Path_8831" d="M0 17.418L2.728 12.3 0 0l3.736 12.3-2.92 6.243z" class="cls-6" transform="rotate(-11 103.944 -87.167)"/>
            </g>
        </g>
    </g>
</svg>
