<svg xmlns="http://www.w3.org/2000/svg" width="300" height="340" viewBox="0 0 300 340">
    <defs>
        <style>
            .cls-6{fill:#0f0f0f}.cls-8{stroke:none}
        </style>
    </defs>
    <g id="notice-talk" transform="translate(-77 -268)">
        <g id="패스_9510" fill="#abc1d1">
            <path d="M296 336H4V35c0-4.187.82-8.246 2.435-12.065 1.56-3.691 3.796-7.007 6.645-9.855 2.848-2.849 6.164-5.084 9.855-6.645C26.754 4.819 30.813 4 35 4h230c4.187 0 8.246.82 12.065 2.435 3.691 1.56 7.007 3.796 9.855 6.645 2.849 2.848 5.084 6.164 6.645 9.855C295.181 26.754 296 30.813 296 35v301z" class="cls-8" transform="translate(77 268)"/>
            <path fill="#0f0f0f" d="M35 8C20.112 8 8 20.112 8 35v297h284V35c0-14.888-12.112-27-27-27H35m0-8h230c19.33 0 35 15.67 35 35v305H0V35C0 15.67 15.67 0 35 0z" transform="translate(77 268)"/>
        </g>
        <path id="패스_9509" fill="#abc1d1" d="M0 0h284v22H0z" transform="translate(85 586)"/>
        <path id="패스_9508" fill="#fff" d="M10 0h200a10 10 0 0 1 10 10v206a10 10 0 0 1-10 10H10a10 10 0 0 1-10-10V10A10 10 0 0 1 10 0z" transform="translate(117 348)"/>
        <path id="패스_9507" fill="#fde404" d="M10 0h200a10 10 0 0 1 10 10v26H0V10A10 10 0 0 1 10 0z" transform="translate(117 348)"/>
        <path id="패스_9506" fill="#564f0c" d="M1.62-5.94A1.235 1.235 0 0 1 3-7.13a1.222 1.222 0 0 1 1.36 1.19A1.23 1.23 0 0 1 3-4.74a1.242 1.242 0 0 1-1.38-1.2zm3.74 0A2.136 2.136 0 0 0 3-7.97 2.149 2.149 0 0 0 .62-5.94 2.149 2.149 0 0 0 3-3.91a2.136 2.136 0 0 0 2.36-2.03zM2.76-.98h4.8v-2.33H1.73v.81h4.81v.77H1.75V.66h6.11v-.82h-5.1zm4.8-5.43v-1.86H6.53v4.57h1.03v-1.86h1.27v-.85zm7.62 2.02a22.622 22.622 0 0 1-3.99.27v-1.03h3.09v-2.59h-4.13v.83h3.12v.97h-3.1v2.66h.76a25.677 25.677 0 0 0 4.37-.27zm-2.93 2.76h3.89v1.47h-3.89zM11.24.66h5.91v-3.11h-5.91zm4.88-8.93v5.37h1.03v-5.37zm3.69 7.17h5.2V.77h1.03v-2.69h-6.23zm3.69-2.32v-.83h2.66v-.79h-5.19v-.73h4.91v-.77h-4.91v-.7h5.13v-.79h-6.16v3.78h2.52v.83h-3.57v.83h8.18v-.83zm11.45 2.26v-2.13h2.67v-.83h-5.23v-2.63h5.15v-.83h-6.18v4.29h2.56v2.13h-3.56v.85h8.18v-.85zm9.94-2.71a2.671 2.671 0 0 1-2.15-2.44v-.1h1.9v-.82h-1.89V-8.3h-1.04v1.07h-1.9v.82h1.9v.1a2.794 2.794 0 0 1-2.17 2.6l.49.81a3.525 3.525 0 0 0 2.22-1.91 3.33 3.33 0 0 0 2.15 1.74zm-4.22 2.39h4.91V.79h1.03v-3.1h-5.94zm7.22-4.45h-1.28v-2.34h-1.03v5.53h1.03v-2.34h1.28z" transform="translate(134 371)"/>
        <path id="패스_9505" d="M1.5-5.39a1.471 1.471 0 0 1 1.54-1.5 1.471 1.471 0 0 1 1.54 1.5 1.471 1.471 0 0 1-1.54 1.5 1.471 1.471 0 0 1-1.54-1.5zm3.88 0A2.2 2.2 0 0 0 3.04-7.6 2.2 2.2 0 0 0 .7-5.39a2.2 2.2 0 0 0 2.34 2.21 2.2 2.2 0 0 0 2.34-2.21zM2.73-2.3h-.82V.54h5.98v-.67H2.73zm4.76-3.2v-2.73h-.82v6.6h.82v-3.19h1.32v-.68zm8.8 2.78h.83v-5.51h-.83v1.06h-2.52v.64h2.52v.94h-2.52v.64h2.52zm-1.43-1.62a17.423 17.423 0 0 1-3.78.32v-3.67h-.81v4.35h.68a18.848 18.848 0 0 0 4.01-.33zm-.7 4.43c-1.35 0-2.17-.39-2.17-1.04S12.81-2 14.16-2s2.17.39 2.17 1.05S15.51.09 14.16.09zm0-2.73c-1.84 0-2.99.61-2.99 1.69S12.32.74 14.16.74s2.99-.62 2.99-1.69S16-2.64 14.16-2.64zm7.4.7a1.345 1.345 0 0 1-1.4-1.38 1.347 1.347 0 0 1 1.4-1.39 1.35 1.35 0 0 1 1.41 1.39 1.348 1.348 0 0 1-1.41 1.38zm0-3.45a2.045 2.045 0 0 0-2.17 2.07 2.031 2.031 0 0 0 2.17 2.06 2.037 2.037 0 0 0 2.19-2.06 2.05 2.05 0 0 0-2.19-2.07zm.4-2.73h-.82v1.33h-2.26v.66h5.29v-.66h-2.21zm5.35 3.58h-1.47v-3.68h-.82V.74h.82v-4.59h1.47zm3.48-2.84H30v1.71a4.553 4.553 0 0 1-1.97 3.87l.51.61a4.569 4.569 0 0 0 1.86-2.75 4.384 4.384 0 0 0 1.77 2.56l.47-.64a4.362 4.362 0 0 1-1.85-3.68zm2.36 2.37h-1.48v.68h1.48V.3h.77v-8.33h-.77zm1.82-3.22V.74h.78v-8.97zm5.17 5.03a5.347 5.347 0 0 0 1.24.14 5.524 5.524 0 0 0 1.26-.14v2.11h-2.5zm1.24-3.82c1.44 0 2.48.66 2.48 1.66S42.82-3.7 41.38-3.7s-2.47-.66-2.47-1.66 1.03-1.66 2.47-1.66zm2.08 5.93v-2.43a2.033 2.033 0 0 0 1.18-1.84c0-1.4-1.35-2.3-3.26-2.3s-3.26.9-3.26 2.3a2.05 2.05 0 0 0 1.2 1.85v2.42h-2v.68h8.15v-.68zM47.39.13a.66.66 0 0 0 .66-.69.672.672 0 0 0-.66-.71.672.672 0 0 0-.66.71.66.66 0 0 0 .66.69zm11.52-8.35h-.82v6.44h.82zm-3.5 4.28h-2.59v-2.85h2.59zm.8-3.51h-4.19v4.17h4.19zM53.96-.22v-2.17h-.82V.44h6.04v-.66zm14.15-8h-.82v6.2h.82zm-1.85 4.09a23.466 23.466 0 0 1-4.18.25v-1.21h3.21v-.65h-3.21v-1.15h3.46v-.66h-4.28v4.33h.73a24.375 24.375 0 0 0 4.36-.26zm-.64 1.59h-.84v.17c0 1.24-1.4 2.18-3.01 2.43l.32.65a4.29 4.29 0 0 0 3.11-1.95A4.27 4.27 0 0 0 68.31.71l.32-.65c-1.61-.25-3.01-1.19-3.01-2.43zm12.9-3.9a19.15 19.15 0 0 1-.34 4.06l.82.09a20.22 20.22 0 0 0 .34-4.15v-.89h-6.29v.67h5.47zm-2.35 5.25V-4.4h-.82v3.21H72.2v.67h8.11v-.67zm5.62-6.37v.66h2.66a4.289 4.289 0 0 1-3.01 3.45l.4.6c2.27-.96 3.45-2.57 3.45-4.71zm1.14 5.71h5.21V.74h.82v-3.26h-6.03zm5.24-6.37v2.25h-1.18v-2.09h-.78v5.07h.78V-5.3h1.18v2.35h.79v-5.27zm7.98 3.3a20.114 20.114 0 0 1-4.19.4v-3.19h-.82v3.88h.73a21.353 21.353 0 0 0 4.39-.41zm-3.21 2.85h4.2v2.02h-4.2zm-.8 2.68h5.8v-3.33h-5.8zm4.98-8.85v5.09h.82v-5.09zm-88.96 15H5V5.72h-.83v1.04H.95v.66h7.21zM6.64 9.41c0 .55-.75.86-2.05.86s-2.07-.31-2.07-.86.76-.86 2.07-.86 2.05.32 2.05.86zm-4.97 0c0 .96 1.09 1.49 2.92 1.49 1.81 0 2.9-.53 2.9-1.49S6.4 7.93 4.59 7.93c-1.83 0-2.92.53-2.92 1.48zm6.99 2.1H.53v.66h2.11v2.58h.82v-2.58h2.26v2.58h.82v-2.58h2.12zm2.2-3.98h2.53v-.67h-3.34v5.67h.59a14.728 14.728 0 0 0 3.32-.27l-.07-.68a14.108 14.108 0 0 1-3.03.27zm5.7-1.76v3.6h-1.27v-3.4h-.77v8.32h.77v-4.25h1.27v4.7h.79V5.77zm4.23 6.31h-.82v2.46h6.17v-.67h-5.35zm1.07-5.24h2.23v2.04h-2.23zm1.54 3.79V9.54h2.83v-.66h-1.32V6.84h1.35v-.66h-6.58v.66h1.36v2.04h-1.33v.66h2.87v1.09h-3.66v.66h8.11v-.66zm8.93-3.36h1.43v3.01c-.48.03-.96.04-1.43.05zm3.53 2.84c-.42.05-.86.09-1.31.12V7.27h.89v-.66h-4.79v.66h.88v3.08c-.4.01-.78.01-1.13.01l.09.68a37.165 37.165 0 0 0 5.43-.32zm-3.29 1.65h-.82v2.78h5.98v-.67h-5.16zm4.76-3.26V5.77h-.82v6.61h.82v-3.2h1.32V8.5zm3.33-1.04h1.88v4.22h-1.88zm-.77 4.87h3.41V6.81h-3.41zm6.52-6.56v3.55H45.2V5.97h-.77v8.32h.77v-4.3h1.21v4.74h.78V5.77zm11.96 0h-.82v6.58h.82zm-1.96 4.47a3.327 3.327 0 0 1-2.24-3.06v-.91h-.82v.91a3.5 3.5 0 0 1-2.25 3.22l.43.67a4.024 4.024 0 0 0 2.24-2.4 3.866 3.866 0 0 0 2.21 2.22zm-2.99 3.63v-2.13h-.82v2.8h6.04v-.67zm11.56-5.55V9h1.79v2.21h.83V5.77h-.83v2.55zm.54 1.87a2.84 2.84 0 0 1-2.25-2.51v-.17h1.98v-.66h-1.98V5.72h-.82v1.13h-1.99v.66h1.99v.17a3.044 3.044 0 0 1-2.22 2.75l.4.63a3.573 3.573 0 0 0 2.25-2.09 3.619 3.619 0 0 0 2.25 1.86zm-.89 3.9c-1.35 0-2.16-.38-2.16-1.01s.81-1 2.16-1c1.37 0 2.18.38 2.18 1s-.82 1.01-2.18 1.01zm0-2.65c-1.84 0-2.98.6-2.98 1.64s1.14 1.65 2.98 1.65c1.86 0 3-.6 3-1.65s-1.14-1.64-3-1.64zm11.3-5.67v8.99h.82V5.77zm-3.91.69c-1.33 0-2.28 1.22-2.28 3.13s.95 3.13 2.28 3.13 2.28-1.22 2.28-3.13-.95-3.13-2.28-3.13zm0 .74c.87 0 1.49.94 1.49 2.39s-.62 2.4-1.49 2.4-1.5-.94-1.5-2.4.62-2.39 1.5-2.39zm14.12 2.74a3.076 3.076 0 0 1-2.18-2.73v-.23h1.97v-.67h-4.79v.67h2v.23a3.248 3.248 0 0 1-2.26 2.94l.43.65a3.828 3.828 0 0 0 2.25-2.24 3.778 3.778 0 0 0 2.17 2.03zm1.28 4.01H83.3v-1.13h4.12zm0-1.77H83.3v-1.11h-.81v3.55h5.74v-3.55h-.81zm-.01-6.4v2.17h-1.77v.67h1.77v2.02h.82V5.78zm10.36 3.41c-1.63-.24-3.23-1.35-3.23-2.6v-.5h-.86v.5c0 1.28-1.58 2.36-3.21 2.6l.33.66a4.6 4.6 0 0 0 3.31-2.1 4.707 4.707 0 0 0 3.32 2.1zm.39 1.63h-8.1v.68h3.62v3.25h.82V11.5h3.67zm4.46-.51h1.93v-.67h-3.77V7.29h3.73v-.68h-4.54v3.7h1.83v1.78c-.87.03-1.72.03-2.49.03l.1.69a39.717 39.717 0 0 0 5.81-.34l-.07-.6c-.8.1-1.67.15-2.53.19zm3.12-4.55v9h.82v-9zm5.15 1.2a1.422 1.422 0 1 1-1.5 1.41 1.418 1.418 0 0 1 1.5-1.41zm4.12 1.73v2.19h.83v-5.1h-.83v2.24h-1.85a2.14 2.14 0 0 0-2.27-1.74 2.108 2.108 0 1 0 0 4.2 2.143 2.143 0 0 0 2.28-1.79zm-.15 2.54h-.8v.53a2.691 2.691 0 0 1-1.27 2.15 2.5 2.5 0 0 1-1.25-2.15v-.53h-.79v.53a2.592 2.592 0 0 1-1.8 2.26l.41.61a3.2 3.2 0 0 0 1.77-1.67 2.878 2.878 0 0 0 1.67 1.75 3.118 3.118 0 0 0 1.65-1.78 3.049 3.049 0 0 0 1.81 1.7l.41-.61a2.483 2.483 0 0 1-1.81-2.26zm10.44-2.66c-1.59-.2-3.17-1.19-3.17-2.3v-.4h-.84v.4c0 1.14-1.57 2.1-3.18 2.3l.3.66a4.619 4.619 0 0 0 3.3-1.92A4.638 4.638 0 0 0 125 9.23zm-1.41 5.39h-4.41v-1.14h4.41zm0-1.77h-4.41v-1.05h-.81v3.48h6.03v-3.48h-.81zm-6.25-2.33v.66h8.12v-.66zm10.59-3.22h-.82v5.78h.74a21.309 21.309 0 0 0 4.4-.42l-.09-.7a21.191 21.191 0 0 1-4.23.42zm5.15-.87v8.96h.82V5.77zm3.87 1.54h3.35v-.68h-4.17v5.89h.71a21.264 21.264 0 0 0 4.24-.32l-.09-.68a21.8 21.8 0 0 1-4.04.3zm7.18 2h-1.48V5.77h-.82v8.99h.82V9.99h1.48zm1.68 4.82a.66.66 0 0 0 .66-.69.662.662 0 1 0-1.32 0 .66.66 0 0 0 .66.69z" class="cls-6" transform="translate(132 411)"/>
        <path id="패스_9504" d="M1.01-7.27v.68H4.3A6.1 6.1 0 0 1 .59-1.6l.45.64a6.743 6.743 0 0 0 4.07-6.31zm7.86 2.68H7.43v-3.64h-.82V.74h.82v-4.65h1.44zm1.12-2.67v.68h1.65A7.177 7.177 0 0 1 9.7-1.74l.64.46a8.249 8.249 0 0 0 2.08-5.98zm2.73 0v.68h1.38a8.488 8.488 0 0 1-1.85 5.45l.66.45a9.873 9.873 0 0 0 1.96-6.58zm5.39 2.73h-1.33v-3.7h-.82V.74h.82v-4.59h1.33zm4.87-2.81c1.38 0 2.28.43 2.28 1.14s-.9 1.13-2.28 1.13S20.7-5.5 20.7-6.2s.91-1.14 2.28-1.14zm0 2.94c1.9 0 3.14-.69 3.14-1.8S24.88-8 22.98-8s-3.14.69-3.14 1.8 1.24 1.8 3.14 1.8zm-2.2 2.32h-.82V.54h6.2v-.68h-5.38zm-1.86-1.6v.67h3.72v1.81h.83v-1.81h3.58v-.67zm18.81-4.54h-.82v6.44h.82zm-3.5 4.28h-2.59v-2.85h2.59zm.8-3.51h-4.19v4.17h4.19zM32.78-.22v-2.17h-.82V.44H38v-.66zm14.15-8h-.82v6.2h.82zm-1.85 4.09a23.466 23.466 0 0 1-4.18.25v-1.21h3.21v-.65H40.9v-1.15h3.46v-.66h-4.28v4.33h.73a24.375 24.375 0 0 0 4.36-.26zm-.64 1.59h-.84v.17c0 1.24-1.4 2.18-3.01 2.43l.32.65a4.29 4.29 0 0 0 3.11-1.95A4.27 4.27 0 0 0 47.13.71l.32-.65c-1.61-.25-3.01-1.19-3.01-2.43zm9.77-4.09h2.11v-.68h-5.01v.68h2.08v1.14a4.588 4.588 0 0 1-2.38 3.85l.48.66a5.03 5.03 0 0 0 2.31-2.96 4.739 4.739 0 0 0 2.35 2.74l.46-.66a4.176 4.176 0 0 1-2.4-3.63zm3.32-1.59V.74h.82v-8.96zM65-5.9v.67h1.77v2.35h.83v-5.34h-.83v2.32zm.5 2.04a3.088 3.088 0 0 1-2.18-2.74v-.31h1.97v-.66H60.5v.66h2v.31a3.306 3.306 0 0 1-2.26 2.99l.43.65a3.882 3.882 0 0 0 2.26-2.28 3.685 3.685 0 0 0 2.16 2.02zM64.64.1c-1.35 0-2.17-.38-2.17-1.03s.82-1.04 2.17-1.04 2.17.39 2.17 1.04S65.99.1 64.64.1zm0-2.7c-1.84 0-2.99.61-2.99 1.67S62.8.74 64.64.74s2.99-.61 2.99-1.67-1.15-1.67-2.99-1.67zm13.57 1.04h.83v-6.66h-.83v1.7h-1.5v.66h1.5v1.05h-1.5v.67h1.5zM73.6-6.84h1.35v3.18c-.45.02-.91.04-1.35.05zm3.32 3.02c-.37.04-.77.08-1.17.11v-3.13h.89v-.66h-4.72v.66h.89v3.24c-.4.01-.79.01-1.13.01l.09.68a35.591 35.591 0 0 0 5.2-.3zM74.11-.13V-2.1h-.82V.54h5.98v-.67zm9.65-7.44a2.173 2.173 0 0 0-2.4 2.11 2.178 2.178 0 0 0 2.4 2.11 2.173 2.173 0 0 0 2.4-2.11 2.167 2.167 0 0 0-2.4-2.11zm0 .7a1.449 1.449 0 0 1 1.6 1.41 1.455 1.455 0 0 1-1.6 1.41 1.46 1.46 0 0 1-1.6-1.41 1.454 1.454 0 0 1 1.6-1.41zm3.58-1.36V.76h.82v-8.99zm-6.33 7.02a32.978 32.978 0 0 0 5.81-.39l-.07-.61a40.389 40.389 0 0 1-5.84.31zm14.33-2.7a3.079 3.079 0 0 1-2.18-2.75v-.33h1.97v-.67h-4.79v.67h2v.34a3.269 3.269 0 0 1-2.26 2.94l.43.64a3.8 3.8 0 0 0 2.26-2.23 3.7 3.7 0 0 0 2.16 2.03zm-2.93 2.02h4.23v1.85h-4.23zm-.8 2.51h5.83v-3.16h-5.83zm5-8.85v2.25h-1.77v.68h1.77v2.32h.83v-5.25zm4.67 6.24c-.72 0-1.17-.91-1.17-2.38 0-1.44.45-2.35 1.17-2.35.7 0 1.16.91 1.16 2.35 0 1.47-.46 2.38-1.16 2.38zm3.03-2.75h-1.13c-.1-1.69-.82-2.74-1.9-2.74-1.17 0-1.92 1.2-1.92 3.11 0 1.94.75 3.14 1.92 3.14 1.1 0 1.83-1.08 1.9-2.84h1.13V.3h.78v-8.33h-.78zm1.78-3.49V.74h.78v-8.97zm5.5.77h-.82v1.61a4.738 4.738 0 0 1-2.32 4.04l.5.65a4.976 4.976 0 0 0 2.23-3 4.805 4.805 0 0 0 2.25 2.84l.48-.65a4.471 4.471 0 0 1-2.32-3.88zm3.43-.77v3.04h-2.08v.67h2.08V.75h.82v-8.98zm6.83 1.5h1.43v3.01c-.48.03-.96.04-1.43.05zm3.53 2.84c-.42.05-.86.09-1.31.12v-2.96h.89v-.66h-4.79v.66h.88v3.08c-.4.01-.78.01-1.13.01l.09.68a37.165 37.165 0 0 0 5.43-.32zm-3.29 1.65h-.82V.54h5.98v-.67h-5.16zm4.76-3.26v-2.73h-.82v6.61h.82v-3.2h1.32v-.68zm3.33-1.04h1.88v4.22h-1.88zm-.77 4.87h3.41v-5.52h-3.41zm6.52-6.56v3.55h-1.21v-3.35h-.77V.29h.77v-4.3h1.21V.73h.78v-8.96zm12.23.99H145v-1.04h-.83v1.04h-3.22v.66h7.21zm-1.52 2.65c0 .55-.75.86-2.05.86s-2.07-.31-2.07-.86.76-.86 2.07-.86 2.05.32 2.05.86zm-4.97 0c0 .96 1.09 1.49 2.92 1.49 1.81 0 2.9-.53 2.9-1.49s-1.09-1.48-2.9-1.48c-1.83 0-2.92.53-2.92 1.48zm6.99 2.1h-8.13v.66h2.11V.75h.82v-2.58h2.26V.75h.82v-2.58h2.12zm2.2-3.98h2.53v-.67h-3.34v5.67h.59a14.728 14.728 0 0 0 3.32-.27l-.07-.68a14.108 14.108 0 0 1-3.03.27zm5.7-1.76v3.6h-1.27v-3.4h-.77V.29h.77v-4.25h1.27v4.7h.79v-8.97zm4.23 6.31h-.82V.54h6.17v-.67h-5.35zm1.07-5.24h2.23v2.04h-2.23zm1.54 3.79v-1.09h2.83v-.66h-1.32v-2.04h1.35v-.66h-6.58v.66h1.36v2.04h-1.33v.66h2.87v1.09h-3.66v.66h8.11v-.66zm8.78-4.09c1.47 0 2.31.34 2.31.94s-.84.94-2.31.94-2.31-.34-2.31-.94.84-.94 2.31-.94zm0 2.49c1.97 0 3.15-.54 3.15-1.55s-1.18-1.56-3.15-1.56-3.15.55-3.15 1.56 1.18 1.55 3.15 1.55zm-2.25 4.06h5.27v-2.02h-6.1v.62h5.29v.8h-5.26V.64h6.34V0h-5.54zm-1.81-3.45v.66h8.12v-.66zM4.73 9.83a14.092 14.092 0 0 1-3.02.24V8.85h2.57v-.63H1.71V7.09h2.67v-.66H.92v4.31h.57a15.308 15.308 0 0 0 3.32-.25zm-2.66 2.51h5.21v2.4h.82v-3.06H2.07zm5.24-6.56v2.33h-1.2V5.94h-.78v5.21h.78V8.78h1.2v2.43h.79V5.78zm5.4 6.05h-1.88V9.46h1.88zm0-3.02h-1.88V6.62h-.78v5.87h3.43V6.62h-.77zm3.86-3.04v3.55h-1.21V5.97h-.77v8.33h.77V9.99h1.21v4.75h.78V5.77zm8.32 3.63h-2.54V8.06h2.54zm.8-3.26h-.8v1.29h-2.54V6.14h-.81v3.92h4.15zm-2.43 6.87h4.87v-2.18h-5.7v.65h4.89v.92h-4.86v2.24h6v-.65h-5.2zm4.87-5.31V5.78h-.82v4.63h.82V8.38h1.33V7.7zm9.86 1.02c-1.6-.22-3.15-1.22-3.15-2.41v-.4H34v.4c0 1.19-1.54 2.19-3.14 2.41l.31.65a4.578 4.578 0 0 0 3.25-1.96 4.62 4.62 0 0 0 3.26 1.96zm-3.57 5.38c-1.42 0-2.24-.33-2.24-.92s.82-.92 2.24-.92 2.24.33 2.24.92-.82.92-2.24.92zm0-2.47c-1.92 0-3.07.55-3.07 1.55s1.15 1.55 3.07 1.55 3.07-.55 3.07-1.55-1.15-1.55-3.07-1.55zm.41-1.41V8.9h-.82v1.32h-3.64v.66h8.11v-.66zm6.96 1.76a1.237 1.237 0 0 1-1.19-1.37 1.2 1.2 0 1 1 2.38 0 1.243 1.243 0 0 1-1.19 1.37zm0-3.41a1.909 1.909 0 0 0-1.92 2.04 1.924 1.924 0 1 0 3.84 0 1.909 1.909 0 0 0-1.92-2.04zm.4-2.54h-.81V7.3h-1.82v.67h4.45V7.3h-1.82zm4.19-.27v3.79h-1.15V5.97h-.77v8.33h.77v-4.08h1.15v4.51h.79V5.76zm3.19 4.37a4.534 4.534 0 0 0 3.26-2.05 4.514 4.514 0 0 0 3.26 2.05l.32-.65c-1.58-.23-3.13-1.26-3.13-2.44v-.05h2.81v-.66h-6.55v.66h2.83v.05c0 1.18-1.55 2.21-3.11 2.44zm7.31.75h-8.1v.67h3.62v3.19h.82v-3.19h3.67zm3.75-4.26h-.79v1.71a4.553 4.553 0 0 1-1.97 3.87l.51.61a4.569 4.569 0 0 0 1.86-2.75 4.384 4.384 0 0 0 1.77 2.56l.47-.64a4.362 4.362 0 0 1-1.85-3.68zm2.36 2.37h-1.48v.68h1.48v4.63h.77V5.97h-.77zm1.82-3.22v8.97h.78V5.77zm5.17 5.03a5.347 5.347 0 0 0 1.24.14 5.524 5.524 0 0 0 1.26-.14v2.11h-2.5zm1.24-3.82c1.44 0 2.48.66 2.48 1.66s-1.04 1.66-2.48 1.66-2.47-.66-2.47-1.66 1.03-1.66 2.47-1.66zm2.08 5.93v-2.43a2.033 2.033 0 0 0 1.18-1.84c0-1.4-1.35-2.3-3.26-2.3s-3.26.9-3.26 2.3a2.05 2.05 0 0 0 1.2 1.85v2.42h-2v.68h8.15v-.68zm3.93 1.22a.66.66 0 0 0 .66-.69.662.662 0 1 0-1.32 0 .66.66 0 0 0 .66.69zM3.51 25.83H1.63v-2.37h1.88zm0-3.02H1.63v-2.19H.85v5.87h3.43v-5.87h-.77zm3.86-3.04v3.55H6.16v-3.35h-.77v8.33h.77v-4.31h1.21v4.75h.78v-8.97zm9.98 2.95c-1.6-.22-3.15-1.22-3.15-2.41v-.4h-.84v.4c0 1.19-1.54 2.19-3.14 2.41l.31.65a4.578 4.578 0 0 0 3.25-1.96 4.62 4.62 0 0 0 3.26 1.96zm-3.57 5.38c-1.42 0-2.24-.33-2.24-.92s.82-.92 2.24-.92 2.24.33 2.24.92-.82.92-2.24.92zm0-2.47c-1.92 0-3.07.55-3.07 1.55s1.15 1.55 3.07 1.55 3.07-.55 3.07-1.55-1.15-1.55-3.07-1.55zm.41-1.41V22.9h-.82v1.32H9.73v.66h8.11v-.66zm11.26-4.45v8.98h.82v-8.98zm-6.01.76v6.05h4.22v-6.05h-.81v2.37h-2.6v-2.37zm.81 3.02h2.6v2.36h-2.6zm15.07-1.08h-5.28V20.1h-.82v3.04h6.1zm-5.34 3.43h-.82v2.62h6.21v-.67h-5.39zm-1.86-1.56V25h8.13v-.66zm14.55-2.98h2.04v-.67h-4.89v.67h2.03v1.04a4.671 4.671 0 0 1-2.35 3.92l.48.65a5.056 5.056 0 0 0 2.28-3.01 4.927 4.927 0 0 0 2.27 2.82l.49-.64a4.452 4.452 0 0 1-2.35-3.74zm3.47-1.59v3.26H44.2v.67h1.94v5.05h.82v-8.98zm8.32 1.21h-2.31v-1.12h-.82v1.12h-2.32v.66h5.45zm-1.35 2.84c0 .63-.56 1.05-1.37 1.05s-1.36-.42-1.36-1.05.56-1.04 1.36-1.04 1.37.41 1.37 1.04zm-3.51 0c0 1.02.88 1.68 2.14 1.68s2.14-.66 2.14-1.68-.88-1.68-2.14-1.68-2.14.67-2.14 1.68zm-.66 3.16a35.454 35.454 0 0 0 5.81-.35l-.06-.61a46.28 46.28 0 0 1-5.87.27zm6.32-7.2v8.96h.82v-8.96zm3.19.95v.68h3.29a6.1 6.1 0 0 1-3.71 4.99l.45.64a6.743 6.743 0 0 0 4.07-6.31zm7.86 2.68h-1.44v-3.64h-.82v8.97h.82v-4.65h1.44zm9.38-.07h-4.45v-1.32h4.45zm.82-3.21h-.82v1.23h-4.45v-1.23h-.81v3.88h6.08zm1.03 4.96H69.4v.66h3.64v3h.82v-3h3.68zm6.26-1.72a18.963 18.963 0 0 1-3.96.3v-2.64h3.13v-.66h-3.95v3.98h.7a19.309 19.309 0 0 0 4.17-.32zm-3.06 2.61h4.02v1.97h-4.02zm-.8 2.63h5.63v-3.28h-5.63zm6.96-6.65h-1.33v-2.2h-.82v5.09h.82v-2.21h1.33zm3.54 4.1a1.385 1.385 0 1 1 1.41-1.38 1.345 1.345 0 0 1-1.41 1.38zm0-3.45a2.069 2.069 0 1 0 2.19 2.07 2.045 2.045 0 0 0-2.19-2.07zm.4-2.73h-.82v1.33h-2.26v.66h5.29v-.66h-2.21zm5.35 3.58h-1.47v-3.68h-.82v8.96h.82v-4.59h1.47zm8.39-3.68h-.79v5.17h.79zm-2.57 3.2v1.83h.77v-4.84h-.77v2.35h-1.42a4.809 4.809 0 0 0 .36-1.88h-3.47v.66h2.63c-.16 1.51-1.19 2.69-3.02 3.42l.43.61a5.971 5.971 0 0 0 2.73-2.15zm1.43 2.28h-.8v.58a2.675 2.675 0 0 1-1.27 2.14 2.482 2.482 0 0 1-1.24-2.14v-.58h-.79v.58a2.582 2.582 0 0 1-1.81 2.26l.41.6a3.2 3.2 0 0 0 1.79-1.67 2.818 2.818 0 0 0 1.65 1.75 3.027 3.027 0 0 0 1.65-1.78 2.942 2.942 0 0 0 1.81 1.7l.4-.6a2.5 2.5 0 0 1-1.8-2.26zm10.42-2.69c-1.59-.2-3.17-1.19-3.17-2.3v-.4h-.84v.4c0 1.14-1.57 2.1-3.18 2.3l.3.66a4.619 4.619 0 0 0 3.3-1.92 4.638 4.638 0 0 0 3.29 1.92zm-1.41 5.39h-4.41v-1.14h4.41zm0-1.77h-4.41v-1.05h-.81v3.48h6.03v-3.48h-.81zm-6.25-2.33v.66h8.12v-.66zm10.59-3.22h-.82v5.78h.74a21.31 21.31 0 0 0 4.4-.42l-.09-.7a21.191 21.191 0 0 1-4.23.42zm5.15-.87v8.96h.82v-8.96zm3.87 1.54h3.35v-.68h-4.17v5.89h.71a21.264 21.264 0 0 0 4.24-.32l-.09-.68a21.8 21.8 0 0 1-4.04.3zm7.18 2h-1.48v-3.54h-.82v8.99h.82v-4.77h1.48zm1.68 4.82a.66.66 0 0 0 .66-.69.662.662 0 1 0-1.32 0 .66.66 0 0 0 .66.69z" class="cls-6" transform="translate(132 528)"/>
        <path id="패스_9503" d="M2.28-6.83h4.59v2.91H2.28zM5-1.09v-2.18h2.67v-4.21H1.49v4.21h2.68v2.18H.53v.68h8.13v-.68zm12.33-7.13h-.79v4.76h.79zm-4.32 1.98v.64h1.81v2.06h.78v-4.5h-.78v1.8zm.97 1.45a14.631 14.631 0 0 1-3 .23v-2.49h2.58v-.66h-3.4v3.81h.58a16.743 16.743 0 0 0 3.31-.23zM12.21-.03v-.93h5.12v-2.1h-5.95v.65h5.14v.83H11.4v2.2h6.26v-.65zm10.42-4.19h-2.48v-2.67h2.48zm2.86-1.89V-5h-2.06v-1.11zm-2.06 1.77h2.06v1.42h.83v-5.3h-.83v1.45h-2.06v-.78h-4.09v3.98h4.09zM23.35.09c-1.34 0-2.16-.39-2.16-1.05s.82-1.05 2.16-1.05c1.36 0 2.18.39 2.18 1.05S24.71.09 23.35.09zm0-2.74c-1.84 0-2.98.61-2.98 1.69S21.51.73 23.35.73s3-.62 3-1.69-1.15-1.69-3-1.69zm7.88-1.25a.667.667 0 0 0 .66-.69.672.672 0 0 0-.66-.71.672.672 0 0 0-.66.71.667.667 0 0 0 .66.69zm0 4.03a.66.66 0 0 0 .66-.69.672.672 0 0 0-.66-.71.672.672 0 0 0-.66.71.66.66 0 0 0 .66.69zm6.55-2.14c-.87 0-1.48-.94-1.48-2.4s.61-2.39 1.48-2.39 1.47.94 1.47 2.39-.61 2.4-1.47 2.4zm0-5.53c-1.32 0-2.26 1.22-2.26 3.13s.94 3.13 2.26 3.13 2.25-1.22 2.25-3.13-.93-3.13-2.25-3.13zm5.99 2.89h-1.48v-3.57h-.82V.74h.82v-4.7h1.48zm7.34-3.58V.76h.82v-8.99zm-3.91.69c-1.33 0-2.28 1.22-2.28 3.13s.95 3.13 2.28 3.13 2.28-1.22 2.28-3.13-.95-3.13-2.28-3.13zm0 .74c.87 0 1.49.94 1.49 2.39s-.62 2.4-1.49 2.4-1.5-.94-1.5-2.4.62-2.39 1.5-2.39zm8.45 4.88h-.82V.54H61v-.67h-5.35zm1.07-5.24h2.23v2.04h-2.23zm1.54 3.79v-1.09h2.83v-.66h-1.32v-2.04h1.35v-.66h-6.58v.66h1.36v2.04h-1.33v.66h2.87v1.09h-3.66v.66h8.11v-.66zM70.946 0l-2.67-3.62L70.756-7h-.8l-2.1 2.86L65.746-7H64.9l2.49 3.4L64.726 0h.85l2.25-3.08L70.086 0zm3.1.06c1.79 0 2.61-.88 2.61-1.91 0-2.55-4.31-1.39-4.31-3.31 0-.7.57-1.27 1.85-1.27a3.6 3.6 0 0 1 1.92.58l.25-.59a3.951 3.951 0 0 0-2.17-.62c-1.78 0-2.58.89-2.58 1.92 0 2.59 4.31 1.41 4.31 3.33 0 .69-.57 1.24-1.88 1.24a3.437 3.437 0 0 1-2.31-.85l-.29.57a3.8 3.8 0 0 0 2.6.91z" class="cls-6" transform="translate(144 448)"/>
        <path id="패스_9502" d="M5.82-4.06a3.076 3.076 0 0 1-2.18-2.73v-.23h1.97v-.67H.82v.67h2v.23A3.248 3.248 0 0 1 .56-3.85l.43.65a3.828 3.828 0 0 0 2.25-2.24 3.778 3.778 0 0 0 2.17 2.03zM7.1-.05H2.98v-1.13H7.1zm0-1.77H2.98v-1.11h-.81V.62h5.74v-3.55H7.1zm-.01-6.4v2.17H5.32v.67h1.77v2.02h.82v-4.86zm10.36 3.41c-1.63-.24-3.23-1.35-3.23-2.6v-.5h-.86v.5c0 1.28-1.58 2.36-3.21 2.6l.33.66a4.6 4.6 0 0 0 3.31-2.1 4.707 4.707 0 0 0 3.32 2.1zm.39 1.63h-8.1v.68h3.62V.75h.82V-2.5h3.67zm4.77-.6h-2.42V-5.4h2.42zm.81-1.25h2.07v3.44h.83v-6.64h-.83v2.53h-2.07v-1.93h-.81v1.58h-2.42v-1.58h-.81v4.51h4.04zm-2.05 4.9v-2.11h-.82V.54h5.98v-.67zm14.44-6.79H32.6v-1.17h-.82v1.17h-3.25v.67h7.28zm-5.74 2.98c0-.66.81-1.06 2.12-1.06 1.29 0 2.09.4 2.09 1.06s-.8 1.07-2.09 1.07c-1.31 0-2.12-.4-2.12-1.07zM32.6-.98v-1.26c1.56-.1 2.51-.7 2.51-1.7 0-1.08-1.13-1.7-2.92-1.7-1.82 0-2.95.62-2.95 1.7 0 1 .96 1.61 2.54 1.7v1.26h-3.65v.67h8.13v-.67zm7.93-2.82a.771.771 0 0 0 .77-.8.783.783 0 0 0-.77-.82.783.783 0 0 0-.77.82.771.771 0 0 0 .77.8zm0 3.93a.765.765 0 0 0 .77-.8.777.777 0 0 0-.77-.82.777.777 0 0 0-.77.82.765.765 0 0 0 .77.8zm5.56-.77l2.38-2.34a2.88 2.88 0 0 0 1.15-2.19c0-1.17-.9-1.89-2.32-1.89a3.145 3.145 0 0 0-2.48 1l.51.44a2.376 2.376 0 0 1 1.91-.78c1.07 0 1.64.5 1.64 1.31 0 .48-.15.95-.94 1.73L45.03-.51V0h4.91v-.64zm7.54.7c1.62 0 2.8-1.33 2.8-3.56s-1.18-3.56-2.8-3.56-2.79 1.33-2.79 3.56S52.01.06 53.63.06zm0-.66c-1.22 0-2.06-1.03-2.06-2.9s.84-2.9 2.06-2.9 2.06 1.03 2.06 2.9-.84 2.9-2.06 2.9zm4.76-.04l2.38-2.34a2.88 2.88 0 0 0 1.15-2.19c0-1.17-.9-1.89-2.32-1.89a3.145 3.145 0 0 0-2.48 1l.51.44a2.376 2.376 0 0 1 1.91-.78c1.07 0 1.64.5 1.64 1.31 0 .48-.15.95-.94 1.73L57.33-.51V0h4.91v-.64zm7.54.7c1.62 0 2.8-1.33 2.8-3.56s-1.18-3.56-2.8-3.56-2.79 1.33-2.79 3.56S64.31.06 65.93.06zm0-.66c-1.22 0-2.06-1.03-2.06-2.9s.84-2.9 2.06-2.9 2.06 1.03 2.06 2.9-.84 2.9-2.06 2.9zm3.4-6.4v.64h1.65V0h.72v-7zm3.61 0v.64h1.65V0h.72v-7zM79.77.06c1.62 0 2.8-1.33 2.8-3.56s-1.18-3.56-2.8-3.56-2.79 1.33-2.79 3.56S78.15.06 79.77.06zm0-.66c-1.22 0-2.06-1.03-2.06-2.9s.84-2.9 2.06-2.9 2.06 1.03 2.06 2.9-.84 2.9-2.06 2.9zm7.84-3.07a1.585 1.585 0 0 0 1.12-1.54c0-1.14-.99-1.85-2.47-1.85s-2.45.71-2.45 1.85a1.579 1.579 0 0 0 1.1 1.54 1.747 1.747 0 0 0-1.35 1.72c0 1.24 1.02 2.01 2.7 2.01s2.72-.77 2.72-2.01a1.763 1.763 0 0 0-1.37-1.72zm-3.08-1.52c0-.78.67-1.26 1.73-1.26S88-5.97 88-5.18c0 .76-.65 1.25-1.74 1.25s-1.73-.49-1.73-1.26zm1.73 4.64c-1.24 0-1.97-.54-1.97-1.41s.73-1.4 1.97-1.4 1.98.54 1.98 1.4-.74 1.41-1.98 1.41zm4.65-.09l2.38-2.34a2.88 2.88 0 0 0 1.15-2.19c0-1.17-.9-1.89-2.32-1.89a3.145 3.145 0 0 0-2.48 1l.51.44a2.376 2.376 0 0 1 1.91-.78c1.07 0 1.64.5 1.64 1.31 0 .48-.15.95-.94 1.73L89.85-.51V0h4.91v-.64zm6.93-6.42a2.181 2.181 0 0 0-2.39 2.15 2.119 2.119 0 0 0 2.36 2.1 2.237 2.237 0 0 0 2.14-1.2c.02.21.03.41.03.57 0 1.9-.97 2.87-2.48 2.87a2.454 2.454 0 0 1-1.36-.33l-.29.58a3.211 3.211 0 0 0 1.66.38c1.9 0 3.2-1.24 3.2-3.62 0-2.21-1.01-3.5-2.87-3.5zm.08 3.64c-1.08 0-1.76-.59-1.76-1.51a1.532 1.532 0 0 1 1.71-1.52c1.21 0 1.85.73 1.85 1.5a1.62 1.62 0 0 1-1.8 1.53zm9.78.94h-1.4V-4.1h-.7v1.62h-3.04L106.14-7h-.8l-3.71 4.64v.52h3.95V0h.72v-1.84h1.4zm2.5-1.65h-.9l.24-2.23h3.2V-7h-3.83l-.36 3.51h1.49c1.78 0 2.34.56 2.34 1.46 0 .85-.63 1.43-1.82 1.43a3.033 3.033 0 0 1-2.15-.81l-.35.57a3.614 3.614 0 0 0 2.51.9c1.71 0 2.54-.93 2.54-2.12 0-1.24-.8-2.07-2.91-2.07zm6.2.13l1.98-2.49V-7h-4.5v.64h3.58l-1.94 2.43v.53h.5c1.3 0 1.89.55 1.89 1.39 0 .87-.64 1.41-1.8 1.41a3.067 3.067 0 0 1-2.17-.81l-.35.57a3.64 3.64 0 0 0 2.52.9c1.69 0 2.54-.9 2.54-2.07 0-1.12-.75-1.91-2.25-1.99zm6.16-.19a2.237 2.237 0 0 0-2.14 1.2c-.02-.21-.03-.41-.03-.57 0-1.9.97-2.87 2.48-2.87a2.454 2.454 0 0 1 1.36.33l.29-.58a3.211 3.211 0 0 0-1.66-.38c-1.9 0-3.2 1.24-3.2 3.62 0 2.21 1.01 3.5 2.87 3.5a2.181 2.181 0 0 0 2.39-2.15 2.119 2.119 0 0 0-2.36-2.1zm-.06 3.64c-1.21 0-1.85-.73-1.85-1.5a1.62 1.62 0 0 1 1.8-1.53c1.08 0 1.76.59 1.76 1.51a1.532 1.532 0 0 1-1.71 1.52z" class="cls-6" transform="translate(144 467)"/>
        <path id="패스_9501" d="M2.49-6.73h1.43v3.01c-.48.03-.96.04-1.43.05zm3.53 2.84c-.42.05-.86.09-1.31.12v-2.96h.89v-.66H.81v.66h.88v3.08c-.4.01-.78.01-1.13.01l.09.68a37.165 37.165 0 0 0 5.43-.32zM2.73-2.24h-.82V.54h5.98v-.67H2.73zM7.49-5.5v-2.73h-.82v6.61h.82v-3.2h1.32v-.68zm3.33-1.04h1.88v4.22h-1.88zm-.77 4.87h3.41v-5.52h-3.41zm6.52-6.56v3.55h-1.21v-3.35h-.77V.29h.77v-4.3h1.21V.73h.78v-8.96zm6.08 4.04h-2.54v-1.48h2.54zm.8-3.47h-.8v1.35h-2.54v-1.35h-.81v4.13h4.15zM23.04.09C21.7.09 20.9-.29 20.9-.93s.8-1.01 2.14-1.01c1.32 0 2.13.37 2.13 1.01S24.36.09 23.04.09zm0-2.69c-1.83 0-2.96.61-2.96 1.67S21.21.74 23.04.74s2.95-.61 2.95-1.67-1.13-1.67-2.95-1.67zm2.85-3.37v-2.26h-.82v5.4h.82v-2.46h1.33v-.68zm7.65 1.96a3.194 3.194 0 0 1-2.25-2.92v-.88h-.82v.88a3.354 3.354 0 0 1-2.26 3.08l.42.65a3.872 3.872 0 0 0 2.26-2.29 3.771 3.771 0 0 0 2.24 2.13zm-4.05 2.3h5.18V.75h.82v-3.12h-6zm5.18-6.51v5.39h.82v-5.39zm5.76 4.32a.667.667 0 0 0 .66-.69.672.672 0 0 0-.66-.71.672.672 0 0 0-.66.71.667.667 0 0 0 .66.69zm0 4.03a.66.66 0 0 0 .66-.69.672.672 0 0 0-.66-.71.672.672 0 0 0-.66.71.66.66 0 0 0 .66.69zm11.52-8.35h-.82v6.44h.82zm-3.5 4.28h-2.59v-2.85h2.59zm.8-3.51h-4.19v4.17h4.19zM47-.22v-2.17h-.82V.44h6.04v-.66zm14.15-8h-.82v6.2h.82zM59.3-4.13a23.466 23.466 0 0 1-4.18.25v-1.21h3.21v-.65h-3.21v-1.15h3.46v-.66H54.3v4.33h.73a24.375 24.375 0 0 0 4.36-.26zm-.64 1.59h-.84v.17c0 1.24-1.4 2.18-3.01 2.43l.32.65a4.29 4.29 0 0 0 3.11-1.95A4.27 4.27 0 0 0 61.35.71l.32-.65c-1.61-.25-3.01-1.19-3.01-2.43zm6.36.55c-.72 0-1.17-.91-1.17-2.38 0-1.44.45-2.35 1.17-2.35.7 0 1.16.91 1.16 2.35 0 1.47-.46 2.38-1.16 2.38zm3.03-2.75h-1.13c-.1-1.69-.82-2.74-1.9-2.74-1.17 0-1.92 1.2-1.92 3.11 0 1.94.75 3.14 1.92 3.14 1.1 0 1.83-1.08 1.9-2.84h1.13V.3h.78v-8.33h-.78zm1.78-3.49V.74h.78v-8.97zm8.33 6.14H75.6v-2.36h2.56zm0-3.01H75.6v-2.37h-.81v6.05h4.17v-6.05h-.8zm4.65.4h-1.48v-3.52h-.82V.73h.82v-4.74h1.48zm5.29 3.66v-1.69h2.87v-.66h-5.52v-1.45h5.31v-2.73h-6.14v.67h5.34v1.4h-5.32v2.77h2.63v1.69h-3.65v.67h8.15v-.67zm8.93-5.69h1.43v3.01c-.48.03-.96.04-1.43.05zm3.53 2.84c-.42.05-.86.09-1.31.12v-2.96h.89v-.66h-4.79v.66h.88v3.08c-.4.01-.78.01-1.13.01l.09.68a37.165 37.165 0 0 0 5.43-.32zm-3.29 1.65h-.82V.54h5.98v-.67h-5.16zm4.76-3.26v-2.73h-.82v6.61h.82v-3.2h1.32v-.68zm3.33-1.04h1.88v4.22h-1.88zm-.77 4.87H108v-5.52h-3.41zm6.52-6.56v3.55h-1.21v-3.35h-.77V.29h.77v-4.3h1.21V.73h.78v-8.96z" class="cls-6" transform="translate(144 486)"/>
        <path id="패스_9500" d="M3.51-2.17H1.63v-2.37h1.88zm0-3.02H1.63v-2.19H.85v5.87h3.43v-5.87h-.77zm3.86-3.04v3.55H6.16v-3.35h-.77V.3h.77v-4.31h1.21V.74h.78v-8.97zm9.98 2.95c-1.6-.22-3.15-1.22-3.15-2.41v-.4h-.84v.4c0 1.19-1.54 2.19-3.14 2.41l.31.65a4.578 4.578 0 0 0 3.25-1.96 4.62 4.62 0 0 0 3.26 1.96zM13.78.1c-1.42 0-2.24-.33-2.24-.92s.82-.92 2.24-.92 2.24.33 2.24.92-.82.92-2.24.92zm0-2.47c-1.92 0-3.07.55-3.07 1.55S11.86.73 13.78.73s3.07-.55 3.07-1.55-1.15-1.55-3.07-1.55zm.41-1.41V-5.1h-.82v1.32H9.73v.66h8.11v-.66zm8.46-.41h-2.54v-1.48h2.54zm.8-3.47h-.8v1.35h-2.54v-1.35h-.81v4.13h4.15zM23.04.09C21.7.09 20.9-.29 20.9-.93s.8-1.01 2.14-1.01c1.32 0 2.13.37 2.13 1.01S24.36.09 23.04.09zm0-2.69c-1.83 0-2.96.61-2.96 1.67S21.21.74 23.04.74s2.95-.61 2.95-1.67-1.13-1.67-2.95-1.67zm2.85-3.37v-2.26h-.82v5.4h.82v-2.46h1.33v-.68zm7.65 1.96a3.194 3.194 0 0 1-2.25-2.92v-.88h-.82v.88a3.354 3.354 0 0 1-2.26 3.08l.42.65a3.872 3.872 0 0 0 2.26-2.29 3.771 3.771 0 0 0 2.24 2.13zm-4.05 2.3h5.18V.75h.82v-3.12h-6zm5.18-6.51v5.39h.82v-5.39zm5.76 4.32a.667.667 0 0 0 .66-.69.672.672 0 0 0-.66-.71.672.672 0 0 0-.66.71.667.667 0 0 0 .66.69zm0 4.03a.66.66 0 0 0 .66-.69.672.672 0 0 0-.66-.71.672.672 0 0 0-.66.71.66.66 0 0 0 .66.69zm10.72-1.69h.83v-6.66h-.83v1.7h-1.5v.66h1.5v1.05h-1.5v.67h1.5zm-4.61-5.28h1.35v3.18c-.45.02-.91.04-1.35.05zm3.32 3.02c-.37.04-.77.08-1.17.11v-3.13h.89v-.66h-4.72v.66h.89v3.24c-.4.01-.79.01-1.13.01l.09.68a35.591 35.591 0 0 0 5.2-.3zM47.05-.13V-2.1h-.82V.54h5.98v-.67zm9.65-7.44a2.173 2.173 0 0 0-2.4 2.11 2.178 2.178 0 0 0 2.4 2.11 2.173 2.173 0 0 0 2.4-2.11 2.167 2.167 0 0 0-2.4-2.11zm0 .7a1.449 1.449 0 0 1 1.6 1.41 1.455 1.455 0 0 1-1.6 1.41 1.46 1.46 0 0 1-1.6-1.41 1.454 1.454 0 0 1 1.6-1.41zm3.58-1.36V.76h.82v-8.99zm-6.33 7.02a32.978 32.978 0 0 0 5.81-.39l-.07-.61a40.389 40.389 0 0 1-5.84.31zm14.33-2.7a3.079 3.079 0 0 1-2.18-2.75v-.33h1.97v-.67h-4.79v.67h2v.34a3.269 3.269 0 0 1-2.26 2.94l.43.64a3.8 3.8 0 0 0 2.26-2.23 3.7 3.7 0 0 0 2.16 2.03zm-2.93 2.02h4.23v1.85h-4.23zm-.8 2.51h5.83v-3.16h-5.83zm5-8.85v2.25h-1.77v.68h1.77v2.32h.83v-5.25zm11.16 3.34h-4.45v-2.18h4.45zm.81-2.84h-6.06v3.49h6.06zm1.04 4.71h-8.14v.66h3.64V.73h.82v-3.09h3.68zm4.15.28h2.05v1.7h-2.05zm2.86 1.7v-1.7h1.4v-.67h-5.52v-1.44h5.31v-2.72h-6.14v.67h5.34v1.39h-5.32v2.77h1.26v1.7h-2.28v.67h8.15v-.67zm7.46-3.13a14.092 14.092 0 0 1-3.02.24v-1.22h2.57v-.63h-2.57v-1.13h2.67v-.66h-3.46v4.31h.57a15.308 15.308 0 0 0 3.32-.25zm-2.66 2.51h5.21v2.4h.82v-3.06h-6.03zm5.24-6.56v2.33h-1.2v-2.17h-.78v5.21h.78v-2.37h1.2v2.43h.79v-5.43zm5.4 6.05h-1.88v-2.37h1.88zm0-3.02h-1.88v-2.19h-.78v5.87h3.43v-5.87h-.77zm3.86-3.04v3.55h-1.21v-3.35h-.77V.3h.77v-4.31h1.21V.74h.78v-8.97z" class="cls-6" transform="translate(144 505)"/>
        <path id="패스_9499" d="M1 0h4a1 1 0 0 1 1 1v4a1 1 0 0 1-1 1H1a1 1 0 0 1-1-1V1a1 1 0 0 1 1-1z" class="cls-6" transform="translate(132 441)"/>
        <path id="패스_9498" d="M1 0h4a1 1 0 0 1 1 1v4a1 1 0 0 1-1 1H1a1 1 0 0 1-1-1V1a1 1 0 0 1 1-1z" class="cls-6" transform="translate(132 460)"/>
        <path id="패스_9497" d="M1 0h4a1 1 0 0 1 1 1v4a1 1 0 0 1-1 1H1a1 1 0 0 1-1-1V1a1 1 0 0 1 1-1z" class="cls-6" transform="translate(132 479)"/>
        <path id="패스_9496" d="M1 0h4a1 1 0 0 1 1 1v4a1 1 0 0 1-1 1H1a1 1 0 0 1-1-1V1a1 1 0 0 1 1-1z" class="cls-6" transform="translate(132 498)"/>
        <g id="패스_9495" fill="none">
            <path d="M0 0h150v20H0z" class="cls-8" transform="translate(127 453)"/>
            <path fill="#2bd3c6" d="M1 1v18h148V1H1M0 0h150v20H0V0z" transform="translate(127 453)"/>
        </g>
    </g>
</svg>
