<svg xmlns="http://www.w3.org/2000/svg" width="200" height="200" viewBox="0 0 200 200">
    <defs>
        <style>
            .cls-6{fill:#0f0f0f}.cls-8{stroke:none}
        </style>
    </defs>
    <g id="notice-talk-mobile" transform="translate(-77 -268)">
        <g id="패스_9494" fill="#abc1d1">
            <path d="M196 196H4V25c0-5.61 2.184-10.883 6.15-14.85C14.118 6.185 19.39 4 25 4h150c5.61 0 10.883 2.184 14.85 6.15C193.815 14.118 196 19.39 196 25v171z" class="cls-8" transform="translate(77 268)"/>
            <path fill="#0f0f0f" d="M25 8C15.626 8 8 15.626 8 25v167h184V25c0-9.374-7.626-17-17-17H25m0-8h150c13.807 0 25 11.193 25 25v175H0V25C0 11.193 11.193 0 25 0z" transform="translate(77 268)"/>
        </g>
        <path id="패스_9493" fill="#abc1d1" d="M0 0h184v15H0z" transform="translate(85 453)"/>
        <path id="패스_9492" fill="#fff" d="M7 0h146a7 7 0 0 1 7 7v117a7 7 0 0 1-7 7H7a7 7 0 0 1-7-7V7a7 7 0 0 1 7-7z" transform="translate(97 318)"/>
        <path id="패스_9491" fill="#fde404" d="M7 0h146a7 7 0 0 1 7 7v17H0V7a7 7 0 0 1 7-7z" transform="translate(97 318)"/>
        <path id="패스_9490" fill="#564f0c" d="M1.3-4.752A.988.988 0 0 1 2.4-5.7a.978.978 0 0 1 1.088.952.984.984 0 0 1-1.088.96.993.993 0 0 1-1.1-.964zm2.992 0A1.709 1.709 0 0 0 2.4-6.376 1.719 1.719 0 0 0 .5-4.752a1.719 1.719 0 0 0 1.9 1.624 1.709 1.709 0 0 0 1.888-1.624zM2.208-.784h3.84v-1.864H1.384V-2h3.848v.616H1.4V.528h4.888v-.656h-4.08zm3.84-4.344v-1.488h-.824v3.656h.824v-1.488h1.016v-.68zm6.1 1.616a18.1 18.1 0 0 1-3.196.212v-.82h2.472v-2.072H8.12v.664h2.5v.776H8.136v2.128h.608a20.541 20.541 0 0 0 3.5-.216zM9.8-1.3h3.112v1.172H9.8zM8.992.528h4.728V-1.96H8.992zm3.9-7.144v4.3h.824v-4.3zM15.848-.88h4.16v1.5h.824v-2.156h-4.984zM18.8-2.736V-3.4h2.128v-.632h-4.152v-.584H20.7v-.616h-3.924v-.56h4.1v-.632h-4.924V-3.4h2.016v.664h-2.856v.664h6.544v-.664zm9.16 1.808v-1.7h2.14V-3.3h-4.188v-2.1h4.12v-.664h-4.944v3.432h2.048v1.7h-2.848v.68h6.544v-.68zM35.912-3.1a2.137 2.137 0 0 1-1.72-1.952v-.08h1.52v-.656H34.2v-.852h-.832v.856h-1.52v.656h1.52v.08a2.235 2.235 0 0 1-1.736 2.08l.392.648A2.82 2.82 0 0 0 33.8-3.848a2.664 2.664 0 0 0 1.72 1.392zm-3.376 1.916h3.928V.632h.824v-2.48h-4.752zm5.776-3.56h-1.024v-1.872h-.824v4.424h.824v-1.872h1.024z" transform="translate(107 333)"/>
        <path id="패스_9489" d="M1.2-4.312a1.177 1.177 0 0 1 1.232-1.2 1.177 1.177 0 0 1 1.232 1.2 1.177 1.177 0 0 1-1.232 1.2 1.177 1.177 0 0 1-1.232-1.2zm3.1 0A1.761 1.761 0 0 0 2.432-6.08 1.761 1.761 0 0 0 .56-4.312a1.761 1.761 0 0 0 1.872 1.768A1.761 1.761 0 0 0 4.3-4.312zM2.184-1.84h-.656V.432h4.784V-.1H2.184zM5.992-4.4v-2.184h-.656V-1.3h.656v-2.556h1.056V-4.4zm7.04 2.224h.668v-4.408h-.664v.848h-2.02v.512h2.016v.752h-2.016v.512h2.016zm-1.144-1.3a13.938 13.938 0 0 1-3.024.256v-2.932h-.648v3.48h.544a15.078 15.078 0 0 0 3.208-.264zm-.56 3.548c-1.08 0-1.736-.312-1.736-.832s.656-.84 1.736-.84 1.736.312 1.736.84-.656.832-1.736.832zm0-2.184c-1.472 0-2.392.488-2.392 1.352S9.856.592 11.328.592 13.72.1 13.72-.76s-.92-1.352-2.392-1.352zm5.92.56a1.076 1.076 0 0 1-1.12-1.1 1.078 1.078 0 0 1 1.12-1.112 1.08 1.08 0 0 1 1.128 1.112 1.078 1.078 0 0 1-1.128 1.1zm0-2.76a1.636 1.636 0 0 0-1.736 1.656 1.625 1.625 0 0 0 1.736 1.648A1.63 1.63 0 0 0 19-2.656a1.64 1.64 0 0 0-1.752-1.656zm.32-2.184h-.656v1.064H15.1v.532h4.232v-.528h-1.764zm4.28 2.864h-1.176v-2.944h-.656V.592h.656V-3.08h1.176zM24.632-5.9H24v1.368a3.643 3.643 0 0 1-1.576 3.1l.408.488a3.655 3.655 0 0 0 1.488-2.2A3.507 3.507 0 0 0 25.736-1.1l.376-.512a3.489 3.489 0 0 1-1.48-2.944zM26.52-4h-1.184v.544h1.184V.24h.616v-6.664h-.616zm1.456-2.576V.592h.624v-7.176zm4.136 4.016a4.278 4.278 0 0 0 .992.112 4.419 4.419 0 0 0 1.008-.112v1.688h-2zm.988-3.056c1.152 0 1.984.528 1.984 1.328S34.256-2.96 33.1-2.96s-1.976-.528-1.976-1.328.828-1.328 1.976-1.328zm1.668 4.744v-1.944a1.627 1.627 0 0 0 .944-1.472c0-1.12-1.08-1.84-2.608-1.84s-2.608.72-2.608 1.84a1.64 1.64 0 0 0 .96 1.48v1.936h-1.6v.544h6.52v-.544zM37.912.1a.528.528 0 0 0 .528-.552.538.538 0 0 0-.528-.568.538.538 0 0 0-.528.568.528.528 0 0 0 .528.552zm9.216-6.68h-.656v5.152h.656zm-2.8 3.424h-2.072v-2.28h2.072zm.64-2.808h-3.352v3.336h3.352zm-1.8 5.784v-1.732h-.656V.352h4.832v-.528zm11.32-6.4h-.656v4.96h.656zm-1.48 3.28a18.773 18.773 0 0 1-3.344.2v-.968h2.568v-.52h-2.568v-.92h2.768v-.532h-3.424v3.464h.584a19.5 19.5 0 0 0 3.488-.208zM52.5-2.032h-.672v.132c0 .992-1.12 1.744-2.408 1.944l.256.52A3.432 3.432 0 0 0 52.16-.992a3.416 3.416 0 0 0 2.488 1.56l.252-.52c-1.284-.2-2.4-.948-2.4-1.948zm10.32-3.12a15.32 15.32 0 0 1-.276 3.252l.656.072a16.176 16.176 0 0 0 .272-3.32v-.712H58.44v.536h4.376zm-1.88 4.2V-3.52h-.66v2.568h-2.52v.536h6.488v-.536zm4.5-5.1v.528h2.12a3.431 3.431 0 0 1-2.408 2.76l.32.48a3.967 3.967 0 0 0 2.76-3.768zm.912 4.568h4.168V.592h.656v-2.608h-4.832zm4.192-5.1v1.8H69.6v-1.664h-.624v4.056h.624V-4.24h.944v1.88h.632v-4.216zm6.384 2.64a16.091 16.091 0 0 1-3.352.32v-2.544h-.656v3.1h.58a17.082 17.082 0 0 0 3.512-.328zm-2.568 2.28h3.36V-.04h-3.36zM73.712.488h4.64v-2.664h-4.64zm3.988-7.08v4.072h.656v-4.072zM6.528 5.208H4v-.832h-.664v.832H.76v.528h5.768zm-1.216 2.12c0 .44-.6.688-1.64.688s-1.656-.248-1.656-.688.608-.688 1.656-.688 1.64.26 1.64.688zm-3.976 0c0 .768.872 1.192 2.336 1.192 1.448 0 2.32-.424 2.32-1.192s-.872-1.184-2.32-1.184c-1.464 0-2.336.424-2.336 1.184zm5.592 1.68H.424v.528h1.688V11.6h.656V9.536h1.808V11.6h.656V9.536h1.7zm1.76-3.184h2.024v-.536H8.04v4.536h.472a11.782 11.782 0 0 0 2.656-.216l-.056-.544a11.287 11.287 0 0 1-2.424.216zm4.56-1.408V7.3h-1.016V4.576h-.616v6.656h.616v-3.4h1.016v3.76h.632V4.416zm3.384 5.048h-.656v1.968h4.936V10.9h-4.28zm.856-4.192h1.784V6.9h-1.784zM18.72 8.3v-.868h2.264V6.9h-1.056V5.272h1.08v-.528h-5.264v.528h1.088V6.9h-1.064v.528h2.3V8.3h-2.932v.528h6.488V8.3zm7.144-2.688h1.144v2.412c-.384.024-.768.032-1.144.04zm2.824 2.272c-.336.04-.688.072-1.048.1V5.616h.712v-.528H24.52v.528h.7V8.08c-.32.008-.624.008-.9.008l.072.544a29.732 29.732 0 0 0 4.344-.256zm-2.632 1.32H25.4v2.224h4.784V10.9h-4.128zM29.864 6.6V4.416h-.656V9.7h.656V7.144h1.056V6.6zm2.664-.832h1.5v3.376h-1.5zm-.616 3.9h2.728v-4.42h-2.728zm5.216-5.248v2.84h-.968V4.576h-.616v6.656h.616v-3.44h.968v3.792h.624V4.416zm9.568 0h-.656v5.26h.66zm-1.568 3.572a2.662 2.662 0 0 1-1.792-2.448v-.728h-.656v.728a2.8 2.8 0 0 1-1.8 2.576l.344.536a3.219 3.219 0 0 0 1.792-1.92 3.093 3.093 0 0 0 1.768 1.776zm-2.392 2.9v-1.7h-.656v2.24h4.832V10.9zm9.248-4.44V7h1.432v1.768h.664V4.416h-.664v2.04zm.432 1.5a2.272 2.272 0 0 1-1.8-2.008v-.136H52.2V5.28h-1.584v-.9h-.656v.9h-1.592v.528h1.592v.136a2.435 2.435 0 0 1-1.776 2.2l.32.5a2.859 2.859 0 0 0 1.8-1.672 2.9 2.9 0 0 0 1.8 1.488zm-.712 3.12c-1.08 0-1.728-.3-1.728-.808s.648-.8 1.728-.8c1.1 0 1.744.3 1.744.8s-.656.808-1.748.808zm0-2.12c-1.472 0-2.384.48-2.384 1.312s.912 1.32 2.384 1.32c1.488 0 2.4-.48 2.4-1.32s-.912-1.312-2.404-1.312zm9.04-4.536v7.192h.656V4.416zm-3.128.552c-1.064 0-1.824.976-1.824 2.5s.76 2.5 1.824 2.5S59.44 9 59.44 7.472s-.76-2.504-1.824-2.504zm0 .592c.7 0 1.192.752 1.192 1.912s-.5 1.92-1.192 1.92-1.2-.752-1.2-1.92.496-1.912 1.2-1.912zm11.3 2.192a2.461 2.461 0 0 1-1.744-2.184v-.184h1.576v-.536h-3.836v.536h1.6v.184A2.6 2.6 0 0 1 64.7 7.92l.344.52a3.062 3.062 0 0 0 1.8-1.792 3.022 3.022 0 0 0 1.736 1.624zm1.024 3.208h-3.3v-.9h3.3zm0-1.416h-3.3v-.888h-.648V11.5h4.592V8.656h-.648zm-.008-5.12V6.16h-1.42v.54h1.416v1.612h.656V4.424zm8.288 2.728c-1.3-.192-2.584-1.08-2.584-2.08v-.4h-.688v.4c0 1.024-1.264 1.888-2.568 2.08l.264.528A3.677 3.677 0 0 0 75.288 6a3.766 3.766 0 0 0 2.656 1.68zm.312 1.3h-6.48V9h2.9v2.6h.648V9h2.936zm3.568-.404h1.54v-.536h-3.016v-1.88h2.984v-.544h-3.632v2.96h1.464v1.424c-.7.024-1.376.024-1.992.024l.08.552a31.773 31.773 0 0 0 4.648-.272L84.12 9.3c-.64.08-1.336.12-2.024.152zm2.5-3.64v7.2h.656v-7.2zm4.12.96a1.138 1.138 0 1 1-1.2 1.128 1.135 1.135 0 0 1 1.192-1.128zm3.3 1.384V8.5h.664V4.424h-.664v1.792h-1.48a1.712 1.712 0 0 0-1.816-1.392 1.686 1.686 0 1 0 0 3.36 1.714 1.714 0 0 0 1.824-1.432zm-.12 2.032h-.64v.424a2.152 2.152 0 0 1-1.016 1.72 2 2 0 0 1-1-1.72v-.424H88.6v.424a2.073 2.073 0 0 1-1.44 1.808l.328.488a2.559 2.559 0 0 0 1.412-1.336 2.3 2.3 0 0 0 1.336 1.4 2.5 2.5 0 0 0 1.32-1.424 2.439 2.439 0 0 0 1.448 1.36l.328-.488a1.987 1.987 0 0 1-1.448-1.808zm8.352-2.128C98.968 6.5 97.7 5.7 97.7 4.816V4.5h-.672v.32c0 .912-1.256 1.68-2.544 1.84l.24.528a3.7 3.7 0 0 0 2.64-1.536A3.71 3.71 0 0 0 100 7.184zm-1.128 4.312h-3.54v-.912h3.528zm0-1.416h-3.54v-.84h-.648V11.5h4.824V8.712h-.648zm-5-1.864v.528h6.5v-.528zm8.472-2.576h-.656v4.624h.592a17.048 17.048 0 0 0 3.52-.336l-.072-.56a16.953 16.953 0 0 1-3.384.336zm4.12-.7v7.168h.656V4.416zm3.1 1.232h2.68V5.1h-3.336v4.716h.568a17.011 17.011 0 0 0 3.372-.256l-.072-.544a17.44 17.44 0 0 1-3.232.24zm5.744 1.6h-1.2V4.416h-.66v7.192h.656V7.792h1.184zm1.344 3.856a.528.528 0 0 0 .528-.552.529.529 0 1 0-1.056 0 .528.528 0 0 0 .512.552z" class="cls-6" transform="translate(107 361)"/>
        <path id="패스_9488" d="M1.824-5.464H5.5v2.328H1.824zM4-.872v-1.744h2.136v-3.368H1.192v3.368h2.144v1.744H.424v.544h6.5v-.544zm9.864-5.7h-.632v3.808h.632zm-3.456 1.58v.512h1.448v1.648h.624v-3.6h-.624v1.44zm.776 1.16a11.7 11.7 0 0 1-2.4.184V-5.64h2.064v-.528h-2.72v3.048h.464a13.394 13.394 0 0 0 2.648-.18zM9.768-.024v-.744h4.1v-1.68H9.1v.52h4.112v.664H9.12V.5h5.008v-.52zM18.1-3.376h-1.98v-2.136h1.98zm2.288-1.512V-4h-1.644v-.888zm-1.644 1.416h1.648v1.136h.664v-4.24h-.664v1.16h-1.648v-.624h-3.272v3.184h3.272zM18.68.072c-1.072 0-1.728-.312-1.728-.84s.656-.84 1.728-.84c1.088 0 1.744.312 1.744.84s-.656.84-1.744.84zm0-2.192c-1.472 0-2.384.488-2.384 1.352S17.208.584 18.68.584s2.4-.5 2.4-1.352-.92-1.352-2.4-1.352zm6.3-1a.533.533 0 0 0 .528-.552.538.538 0 0 0-.528-.568.538.538 0 0 0-.528.568.533.533 0 0 0 .532.552zm0 3.224a.528.528 0 0 0 .528-.552.538.538 0 0 0-.528-.568.538.538 0 0 0-.528.568.528.528 0 0 0 .532.548zm5.24-1.712c-.7 0-1.184-.752-1.184-1.92s.488-1.912 1.184-1.912 1.18.752 1.18 1.912-.488 1.92-1.176 1.92zm0-4.424c-1.056 0-1.808.976-1.808 2.5s.752 2.5 1.808 2.5 1.8-.976 1.8-2.5-.74-2.5-1.796-2.5zm4.796 2.312h-1.184v-2.856h-.656V.592h.656v-3.76h1.184zm5.872-2.864V.608h.656v-7.192zm-3.128.552c-1.064 0-1.824.976-1.824 2.5s.76 2.5 1.824 2.5 1.824-.976 1.824-2.5-.76-2.5-1.824-2.5zm0 .592c.7 0 1.192.752 1.192 1.912s-.5 1.92-1.192 1.92-1.2-.752-1.2-1.92.496-1.912 1.2-1.912zm6.76 3.9h-.656V.432H48.8V-.1h-4.28zm.856-4.192h1.784V-4.1h-1.784zM46.608-2.7v-.872h2.264V-4.1h-1.056v-1.628H48.9v-.528h-5.268v.528h1.088V-4.1h-1.064v.528h2.3v.872h-2.932v.528h6.488V-2.7zM57.176 0L55.04-2.9l1.984-2.7h-.64L54.7-3.312 53.016-5.6h-.68l1.992 2.72L52.2 0h.68l1.8-2.464L56.488 0zm2.48.048c1.432 0 2.088-.7 2.088-1.528 0-2.04-3.448-1.112-3.448-2.648 0-.56.456-1.016 1.48-1.016a2.883 2.883 0 0 1 1.536.464l.2-.472a3.161 3.161 0 0 0-1.736-.5c-1.424 0-2.064.712-2.064 1.536 0 2.072 3.448 1.128 3.448 2.664 0 .552-.456.992-1.5.992a2.75 2.75 0 0 1-1.848-.68l-.232.456a3.037 3.037 0 0 0 2.076.732z" class="cls-6" transform="translate(115 388)"/>
        <path id="패스_9487" d="M4.656-3.248a2.461 2.461 0 0 1-1.744-2.184v-.184h1.576v-.536H.656v.536h1.6v.184A2.6 2.6 0 0 1 .448-3.08l.344.52a3.062 3.062 0 0 0 1.8-1.792 3.022 3.022 0 0 0 1.736 1.624zM5.68-.04h-3.3v-.9h3.3zm0-1.416h-3.3v-.888h-.644V.5h4.592v-2.84H5.68zm-.008-5.12v1.736H4.256v.54h1.416v1.616h.656v-3.892zm8.288 2.728c-1.3-.192-2.584-1.08-2.584-2.08v-.4h-.688v.4c0 1.024-1.264 1.888-2.568 2.08l.264.528A3.677 3.677 0 0 0 11.032-5a3.766 3.766 0 0 0 2.656 1.68zm.312 1.3h-6.48V-2h2.9V.6h.656V-2h2.932zm3.816-.48h-1.936v-1.3h1.936zm.648-1h1.656v2.752h.664v-5.308h-.664v2.024h-1.656V-6.1h-.648v1.26h-1.936V-6.1H15.5v3.6h3.232zM17.1-.1v-1.692h-.66V.432h4.784V-.1zm11.548-5.436H26.08v-.936h-.656v.936h-2.6V-5h5.824zm-4.592 2.384c0-.528.648-.848 1.7-.848 1.032 0 1.672.32 1.672.848s-.64.856-1.672.856c-1.056-.004-1.7-.32-1.7-.856zM26.08-.784v-1.008c1.248-.08 2.008-.56 2.008-1.36 0-.864-.9-1.36-2.336-1.36-1.456 0-2.36.5-2.36 1.36 0 .8.768 1.288 2.032 1.36v1.008H22.5v.536H29v-.536zm6.344-2.256a.617.617 0 0 0 .616-.64.626.626 0 0 0-.616-.656.626.626 0 0 0-.616.656.617.617 0 0 0 .616.64zm0 3.144a.612.612 0 0 0 .616-.64.621.621 0 0 0-.616-.656.621.621 0 0 0-.616.656.612.612 0 0 0 .616.636zm6.648-.056A2.816 2.816 0 0 0 42.008-2.8a2.816 2.816 0 0 0-2.936-2.848A2.818 2.818 0 0 0 36.128-2.8 2.818 2.818 0 0 0 39.072.048zm0-.528a2.277 2.277 0 0 1-2.36-2.32 2.277 2.277 0 0 1 2.36-2.32 2.269 2.269 0 0 1 2.344 2.32 2.269 2.269 0 0 1-2.344 2.32zM43.5-.512l1.9-1.872a2.3 2.3 0 0 0 .92-1.752c0-.936-.72-1.512-1.856-1.512a2.516 2.516 0 0 0-1.984.8l.42.348a1.9 1.9 0 0 1 1.528-.624c.856 0 1.312.4 1.312 1.048 0 .384-.12.76-.752 1.384L42.656-.408V0h3.928v-.512zm6 .56c1.3 0 2.24-1.064 2.24-2.848s-.94-2.848-2.24-2.848-2.228 1.064-2.228 2.848S48.208.048 49.5.048zm0-.528c-.976 0-1.648-.824-1.648-2.32s.672-2.32 1.648-2.32 1.648.824 1.648 2.32S50.48-.48 49.5-.48zm3.8-.032l1.9-1.872a2.3 2.3 0 0 0 .92-1.752c0-.936-.72-1.512-1.856-1.512a2.516 2.516 0 0 0-1.984.8l.408.352a1.9 1.9 0 0 1 1.528-.624c.856 0 1.312.4 1.312 1.048 0 .384-.12.76-.752 1.384l-2.328 2.28V0h3.928v-.512zm6 .56c1.3 0 2.24-1.064 2.24-2.848s-.944-2.848-2.24-2.848-2.236 1.064-2.236 2.848S58 .048 59.3.048zm0-.528c-.976 0-1.648-.824-1.648-2.32s.668-2.32 1.648-2.32 1.648.824 1.648 2.32S60.272-.48 59.3-.48zM62-5.6v.512h1.32V0h.58v-5.6zm2.888 0v.512h1.32V0h.576v-5.6zM70.352.048c1.3 0 2.24-1.064 2.24-2.848s-.944-2.848-2.24-2.848S68.12-4.584 68.12-2.8 69.056.048 70.352.048zm0-.528c-.976 0-1.652-.82-1.652-2.32s.672-2.32 1.648-2.32S72-4.3 72-2.8s-.672 2.32-1.648 2.32zm6.272-2.456a1.268 1.268 0 0 0 .9-1.232c0-.912-.792-1.48-1.976-1.48s-1.96.568-1.96 1.48a1.264 1.264 0 0 0 .88 1.232 1.4 1.4 0 0 0-1.08 1.376c0 .992.816 1.608 2.16 1.608S77.72-.568 77.72-1.56a1.41 1.41 0 0 0-1.096-1.376zM74.16-4.152c0-.624.536-1.008 1.384-1.008s1.392.384 1.392 1.016c0 .608-.52 1-1.392 1s-1.384-.392-1.384-1.008zM75.544-.44c-.992 0-1.576-.432-1.576-1.128s.584-1.12 1.576-1.12 1.584.432 1.584 1.12S76.536-.44 75.544-.44zm3.72-.072l1.9-1.872a2.3 2.3 0 0 0 .92-1.752c0-.936-.72-1.512-1.856-1.512a2.516 2.516 0 0 0-1.984.8l.408.352a1.9 1.9 0 0 1 1.528-.624c.856 0 1.312.4 1.312 1.048 0 .384-.12.76-.752 1.384l-2.324 2.28V0h3.928v-.512zm5.544-5.136a1.745 1.745 0 0 0-1.908 1.72 1.7 1.7 0 0 0 1.888 1.68 1.789 1.789 0 0 0 1.712-.96c.016.168.024.328.024.456 0 1.52-.776 2.3-1.984 2.3a1.963 1.963 0 0 1-1.092-.268l-.232.464a2.569 2.569 0 0 0 1.328.3c1.52 0 2.56-.992 2.56-2.9-.004-1.76-.804-2.792-2.296-2.792zm.064 2.912c-.864 0-1.408-.472-1.408-1.208a1.225 1.225 0 0 1 1.368-1.216c.968 0 1.48.584 1.48 1.2a1.3 1.3 0 0 1-1.44 1.224zm7.824.752h-1.12v-1.3h-.56v1.3h-2.432L91.448-5.6h-.64L87.84-1.888v.416H91V0h.576v-1.472H92.7zM94.664-3.3h-.72l.192-1.784H96.7V-5.6h-3.068l-.288 2.808h1.192c1.424 0 1.872.448 1.872 1.168 0 .68-.5 1.144-1.456 1.144a2.427 2.427 0 0 1-1.72-.648l-.28.456a2.891 2.891 0 0 0 2.008.72c1.368 0 2.032-.744 2.032-1.7 0-.988-.64-1.648-2.328-1.648zm4.92.1l1.584-1.992V-5.6h-3.6v.512h2.864L98.88-3.144v.424h.4c1.04 0 1.512.44 1.512 1.112 0 .7-.512 1.128-1.44 1.128a2.453 2.453 0 0 1-1.736-.648l-.28.456a2.912 2.912 0 0 0 2.016.72c1.352 0 2.032-.72 2.032-1.656 0-.892-.6-1.528-1.8-1.592zm4.928-.152a1.789 1.789 0 0 0-1.712.96c-.016-.168-.024-.328-.024-.456 0-1.52.776-2.3 1.984-2.3a1.963 1.963 0 0 1 1.088.264l.232-.464a2.569 2.569 0 0 0-1.328-.3c-1.52 0-2.56.992-2.56 2.9 0 1.768.808 2.8 2.3 2.8a1.745 1.745 0 0 0 1.912-1.72 1.7 1.7 0 0 0-1.892-1.684zm-.048 2.912c-.968 0-1.48-.584-1.48-1.2a1.3 1.3 0 0 1 1.44-1.224c.864 0 1.408.472 1.408 1.208a1.225 1.225 0 0 1-1.368 1.216z" class="cls-6" transform="translate(115 404)"/>
        <path id="패스_9486" d="M1.992-5.384h1.144v2.408c-.384.024-.768.032-1.144.04zm2.824 2.272c-.336.04-.688.072-1.048.1v-2.372h.712v-.528H.648v.528h.7v2.464c-.32.008-.624.008-.9.008l.072.544a29.732 29.732 0 0 0 4.344-.256zm-2.632 1.32h-.656V.432h4.784V-.1H2.184zM5.992-4.4v-2.184h-.656V-1.3h.656v-2.56h1.056v-.54zm2.664-.832h1.5v3.376h-1.5zm-.616 3.9h2.728v-4.42H8.04zm5.216-5.248v2.84h-.968v-2.68h-.616V.232h.616v-3.44h.968V.584h.624v-7.168zm4.864 3.228h-2.032v-1.184h2.032zm.64-2.776h-.64v1.08h-2.032v-1.08h-.648v3.3h3.32zm-.328 6.2c-1.072 0-1.712-.3-1.712-.816s.64-.808 1.712-.808c1.056 0 1.7.3 1.7.808s-.644.816-1.7.816zm0-2.152c-1.464 0-2.368.488-2.368 1.336s.9 1.336 2.368 1.336 2.36-.492 2.36-1.336-.904-1.336-2.36-1.336zm2.28-2.7v-1.804h-.656v4.32h.656v-1.968h1.064v-.544zm6.12 1.568a2.555 2.555 0 0 1-1.8-2.336v-.7h-.656v.7a2.683 2.683 0 0 1-1.808 2.468l.336.52a3.1 3.1 0 0 0 1.808-1.832 3.016 3.016 0 0 0 1.792 1.7zm-3.24 1.84h4.144V.6h.656v-2.5h-4.8zm4.144-5.208v4.312h.656v-4.308zm4.608 3.46a.533.533 0 0 0 .528-.552.538.538 0 0 0-.528-.568.538.538 0 0 0-.528.568.533.533 0 0 0 .528.552zm0 3.224a.528.528 0 0 0 .528-.552.538.538 0 0 0-.528-.568.538.538 0 0 0-.528.568.528.528 0 0 0 .528.548zm9.216-6.68h-.66v5.152h.656zm-2.8 3.424h-2.072v-2.28h2.072zm.64-2.808h-3.352v3.336H39.4zM37.6-.176v-1.736h-.656V.352h4.832v-.528zm11.32-6.4h-.656v4.96h.656zM47.44-3.3a18.773 18.773 0 0 1-3.344.2v-.968h2.568v-.52H44.1v-.92h2.768v-.532H43.44v3.464h.584a19.5 19.5 0 0 0 3.488-.208zm-.512 1.272h-.672v.128c0 .992-1.12 1.744-2.408 1.944l.256.52a3.432 3.432 0 0 0 2.488-1.56A3.416 3.416 0 0 0 49.08.568l.256-.52c-1.288-.2-2.408-.948-2.408-1.948zm5.088.44c-.576 0-.936-.728-.936-1.9 0-1.152.36-1.88.936-1.88.56 0 .928.728.928 1.88 0 1.168-.368 1.896-.928 1.896zm2.424-2.2h-.9c-.08-1.352-.656-2.192-1.52-2.192-.936 0-1.536.96-1.536 2.488 0 1.552.6 2.512 1.536 2.512.88 0 1.464-.864 1.52-2.272h.9V.24h.624v-6.664h-.624zm1.424-2.792V.592h.624v-7.176zm6.664 4.912H60.48V-3.56h2.048zm0-2.408H60.48v-1.9h-.648v4.84h3.336v-4.84h-.64zm3.72.32h-1.184v-2.82h-.656v7.16h.656v-3.792h1.184zM70.48-.832v-1.352h2.3v-.528h-4.42v-1.16h4.248v-2.184H67.7v.536h4.272v1.12h-4.26v2.216h2.1v1.352H66.9V-.3h6.52v-.532zm7.144-4.552h1.144v2.408c-.384.024-.768.032-1.144.04zm2.824 2.272c-.336.04-.688.072-1.048.1v-2.372h.712v-.528H76.28v.528h.7v2.464c-.32.008-.624.008-.9.008l.072.544a29.732 29.732 0 0 0 4.348-.256zm-2.632 1.32h-.656V.432h4.784V-.1h-4.128zM81.624-4.4v-2.184h-.656V-1.3h.656v-2.56h1.056v-.54zm2.664-.832h1.5v3.376h-1.5zm-.616 3.9H86.4v-4.42h-2.728zm5.216-5.248v2.84h-.968v-2.68h-.62V.232h.616v-3.44h.968V.584h.624v-7.168z" class="cls-6" transform="translate(115 420)"/>
        <path id="패스_9485" d="M2.808-1.736H1.3v-1.9h1.5zm0-2.416H1.3V-5.9H.68v4.7h2.744v-4.7h-.616zM5.9-6.584v2.84h-.972v-2.68h-.616V.24h.616v-3.448H5.9v3.8h.62v-7.176zm7.984 2.36C12.6-4.4 11.36-5.2 11.36-6.152v-.32h-.672v.32c0 .952-1.232 1.752-2.512 1.928l.248.52a3.663 3.663 0 0 0 2.6-1.568A3.7 3.7 0 0 0 13.632-3.7zM11.024.08c-1.136 0-1.792-.264-1.792-.736s.656-.736 1.792-.736 1.792.264 1.792.736-.656.736-1.792.736zm0-1.976c-1.536 0-2.456.44-2.456 1.24s.92 1.24 2.456 1.24 2.456-.44 2.456-1.24S12.56-1.9 11.024-1.9zm.328-1.128V-4.08H10.7v1.056H7.784v.524h6.488v-.528zm6.768-.328h-2.032v-1.184h2.032zm.64-2.776h-.64v1.08h-2.032v-1.08h-.648v3.3h3.32zm-.328 6.2c-1.072 0-1.712-.3-1.712-.816s.64-.808 1.712-.808c1.056 0 1.7.3 1.7.808s-.644.816-1.7.816zm0-2.152c-1.464 0-2.368.488-2.368 1.336s.9 1.336 2.368 1.336 2.36-.492 2.36-1.336-.904-1.336-2.36-1.336zm2.28-2.7v-1.804h-.656v4.32h.656v-1.968h1.064v-.544zm6.12 1.568a2.555 2.555 0 0 1-1.8-2.336v-.7h-.656v.7a2.683 2.683 0 0 1-1.808 2.468l.336.52a3.1 3.1 0 0 0 1.808-1.832 3.016 3.016 0 0 0 1.792 1.7zm-3.24 1.84h4.144V.6h.656v-2.5h-4.8zm4.144-5.208v4.312h.656v-4.308zm4.608 3.46a.533.533 0 0 0 .528-.552.538.538 0 0 0-.528-.568.538.538 0 0 0-.528.568.533.533 0 0 0 .528.552zm0 3.224a.528.528 0 0 0 .528-.552.538.538 0 0 0-.528-.568.538.538 0 0 0-.528.568.528.528 0 0 0 .528.548zm8.576-1.352h.664v-5.328h-.664v1.36h-1.2v.528h1.2v.84h-1.2v.536h1.2zm-3.688-4.224h1.08v2.544c-.36.016-.728.032-1.08.04zm2.656 2.416c-.3.032-.616.064-.936.088v-2.5h.712V-6h-3.776v.528h.712v2.592c-.32.008-.632.008-.9.008l.072.544a28.473 28.473 0 0 0 4.16-.24zM37.64-.1v-1.58h-.656V.432h4.784V-.1zm7.72-5.952a1.738 1.738 0 0 0-1.92 1.688 1.743 1.743 0 0 0 1.92 1.684 1.738 1.738 0 0 0 1.92-1.688 1.734 1.734 0 0 0-1.92-1.688zm0 .56a1.159 1.159 0 0 1 1.28 1.128 1.164 1.164 0 0 1-1.28 1.124 1.168 1.168 0 0 1-1.28-1.128A1.164 1.164 0 0 1 45.36-5.5zm2.864-1.088V.608h.656v-7.192zM43.16-.968a26.383 26.383 0 0 0 4.648-.312l-.056-.488a32.311 32.311 0 0 1-4.672.248zm11.464-2.16a2.463 2.463 0 0 1-1.744-2.2v-.264h1.576v-.536h-3.832v.536h1.6v.272a2.615 2.615 0 0 1-1.808 2.352l.344.512a3.041 3.041 0 0 0 1.808-1.784A2.961 2.961 0 0 0 54.3-2.616zM52.28-1.512h3.384v1.48H52.28zM51.64.5h4.66v-2.532h-4.66zm4-7.08v1.8h-1.416v.544h1.416v1.856h.66v-4.2zm8.928 2.672h-3.56v-1.748h3.56zm.648-2.272h-4.848v2.792h4.848zm.832 3.768h-6.512v.528h2.912V.584h.652v-2.472h2.944zm3.32.224h1.64v1.36h-1.64zm2.288 1.36v-1.36h1.12v-.536H68.36V-3.88h4.248v-2.176H67.7v.536h4.272v1.112h-4.26v2.216h1.008v1.36H66.9V-.3h6.52v-.532zm5.968-2.5a11.273 11.273 0 0 1-2.416.192v-.984h2.056v-.5h-2.056v-.9h2.136v-.528h-2.768V-2.6h.456a12.247 12.247 0 0 0 2.656-.2zm-2.124 2h4.168v1.92h.656v-2.448H75.5zm4.192-5.248v1.864h-.96v-1.736H78.1v4.168h.624v-1.9h.96v1.944h.632v-4.34zm4.32 4.84H82.5v-1.9H84zm0-2.416H82.5V-5.9h-.62v4.7h2.744v-4.7h-.616zM87.1-6.584v2.84h-.968v-2.68h-.616V.24h.616v-3.448h.968v3.8h.624v-7.176z" class="cls-6" transform="translate(115 436)"/>
        <path id="패스_9484" d="M1 0h2a1 1 0 0 1 1 1v2a1 1 0 0 1-1 1H1a1 1 0 0 1-1-1V1a1 1 0 0 1 1-1z" class="cls-6" transform="translate(107 383)"/>
        <path id="패스_9483" d="M1 0h2a1 1 0 0 1 1 1v2a1 1 0 0 1-1 1H1a1 1 0 0 1-1-1V1a1 1 0 0 1 1-1z" class="cls-6" transform="translate(107 415)"/>
        <path id="패스_9482" d="M1 0h2a1 1 0 0 1 1 1v2a1 1 0 0 1-1 1H1a1 1 0 0 1-1-1V1a1 1 0 0 1 1-1z" class="cls-6" transform="translate(107 399)"/>
        <path id="패스_9481" d="M1 0h2a1 1 0 0 1 1 1v2a1 1 0 0 1-1 1H1a1 1 0 0 1-1-1V1a1 1 0 0 1 1-1z" class="cls-6" transform="translate(107 431)"/>
        <g id="패스_9480" fill="none">
            <path d="M0 0h122v16H0z" class="cls-8" transform="translate(103 393)"/>
            <path fill="#2bd3c6" d="M1 1v14h120V1H1M0 0h122v16H0V0z" transform="translate(103 393)"/>
        </g>
    </g>
</svg>
