<svg xmlns="http://www.w3.org/2000/svg" width="150" height="150" viewBox="0 0 150 150">
    <defs>
        <style>
            .cls-2{fill:#afc1da}.cls-4{fill:#fff}.cls-6{fill:#3a3a3a}
        </style>
    </defs>
    <g id="ic_error" transform="translate(-1511.905 -636.452)">
        <path id="사각형_8158" fill="none" d="M0 0H150V150H0z" transform="translate(1511.905 636.452)"/>
        <g id="그룹_2267" transform="translate(1524.159 659.473)">
            <rect id="사각형_8159" width="126" height="101" class="cls-2" rx="5" transform="translate(-.255 -.019)"/>
            <path id="패스_9302" fill="#edf1f7" d="M0 0h126v81a5 5 0 0 1-5 5H5a5 5 0 0 1-5-5z" transform="translate(-.255 18.98)"/>
            <path id="패스_9301" d="M2.5 0A2.5 2.5 0 1 1 0 2.5 2.5 2.5 0 0 1 2.5 0z" class="cls-4" transform="translate(113.745 6.98)"/>
            <path id="패스_9300" d="M2.5 0A2.5 2.5 0 1 1 0 2.5 2.5 2.5 0 0 1 2.5 0z" class="cls-4" transform="translate(104.745 6.98)"/>
            <path id="패스_9299" d="M2.5 0A2.5 2.5 0 1 1 0 2.5 2.5 2.5 0 0 1 2.5 0z" class="cls-4" transform="translate(95.745 6.98)"/>
            <path id="패스_9298" d="M-30.875-3.25V0h-13.55v-17.5H-31.2v3.25h-9.2v3.8h8.125v3.15H-40.4v4.05zM-16.5 0l-3.375-4.875H-23.6V0h-4.05v-17.5h7.575a9.722 9.722 0 0 1 4.038.775 6 6 0 0 1 2.638 2.2 6.061 6.061 0 0 1 .925 3.375 5.94 5.94 0 0 1-.938 3.363 5.942 5.942 0 0 1-2.663 2.163L-12.15 0zm-.075-11.15a2.772 2.772 0 0 0-.95-2.263A4.253 4.253 0 0 0-20.3-14.2h-3.3v6.1h3.3a4.206 4.206 0 0 0 2.775-.8 2.78 2.78 0 0 0 .95-2.25zM1.875 0L-1.5-4.875h-3.725V0h-4.05v-17.5H-1.7a9.722 9.722 0 0 1 4.037.775 6 6 0 0 1 2.638 2.2A6.061 6.061 0 0 1 5.9-11.15a5.94 5.94 0 0 1-.938 3.363A5.942 5.942 0 0 1 2.3-5.625L6.225 0zM1.8-11.15a2.772 2.772 0 0 0-.95-2.263 4.253 4.253 0 0 0-2.775-.787h-3.3v6.1h3.3A4.206 4.206 0 0 0 .85-8.9a2.78 2.78 0 0 0 .95-2.25zM17.575.3a10.215 10.215 0 0 1-4.912-1.175 8.721 8.721 0 0 1-3.425-3.238A8.838 8.838 0 0 1 8-8.75a8.838 8.838 0 0 1 1.237-4.637 8.721 8.721 0 0 1 3.425-3.237 10.215 10.215 0 0 1 4.913-1.176 10.142 10.142 0 0 1 4.9 1.175 8.834 8.834 0 0 1 3.425 3.237 8.771 8.771 0 0 1 1.25 4.638 8.771 8.771 0 0 1-1.25 4.637 8.834 8.834 0 0 1-3.425 3.238A10.142 10.142 0 0 1 17.575.3zm0-3.45a5.553 5.553 0 0 0 2.8-.713 5.113 5.113 0 0 0 1.963-1.987 5.843 5.843 0 0 0 .713-2.9 5.843 5.843 0 0 0-.713-2.9 5.113 5.113 0 0 0-1.962-1.988 5.553 5.553 0 0 0-2.8-.712 5.553 5.553 0 0 0-2.8.712 5.113 5.113 0 0 0-1.962 1.988 5.843 5.843 0 0 0-.712 2.9 5.843 5.843 0 0 0 .712 2.9 5.113 5.113 0 0 0 1.962 1.988 5.553 5.553 0 0 0 2.799.712zM41.35 0l-3.375-4.875H34.25V0H30.2v-17.5h7.575a9.722 9.722 0 0 1 4.037.775 6 6 0 0 1 2.638 2.2 6.061 6.061 0 0 1 .925 3.375 5.94 5.94 0 0 1-.937 3.363 5.942 5.942 0 0 1-2.662 2.163L45.7 0zm-.075-11.15a2.772 2.772 0 0 0-.95-2.263 4.253 4.253 0 0 0-2.775-.787h-3.3v6.1h3.3a4.206 4.206 0 0 0 2.775-.8 2.78 2.78 0 0 0 .95-2.25z" class="cls-2" transform="translate(62.745 71.98)"/>
            <path id="패스_4099" fill="#ffcd00" d="M1595.573 665.775l-22.431 38.868a2.566 2.566 0 0 0 2.221 3.849h44.863a2.565 2.565 0 0 0 2.221-3.849l-22.431-38.868a2.564 2.564 0 0 0-4.443 0z" transform="translate(-1486.049 -594.512)"/>
            <path id="패스_9297" d="M0 0h4v18H0z" class="cls-6" transform="translate(109.745 82.98)"/>
            <path id="패스_9296" d="M0 0h4v4H0z" class="cls-6" transform="translate(109.745 103.98)"/>
        </g>
    </g>
</svg>
