<svg xmlns="http://www.w3.org/2000/svg" width="88" height="88" viewBox="0 0 88 88">
    <path fill="none" d="M0 0H88V88H0z"/>
    <path fill="#afc2dc" d="M6 0h26a6 6 0 0 1 6 6v56a6 6 0 0 1-6 6H6a6 6 0 0 1-6-6V6a6 6 0 0 1 6-6z" transform="translate(25 8.002)"/>
    <path fill="#eef2f8" d="M0 0h32v52H0z" transform="translate(28 18.002)"/>
    <path fill="#ffcd00" d="M16 0A16 16 0 1 1 0 16 16 16 0 0 1 16 0z" transform="translate(46 52.002)"/>
    <path fill="#fff" d="M62.214 60.637a1.518 1.518 0 0 1 .913.3 1.714 1.714 0 0 1 .583 1.024l1.232 5.236h2.31l1.254-5.61a1.076 1.076 0 0 1 .583-.8 1.417 1.417 0 0 1 .935-.1 1.248 1.248 0 0 1 .8.507 1.2 1.2 0 0 1 .121 1.012L69.691 67.2h1.76a.539.539 0 0 1 .484.231.984.984 0 0 1 .154.561.947.947 0 0 1-.154.539.542.542 0 0 1-.484.231H69.32l-1.606 6.467a1.652 1.652 0 0 1-.6 1.024 1.485 1.485 0 0 1-1.782 0 1.693 1.693 0 0 1-.6-1.068l-1.5-6.423h-2.118l-1.628 6.467a1.635 1.635 0 0 1-.616 1.024 1.594 1.594 0 0 1-.9.3 1.544 1.544 0 0 1-.891-.3 1.673 1.673 0 0 1-.6-1.045l-1.607-6.446H52.71a.54.54 0 0 1-.483-.231.94.94 0 0 1-.155-.539.976.976 0 0 1 .155-.561.538.538 0 0 1 .483-.231h1.782l-1.232-5a1.2 1.2 0 0 1 .121-1.012 1.263 1.263 0 0 1 .825-.507 1.539 1.539 0 0 1 .946.078 1.1 1.1 0 0 1 .594.825L57 67.194h2.4l1.32-5.236a1.778 1.778 0 0 1 .561-1.024 1.493 1.493 0 0 1 .933-.297zm-4.092 11.6L59 68.756h-1.647zm3.388-5.038h1.343l-.639-2.772zm4.62 5.016l.77-3.454h-1.584z" transform="translate(-.072 -.137)"/>
</svg>
