<svg xmlns="http://www.w3.org/2000/svg" width="90" height="90" viewBox="0 0 90 90">
    <defs>
        <style>
            .cls-1{fill:#ffcd00}.cls-2{fill:#fff}.cls-5{fill:#ffc200}
        </style>
    </defs>
    <g id="ic_point_l" transform="translate(-711.047 -413.09)">
        <g id="그룹_2093">
            <rect id="사각형_7932" width="35.883" height="10.504" class="cls-1" rx="2.5" transform="translate(755.926 460.269)"/>
            <path id="패스_4011" d="M789.308 460.769a2 2 0 0 1 2 2v5.5a2 2 0 0 1-2 2h-30.882a2 2 0 0 1-2-2v-5.5a2 2 0 0 1 2-2h30.882m0-1h-30.882a3 3 0 0 0-3 3v5.5a3 3 0 0 0 3 3h30.882a3 3 0 0 0 3-3v-5.5a3 3 0 0 0-3-3z" class="cls-2"/>
            <rect id="사각형_7938" width="35.882" height="10.504" class="cls-1" rx="2.5" transform="translate(753.624 449.52)"/>
            <path id="패스_4012" d="M787.006 450.019a2 2 0 0 1 2 2v5.5a2 2 0 0 1-2 2h-30.882a2 2 0 0 1-2-2v-5.5a2 2 0 0 1 2-2h30.882m0-1h-30.882a3 3 0 0 0-3 3v5.5a3 3 0 0 0 3 3h30.882a3 3 0 0 0 3-3v-5.5a3 3 0 0 0-3-3z" class="cls-2"/>
            <rect id="사각형_7944" width="35.883" height="10.504" class="cls-1" rx="2.5" transform="translate(755.926 438.77)"/>
            <path id="패스_4013" d="M789.308 439.27a2 2 0 0 1 2 2v5.5a2 2 0 0 1-2 2h-30.882a2 2 0 0 1-2-2v-5.5a2 2 0 0 1 2-2h30.882m0-1h-30.882a3 3 0 0 0-3 3v5.5a3 3 0 0 0 3 3h30.882a3 3 0 0 0 3-3v-5.5a3 3 0 0 0-3-3z" class="cls-2"/>
            <rect id="사각형_7950" width="35.883" height="10.504" class="cls-1" rx="2.5" transform="translate(736.183 477.264)"/>
            <path id="패스_4014" d="M769.565 477.764a2 2 0 0 1 2 2v5.5a2 2 0 0 1-2 2h-30.882a2 2 0 0 1-2-2v-5.5a2 2 0 0 1 2-2h30.882m0-1h-30.882a3 3 0 0 0-3 3v5.5a3 3 0 0 0 3 3h30.882a3 3 0 0 0 3-3v-5.5a3 3 0 0 0-3-3z" class="cls-2"/>
            <rect id="사각형_7956" width="35.883" height="10.504" class="cls-1" rx="2.5" transform="translate(734.011 466.514)"/>
            <path id="패스_4015" d="M767.393 467.014a2 2 0 0 1 2 2v5.5a2 2 0 0 1-2 2h-30.882a2 2 0 0 1-2-2v-5.5a2 2 0 0 1 2-2h30.882m0-1h-30.882a3 3 0 0 0-3 3v5.5a3 3 0 0 0 3 3h30.882a3 3 0 0 0 3-3v-5.5a3 3 0 0 0-3-3z" class="cls-2"/>
            <rect id="사각형_7962" width="35.883" height="10.504" class="cls-1" rx="2.5" transform="translate(736.183 455.765)"/>
            <path id="패스_4016" d="M769.565 456.265a2 2 0 0 1 2 2v5.5a2 2 0 0 1-2 2h-30.882a2 2 0 0 1-2-2v-5.5a2 2 0 0 1 2-2h30.882m0-1h-30.882a3 3 0 0 0-3 3v5.5a3 3 0 0 0 3 3h30.882a3 3 0 0 0 3-3v-5.5a3 3 0 0 0-3-3z" class="cls-2"/>
            <rect id="사각형_7968" width="35.883" height="10.504" class="cls-1" rx="2.5" transform="translate(734.011 445.016)"/>
            <path id="패스_4017" d="M767.393 445.515a2 2 0 0 1 2 2v5.5a2 2 0 0 1-2 2h-30.882a2 2 0 0 1-2-2v-5.5a2 2 0 0 1 2-2h30.882m0-1h-30.882a3 3 0 0 0-3 3v5.5a3 3 0 0 0 3 3h30.882a3 3 0 0 0 3-3v-5.5a3 3 0 0 0-3-3z" class="cls-2"/>
            <rect id="사각형_7974" width="35.883" height="10.504" class="cls-1" rx="2.5" transform="translate(736.183 434.266)"/>
            <path id="패스_4018" d="M769.565 434.766a2 2 0 0 1 2 2v5.5a2 2 0 0 1-2 2h-30.882a2 2 0 0 1-2-2v-5.5a2 2 0 0 1 2-2h30.882m0-1h-30.882a3 3 0 0 0-3 3v5.5a3 3 0 0 0 3 3h30.882a3 3 0 0 0 3-3v-5.5a3 3 0 0 0-3-3z" class="cls-2"/>
            <rect id="사각형_7980" width="35.883" height="10.504" class="cls-1" rx="2.5" transform="translate(736.183 423.021)"/>
            <path id="패스_4019" d="M769.565 423.52a2 2 0 0 1 2 2v5.5a2 2 0 0 1-2 2h-30.882a2 2 0 0 1-2-2v-5.5a2 2 0 0 1 2-2h30.882m0-1h-30.882a3 3 0 0 0-3 3v5.5a3 3 0 0 0 3 3h30.882a3 3 0 0 0 3-3v-5.5a3 3 0 0 0-3-3z" class="cls-2"/>
        </g>
        <rect id="사각형_7986" width="35.883" height="10.504" class="cls-1" rx="2.5" transform="translate(713.169 481.768)"/>
        <path id="패스_4020" d="M746.552 482.268a2 2 0 0 1 2 2v5.5a2 2 0 0 1-2 2h-30.883a2 2 0 0 1-2-2v-5.5a2 2 0 0 1 2-2h30.883m0-1h-30.883a3 3 0 0 0-3 3v5.5a3 3 0 0 0 3 3h30.883a3 3 0 0 0 3-3v-5.5a3 3 0 0 0-3-3z" class="cls-2"/>
        <rect id="사각형_7992" width="35.883" height="10.504" class="cls-1" rx="2.5" transform="translate(714.774 471.018)"/>
        <path id="패스_4021" d="M748.157 471.518a2 2 0 0 1 2 2v5.5a2 2 0 0 1-2 2h-30.883a2 2 0 0 1-2-2v-5.5a2 2 0 0 1 2-2h30.883m0-1h-30.883a3 3 0 0 0-3 3v5.5a3 3 0 0 0 3 3h30.883a3 3 0 0 0 3-3v-5.5a3 3 0 0 0-3-3z" class="cls-2"/>
        <rect id="사각형_7998" width="35.882" height="10.504" class="cls-1" rx="2.5" transform="translate(712.142 460.269)"/>
        <path id="패스_4022" d="M745.524 460.769a2 2 0 0 1 2 2v5.5a2 2 0 0 1-2 2h-30.883a2 2 0 0 1-2-2v-5.5a2 2 0 0 1 2-2h30.883m0-1h-30.883a3 3 0 0 0-3 3v5.5a3 3 0 0 0 3 3h30.883a3 3 0 0 0 3-3v-5.5a3 3 0 0 0-3-3z" class="cls-2"/>
        <rect id="사각형_8004" width="35.883" height="10.504" class="cls-1" rx="2.5" transform="translate(714.774 449.52)"/>
        <path id="패스_4023" d="M748.157 450.019a2 2 0 0 1 2 2v5.5a2 2 0 0 1-2 2h-30.883a2 2 0 0 1-2-2v-5.5a2 2 0 0 1 2-2h30.883m0-1h-30.883a3 3 0 0 0-3 3v5.5a3 3 0 0 0 3 3h30.883a3 3 0 0 0 3-3v-5.5a3 3 0 0 0-3-3z" class="cls-2"/>
        <path id="사각형_8010" fill="none" d="M0 0H90V90H0z" transform="translate(711.047 413.09)"/>
        <circle id="타원_741" cx="21.348" cy="21.348" r="21.348" fill="#3e79e8" transform="translate(754.124 460.394)"/>
        <path id="패스_4025" d="M726.426 439.071a9.775 9.775 0 0 0-.219-1.132 7.382 7.382 0 0 0-1.175-2.525 7.4 7.4 0 0 0-1.176 2.525 9.742 9.742 0 0 0-.217 1.128 9.774 9.774 0 0 0-1.132.218 7.325 7.325 0 0 0-2.526 1.179 7.311 7.311 0 0 0 2.526 1.18 9.7 9.7 0 0 0 1.128.217 9.728 9.728 0 0 0 .217 1.129 7.325 7.325 0 0 0 1.18 2.525 7.322 7.322 0 0 0 1.179-2.525 9.647 9.647 0 0 0 .218-1.132 9.97 9.97 0 0 0 1.128-.218 7.4 7.4 0 0 0 2.525-1.176 7.411 7.411 0 0 0-2.525-1.175 9.8 9.8 0 0 0-1.131-.218z" class="cls-5"/>
        <path id="패스_4026" d="M785.789 428.571a7.374 7.374 0 0 0-2.525-1.175 9.8 9.8 0 0 0-1.131-.219 9.8 9.8 0 0 0-.219-1.131 7.388 7.388 0 0 0-1.175-2.526 7.409 7.409 0 0 0-1.176 2.526 9.737 9.737 0 0 0-.217 1.127 10 10 0 0 0-1.132.218 7.33 7.33 0 0 0-2.526 1.18 7.308 7.308 0 0 0 2.526 1.179 9.748 9.748 0 0 0 1.128.218 9.741 9.741 0 0 0 .217 1.128 7.329 7.329 0 0 0 1.18 2.526 7.327 7.327 0 0 0 1.179-2.526 9.829 9.829 0 0 0 .219-1.132 9.768 9.768 0 0 0 1.127-.218 7.374 7.374 0 0 0 2.525-1.175z" class="cls-5"/>
        <path id="패스_8931" d="M10.59-21.45a10.633 10.633 0 0 1 3.345.465 6.284 6.284 0 0 1 2.295 1.29 5.094 5.094 0 0 1 1.335 1.965A6.843 6.843 0 0 1 18-15.27v.42a7 7 0 0 1-.45 2.505 5.54 5.54 0 0 1-1.38 2.07 6.819 6.819 0 0 1-2.31 1.41 9.191 9.191 0 0 1-3.27.525H6.27v6.75A1.417 1.417 0 0 1 5.7-.33a2.332 2.332 0 0 1-1.35.39A2.332 2.332 0 0 1 3-.33a1.417 1.417 0 0 1-.57-1.26v-17.37a2.688 2.688 0 0 1 .555-1.95 2.854 2.854 0 0 1 1.995-.54zm-4.32 9.87h3.81a5.3 5.3 0 0 0 2.97-.72 2.907 2.907 0 0 0 1.08-2.61v-.33a3.447 3.447 0 0 0-.27-1.47 2.283 2.283 0 0 0-.765-.915 3.08 3.08 0 0 0-1.185-.48 7.818 7.818 0 0 0-1.5-.135H6.27z" class="cls-2" transform="translate(766.047 493.09)"/>
    </g>
</svg>
