<svg xmlns="http://www.w3.org/2000/svg" width="200" height="200" viewBox="0 0 200 200">
    <defs>
        <style>
            .cls-2{fill:#0f0f0f}.cls-5{fill:#e9e9e9}.cls-7{fill:none;stroke:#141414;stroke-linecap:round;stroke-width:1.5px}.cls-10,.cls-11{stroke:none}.cls-11{fill:#0f0f0f}
        </style>
    </defs>
    <g id="serial-number-mobile" transform="translate(-77 -268)">
        <g id="패스_9338" fill="#f2f2f2">
            <path d="M196 196H4V25c0-5.61 2.184-10.883 6.15-14.85C14.118 6.185 19.39 4 25 4h150c5.61 0 10.883 2.184 14.85 6.15C193.815 14.118 196 19.39 196 25v171z" class="cls-10" transform="translate(77 268)"/>
            <path d="M25 8C15.626 8 8 15.626 8 25v167h184V25c0-9.374-7.626-17-17-17H25m0-8h150c13.807 0 25 11.193 25 25v175H0V25C0 11.193 11.193 0 25 0z" class="cls-11" transform="translate(77 268)"/>
        </g>
        <path id="패스_9337" d="M-32.9-11.584h-5.056v-1.664h-1.324v1.664h-5.152v1.056H-32.9zm-2.432 4.24c0 .88-1.2 1.376-3.28 1.376-2.1 0-3.312-.5-3.312-1.376 0-.864 1.216-1.376 3.312-1.376 2.084 0 3.284.512 3.284 1.376zm-7.952 0c0 1.536 1.744 2.384 4.672 2.384 2.9 0 4.64-.848 4.64-2.384 0-1.52-1.744-2.368-4.64-2.368-2.924 0-4.668.848-4.668 2.368zm11.184 3.36h-13v1.056h3.376V1.2h1.312v-4.128h3.612V1.2h1.312v-4.128h3.388zm3.52-6.368h4.048v-1.072h-5.344v9.072h.944a23.564 23.564 0 0 0 5.312-.432l-.112-1.088a22.573 22.573 0 0 1-4.848.432zm9.12-2.816v5.76h-2.032v-5.44h-1.228V.464h1.232v-6.8h2.032v7.52h1.264v-14.352zM-8.048-9.2v1.072h2.88v5.488h1.328v-10.512h-1.328V-9.2zm.848 3.376a4.927 4.927 0 0 1-3.488-4.4v-.7h3.152V-12H-15.2v1.072h3.2v.72a5.23 5.23 0 0 1-3.616 4.7l.688 1.024a6.125 6.125 0 0 0 3.616-3.568A5.921 5.921 0 0 0-7.856-4.8zm-4.5 5.616v-3.36h-1.328V.864h9.588V-.208zM7.712-11.424H4.1v-1.728H2.784v1.728H-.864v1.04h8.576zM1.3-6.88c0-.992.864-1.648 2.144-1.648s2.144.656 2.144 1.648S4.72-5.248 3.44-5.248 1.3-5.888 1.3-6.88zm2.8 2.624c1.648-.208 2.736-1.2 2.736-2.624C6.832-8.5 5.44-9.536 3.44-9.536S.048-8.5.048-6.88c0 1.424 1.088 2.416 2.736 2.624v1.568C1.392-2.64.048-2.64-1.1-2.64l.176 1.1a52.97 52.97 0 0 0 8.96-.576l-.08-.976a37.515 37.515 0 0 1-3.856.356zm8.256-2.816h-2.24v-6.1H8.8V1.184h1.312v-7.152h2.24zM25.024-9.44v1.072h2.832v3.76h1.328v-8.544h-1.328v3.712zm.8 3.264a4.941 4.941 0 0 1-3.488-4.384v-.5h3.152v-1.056h-7.664v1.056h3.2v.5a5.29 5.29 0 0 1-3.616 4.784l.688 1.04a6.211 6.211 0 0 0 3.616-3.648 5.9 5.9 0 0 0 3.456 3.232zM24.448.16c-2.16 0-3.472-.608-3.472-1.648s1.312-1.664 3.472-1.664 3.472.624 3.472 1.664S26.608.16 24.448.16zm0-4.32c-2.944 0-4.784.976-4.784 2.672s1.84 2.672 4.784 2.672 4.768-.976 4.768-2.672-1.824-2.672-4.768-2.672zm10.464-4.352h7.328v2.64h-7.328zm4.32 6.784v-3.088h4.288v-7.328h-1.28v2.56h-7.328v-2.56h-1.3v7.328H37.9v3.088h-5.82v1.072h13.008v-1.072z" class="cls-2" transform="translate(177 340)"/>
        <path id="패스_9336" fill="#f2f2f2" d="M0 0h184v15H0z" transform="translate(85 453)"/>
        <path id="패스_9335" fill="#fff" d="M10 0h164a10 10 0 0 1 10 10v97H0V10A10 10 0 0 1 10 0z" transform="translate(85 361)"/>
        <path id="패스_9334" d="M2 0h156a2 2 0 0 1 2 2v6a2 2 0 0 1-2 2H2a2 2 0 0 1-2-2V2a2 2 0 0 1 2-2z" class="cls-5" transform="translate(97 381)"/>
        <path id="패스_9333" d="M2 0h117a2 2 0 0 1 2 2v6a2 2 0 0 1-2 2H2a2 2 0 0 1-2-2V2a2 2 0 0 1 2-2z" class="cls-5" transform="translate(97 411)"/>
        <path id="패스_9332" fill="#648de5" d="M-52.552 0h1.36l-2.5-5.6h-1.28l-2.5 5.6h1.328l.5-1.2h2.6zm-2.68-2.184l.888-2.144.888 2.144zM-51.56-5.6v1.04h1.12V0h1.3v-5.6zm7.86 2.688a1.346 1.346 0 0 0 .744-1.232c0-.872-.72-1.456-2.12-1.456h-2.736V0h2.9c1.472 0 2.24-.56 2.24-1.528A1.383 1.383 0 0 0-43.7-2.912zm-1.54-1.712c.632 0 .976.216.976.656s-.344.664-.976.664h-1.288v-1.32zm.224 3.648h-1.512V-2.36h1.512c.672 0 1.032.224 1.032.7s-.36.684-1.032.684zm6 1.072A2.877 2.877 0 0 0-36.7-.9l-.832-.768a1.785 1.785 0 0 1-1.408.664A1.718 1.718 0 0 1-40.736-2.8a1.718 1.718 0 0 1 1.792-1.792 1.8 1.8 0 0 1 1.408.656l.836-.764a2.891 2.891 0 0 0-2.3-.992 2.877 2.877 0 0 0-3.04 2.9A2.875 2.875 0 0 0-39.016.1zm4.576-1.152l1.288-1.216a2.234 2.234 0 0 0 .936-1.768c0-1.016-.832-1.656-2.08-1.656a2.6 2.6 0 0 0-2.224 1.04l.944.608a1.369 1.369 0 0 1 1.16-.56c.592 0 .9.256.9.7 0 .272-.088.56-.584 1.032l-2.16 2.04V0h4.232v-1.056zm5.56-2.264l1.264-1.44v-.84h-3.92v1.04h2.384l-1.152 1.3v.86h.592c.736 0 1.048.264 1.048.688 0 .456-.4.72-1.048.72a2.72 2.72 0 0 1-1.6-.5l-.5.992a3.85 3.85 0 0 0 2.132.6c1.592 0 2.32-.864 2.32-1.808a1.591 1.591 0 0 0-1.52-1.612zm7.248 1.088h-.912V-3.28h-1.224v1.048h-1.5l2.444-3.368h-1.36l-2.64 3.552v.872h3.016V0h1.264v-1.176h.912zm2.288-1.268h-.456l.088-1.064h2.336V-5.6h-3.416l-.288 3.152h1.432c1.016 0 1.3.288 1.3.728 0 .456-.4.728-1.048.728a2.7 2.7 0 0 1-1.592-.5L-21.5-.5a3.87 3.87 0 0 0 2.14.6c1.6 0 2.328-.864 2.328-1.856S-17.688-3.5-19.344-3.5zm5.536-.016a1.89 1.89 0 0 0-1.384.5 1.487 1.487 0 0 1 1.576-1.624 1.844 1.844 0 0 1 1.048.28l.48-.952a3.024 3.024 0 0 0-1.56-.384A2.726 2.726 0 0 0-16.5-2.68c0 1.808.956 2.78 2.5 2.78a1.925 1.925 0 0 0 2.12-1.864 1.776 1.776 0 0 0-1.928-1.748zm-.264 2.64c-.624 0-.984-.352-.984-.832a.876.876 0 0 1 .968-.84.844.844 0 0 1 .952.84.837.837 0 0 1-.936.836zm3.016.876h2.544a2.793 2.793 0 0 0 3.088-2.8 2.793 2.793 0 0 0-3.088-2.8h-2.544zm1.3-1.064v-3.472h1.184A1.671 1.671 0 0 1-6.736-2.8a1.671 1.671 0 0 1-1.84 1.736zm9.544-3.5V-5.6h-4.236V0h1.3v-2.04H-.56v-1.04h-2.592v-1.48z" transform="translate(257 450)"/>
        <path id="패스_9331" d="M2.456.048c1.432 0 2.088-.7 2.088-1.528 0-2.04-3.444-1.112-3.444-2.648 0-.56.456-1.016 1.48-1.016a2.883 2.883 0 0 1 1.536.464l.2-.472a3.161 3.161 0 0 0-1.736-.5c-1.424 0-2.064.712-2.064 1.536C.512-2.04 3.96-2.984 3.96-1.448c0 .552-.456.992-1.5.992a2.75 2.75 0 0 1-1.848-.68L.376-.68a3.037 3.037 0 0 0 2.08.728zM4.32.8h.52l2.64-7.536h-.52zm7.488-6.4v4.544L8.2-5.6h-.488V0H8.3v-4.544L11.9 0h.488v-5.6zm4.552 7.152h.54a7.278 7.278 0 0 1-.912-3.744 7.278 7.278 0 0 1 .912-3.744h-.54a7.185 7.185 0 0 0-.928 3.744 7.226 7.226 0 0 0 .928 3.744zM19.8-5.96h-.648v1.288a3.77 3.77 0 0 1-1.928 3.24l.4.536A3.987 3.987 0 0 0 19.48-3.3a3.9 3.9 0 0 0 1.848 2.272l.392-.528a3.569 3.569 0 0 1-1.92-3.116zm2.672-.624V.608h.656v-7.192zm2.816 3.232h2.648V-5.92h-3.328v.536h2.664v1.5h-2.64v2.752h.592A20.823 20.823 0 0 0 28.84-1.4l-.064-.536a21.087 21.087 0 0 1-3.488.256zm4.16-3.24V.6h.652v-7.192zm2.464 1.88A1.126 1.126 0 0 1 33.136-5.8a1.126 1.126 0 0 1 1.224 1.088 1.127 1.127 0 0 1-1.224 1.1 1.127 1.127 0 0 1-1.224-1.1zm4.512.256v1.528h.656v-3.648h-.656v1.592H34.96a1.717 1.717 0 0 0-1.824-1.352 1.677 1.677 0 0 0-1.848 1.624 1.679 1.679 0 0 0 1.848 1.632 1.724 1.724 0 0 0 1.832-1.376zM33.12-.024v-.784h3.96v-1.728h-4.624v.52h3.976v.72h-3.96V.5h4.88v-.52zm9.352-3h-1.936v-1.3h1.936zm.648-1h1.656v2.752h.664v-5.312h-.664v2.024H43.12V-6.1h-.648v1.26h-1.936V-6.1h-.648v3.6h3.232zM41.48-.1v-1.692h-.656V.432h4.784V-.1zm11.152-5.436h-2.568v-.936h-.656v.936h-2.6V-5h5.824zM48.04-3.152c0-.528.648-.848 1.7-.848 1.032 0 1.672.32 1.672.848s-.64.856-1.672.856c-1.052-.004-1.7-.32-1.7-.856zm2.024 2.368v-1.008c1.248-.08 2.008-.56 2.008-1.36 0-.864-.9-1.36-2.336-1.36-1.456 0-2.36.5-2.36 1.36 0 .8.768 1.288 2.032 1.36v1.008h-2.92v.536h6.5v-.536zM54.52.8h.52l2.64-7.536h-.52zm10.488-7.384h-.656V-2.9h.656zM59.92-4.728a1.11 1.11 0 0 1 1.216-1.064 1.106 1.106 0 0 1 1.216 1.064 1.1 1.1 0 0 1-1.216 1.056 1.109 1.109 0 0 1-1.216-1.056zm3.072 0a1.672 1.672 0 0 0-1.856-1.6 1.665 1.665 0 0 0-1.848 1.6 1.658 1.658 0 0 0 1.848 1.584 1.665 1.665 0 0 0 1.856-1.584zm-1.968 4.7v-.788h3.984v-1.736H60.36v.52h4v.732h-3.984V.5h4.872v-.52zm10.3-1.28h.664v-5.268h-.664v1.208h-1.388v.528h1.392v1.072h-1.392v.536h1.392zM69.88-2.984a15.163 15.163 0 0 1-2.856.184v-1.176h2.432v-2.1h-3.1v.528H68.8v1.056h-2.424v2.224h.52a16.343 16.343 0 0 0 3.048-.184zM68-.128v-1.56h-.656V.4h4.864v-.528zm7.984-2.9h-1.936v-1.3h1.936zm.648-1h1.656v2.752h.664v-5.308h-.664v2.024h-1.656V-6.1h-.648v1.26h-1.936V-6.1H73.4v3.6h3.232zM74.992-.1v-1.692h-.656V.432h4.784V-.1zm11.152-5.436h-2.568v-.936h-.656v.936h-2.6V-5h5.824zm-4.592 2.384c0-.528.648-.848 1.7-.848 1.032 0 1.672.32 1.672.848s-.64.856-1.672.856c-1.052-.004-1.7-.32-1.7-.856zm2.024 2.368v-1.008c1.248-.08 2.008-.56 2.008-1.36 0-.864-.9-1.36-2.336-1.36-1.456 0-2.36.5-2.36 1.36 0 .8.768 1.288 2.032 1.36v1.008H80v.536h6.5v-.536zM87.4 1.552a7.151 7.151 0 0 0 .936-3.744 7.11 7.11 0 0 0-.936-3.744h-.544a7.2 7.2 0 0 1 .92 3.744 7.2 7.2 0 0 1-.92 3.744z" class="cls-2" transform="translate(97 450)"/>
        <g id="그룹_1609" transform="translate(98 290.098)">
            <path id="패스_9341" d="M0 0h14" class="cls-7" transform="translate(0 8.252)"/>
            <path id="패스_9340" d="M0 0v7.5" class="cls-7" transform="rotate(45 -1.029 7.425)"/>
            <path id="패스_9339" d="M0 0v7.5" class="cls-7" transform="rotate(135 -.343 7.828)"/>
        </g>
        <g id="그룹_4873" transform="translate(-3 10.748)">
            <path id="패스_9343" d="M0 0h12" class="cls-7" transform="translate(248 284.252)"/>
            <path id="패스_9342" d="M0 0h12" class="cls-7" transform="translate(248 291.252)"/>
        </g>
        <g id="그룹_4872" transform="translate(-3 11.721)">
            <g id="패스_9345" fill="#fff">
                <path d="M.75 5C.612 5 .5 4.888.5 4.75v-4C.5.612.612.5.75.5S1 .612 1 .75v4C1 4.888.888 5 .75 5z" class="cls-10" transform="rotate(-45 465.36 -134.417)"/>
                <path d="M.75 0c.414 0 .75.336.75.75v4c0 .414-.336.75-.75.75S0 5.164 0 4.75v-4C0 .336.336 0 .75 0z" class="cls-11" transform="rotate(-45 465.36 -134.417)"/>
            </g>
            <g id="패스_9344" fill="none">
                <path d="M5.5 0A5.5 5.5 0 1 1 0 5.5 5.5 5.5 0 0 1 5.5 0z" class="cls-10" transform="translate(224.15 280.279)"/>
                <path d="M5.5 1.5c-2.206 0-4 1.794-4 4s1.794 4 4 4 4-1.794 4-4-1.794-4-4-4m0-1.5C8.538 0 11 2.462 11 5.5S8.538 11 5.5 11 0 8.538 0 5.5 2.462 0 5.5 0z" class="cls-11" transform="translate(224.15 280.279)"/>
            </g>
        </g>
    </g>
</svg>
