<svg xmlns="http://www.w3.org/2000/svg" width="300" height="340" viewBox="0 0 300 340">
    <defs>
        <style>
            .cls-2{fill:#0f0f0f}.cls-5{fill:#e9e9e9}
        </style>
    </defs>
    <g id="serial-number" transform="translate(-77 -268)">
        <g id="패스_9345" fill="#f2f2f2" stroke="none">
            <path d="M296 336H4V35c0-4.187.82-8.246 2.435-12.065 1.56-3.691 3.796-7.007 6.645-9.855 2.848-2.849 6.164-5.084 9.855-6.645C26.754 4.819 30.813 4 35 4h230c4.187 0 8.246.82 12.065 2.435 3.691 1.56 7.007 3.796 9.855 6.645 2.849 2.848 5.084 6.164 6.645 9.855C295.181 26.754 296 30.813 296 35v301z" transform="translate(77 268)"/>
            <path fill="#0f0f0f" d="M35 8C20.112 8 8 20.112 8 35v297h284V35c0-14.888-12.112-27-27-27H35m0-8h230c19.33 0 35 15.67 35 35v305H0V35C0 15.67 15.67 0 35 0z" transform="translate(77 268)"/>
        </g>
        <path id="패스_9344" d="M-57.568-20.272h-8.848v-2.912h-2.324v2.912h-9.016v1.848h20.188zm-4.256 7.42c0 1.54-2.1 2.408-5.74 2.408-3.668 0-5.8-.868-5.8-2.408 0-1.512 2.128-2.408 5.8-2.408 3.64 0 5.74.896 5.74 2.408zm-13.916 0c0 2.688 3.052 4.172 8.176 4.172 5.068 0 8.12-1.484 8.12-4.172 0-2.66-3.052-4.144-8.12-4.144-5.124-.004-8.176 1.484-8.176 4.144zm19.572 5.88h-22.764v1.848h5.908V2.1h2.3v-7.224h6.324V2.1h2.3v-7.224h5.936zm6.16-11.144h7.084v-1.876h-9.352v15.876h1.652a41.238 41.238 0 0 0 9.3-.756l-.2-1.9a39.5 39.5 0 0 1-8.484.756zm15.96-4.928v10.08H-37.6v-9.52h-2.16V.812h2.16v-11.9h3.556v13.16h2.212v-25.116zm19.964 6.944v1.876h5.04v9.6h2.324v-18.4h-2.324v6.924zm1.484 5.908c-3.64-1.288-6.1-4.424-6.1-7.7v-1.232h5.516V-21H-26.6v1.876h5.6v1.26c0 3.556-2.6 6.888-6.328 8.232l1.2 1.792a10.719 10.719 0 0 0 6.328-6.244A10.362 10.362 0 0 0-13.748-8.4zm-7.868 9.828v-5.88h-2.324v7.756H-6.02V-.364zM13.5-19.992H7.168v-3.024h-2.3v3.024h-6.38v1.82H13.5zM2.268-12.04c0-1.736 1.512-2.884 3.752-2.884s3.752 1.148 3.752 2.884S8.26-9.184 6.02-9.184 2.268-10.3 2.268-12.04zm4.9 4.592c2.884-.364 4.788-2.1 4.788-4.592 0-2.828-2.436-4.648-5.936-4.648S.084-14.868.084-12.04c0 2.492 1.9 4.228 4.788 4.592V-4.7c-2.436.084-4.788.084-6.8.084l.308 1.932A92.7 92.7 0 0 0 14.056-3.7l-.14-1.7a65.652 65.652 0 0 1-6.748.616zm14.448-4.928H17.7v-10.668h-2.3V2.072h2.3v-12.516h3.92zm22.176-4.144v1.876h4.956v6.58h2.324v-14.952h-2.324v6.5zm1.4 5.712c-3.64-1.288-6.1-4.452-6.1-7.672v-.868H44.6V-21.2H31.192v1.848h5.6v.868a9.258 9.258 0 0 1-6.328 8.372l1.2 1.82A10.869 10.869 0 0 0 38-14.672a10.318 10.318 0 0 0 6.048 5.656zM42.784.28C39 .28 36.708-.784 36.708-2.6S39-5.516 42.784-5.516 48.86-4.424 48.86-2.6 46.564.28 42.784.28zm0-7.56c-5.152 0-8.372 1.708-8.372 4.676s3.22 4.676 8.372 4.676S51.128.364 51.128-2.6s-3.192-4.68-8.344-4.68zM61.1-14.9h12.82v4.62H61.1zm7.56 11.872v-5.4h7.5v-12.824h-2.24v4.48H61.1v-4.48h-2.272v12.824h7.5v5.4H56.14v1.876H78.9v-1.872z" class="cls-2" transform="translate(227 376)"/>
        <path id="패스_9343" fill="#f2f2f2" d="M0 0h284v22H0z" transform="translate(85 586)"/>
        <path id="패스_9342" fill="#fff" d="M20 0h244a20 20 0 0 1 20 20v173H0V20A20 20 0 0 1 20 0z" transform="translate(85 415)"/>
        <path id="패스_9341" d="M2 0h226a2 2 0 0 1 2 2v11a2 2 0 0 1-2 2H2a2 2 0 0 1-2-2V2a2 2 0 0 1 2-2z" class="cls-5" transform="translate(112 459)"/>
        <path id="패스_9340" d="M2 0h156a2 2 0 0 1 2 2v11a2 2 0 0 1-2 2H2a2 2 0 0 1-2-2V2a2 2 0 0 1 2-2z" class="cls-5" transform="translate(112 508)"/>
        <path id="패스_9339" fill="#648de5" d="M-78.828 0h2.04l-3.756-8.4h-1.92L-86.208 0h1.992l.744-1.8h3.9zm-4.02-3.276l1.332-3.216 1.332 3.216zM-77.34-8.4v1.56h1.68V0h1.944v-8.4zm11.784 4.032a2.019 2.019 0 0 0 1.116-1.848c0-1.308-1.08-2.184-3.18-2.184h-4.1V0h4.344c2.208 0 3.36-.84 3.36-2.292a2.074 2.074 0 0 0-1.54-2.076zm-2.3-2.568c.948 0 1.464.324 1.464.984s-.516 1-1.464 1h-1.932v-1.98zm.336 5.472h-2.268V-3.54h2.268c1.008 0 1.548.336 1.548 1.044s-.544 1.032-1.552 1.032zm9 1.608a4.316 4.316 0 0 0 3.468-1.5L-56.3-2.508a2.677 2.677 0 0 1-2.112 1A2.577 2.577 0 0 1-61.1-4.2a2.577 2.577 0 0 1 2.688-2.688A2.7 2.7 0 0 1-56.3-5.9l1.248-1.152a4.337 4.337 0 0 0-3.456-1.488 4.316 4.316 0 0 0-4.564 4.34A4.313 4.313 0 0 0-58.524.144zm6.864-1.728l1.932-1.824a3.352 3.352 0 0 0 1.4-2.652c0-1.524-1.248-2.484-3.12-2.484a3.9 3.9 0 0 0-3.336 1.56l1.416.912a2.054 2.054 0 0 1 1.74-.84c.888 0 1.344.384 1.344 1.044 0 .408-.132.84-.876 1.548L-54.4-1.26V0h6.348v-1.584zm8.34-3.4l1.9-2.16V-8.4H-47.3v1.56h3.576l-1.728 1.956V-3.6h.888c1.1 0 1.572.4 1.572 1.032 0 .684-.6 1.08-1.572 1.08a4.08 4.08 0 0 1-2.4-.756l-.756 1.488a5.776 5.776 0 0 0 3.2.9c2.388 0 3.48-1.3 3.48-2.712a2.386 2.386 0 0 0-2.28-2.412zm10.872 1.632h-1.368V-4.92h-1.836v1.572h-2.256l3.668-5.052h-2.04l-3.96 5.328v1.308h4.524V0h1.9v-1.764h1.368zm3.432-1.9h-.688l.132-1.6h3.5V-8.4h-5.124l-.432 4.728h2.148c1.524 0 1.956.432 1.956 1.092 0 .684-.6 1.092-1.572 1.092a4.043 4.043 0 0 1-2.388-.756l-.768 1.488a5.8 5.8 0 0 0 3.2.9c2.4 0 3.492-1.3 3.492-2.784s-.976-2.604-3.46-2.604zm8.3-.024a2.835 2.835 0 0 0-2.076.744 2.231 2.231 0 0 1 2.364-2.428 2.767 2.767 0 0 1 1.572.42l.72-1.428a4.536 4.536 0 0 0-2.34-.576c-2.532 0-4.284 1.62-4.284 4.524 0 2.712 1.44 4.164 3.756 4.164a2.888 2.888 0 0 0 3.18-2.8 2.664 2.664 0 0 0-2.892-2.612zm-.4 3.96c-.936 0-1.476-.528-1.476-1.248a1.314 1.314 0 0 1 1.452-1.26A1.267 1.267 0 0 1-19.7-2.556a1.256 1.256 0 0 1-1.408 1.248zM-16.584 0h3.816c2.748 0 4.632-1.656 4.632-4.2s-1.884-4.2-4.632-4.2h-3.816zm1.944-1.6v-5.2h1.776A2.507 2.507 0 0 1-10.1-4.2a2.507 2.507 0 0 1-2.76 2.6zM-.324-6.84V-8.4h-6.348V0h1.944v-3.06H-.84v-1.56h-3.888v-2.22z" transform="translate(342 570)"/>
        <path id="패스_9338" d="M3.684.072c2.148 0 3.132-1.056 3.132-2.292 0-3.06-5.172-1.668-5.172-3.972 0-.84.684-1.524 2.22-1.524a4.325 4.325 0 0 1 2.3.7l.3-.708a4.742 4.742 0 0 0-2.6-.744c-2.136 0-3.1 1.068-3.1 2.3 0 3.108 5.172 1.692 5.172 4 0 .828-.684 1.488-2.256 1.488A4.125 4.125 0 0 1 .912-1.7l-.348.68A4.555 4.555 0 0 0 3.684.072zM6.48 1.2h.78l3.96-11.3h-.78zm11.232-9.6v6.816L12.3-8.4h-.732V0h.888v-6.816L17.856 0h.732v-8.4zM24.54 2.328h.816a10.918 10.918 0 0 1-1.368-5.616A10.918 10.918 0 0 1 25.356-8.9h-.816a10.778 10.778 0 0 0-1.392 5.616 10.84 10.84 0 0 0 1.392 5.612zM29.7-8.94h-.972v1.932a5.655 5.655 0 0 1-2.892 4.86l.6.8a5.981 5.981 0 0 0 2.784-3.608 5.845 5.845 0 0 0 2.772 3.408l.588-.792a5.354 5.354 0 0 1-2.88-4.668zm4.008-.936V.912h.984V-9.876zm4.224 4.848H41.9V-8.88h-4.988v.8h4v2.244h-3.96V-1.7h.888a31.235 31.235 0 0 0 5.424-.4l-.1-.8a31.63 31.63 0 0 1-5.232.384zm6.24-4.86V.9h.984V-9.888zm3.7 2.82A1.689 1.689 0 0 1 49.7-8.7a1.689 1.689 0 0 1 1.84 1.632 1.69 1.69 0 0 1-1.84 1.644 1.69 1.69 0 0 1-1.832-1.644zm6.768.384v2.292h.984v-5.472h-.984v2.388h-2.2A2.576 2.576 0 0 0 49.7-9.5a2.516 2.516 0 0 0-2.772 2.436A2.518 2.518 0 0 0 49.7-4.62a2.586 2.586 0 0 0 2.748-2.064zM49.68-.036v-1.176h5.94V-3.8h-6.936v.78h5.964v1.08h-5.94V.744h7.32v-.78zm14.028-4.5H60.8V-6.48h2.9zm.972-1.5h2.484v4.128h1v-7.968h-1v3.036H64.68v-2.316h-.972v1.9H60.8v-1.9h-.972v5.412h4.852zm-2.46 5.88v-2.532h-.984V.648h7.176v-.8zM78.948-8.3H75.1v-1.4h-.984v1.4h-3.9v.8h8.736zM72.06-4.728C72.06-5.52 73.032-6 74.6-6c1.548 0 2.508.48 2.508 1.272s-.96 1.284-2.508 1.284c-1.568 0-2.54-.48-2.54-1.284zm3.04 3.552v-1.512c1.872-.12 3.012-.84 3.012-2.04 0-1.3-1.356-2.04-3.5-2.04-2.184 0-3.54.744-3.54 2.04 0 1.2 1.152 1.932 3.048 2.04v1.512h-4.38v.8h9.756v-.8zM81.78 1.2h.78l3.96-11.3h-.78zM97.512-9.876h-.984v5.52h.984zM89.88-7.092a1.665 1.665 0 0 1 1.824-1.6 1.658 1.658 0 0 1 1.824 1.6A1.657 1.657 0 0 1 91.7-5.508a1.663 1.663 0 0 1-1.82-1.584zm4.608 0a2.508 2.508 0 0 0-2.784-2.4 2.5 2.5 0 0 0-2.772 2.4A2.487 2.487 0 0 0 91.7-4.716a2.5 2.5 0 0 0 2.788-2.376zM91.536-.036v-1.188h5.976v-2.6H90.54v.78h6v1.092h-5.976v2.7h7.308v-.78zm15.456-1.92h1v-7.908h-1v1.812H104.9v.792h2.088v1.608H104.9v.8h2.088zm-2.172-2.52a22.744 22.744 0 0 1-4.284.276v-1.764h3.648v-3.144H99.54v.792h3.66v1.584h-3.636V-3.4h.78a24.514 24.514 0 0 0 4.572-.276zM102-.192v-2.34h-.984V.6h7.3v-.792zm11.976-4.344h-2.9V-6.48h2.9zm.972-1.5h2.484v4.128h1v-7.968h-1v3.036h-2.484v-2.316h-.972v1.9h-2.9v-1.9h-.976v5.412h4.848zm-2.46 5.88v-2.532h-.988V.648h7.176v-.8zM129.216-8.3h-3.852v-1.4h-.984v1.4h-3.9v.8h8.736zm-6.888 3.576c0-.792.972-1.272 2.544-1.272 1.548 0 2.508.48 2.508 1.272s-.96 1.284-2.508 1.284c-1.572-.004-2.544-.484-2.544-1.288zm3.036 3.552v-1.516c1.872-.12 3.012-.84 3.012-2.04 0-1.3-1.356-2.04-3.5-2.04-2.184 0-3.54.744-3.54 2.04 0 1.2 1.152 1.932 3.048 2.04v1.512H120v.8h9.756v-.8zm5.736 3.5a10.726 10.726 0 0 0 1.4-5.616 10.665 10.665 0 0 0-1.4-5.612h-.816a10.807 10.807 0 0 1 1.38 5.616 10.807 10.807 0 0 1-1.38 5.616z" class="cls-2" transform="translate(112 571)"/>
    </g>
</svg>
