<svg xmlns="http://www.w3.org/2000/svg" width="60" height="60" viewBox="0 0 60 60">
    <defs>
        <style>
            .cls-2{fill:none}.cls-3{fill:#dde0e3}.cls-4{fill:#b9b9b9;stroke:#b9b9b9}.cls-8{stroke:none}
        </style>
    </defs>
    <g id="ic_test" opacity="0.5" transform="translate(-32 -806)">
        <path id="사각형_6557" d="M0 0H60V60H0z" class="cls-2" transform="translate(32 806)"/>
        <path id="사각형_6193" d="M0 0H4.5V11H0z" class="cls-3" transform="translate(43 845)"/>
        <path id="사각형_6186" d="M0 0h30v35a5 5 0 0 1-5 5H0V0z" class="cls-3" transform="translate(47 816)"/>
        <g id="사각형_6197" class="cls-4">
            <path d="M0 0H3V18.229H0z" class="cls-8" transform="translate(53.5 825.771)"/>
            <path d="M0.5 0.5H2.5V17.729H0.5z" class="cls-2" transform="translate(53.5 825.771)"/>
        </g>
        <g id="사각형_6555" class="cls-4">
            <path d="M0 0H3V13H0z" class="cls-8" transform="translate(60.5 831)"/>
            <path d="M0.5 0.5H2.5V12.5H0.5z" class="cls-2" transform="translate(60.5 831)"/>
        </g>
        <g id="사각형_6556" class="cls-4">
            <path d="M0 0H3V16H0z" class="cls-8" transform="translate(67.5 828)"/>
            <path d="M0.5 0.5H2.5V15.5H0.5z" class="cls-2" transform="translate(67.5 828)"/>
        </g>
        <path id="사각형_6192" fill="#b9b9b9" d="M0 0h7v11.5A3.5 3.5 0 0 1 3.5 15 3.5 3.5 0 0 1 0 11.5V0z" transform="translate(40 841)"/>
        <g id="타원_469" fill="none" stroke="#353e4c" stroke-width="2px" transform="translate(67.879 839.123)">
            <circle cx="7" cy="7" r="7" class="cls-8"/>
            <circle cx="7" cy="7" r="6" class="cls-2"/>
        </g>
        <path id="사각형_6112" fill="#353e4c" d="M0 0H2V7H0z" transform="rotate(-45 1066.741 330.622)"/>
    </g>
</svg>
