<svg xmlns="http://www.w3.org/2000/svg" width="60" height="60" viewBox="0 0 60 60">
    <defs>
        <style>
            .cls-5{fill:#3e79e8}
        </style>
    </defs>
    <g id="steps-03" transform="translate(-1333.816 -911.057)">
        <path id="사각형_8063" fill="none" d="M0 0H60V60H0z" transform="translate(1333.816 911.057)"/>
        <g id="그룹_2145">
            <g id="그룹_2141">
                <rect id="사각형_6170" width="28.305" height="48.119" fill="#afc1da" rx="3.538" transform="translate(1342.368 916.998)"/>
                <path id="사각형_6175" fill="#edf1f7" d="M0 0H24.059V36.089H0z" transform="translate(1344.49 924.074)"/>
            </g>
            <g id="그룹_2144">
                <g id="타원_483">
                    <circle id="타원_744" cx="11.677" cy="11.677" r="11.677" fill="#fff" transform="translate(1360.411 938.579)"/>
                    <path id="패스_4039" d="M1372.088 940.079a10.177 10.177 0 1 1-10.177 10.177 10.189 10.189 0 0 1 10.177-10.177m0-3a13.177 13.177 0 1 0 13.177 13.177 13.177 13.177 0 0 0-13.177-13.177z" class="cls-5"/>
                </g>
                <g id="그룹_2142">
                    <path id="패스_4040" d="M1384.119 966.616a1.492 1.492 0 0 1-1.136-.519l-4.083-4.726a1.5 1.5 0 0 1 2.271-1.962l4.082 4.727a1.5 1.5 0 0 1-1.134 2.48z" class="cls-5"/>
                </g>
                <g id="그룹_2143" transform="translate(.087 .33)">
                    <path id="패스_4041" fill="#2bd3c6" d="M1370.961 954.017a1.345 1.345 0 0 1-.956-.4l-2.879-2.879a1.352 1.352 0 0 1 1.912-1.913l1.935 1.935 4.761-4.651a1.353 1.353 0 0 1 1.89 1.936l-5.718 5.584a1.35 1.35 0 0 1-.945.388z"/>
                </g>
            </g>
        </g>
    </g>
</svg>
