<svg xmlns="http://www.w3.org/2000/svg" width="60" height="60" viewBox="0 0 60 60">
    <defs>
        <style>
            .cls-2{fill:#afc1da}
        </style>
    </defs>
    <g id="ic_step_1" transform="translate(-1210.385 -1022.625)">
        <g id="그룹_2189" transform="translate(1210.385 1022.624)">
            <path id="사각형_6781" fill="none" d="M0 0H60V60H0z" transform="translate(0 .001)"/>
            <rect id="사각형_8616" width="37" height="48" class="cls-2" rx="1" transform="translate(14 5.001)"/>
            <rect id="사각형_8109" width="37" height="48" fill="#edf1f7" rx="1" transform="translate(11 2.001)"/>
            <path id="사각형_8615" d="M0 0H25.666V1.51H0z" class="cls-2" transform="translate(16.607 33.972)"/>
            <path id="사각형_8614" d="M0 0H25.666V1.51H0z" class="cls-2" transform="translate(16.607 40.011)"/>
            <path id="사각형_8114" d="M0 0H25.666V1.51H0z" class="cls-2" transform="translate(16.607 27.932)"/>
            <path id="패스_8955" fill="#2bd3c6" d="M7.942-7.931a1.141 1.141 0 0 1 .689.224 1.291 1.291 0 0 1 .44.772L10-2.982h1.744l.947-4.235a.81.81 0 0 1 .44-.606 1.071 1.071 0 0 1 .706-.075.937.937 0 0 1 .606.382.9.9 0 0 1 .091.764l-.947 3.77h1.329a.408.408 0 0 1 .365.174.746.746 0 0 1 .116.423.716.716 0 0 1-.116.407.408.408 0 0 1-.365.174h-1.61L12.094 3.08a1.252 1.252 0 0 1-.457.772 1.121 1.121 0 0 1-1.345 0 1.279 1.279 0 0 1-.457-.805L8.706-1.8H7.112L5.883 3.08a1.235 1.235 0 0 1-.465.772 1.2 1.2 0 0 1-.681.224 1.166 1.166 0 0 1-.673-.224 1.265 1.265 0 0 1-.457-.789L2.4-1.8H.768A.408.408 0 0 1 .4-1.977a.716.716 0 0 1-.116-.407.746.746 0 0 1 .116-.424.408.408 0 0 1 .365-.174h1.348l-.93-3.77a.9.9 0 0 1 .091-.764A.947.947 0 0 1 1.9-7.9a1.156 1.156 0 0 1 .714.058.827.827 0 0 1 .448.623l.947 4.235h1.81l1-3.953a1.338 1.338 0 0 1 .423-.772 1.121 1.121 0 0 1 .7-.222zM4.853.821L5.517-1.8H4.272zM10.9.8l.58-2.6h-1.2zM7.411-2.982h1.013l-.482-2.092z" transform="translate(21.605 16.991)"/>
            <circle id="타원_750" cx="9.378" cy="9.378" r="9.378" fill="#3e79e8" transform="translate(40.063 37.739)"/>
            <path id="패스_4076" fill="#fff" d="M1243.711 1059.909a1.128 1.128 0 0 1-.8-.332l-3.253-3.253a1.132 1.132 0 0 1 1.6-1.6l2.464 2.464 5.66-5.529a1.132 1.132 0 0 1 1.582 1.62l-6.462 6.311a1.13 1.13 0 0 1-.791.319z" transform="translate(-1195.632 -1007.988)"/>
        </g>
    </g>
</svg>
