<svg xmlns="http://www.w3.org/2000/svg" width="60" height="60" viewBox="0 0 60 60">
    <g transform="translate(-14 -583)">
        <path fill="none" d="M0 0H60V60H0z" transform="translate(14 583)"/>
        <path fill="#3e79e8" d="M17.848 18H3.156A10.5 10.5 0 1 1 21 10.5a10.42 10.42 0 0 1-3.152 7.5z" transform="translate(34 588)"/>
        <path fill="#fff" d="M17.675 4.453a.721.721 0 0 1 .438.143.828.828 0 0 1 .279.489l.59 2.509h1.108l.6-2.688a.519.519 0 0 1 .279-.386.68.68 0 0 1 .449-.047.586.586 0 0 1 .384.242.569.569 0 0 1 .059.485l-.6 2.393h.839a.257.257 0 0 1 .232.11.472.472 0 0 1 .074.27.458.458 0 0 1-.074.259.257.257 0 0 1-.232.11h-1.019l-.77 3.1a.805.805 0 0 1-.289.491.717.717 0 0 1-.855 0 .817.817 0 0 1-.289-.512l-.718-3.078h-1.012l-.78 3.1a.8.8 0 0 1-.3.491.777.777 0 0 1-.432.142.756.756 0 0 1-.428-.142.805.805 0 0 1-.289-.5l-.77-3.089h-1.028a.257.257 0 0 1-.232-.11.458.458 0 0 1-.074-.259.472.472 0 0 1 .074-.27.257.257 0 0 1 .232-.11h.854L13.384 5.2a.574.574 0 0 1 .057-.485.6.6 0 0 1 .4-.242.735.735 0 0 1 .453.036.531.531 0 0 1 .285.4l.6 2.688h1.149l.633-2.509a.845.845 0 0 1 .268-.489.705.705 0 0 1 .446-.146zm-1.961 5.556l.422-1.666h-.791zm1.624-2.414h.643l-.306-1.328zM19.552 10l.369-1.655h-.759z" transform="translate(26.51 589.993)"/>
        <path fill="none" stroke="#fff" stroke-width="0.2px" d="M17.675 4.453a.721.721 0 0 1 .438.143.828.828 0 0 1 .279.489l.59 2.509h1.108l.6-2.688a.519.519 0 0 1 .279-.386.68.68 0 0 1 .449-.047.586.586 0 0 1 .384.242.569.569 0 0 1 .059.485l-.6 2.393h.839a.257.257 0 0 1 .232.11.472.472 0 0 1 .074.27.458.458 0 0 1-.074.259.257.257 0 0 1-.232.11h-1.019l-.77 3.1a.805.805 0 0 1-.289.491.717.717 0 0 1-.855 0 .817.817 0 0 1-.289-.512l-.718-3.078h-1.012l-.78 3.1a.8.8 0 0 1-.3.491.777.777 0 0 1-.432.142.756.756 0 0 1-.428-.142.805.805 0 0 1-.289-.5l-.77-3.089h-1.028a.257.257 0 0 1-.232-.11.458.458 0 0 1-.074-.259.472.472 0 0 1 .074-.27.257.257 0 0 1 .232-.11h.854L13.384 5.2a.574.574 0 0 1 .057-.485.6.6 0 0 1 .4-.242.735.735 0 0 1 .453.036.531.531 0 0 1 .285.4l.6 2.688h1.149l.633-2.509a.845.845 0 0 1 .268-.489.705.705 0 0 1 .446-.146zm-1.961 5.556l.422-1.666h-.791zm1.624-2.414h.643l-.306-1.328zM19.552 10l.369-1.655h-.759z" transform="translate(26.51 589.993)"/>
        <rect width="45" height="35" fill="#afc1da" rx="2" transform="translate(22 604)"/>
        <path fill="#edf1f7" d="M16.561 33.015a4.57 4.57 0 0 0-4.36-4.486h-.034a4.448 4.448 0 0 0-3.883 2.624A4.448 4.448 0 0 0 4.4 28.529h-.034a4.57 4.57 0 0 0-4.36 4.486c-.145 3.062 2.3 5.117 5.948 8.226.632.538 1.3 1.111 2.01 1.729l.319.28.319-.28c.706-.618 1.378-1.191 2.01-1.729 3.65-3.109 6.093-5.164 5.949-8.226z" transform="translate(35.838 585.346)"/>
    </g>
</svg>
