<svg xmlns="http://www.w3.org/2000/svg" width="60" height="60" viewBox="0 0 60 60">
    <defs>
        <style>
            .cls-2{fill:#afc1da}
        </style>
    </defs>
    <g id="ic_step_1" transform="translate(-1156.661 -911.057)">
        <g id="ic_step3">
            <path id="사각형_6781" fill="none" d="M0 0H60V60H0z" transform="translate(1156.661 911.057)"/>
        </g>
        <g id="그룹_2151">
            <g id="그룹_2149">
                <rect id="사각형_8075" width="52.957" height="38.142" class="cls-2" rx="3.578" transform="translate(1158.223 914.927)"/>
                <path id="사각형_8076" fill="#edf1f7" d="M0 0H45.801V27.451H0z" transform="translate(1161.801 918.506)"/>
                <path id="사각형_8077" d="M0 0H14.034V6.293H0z" class="cls-2" transform="translate(1177.772 953.07)"/>
                <path id="사각형_8078" d="M0 0H37.187V3.462H0z" class="cls-2" transform="translate(1166.195 959.362)"/>
                <path id="사각형_8079" d="M0 0H35.447V1.431H0z" class="cls-2" transform="translate(1166.912 933.282)"/>
                <path id="사각형_8080" d="M0 0H35.447V1.431H0z" class="cls-2" transform="translate(1166.912 937.044)"/>
                <path id="사각형_8081" d="M0 0H35.447V1.431H0z" class="cls-2" transform="translate(1166.912 940.806)"/>
                <path id="사각형_8082" fill="#1eb6ad" d="M0 0H12.25V7.325H0z" transform="translate(1166.913 922.935)"/>
            </g>
            <circle id="타원_745" cx="9.318" cy="9.318" r="9.318" fill="#3e79e8" transform="translate(1196.465 948.552)"/>
            <g id="그룹_2150">
                <path id="패스_4043" fill="#fff" d="M1204.43 962.643a1.122 1.122 0 0 1-.8-.33l-3.233-3.233a1.125 1.125 0 0 1 1.591-1.59l2.447 2.447 5.624-5.493a1.125 1.125 0 1 1 1.572 1.61l-6.419 6.269a1.125 1.125 0 0 1-.782.32z"/>
            </g>
        </g>
    </g>
</svg>
