<svg xmlns="http://www.w3.org/2000/svg" width="60" height="60" viewBox="0 0 60 60">
    <defs>
        <style>
            .cls-3{fill:#2bd3c6}.cls-5{fill:#edf1f7}
        </style>
    </defs>
    <g id="ic_step_4" transform="translate(-1419.002 -911.057)">
        <path id="사각형_8083" fill="none" d="M0 0H60V60H0z" transform="translate(1419.002 911.057)"/>
        <g id="그룹_2155" transform="translate(-.706 -2.09)">
            <path id="사각형_8084" fill="#3e79e8" d="M7.8 0h15.36a8.8 8.8 0 0 1 8.8 8.8v8.95H0V7.8A7.8 7.8 0 0 1 7.8 0z" transform="translate(1433.852 937.194)"/>
            <path id="사각형_8085" d="M0 0H34.516V25.088H0z" class="cls-3" transform="translate(1432.572 943.382)"/>
            <path id="사각형_8086" fill="#96eae2" d="M0 0H7.91V7.91H0z" transform="translate(1445.875 943.382)"/>
            <g id="그룹_2153" transform="translate(1428.933 950.825)">
                <path id="패스_4044" d="M1434.232 949.485a7.1 7.1 0 0 0-2.13.06c-1.453.309-2.084 1.287-2.731 2.492a3.485 3.485 0 0 0 0 3.381c.624 1.159 1.244 2.179 2.658 2.475 2.868.6 7.5-.507 7.5-4.166 0-2.394-2.07-3.679-4.2-4.08-.34-.065-.715-.122-1.097-.162z" class="cls-5" transform="translate(-1428.933 -949.434)"/>
                <path id="패스_4045" d="M1464.193 949.485a7.1 7.1 0 0 1 2.13.06c1.453.309 2.083 1.287 2.73 2.492a3.479 3.479 0 0 1 0 3.381c-.623 1.159-1.244 2.179-2.657 2.475-2.869.6-7.5-.507-7.5-4.166 0-2.394 2.07-3.679 4.2-4.08.34-.065.714-.122 1.097-.162z" class="cls-5" transform="translate(-1427.697 -949.434)"/>
            </g>
            <path id="패스_4046" d="M1457.767 926.845a1.385 1.385 0 0 0-.207-.024c-.772-4.718-4.137-8.271-8.173-8.271s-7.4 3.553-8.175 8.271a1.374 1.374 0 0 0-.206.024c-1.057.286-1.575 1.766-1.159 3.3a3.206 3.206 0 0 0 1.709 2.185c1.15 4 4.2 6.887 7.831 6.887s6.68-2.884 7.83-6.887a3.2 3.2 0 0 0 1.708-2.185c.417-1.534-.102-3.014-1.158-3.3z" class="cls-5" transform="translate(.444 .116)"/>
            <path id="패스_4047" d="M1457.848 926.152c-.685 5.712-3.811-.471-8.51-.471s-7.876 6.189-8.511.471c-.652-5.881 3.217-10.365 8.511-10.418 5.318-.053 9.22 4.486 8.51 10.418z" class="cls-3" transform="translate(.488)"/>
            <g id="그룹_2154" transform="translate(1443.967 921.786)">
                <path id="패스_4048" fill="#169387" d="M1454.707 923.709a.387.387 0 0 1-.195-.052c-5.093-2.933-10.509-.026-10.563 0a.391.391 0 0 1-.377-.684c.235-.131 5.849-3.153 11.329 0a.39.39 0 0 1-.195.729z" transform="translate(-1443.371 -921.547)"/>
            </g>
        </g>
    </g>
</svg>
