<svg xmlns="http://www.w3.org/2000/svg" width="60" height="60" viewBox="0 0 60 60">
    <defs>
        <style>
            .cls-7{fill:#fff}.cls-2{fill:#afc1da}.cls-4{fill:none}.cls-5{fill:#0ac3bc}.cls-8,.cls-9{stroke:none}.cls-9{fill:#0ac3bc}
        </style>
    </defs>
    <g id="ic_step_3" transform="translate(0 -.003)">
        <g id="그룹_4878" transform="translate(8.998 4.496)">
            <path id="패스_9406" d="M-2565.559 18092.926h-28.5a3 3 0 0 1-3-3v-40.5a3.006 3.006 0 0 1 3-3h25.489l6.014 6.025v37.479a3 3 0 0 1-3.003 2.996z" class="cls-2" transform="translate(2597.062 -18043.422)"/>
            <path id="패스_9405" fill="#edf1f7" d="M-2565.561 18090.93h-28.5a3.006 3.006 0 0 1-3-3v-40.5a3.007 3.007 0 0 1 3-3h22.493l9.007 9.031v34.477a3.006 3.006 0 0 1-3 2.992z" transform="translate(2600.064 -18044.422)"/>
            <path id="패스_9404" d="M0 0h15v1.5H0z" class="cls-2" transform="translate(16.503 13.504)"/>
            <path id="패스_9403" d="M0 0h15v1.5H0z" class="cls-2" transform="translate(16.503 20.253)"/>
            <path id="패스_9402" d="M0 0h15v1.5H0z" class="cls-2" transform="translate(16.503 27.003)"/>
            <path id="패스_9401" d="M0 0h15v1.5H0z" class="cls-2" transform="translate(16.503 33.753)"/>
            <g id="패스_9400" class="cls-4">
                <path d="M0 0h4.5v4.5H0z" class="cls-8" transform="translate(9.378 32.253)"/>
                <path d="M1 1v2.5h2.497V1H1M0 0h4.497v4.5H0V0z" class="cls-9" transform="translate(9.378 32.253)"/>
            </g>
            <g id="패스_9399" class="cls-4">
                <path d="M0 0h4.5v4.5H0z" class="cls-8" transform="translate(9.378 25.503)"/>
                <path d="M1 1v2.5h2.497V1H1M0 0h4.497v4.5H0V0z" class="cls-9" transform="translate(9.378 25.503)"/>
            </g>
            <path id="패스_4076" d="M1241.522 1055.835a.554.554 0 0 1-.4-.175l-1.629-1.708a.615.615 0 0 1 0-.841.549.549 0 0 1 .8 0l1.235 1.293 2.835-2.9a.549.549 0 0 1 .8.01.614.614 0 0 1-.009.84l-3.237 3.313a.553.553 0 0 1-.395.168z" class="cls-5" transform="translate(-1230.323 -1039.33)"/>
            <path id="패스_9394" d="M1241.522 1055.835a.554.554 0 0 1-.4-.175l-1.629-1.708a.615.615 0 0 1 0-.841.549.549 0 0 1 .8 0l1.235 1.293 2.835-2.9a.549.549 0 0 1 .8.01.614.614 0 0 1-.009.84l-3.237 3.313a.553.553 0 0 1-.395.168z" class="cls-5" transform="translate(-1230.323 -1032.582)"/>
            <path id="패스_9398" fill="#3e79e8" d="M9 0a9 9 0 1 1-9 9 9 9 0 0 1 9-9z" transform="translate(25.504 34.498)"/>
            <path id="패스_9397" d="M1.125 0A1.125 1.125 0 1 1 0 1.125 1.125 1.125 0 0 1 1.125 0z" class="cls-7" transform="translate(37.883 42.38)"/>
            <path id="패스_9396" d="M1.125 0A1.125 1.125 0 1 1 0 1.125 1.125 1.125 0 0 1 1.125 0z" class="cls-7" transform="translate(33.379 42.38)"/>
            <path id="패스_9395" d="M1.125 0A1.125 1.125 0 1 1 0 1.125 1.125 1.125 0 0 1 1.125 0z" class="cls-7" transform="translate(28.879 42.38)"/>
            <path id="패스_9391" d="M0 0l9 9H2.25A2.25 2.25 0 0 1 0 6.75V0z" class="cls-2" transform="translate(28.504 .003)"/>
        </g>
    </g>
</svg>
