<svg xmlns="http://www.w3.org/2000/svg" id="img_minti_2" width="175" height="239" viewBox="0 0 175 239">
    <defs>
        <filter id="사각형_8368" width="60.643" height="60.643" x="24.992" y="99.009" filterUnits="userSpaceOnUse">
            <feOffset dy="3"/>
            <feGaussianBlur result="blur" stdDeviation="3"/>
            <feFlood flood-opacity=".161"/>
            <feComposite in2="blur" operator="in"/>
            <feComposite in="SourceGraphic"/>
        </filter>
        <filter id="사각형_8368-2" width="60.643" height="60.643" x="24.992" y="99.009" filterUnits="userSpaceOnUse">
            <feOffset dy="3"/>
            <feGaussianBlur result="blur-2" stdDeviation="3"/>
            <feFlood flood-opacity=".161"/>
            <feComposite in2="blur-2" operator="in"/>
            <feComposite in="SourceGraphic"/>
        </filter>
        <filter id="합치기_103" width="149.237" height="204.075" x="11.083" y="20.985" filterUnits="userSpaceOnUse">
            <feOffset dy="3"/>
            <feGaussianBlur result="blur-3" stdDeviation="3"/>
            <feFlood flood-opacity=".161"/>
            <feComposite in2="blur-3" operator="in"/>
            <feComposite in="SourceGraphic"/>
        </filter>
        <clipPath id="clip-path">
            <path id="사각형_8368-3" d="M0 0H32.643V32.643H0z" class="cls-1"/>
        </clipPath>
        <style>
            .cls-1{fill:none}.cls-4{stroke:#0f0f0f;fill:#f0ebb7}.cls-5{fill:#eddd98}.cls-12{fill:#474747}
        </style>
    </defs>
    <path id="사각형_8441" d="M0 0H175V239H0z" class="cls-1"/>
    <g filter="url(#합치기_103)">
        <path id="합치기_103-2" fill="#f0ebb7" stroke="#fff" stroke-width="10px" d="M43.857 174.788c-1.18-1.629-.15-5.479 0-7.114.126-1.366-2.359-7.117-3.95-11.822a33.568 33.568 0 0 1-6.845-2.705c-7.521-3.974-15.12-14.678-17.346-27.427a79.975 79.975 0 0 1-1.035-11.894 22.2 22.2 0 0 1-3.792-36.076A43.826 43.826 0 0 0 0 61.375a26.623 26.623 0 0 1 14.142-.269q-.861-.806-1.717-1.7C1.807 48.367 3.733 29.617 3.228 18.726 2.415 1.278-1.231 1 5.323 3.147 9.466 4.506 23 6.771 38.53 16.941c8.508 5.575 13.974 12.5 16.449 19.84a39.133 39.133 0 0 1 11.466-.109A42.1 42.1 0 0 1 78.387 19.9C92.26 7.563 105.32 3.35 109.223 1.4c6.167-3.082 2.6-2.272 4.348 15.108 1.089 10.846 5.737 29.115-3.157 41.593a38.4 38.4 0 0 1-9.347 9.438 49.157 49.157 0 0 1 2.158 13.245l11.348-.288c-3.488 10.724-13.481 19.858-26.991 25.219a5.256 5.256 0 0 1 .314 1.775 8.655 8.655 0 0 1-2.889 6.466 58.945 58.945 0 0 1 5.324 9.471c5.224 10.835 5.2 23.126 1.807 23.975-3.109.773-5.371-1.159-7.281-4.734a47.125 47.125 0 0 1-1.47 10.633c-1.334 4.894-4.893 12.749-4.747 14.378s1.18 5.485 0 7.114c-.623.869-3.082 1.4-5.631 1.4-2.265 0-4.6-.419-5.781-1.4-2.517-2.071.742-6.076.6-7.41-.118-1.041-.769-3.508-1.227-8.869a34.4 34.4 0 0 1-10.693 0c-.458 5.361-1.109 7.828-1.223 8.869-.15 1.334 3.113 5.339.592 7.41-1.186.979-3.518 1.4-5.78 1.4-2.556-.006-5.013-.54-5.64-1.405z" transform="translate(29.8 31.87)"/>
    </g>
    <path id="패스_8155" d="M-55.8 74.873s24.462-9.045 42.845 25.722 34.747 38.77 31.829 53.595S4.69 171.091-1.982 170.941s-13.528-.483-20.755-4.3c-7.524-3.972-15.123-14.677-17.346-27.427s.148-25.057-2.668-40.327A44.492 44.492 0 0 0-55.8 74.873" class="cls-4" transform="translate(85.601 18.378)"/>
    <path id="패스_8156" d="M-12.168 96.215C-18.525 83.5-15.333 68.2-1.456 55.866S25.48 39.315 29.38 37.365c6.168-3.084 2.6-2.274 4.348 15.107 1.092 10.847 5.737 29.115-3.154 41.592-8.061 11.311-17.928 14.831-26.1 14.486-6.351-.268-13.553-6.166-16.637-12.334" class="cls-4" transform="translate(109.646 -4.093)"/>
    <path id="패스_8157" d="M-3.765 63.047c-5.777 7.173-7.041 13.12-6.227 14.752s3.484 5.039 6.45 4.743S4.491 68.92 8.91 61.983C16.2 50.54 18.67 48.334 22.1 42.885c.464-.736 1.391-2.4 1.187-2.891-.186-.445-4.411 1.834-8.192 4.891S1.443 56.58-3.765 63.047" class="cls-5" transform="translate(112.666 -1.735)"/>
    <path id="패스_8158" d="M-1.327 90.434C3.1 76.927-2.29 62.259-17.819 52.084s-29.065-12.438-33.209-13.8c-6.552-2.148-2.907-1.869-2.1 15.579.507 10.892-1.42 29.642 9.2 40.687 9.626 10.01 19.9 12.052 27.94 10.516 6.244-1.194 12.508-8.082 14.656-14.634" class="cls-4" transform="translate(86.154 -3.266)"/>
    <path id="패스_8159" d="M-21.414 60.983c6.522 6.5 8.426 12.278 7.792 13.987s-2.915 5.39-5.9 5.417-9.461-12.669-14.609-19.087c-8.488-10.581-11.185-12.506-15.192-17.55-.54-.681-1.643-2.231-1.493-2.744.137-.462 4.585 1.345 8.675 3.973s14.847 10.141 20.727 16" class="cls-5" transform="translate(88.551 -1.145)"/>
    <path id="패스_8160" fill="#f2f2f2" stroke="#0f0f0f" d="M-4.527 123.873c3.246 11.032 6.1 19.643 12.1 18.143 3.388-.846 3.419-13.136-1.807-23.975-4.783-9.919-7.438-13.278-10.874-12.265s-2.668 7.067.58 18.1" transform="translate(114.368 37.254)"/>
    <path id="패스_8161" fill="#f2f2f2" d="M-22.646 120.54c-2.6 8.826-5.014 15.981-10.925 14.151-5.687-1.761-4.722-9.147-1.007-17.565 3.67-8.316 8.087-12.337 11.524-11.325s3.006 5.911.408 14.739" transform="translate(96.406 37.28)"/>
    <path id="합치기_94" fill="#fefefe" stroke="#0f0f0f" stroke-miterlimit="10" d="M29.718 70.424c-2.519-2.071.743-6.078.595-7.411-.116-1.04-.767-3.509-1.226-8.87a32.54 32.54 0 0 1-5.345.418 32.56 32.56 0 0 1-5.347-.418c-.457 5.361-1.108 7.83-1.224 8.87-.149 1.333 3.113 5.34.59 7.411s-10.228 1.631-11.409 0-.153-5.483 0-7.114S2.938 53.821 1.6 48.929-.175 38.4.06 25.908C.06 10.967 10.659 0 23.742 0S47.42 10.967 47.42 25.908c.235 12.5-.207 18.127-1.541 23.021s-4.893 12.75-4.744 14.381 1.177 5.484 0 7.114c-.626.865-3.084 1.4-5.633 1.4-2.266-.004-4.602-.424-5.784-1.4z" transform="translate(67.31 136.241)"/>
    <path id="패스_8165" fill="#02d1ba" stroke="#0f0f0f" d="M19.211 107.7c0 8.82-12.275 12.621-26.993 12.621S-34.09 116.968-34.09 107.7c0-6.367 11.931-11.528 26.651-11.528s26.651 5.161 26.651 11.528" transform="translate(98.49 31.656)"/>
    <path id="패스_8166" fill="#fefefe" stroke="#0f0f0f" d="M-39.478 105.38c-.645-25.152 17.626-46.026 40.808-46.62s42.5 19.311 43.148 44.464l11.351-.287c-5.449 16.752-26.78 29.626-52.586 30.289s-47.771-11.1-54.073-27.553z" transform="translate(88.551 9.432)"/>
    <path id="패스_8167" fill="#fffacc" d="M-5.325 89.437c.676 2.843-2.113 5.226-9.1 5.226-5.745 0-9.052-2.54-8.413-5.392.684-3.058 4.381-5.9 9.054-5.9 4.233 0 7.68 2.789 8.46 6.069" transform="translate(105.124 24.051)"/>
    <path id="패스_8168" d="M-22.976 84.773c0 2.536-1.038 4.59-3 4.59-1.657 0-3-2.054-3-4.59s.853-4.59 3-4.59c2.481 0 3 2.054 3 4.59" class="cls-12" transform="translate(101.524 22.16)"/>
    <path id="패스_8169" d="M-5.57 83.918c.282 2.518.088 4.443-2.473 4.894-1.634.288-3.211-1.708-3.493-4.228s.432-4.617 2.473-4.894c2.08-.285 3.211 1.709 3.493 4.228" class="cls-12" transform="translate(111.846 21.851)"/>
    <path id="패스_8170" d="M-16.118 101.15h-.061a1.44 1.44 0 0 1-1.533-1.342 53.643 53.643 0 0 0-.572-10.5 1.352 1.352 0 0 1 1.312-1.489 1.583 1.583 0 0 1 1.831 1.068 54.63 54.63 0 0 1 .614 11.013 1.481 1.481 0 0 1-1.591 1.246" class="cls-12" transform="translate(107.862 26.682)"/>
    <path id="패스_8171" d="M-11.862 100.677a16.839 16.839 0 0 1-9.625-3.423 12.962 12.962 0 0 1-2.029 2.662 1.594 1.594 0 0 1-2.255-.046 1.594 1.594 0 0 1 .045-2.25 8.94 8.94 0 0 0 2.094-3.374 1.6 1.6 0 0 1 1.13-1.1 1.6 1.6 0 0 1 1.52.408c.053.049 5.331 5.13 11.4 3.664 5.93-1.436 7.046-4.388 7.091-4.514a1.6 1.6 0 0 1 2.01-.993A1.577 1.577 0 0 1 .55 93.672c-.15.484-1.677 4.778-9.378 6.641a12.807 12.807 0 0 1-3.035.363" class="cls-12" transform="translate(103.167 28.956)"/>
    <path id="패스_8172" d="M-11.2 89.727c0 1.678-1.992 3.686-4.448 3.686s-4.452-2.007-4.452-3.686 1.992-3.039 4.448-3.039 4.448 1.359 4.448 3.039" class="cls-12" transform="translate(106.798 26.022)"/>
    <g id="그룹_4360" opacity="0.3" transform="translate(38.992 110.011)">
        <g id="그룹_4359">
            <g id="그룹_4358" clip-path="url(#clip-path)">
                <path id="패스_8173" fill="#0ac3bc" d="M-19.344 93.578a16.316 16.316 0 0 1-6.628 22.1 16.318 16.318 0 0 1-22.105-6.628 16.317 16.317 0 0 1 6.628-22.1 16.317 16.317 0 0 1 22.105 6.628" transform="translate(50.033 -84.994)"/>
            </g>
        </g>
    </g>
    <path id="패스_8174" fill="#425062" d="M-21 123.046a22.225 22.225 0 0 1-30.069-9.017 22.222 22.222 0 0 1 9.017-30.068 22.22 22.22 0 0 1 30.066 9.016A22.222 22.222 0 0 1-21 123.046m-17.648-32.771a15.042 15.042 0 0 0-6.1 20.354 15.043 15.043 0 0 0 20.354 6.1 15.042 15.042 0 0 0 6.1-20.354 15.041 15.041 0 0 0-20.352-6.1" transform="translate(86.836 22.829)"/>
    <path id="패스_8175" fill="#6d6d6d" stroke="#0f0f0f" d="M-32.518 107.426c1.8-.967 3.654-1.015 4.623.783l9.016 16.741a3.7 3.7 0 0 1-1.5 5.011 3.7 3.7 0 0 1-5.011-1.5l-9.016-16.741c-.967-1.8.092-3.321 1.89-4.29" transform="translate(98.084 37.941)"/>
    <path id="합치기_97" fill="#f2f2f2" stroke="#0f0f0f" stroke-miterlimit="10" d="M5.274 22.044a6.5 6.5 0 0 1-1.25-.261A5.23 5.23 0 0 1 .643 18.9C-1.08 15.123.983 8.831 3.018 4.219A42.5 42.5 0 0 1 5.151 0l5.956 11.058c.629-.244 1.256-.469 1.869-.671 5.782-1.911 11.373-.737 12.48 2.628S23.081 19.3 17.3 21.21a26.662 26.662 0 0 1-8 1.211 19.6 19.6 0 0 1-4.026-.377z" transform="translate(58.809 150.189)"/>
    <path id="합치기_96" fill="none" stroke="#0f0f0f" stroke-miterlimit="10" d="M2.65 32.719a22.206 22.206 0 1 1 19.583 11.67A22.225 22.225 0 0 1 2.65 32.719z" transform="translate(33.119 104.137)"/>
</svg>
