<svg xmlns="http://www.w3.org/2000/svg" width="176.915" height="239" viewBox="0 0 176.915 239">
    <defs>
        <filter id="사각형_8456" width="35.698" height="33.284" x="52.297" y="96.782" filterUnits="userSpaceOnUse">
            <feOffset dy="3"/>
            <feGaussianBlur result="blur" stdDeviation="3"/>
            <feFlood flood-opacity=".161"/>
            <feComposite in2="blur" operator="in"/>
            <feComposite in="SourceGraphic"/>
        </filter>
        <filter id="사각형_8457" width="34.088" height="32.178" x="90.227" y="95.418" filterUnits="userSpaceOnUse">
            <feOffset dy="3"/>
            <feGaussianBlur result="blur-2" stdDeviation="3"/>
            <feFlood flood-opacity=".161"/>
            <feComposite in2="blur-2" operator="in"/>
            <feComposite in="SourceGraphic"/>
        </filter>
        <filter id="합치기_124" width="176.915" height="167.915" x="0" y="57.167" filterUnits="userSpaceOnUse">
            <feOffset dy="3"/>
            <feGaussianBlur result="blur-3" stdDeviation="3"/>
            <feFlood flood-opacity=".161"/>
            <feComposite in2="blur-3" operator="in"/>
            <feComposite in="SourceGraphic"/>
        </filter>
        <clipPath id="clip-path">
            <path id="사각형_8456-2" d="M0 0H7.698V5.284H0z" class="cls-1"/>
        </clipPath>
        <clipPath id="clip-path-2">
            <path id="사각형_8457-2" d="M0 0H6.088V4.178H0z" class="cls-1"/>
        </clipPath>
        <style>
            .cls-1{fill:none}.cls-18,.cls-3{fill:#f2f2f2}.cls-18{stroke-miterlimit:10}.cls-4{fill:#f0ebb7}.cls-18,.cls-4{stroke:#0f0f0f}.cls-12{fill:#fefefe}.cls-7{fill:#eddd98}.cls-10{fill:#474747}.cls-13{opacity:.3}.cls-15{fill:#0ac3bc}
        </style>
    </defs>
    <g id="img_minti_6" transform="translate(-1420.826 -2506)">
        <path id="사각형_8462" d="M0 0H175V239H0z" class="cls-1" transform="translate(1422 2506)"/>
        <g filter="url(#합치기_124)" transform="translate(1420.83 2506)">
            <path id="합치기_124-2" fill="#f2f2f2" stroke="#fff" stroke-miterlimit="10" stroke-width="10px" d="M-863.359 12532.517c-1.183-1.632-.154-5.485-.006-7.115.108-1.166-1.677-5.5-3.192-9.673-1.49 1.969-3.173 4.846-6.252 7.282-5.769 4.562-14.725 7.39-25.336 0-6.436-4.482-11.633-10.183-7-11.463 2.3-.636 4.907.176 7.518.987 3.338 1.035 6.682 2.07 9.39.1 4.826-3.521 2.875-11.863 5.823-19.211a31.248 31.248 0 0 1 6.214-10.111c.058-.577.15-1.182.274-1.8v-.016l.024-.12.009-.045.01-.048a25.135 25.135 0 0 1 3.425-8.26l.008-.012.072-.111.024-.037.067-.1.048-.072.079-.117.06-.088.041-.061.068-.1.033-.048.1-.146c.267-.378.513-.721.747-1.042l.01-.014.021-.028.222-.3a9.053 9.053 0 0 1-1.777-5.541 5.178 5.178 0 0 1 .193-1.393c-11.642-4.662-19.932-12.113-23.588-19.259l8.066-3.9q-.035-1.374 0-2.731a37.012 37.012 0 0 1-12.518-7.077c-3.778-3.224-5.112-6.046-11.344-11.1-6.823-5.53-8.906-5.131-9.161-6.943-1.346-9.544 45.309-16.4 62.34-17.295a7.15 7.15 0 0 1 1.538.069 39.015 39.015 0 0 1 9.957-1.555 39.006 39.006 0 0 1 11.854 1.523c17.632.919 64.488 3.143 63.16 12.554-.255 1.813-3.885 6.116-10.708 11.646-6.232 5.055-7.566 7.877-11.344 11.1a38.368 38.368 0 0 1-9.866 6.107c.029.512.05 1.027.064 1.544l7.953 4.9c-2.45 4.824-11.252 13.408-23.98 19.186a5.493 5.493 0 0 1 .7 2.627 8.377 8.377 0 0 1-1.417 4.734q.205.444.417.913l.094.211.028.064.066.153.028.066.071.169.019.045q.093.224.18.448l.008.021a25.09 25.09 0 0 1 1.713 8.668v.925a15.907 15.907 0 0 1-.28 2.55l-.006.029-.021.1-.025.115-.01.044-.03.132v.006a3.883 3.883 0 0 1-1.494 3.473q-.213.182-.427.341l1.928 1.928a2.634 2.634 0 0 1 0 3.721l-3.786 3.786a52.982 52.982 0 0 1-1.559 13.176c-1.337 4.892-4.895 12.75-4.747 14.383s1.18 5.483 0 7.115c-.626.865-3.083 1.4-5.628 1.4-2.265 0-4.6-.419-5.785-1.4-2.52-2.072.739-6.08.591-7.411-.1-.924-.627-2.972-1.063-7.168a13.942 13.942 0 0 1-7.135.955 24.733 24.733 0 0 1-3.9-.777c-.434 4.077-.944 6.08-1.043 6.99-.151 1.331 3.111 5.339.591 7.411-1.187.978-3.523 1.4-5.787 1.4-2.551-.012-5.005-.543-5.631-1.409z" transform="translate(935 -12325.83)"/>
        </g>
        <path id="패스_8664" d="M323.734 63.756c1.82 7.875 3.505 14.025 8.688 13.011 2.924-.571 3.969-9.31.465-17.065-3.206-7.1-5.163-9.51-8.141-8.822s-2.834 5-1.012 12.876" class="cls-3" transform="translate(1202.627 2591.309)"/>
        <path id="패스_8665" d="M348.425 94.689c3.381-9.292-4.481-24.65-11.156-29.113s-28.286-13.4-38.1 11.074c-2.949 7.35-1 15.691-5.823 19.211s-11.678-2.528-16.907-1.084c-4.639 1.278.558 6.979 6.995 11.462 10.61 7.392 19.566 4.564 25.337 0s6.629-10.68 10.529-9.463c4.02 1.256 7.767 4.53 14.687 5.345 9.834 1.157 14.443-7.432 14.443-7.432" class="cls-4" transform="translate(1174.249 2596.939)"/>
        <path id="패스_8666" d="M306.52 65.682c-3.289 7.382-6.117 13.1-11.009 11.116-2.764-1.119-2.122-9.9 2.8-16.842 4.5-6.356 6.883-8.35 9.675-7.107s1.827 5.45-1.462 12.833" class="cls-3" transform="translate(1185.67 2592.338)"/>
        <path id="합치기_119" fill="#fefefe" stroke="#0f0f0f" stroke-miterlimit="10" d="M-880.273 12488.44c-2.52-2.075.74-6.082.592-7.414-.115-1.041-.767-3.511-1.225-8.873a32.465 32.465 0 0 1-5.348.419 32.441 32.441 0 0 1-5.346-.419c-.459 5.363-1.109 7.832-1.224 8.873-.15 1.332 3.113 5.339.592 7.414s-10.232 1.633-11.413 0-.154-5.486-.006-7.116-3.411-9.491-4.743-14.385-1.781-10.529-1.545-23.024c0-14.946 10.6-25.915 23.686-25.915s23.689 10.969 23.689 25.915c.232 12.5-.21 18.131-1.545 23.024s-4.893 12.752-4.746 14.385 1.179 5.482 0 7.116c-.626.864-3.082 1.4-5.629 1.4-2.268-.004-4.603-.423-5.789-1.4z" transform="translate(2396.11 -9775.753)"/>
        <path id="패스_8670" fill="#02d1ba" stroke="#0f0f0f" d="M349.484 57.129c0 8.822-12.276 12.624-27 12.624s-26.314-3.359-26.314-12.624c0-6.368 11.934-11.532 26.655-11.532s26.658 5.163 26.658 11.532" transform="translate(1187.03 2588.237)"/>
        <path id="패스_8671" d="M328.192 9.112c-17.031.9-63.685 7.752-62.339 17.3.255 1.811 2.339 1.412 9.161 6.944 6.231 5.053 7.566 7.876 11.344 11.1 6.066 5.178 14.384 8.836 20.247 7.918 6.7-1.049 37.774-44.109 21.587-43.259" class="cls-4" transform="translate(1169 2566.553)"/>
        <path id="패스_8672" d="M270.735 20.643a.523.523 0 0 1-.116-.426c.757-2.391 33.548 0 37.435 13.013 1.226 4.1-.376 9.391-3.219 10.674-3.107 1.4-7.559-2.048-13.733-6.831-6.9-5.343-5.214-5.94-9.514-8.332-2.206-1.226-8.24-4.181-10.853-8.1" class="cls-7" transform="translate(1171.84 2572.67)"/>
        <path id="패스_8673" d="M320.86 9.112c17.031.9 65.231 3.05 63.886 12.592-.255 1.813-3.885 6.117-10.708 11.648-6.231 5.053-7.566 7.876-11.344 11.1-6.067 5.178-14.384 8.836-20.247 7.918-6.7-1.049-37.774-44.109-21.587-43.259" class="cls-4" transform="translate(1198.956 2566.553)"/>
        <path id="패스_8674" d="M367.011 20.628a.517.517 0 0 0 .115-.421c-.748-2.362-33.145 0-36.985 12.856-1.211 4.051.372 9.278 3.18 10.546 3.07 1.383 7.467-2.024 13.568-6.749 6.815-5.279 5.15-5.868 9.4-8.232 2.18-1.211 8.141-4.131 10.722-8" class="cls-7" transform="translate(1209 2569.962)"/>
        <path id="패스_8675" fill="#fefefe" stroke="#0f0f0f" d="M289.56 54.813c-.646-25.158 17.629-46.036 40.817-46.632s42.512 19.319 43.159 44.475l7.953 4.9c-3.85 7.582-23.387 24.45-49.2 25.114s-44.716-12.066-50.8-23.951z" transform="translate(1178.31 2566)"/>
        <path id="패스_8676" fill="#fffacc" d="M324.939 38.861c.676 2.842-2.114 5.225-9.1 5.225-5.745 0-9.053-2.539-8.415-5.391.684-3.059 4.384-5.906 9.056-5.906 4.236 0 7.684 2.79 8.462 6.072" transform="translate(1193.667 2580.628)"/>
        <path id="패스_8677" d="M314.142 50.573h-.061a1.442 1.442 0 0 1-1.534-1.344 53.625 53.625 0 0 0-.572-10.5 1.352 1.352 0 0 1 1.312-1.489 1.583 1.583 0 0 1 1.833 1.06 54.654 54.654 0 0 1 .614 11.025 1.482 1.482 0 0 1-1.591 1.245" class="cls-10" transform="translate(1196.406 2583.26)"/>
        <path id="패스_8678" d="M319.061 39.148c0 1.68-1.993 3.689-4.449 3.689s-4.449-2.009-4.449-3.689 1.993-3.038 4.449-3.038 4.449 1.36 4.449 3.038" class="cls-10" transform="translate(1195.342 2582.601)"/>
        <path id="패스_8679" fill="none" stroke="#474747" stroke-linecap="round" stroke-linejoin="round" stroke-width="1.75px" d="M306.766 47.736c1.03-1.478-.013-2.5 2.257-2.431s4.625 1.392 8.933 1.025 5.986-2.466 7.851-1.86a3.318 3.318 0 0 1 2.127 2.59" transform="translate(1193.324 2587.502)"/>
        <path id="패스_8680" d="M319.121 30.474c-1.384 1.017-.568 6.789 1.7 7.363s8.516-2.146 7.95-3.722-7.193-5.452-9.652-3.641" class="cls-10" transform="translate(1200.261 2578.972)"/>
        <path id="패스_8681" d="M320.594 31.917c0 .341-.075.762-.416.762a.615.615 0 0 1-.615-.617c0-.34.1-.842.44-.9.591-.1.591.411.591.752" class="cls-12" transform="translate(1200.927 2579.656)"/>
        <path id="패스_8682" d="M323.1 33.744a1.167 1.167 0 0 1-1.215.928 1.946 1.946 0 0 1-1.532-.945c-.319-.619.485-1.205 1.149-1.2 1.328.021 1.6.874 1.6 1.213" class="cls-12" transform="translate(1201.355 2580.474)"/>
        <path id="패스_8683" d="M309.656 30.925c1.465.883 1.18 6.678-1.02 7.454s-8.635-1.355-8.214-2.97 6.632-6.054 9.235-4.484" class="cls-10" transform="translate(1189.543 2579.324)"/>
        <path id="패스_8684" d="M305.005 32.545c.03.338.142.748.48.717a.613.613 0 0 0 .555-.668c-.03-.338-.179-.823-.518-.848-.595-.043-.548.461-.517.8" class="cls-12" transform="translate(1192.268 2580.006)"/>
        <path id="패스_8685" d="M303.326 34.563a1.159 1.159 0 0 0 1.286.808 1.94 1.94 0 0 0 1.433-1.074c.26-.644-.588-1.151-1.248-1.081-1.313.14-1.5 1.009-1.471 1.347" class="cls-12" transform="translate(1191.279 2580.877)"/>
        <g id="그룹_4512" class="cls-13" transform="translate(1487.124 2613.782)">
            <g id="그룹_4511">
                <g id="그룹_4510" clip-path="url(#clip-path)">
                    <path id="패스_8686" d="M306.062 37.547c-.59 1.162-3.222.647-3.438.606-1.741-.343-4.1-1.642-3.988-3.215a2.156 2.156 0 0 1 1.642-1.859c1.989-.293 2.134.545 3.191.985a8.329 8.329 0 0 1 2.465 1.235 2.058 2.058 0 0 1 .129 2.248" class="cls-15" transform="translate(-298.632 -33.018)"/>
                </g>
            </g>
        </g>
        <g id="그룹_4515" class="cls-13" transform="translate(1525.054 2612.418)">
            <g id="그룹_4514">
                <g id="그룹_4513" clip-path="url(#clip-path-2)">
                    <path id="패스_8687" d="M322.639 35.743c.467.918 2.547.512 2.719.478 1.374-.269 3.241-1.3 3.153-2.541a1.709 1.709 0 0 0-1.3-1.47c-1.572-.231-1.687.43-2.523.778a6.636 6.636 0 0 0-1.95.977 1.635 1.635 0 0 0-.1 1.777" class="cls-15" transform="translate(-322.425 -32.163)"/>
                </g>
            </g>
        </g>
        <path id="합치기_116" fill="#ff6f6f" stroke="#0f0f0f" stroke-miterlimit="10" d="M-863.129 12472.906l-19.032-19.03-19.032 19.03a2.629 2.629 0 0 1-3.719 0l-4.317-4.316a2.631 2.631 0 0 1 0-3.72l19.031-19.031-19.031-19.029a2.638 2.638 0 0 1 0-3.726l4.317-4.314a2.631 2.631 0 0 1 3.719 0l19.032 19.032 19.032-19.032a2.635 2.635 0 0 1 3.722 0l4.314 4.314a2.638 2.638 0 0 1 0 3.726l-19.031 19.029 19.031 19.031a2.631 2.631 0 0 1 0 3.72l-4.314 4.316a2.629 2.629 0 0 1-1.862.771 2.621 2.621 0 0 1-1.86-.771z" transform="translate(2392.437 -9794.365)"/>
        <path id="합치기_118" d="M-902.377 12436.016c-7.082-4.865-9.373-13.726-6.27-16.239 5.032-4.072 9.119-.571 13.771 4.737a12.522 12.522 0 0 0 4.539-3.916c.15.324.287.624.418.911 2.236 4.949 2.634 10.361 1.826 13.75a3.893 3.893 0 0 1-1.495 3.474 5.492 5.492 0 0 1-3.678 1.481c-2.272 0-5.044-1.404-9.111-4.198z" class="cls-18" transform="translate(2425.433 -9770.496)"/>
        <path id="합치기_117" d="M-896.822 12440.408c-7.861-.215-11.439-1.854-12.7-5.464a4.582 4.582 0 0 1-.184-.516c-.937-3.2.353-9.7 4.134-15.043.365-.515.693-.968 1-1.386a12.767 12.767 0 0 0 4.562 3.646 26.6 26.6 0 0 0-2.248 5.49 28.029 28.029 0 0 1 4.78.271c8.833 1.189 14.659-1.018 17.119 4.556 1.766 4-5.821 8.457-15.565 8.458-.299.001-.597-.004-.898-.012z" class="cls-18" transform="translate(2389.551 -9767.094)"/>
    </g>
</svg>
