<svg xmlns="http://www.w3.org/2000/svg" width="175" height="239" viewBox="0 0 175 239">
    <defs>
        <filter id="합치기_105" width="142.9" height="204.076" x="15.447" y="20.988" filterUnits="userSpaceOnUse">
            <feOffset dy="3"/>
            <feGaussianBlur result="blur" stdDeviation="3"/>
            <feFlood flood-opacity=".161"/>
            <feComposite in2="blur" operator="in"/>
            <feComposite in="SourceGraphic"/>
        </filter>
        <style>
            .cls-16{fill:none}.cls-3{fill:#f0ebb7}.cls-16,.cls-3{stroke:#0f0f0f}.cls-4{fill:#eddd98}.cls-5{fill:#e2e2e2}.cls-16{stroke-miterlimit:10}.cls-10{fill:#474747}.cls-11{fill:#ffe150}.cls-12{fill:#ffc033}.cls-15{fill:#f2f2f2}
        </style>
    </defs>
    <g id="img_minti_4" transform="translate(-.313)">
        <path id="사각형_8443" fill="none" d="M0 0H175V239H0z" transform="translate(.313)"/>
        <g filter="url(#합치기_105)" transform="translate(.31)">
            <path id="합치기_105-2" fill="#f0ebb7" stroke="#fff" stroke-width="10px" d="M60.487 174.793c-2.52-2.076.739-6.082.591-7.414-.112-1.043-.767-3.512-1.222-8.87a34.413 34.413 0 0 1-10.694 0c-.455 5.358-1.11 7.827-1.222 8.87-.152 1.332 3.111 5.338.591 7.414s-10.231 1.63-11.413 0-.148-5.491 0-7.115-3.406-9.488-4.744-14.385c-1.124-4.135-1.617-8.8-1.6-17.686a20.859 20.859 0 0 1-2.749 1.717 5.245 5.245 0 0 1-1.35.584 4.645 4.645 0 0 1-2.412.291 2.271 2.271 0 0 1-1.073-.524c-.024-.021-.048-.044-.072-.068-3.251-1.275-2.983-10.783 2.32-18.21q.327-.458.64-.888l.249-.339c.009-.011.018-.023.026-.036s.021-.028.032-.044c.227-.3.449-.6.666-.884q-.1-.948-.135-1.9c0-.075 0-.149-.007-.225a26.255 26.255 0 0 1 .97-7.815 5.28 5.28 0 0 1 .308-1.548c-13.508-5.36-23.5-14.5-26.989-25.221l11.349.291a49.153 49.153 0 0 1 2.158-13.246A38.389 38.389 0 0 1 5.341 58.1C-3.552 45.617 1.1 27.351 2.187 16.5 3.932-.879.366-1.686 6.535 1.4c3.9 1.948 16.96 6.166 30.837 18.5a42.073 42.073 0 0 1 11.939 16.772 39.308 39.308 0 0 1 11.465.109c2.475-7.342 7.941-14.265 16.451-19.836C92.754 6.77 106.292 4.5 110.433 3.147c6.553-2.149 2.907-1.869 2.1 15.578-.507 10.89 1.418 29.643-9.2 40.686a39.414 39.414 0 0 1-9.176 7.211 48.871 48.871 0 0 1 2.331 16.314l11.353.295C103.949 93.38 94.1 101.745 81.067 106.51a5.1 5.1 0 0 1 .094.974 9.066 9.066 0 0 1-1.674 5.4 26 26 0 0 1 .016 2.647c.9 1.063 1.868 2.346 2.951 3.863 3.989 5.581 5.128 12.337 4.069 15.892a5.321 5.321 0 0 1-.19 1.32l-.005.019-.022.073c-.007.023-.006.021-.01.029s-.013.041-.02.061l-.013.039-.018.049-.017.043-.016.041-.02.05-.014.031-.024.056-.009.017a2.844 2.844 0 0 1-.2.361l-.042.063a.049.049 0 0 1-.008.011c-.013.021-.027.039-.041.058l-.011.014-.041.053-.013.016-.041.05a.131.131 0 0 1-.015.018l-.041.047a.183.183 0 0 0-.018.02l-.041.042-.023.023-.038.038-.063.058a2.757 2.757 0 0 1-1.9.662 10.738 10.738 0 0 1-5.36-2.158c-.018 8.319-.515 12.808-1.6 16.8-1.334 4.9-4.888 12.752-4.74 14.385s1.178 5.482 0 7.115c-.627.862-3.083 1.395-5.631 1.395-2.273.003-4.605-.417-5.791-1.392z" transform="translate(30.21 31.88)"/>
        </g>
        <path id="패스_8227" d="M86.74 215.424c6.357-12.715 3.165-28.015-10.71-40.349s-26.936-16.551-30.836-18.5c-6.168-3.084-2.6-2.274-4.349 15.106-1.09 10.847-5.737 29.115 3.156 41.594 8.06 11.311 17.928 14.831 26.1 14.486 6.351-.268 13.552-6.166 16.636-12.334" class="cls-3" transform="translate(-8.138 -123.302)"/>
        <path id="패스_8228" d="M71.751 182.255c5.776 7.175 7.043 13.12 6.227 14.752s-3.484 5.041-6.45 4.743-8.028-13.622-12.452-20.561c-7.288-11.442-9.762-13.647-13.195-19.1-.464-.735-1.391-2.4-1.187-2.891.186-.445 4.411 1.836 8.192 4.891s13.657 11.695 18.865 18.162" class="cls-4" transform="translate(-4.572 -120.945)"/>
        <path id="패스_8229" d="M77.322 209.644c-4.431-13.507.963-28.178 16.494-38.35s29.065-12.438 33.209-13.8c6.55-2.147 2.905-1.868 2.094 15.581-.507 10.892 1.42 29.641-9.2 40.685-9.628 10.012-19.9 12.054-27.942 10.517-6.244-1.194-12.506-8.083-14.656-14.634" class="cls-3" transform="translate(13.931 -122.475)"/>
        <path id="패스_8230" d="M90.81 180.192c-6.522 6.5-8.425 12.277-7.792 13.987s2.915 5.39 5.9 5.417 9.465-12.669 14.611-19.087c8.49-10.581 11.187-12.506 15.192-17.55.542-.681 1.645-2.233 1.493-2.744-.137-.462-4.584 1.344-8.673 3.973s-14.849 10.139-20.728 16" class="cls-4" transform="translate(18.132 -120.354)"/>
        <path id="패스_8231" d="M66.061 239.428c-3.4 7.935-6.356 14.074-12.116 11.818-3.251-1.275-2.987-10.782 2.319-18.209 4.853-6.794 7.5-8.907 10.79-7.5s2.4 5.953-.993 13.888" class="cls-5" transform="translate(-.322 -81.769)"/>
        <path id="패스_8232" d="M85.386 239.428c3.4 7.935 6.354 14.074 12.116 11.818 3.251-1.275 2.987-10.782-2.319-18.209-4.853-6.794-7.5-8.907-10.79-7.5s-2.407 5.953.993 13.888" class="cls-5" transform="translate(17.793 -81.769)"/>
        <path id="합치기_89" fill="#fefefe" stroke="#0f0f0f" stroke-miterlimit="10" d="M29.72 70.426c-2.518-2.076.739-6.081.593-7.413-.114-1.042-.766-3.51-1.224-8.87a32.554 32.554 0 0 1-5.346.418 32.554 32.554 0 0 1-5.346-.418c-.458 5.36-1.11 7.828-1.224 8.87-.15 1.332 3.111 5.337.593 7.413s-10.231 1.632-11.413 0-.15-5.488 0-7.116S2.941 53.821 1.6 48.929-.174 38.4.059 25.908C.059 10.965 10.661 0 23.742 0s23.68 10.965 23.68 25.908c.237 12.5-.21 18.125-1.542 23.021s-4.89 12.748-4.743 14.381 1.178 5.483 0 7.116c-.626.863-3.082 1.395-5.629 1.4-2.267-.005-4.602-.426-5.788-1.4z" transform="translate(61.287 136.241)"/>
        <path id="패스_8236" fill="#02d1ba" d="M56.138 226.913c0 8.82 12.273 12.621 26.993 12.621s26.308-3.358 26.308-12.621c0-6.367-11.932-11.529-26.651-11.529s-26.651 5.162-26.651 11.529" transform="translate(2.24 -87.554)"/>
        <path id="패스_8237" fill="#fefefe" stroke="#0f0f0f" d="M134.7 224.59c.647-25.153-17.624-46.026-40.806-46.622s-42.5 19.313-43.149 44.466l-11.345-.289c5.451 16.753 26.781 29.628 52.586 30.291s47.771-11.1 54.073-27.553z" transform="translate(-7.699 -109.777)"/>
        <path id="패스_8238" fill="#fffacc" d="M66.407 210.647c-.674 2.842 2.115 5.226 9.1 5.226 5.744 0 9.051-2.54 8.412-5.392-.682-3.058-4.381-5.9-9.053-5.9-4.235 0-7.682 2.789-8.461 6.071" transform="translate(8.28 -93.971)"/>
        <path id="패스_8239" d="M72.51 221.6h.061c.881-.024 1.567-.532 1.533-1.138 0-.053-.233-5.339-.091-8.9.024-.61-.443-1.162-1.312-1.262s-1.772.3-1.831.905a62.417 62.417 0 0 0 .049 9.339c.03.591.74 1.055 1.591 1.055" class="cls-10" transform="translate(10.89 -90.581)"/>
        <path id="패스_8240" d="M77.161 221.643a16.831 16.831 0 0 0 9.351-4.109 12.893 12.893 0 0 0 2.219 2.509 1.593 1.593 0 0 0 2.037-2.451 8.92 8.92 0 0 1-2.333-3.215 1.594 1.594 0 0 0-2.692-.5c-.048.051-4.947 5.5-11.11 4.475-6.02-1-7.344-3.866-7.4-3.988a1.6 1.6 0 0 0-2.075-.846 1.582 1.582 0 0 0-.885 2.034c.185.47 2.018 4.641 9.833 5.945a12.865 12.865 0 0 0 3.054.142" class="cls-10" transform="translate(7.008 -88.768)"/>
        <path id="패스_8241" d="M69.008 210.935c0 1.68 1.992 3.688 4.448 3.688s4.447-2.008 4.447-3.688-1.991-3.038-4.447-3.038-4.448 1.359-4.448 3.038" class="cls-10" transform="translate(9.882 -91.999)"/>
        <path id="패스_8242" d="M56.288 243.012a26.318 26.318 0 0 1 48.7-18.813z" class="cls-11" transform="translate(1.876 -90.505)"/>
        <path id="패스_8243" d="M104.685 219.043a26.768 26.768 0 0 1 1.418 3.068 26.315 26.315 0 0 1-49.08 19A26.665 26.665 0 0 1 56 237.887z" class="cls-12" transform="translate(2.161 -85.381)"/>
        <path id="패스_8244" fill="#f7a139" d="M60.36 242.234a20.861 20.861 0 1 1 26.987 11.923 20.862 20.862 0 0 1-26.987-11.923" transform="translate(3.909 -88.473)"/>
        <path id="패스_8245" fill="#ea8f2d" d="M65.363 223.168L73.8 219.9c5.3-2.053 10.4-1.868 12.7 4.083 2.215 5.723-1.238 9.961-6.316 11.926L77.374 237l3.092 7.986-5.788 2.241zm12.768 8.294c2.813-1.089 3.658-2.94 2.744-5.3-.939-2.426-2.816-2.665-5.6-1.589l-2.36.913 2.69 6.952z" transform="translate(7.718 -85.574)"/>
        <path id="패스_8246" d="M64.561 222.8L73 219.535c5.306-2.053 10.4-1.866 12.7 4.083 2.217 5.723-1.237 9.961-6.316 11.926l-2.813 1.09 3.093 7.986-5.79 2.242zm12.768 8.3c2.813-1.09 3.659-2.94 2.744-5.3-.939-2.426-2.816-2.665-5.6-1.589l-2.36.915 2.692 6.95z" class="cls-12" transform="translate(7.242 -85.791)"/>
        <path id="패스_8247" d="M72.116 225.123l2.359-.915c2.783-1.076 4.659-.837 5.6 1.589a5.087 5.087 0 0 1 .287 1.095l5.694-2.2a10.479 10.479 0 0 0-.354-1.069c-2.3-5.949-7.393-6.136-12.7-4.083l-8.44 3.26L68 231.678l5.79-2.241z" class="cls-11" transform="translate(7.242 -85.791)"/>
        <path id="패스_8248" d="M71.276 228.019c-2.746-2.432-7.234 0-11.818 5.18s-8.668 14.53-5.922 16.964 9.825-3.2 14.411-8.369 6.075-11.343 3.329-13.775" class="cls-15" transform="translate(.168 -80.614)"/>
        <path id="패스_8249" d="M81.81 228.218c2.934-2.6 7.513-.242 12.1 4.933s8.5 14.675 5.569 17.276-10.095-2.955-14.68-8.13-5.922-11.478-2.985-14.079" class="cls-15" transform="translate(16.558 -80.566)"/>
        <path id="패스_8250" d="M61.437 208.081a1.589 1.589 0 0 1-1.418-2.3 5.481 5.481 0 0 1 4.534-2.952 5.876 5.876 0 0 1 4.485 1.836 1.595 1.595 0 0 1-2.438 2.056 2.431 2.431 0 0 0-1.962-.7 2.342 2.342 0 0 0-1.783 1.224 1.612 1.612 0 0 1-1.417.845" class="cls-10" transform="translate(4.442 -95.012)"/>
        <path id="패스_8251" d="M86.3 207.728a1.592 1.592 0 0 1-1.38-.8 2.36 2.36 0 0 0-1.713-.908 2.552 2.552 0 0 0-2.073.979 1.594 1.594 0 0 1-2.518-1.956 5.788 5.788 0 0 1 4.971-2.19 5.388 5.388 0 0 1 4.11 2.51 1.594 1.594 0 0 1-1.4 2.36" class="cls-10" transform="translate(15.392 -95.011)"/>
        <path id="합치기_90" d="M2.2 23.092c-.025-.021-.05-.045-.074-.068h-.005A3.312 3.312 0 0 1 .37 20.7C-.667 17.207.409 10.456 4.437 4.813c.6-.836 1.123-1.554 1.616-2.191a26.287 26.287 0 0 0 .607 3.431q.172.688.384 1.381c.354-.458.714-.9 1.078-1.306C12.706.952 17.2-1.486 19.939.949s1.257 8.6-3.327 13.771c-2.79 3.146-6.5 6.462-9.6 8.029a5.241 5.241 0 0 1-1.329.574 5.518 5.518 0 0 1-1.8.352 2.459 2.459 0 0 1-1.683-.583z" class="cls-16" transform="translate(51.503 146.457)"/>
        <path id="빼기_63" d="M26.32 52.646a26.465 26.465 0 0 1-18.9-8.007c1.143-1.062 2.281-2.227 3.293-3.372a19.265 19.265 0 0 0 4.414-7.911c.628-2.6.243-4.686-1.086-5.86a3.678 3.678 0 0 0-2.519-.951c-2.492 0-5.794 2.178-9.3 6.131-.365.416-.718.844-1.078 1.308-.158-.528-.279-.966-.384-1.384-.095-.39-.182-.78-.26-1.153l-.016-.075c0-.023-.008-.047-.012-.069l-.016-.093c-.128-.659-.232-1.346-.308-2.04A26.31 26.31 0 0 1 39.681 3.653a26.225 26.225 0 0 1 9.76 10.1 26.7 26.7 0 0 1 1.417 3.067A26.164 26.164 0 0 1 52.1 31.634c-3.11-3.242-5.99-4.956-8.333-4.956a4.112 4.112 0 0 0-2.8 1.066c-1.421 1.26-1.893 3.416-1.33 6.075a18.242 18.242 0 0 0 4.314 8c.617.7 1.279 1.4 1.966 2.083a26.023 26.023 0 0 1-10.1 6.955 26.358 26.358 0 0 1-9.497 1.789z" class="cls-16" transform="translate(57.404 119.908)"/>
        <path id="합치기_93" d="M4.545 15.144C-.043 9.969-1.379 3.666 1.558 1.065 4.289-1.354 8.439.517 12.695 4.953a26.445 26.445 0 0 0 .518-4.14c.863 1.024 1.829 2.293 2.956 3.866 4.028 5.644 5.1 12.392 4.068 15.88a3.617 3.617 0 0 1-1.012 2.709 2.764 2.764 0 0 1-1.9.663c-3.473.003-9.001-4.52-12.78-8.787z" class="cls-16" transform="translate(96.809 146.588)"/>
    </g>
</svg>
