<svg xmlns="http://www.w3.org/2000/svg" width="175" height="239" viewBox="0 0 175 239">
    <defs>
        <filter id="합치기_115" width="147.807" height="201.857" x="15.559" y="23.369" filterUnits="userSpaceOnUse">
            <feOffset dy="3"/>
            <feGaussianBlur result="blur" stdDeviation="3"/>
            <feFlood flood-opacity=".161"/>
            <feComposite in2="blur" operator="in"/>
            <feComposite in="SourceGraphic"/>
        </filter>
        <style>
            .cls-3{fill:#f0ebb7}.cls-16,.cls-3{stroke:#0f0f0f}.cls-4{fill:#eddd98}.cls-5{fill:#e2e2e2}.cls-16{stroke-miterlimit:10}.cls-10{fill:#474747}.cls-11{fill:#ffe150}.cls-12{fill:#ffc033}.cls-16{fill:#f2f2f2}
        </style>
    </defs>
    <g id="img_minti_5" transform="translate(-1138 -2609.417)">
        <path id="사각형_8461" fill="none" d="M0 0H175V239H0z" transform="translate(1138 2609.417)"/>
        <g filter="url(#합치기_115)" transform="translate(1138 2609.42)">
            <path id="합치기_115-2" fill="#f0ebb7" stroke="#fff" stroke-width="10px" d="M59.725 172.586c-2.494-2.053.727-6 .584-7.319-.114-1.028-.757-3.464-1.212-8.758a33.835 33.835 0 0 1-10.554 0c-.45 5.293-1.094 7.729-1.207 8.758-.149 1.318 3.073 5.266.579 7.319s-10.094 1.608-11.267 0-.149-5.42 0-7.027-3.365-9.366-4.686-14.2c-1.112-4.082-1.6-8.688-1.583-17.463a20.977 20.977 0 0 1-2.719 1.7 5.147 5.147 0 0 1-1.3.566l-.032.01a5.514 5.514 0 0 1-1.771.346 2.436 2.436 0 0 1-1.668-.579c-.02-.019-.045-.039-.064-.058s-.01-.006-.015-.01a3.276 3.276 0 0 1-1.732-2.3 7.928 7.928 0 0 1-.212-.933c0-.019-.006-.039-.009-.056l-.013-.082-.024-.167a18.286 18.286 0 0 1 .9-7.669.018.018 0 0 0 0-.006l.075-.231.019-.056.075-.222.033-.1.045-.126.044-.126.01-.027.114-.309.018-.049c.27-.713.579-1.431.93-2.146l.01-.019q.081-.166.166-.332a.176.176 0 0 0 .01-.019c.024-.049.048-.1.073-.142s.035-.066.053-.1l.076-.144.1-.185c.015-.025.029-.052.044-.08l.116-.208a.13.13 0 0 0 .014-.023c.048-.086.1-.171.147-.257l.01-.017c.365-.626.762-1.244 1.193-1.849l.185-.257c.464-.649.9-1.238 1.327-1.8.028-.039.057-.076.085-.113a25.882 25.882 0 0 1 .819-9.829 5.2 5.2 0 0 1 .3-1.514c-13.34-5.3-23.207-14.315-26.653-24.9l11.208.288A48.539 48.539 0 0 1 14.5 66.685a37.934 37.934 0 0 1-9.231-9.321C-3.507 45.042 1.084 27 2.158 16.3 3.88-.864.362-1.667 6.453 1.381 10.3 3.305 23.2 7.468 36.9 19.65a41.551 41.551 0 0 1 11.789 16.559 38.778 38.778 0 0 1 11.32.109c2.444-7.249 7.841-14.086 16.242-19.587C91.585 6.686 104.945 4.449 109.042 3.107c6.467-2.121 2.865-1.845 2.068 15.385-.5 10.752 1.4 29.262-9.085 40.168q-.845.878-1.7 1.676a26.326 26.326 0 0 1 13.975.264 43.852 43.852 0 0 0-12.405 21.463l4.587.121a32.083 32.083 0 0 1-6.109 9.833c-1.051 11.662.22 21.739-1.591 32.112-2.2 12.593-9.7 23.162-17.125 27.087a33.226 33.226 0 0 1-6.76 2.669c-1.57 4.648-4.023 10.324-3.9 11.674.143 1.608 1.163 5.42 0 7.027-.619.855-3.043 1.38-5.562 1.38-2.235 0-4.543-.416-5.71-1.38z" transform="translate(30.34 34.26)"/>
        </g>
        <path id="패스_8613" d="M180.219 23.067s-24.154-8.929-42.306 25.4-34.313 38.279-31.426 52.917 14.005 16.687 20.593 16.541 13.357-.477 20.5-4.244c7.42-3.922 14.926-14.493 17.12-27.081s-.146-24.739 2.633-39.816a43.928 43.928 0 0 1 12.883-23.715" class="cls-3" transform="translate(1102.418 2681.211)"/>
        <path id="패스_8614" d="M128.062 43.664c6.277-12.554 3.125-27.664-10.575-39.84S90.89-12.518 87.039-14.444c-6.089-3.045-2.57-2.246-4.293 14.915-1.076 10.71-5.665 28.747 3.114 41.069 7.96 11.168 17.7 14.644 25.775 14.3 6.271-.264 13.382-6.088 16.427-12.178" class="cls-3" transform="translate(1087.753 2659.502)"/>
        <path id="패스_8615" d="M113.338 10.964c5.7 7.085 6.952 12.954 6.148 14.566s-3.44 4.977-6.369 4.683-7.931-13.45-12.3-20.3c-7.2-11.3-9.637-13.475-13.028-18.855-.458-.725-1.374-2.367-1.171-2.855.183-.439 4.356 1.813 8.089 4.83S108.2 4.578 113.338 10.964" class="cls-4" transform="translate(1091.198 2661.779)"/>
        <path id="패스_8616" d="M119.231 37.974c-4.375-13.337.95-27.822 16.284-37.867s28.7-12.281 32.792-13.625c6.468-2.12 2.869-1.844 2.068 15.384-.5 10.754 1.4 29.267-9.083 40.172-9.506 9.886-19.653 11.9-27.589 10.384-6.166-1.179-12.348-7.982-14.471-14.449" class="cls-3" transform="translate(1109.074 2660.301)"/>
        <path id="패스_8617" d="M132.639 8.939c-6.439 6.422-8.32 12.122-7.694 13.81s2.878 5.322 5.821 5.349 9.346-12.509 14.434-18.846C153.578-1.2 156.239-3.1 160.2-8.077c.535-.672 1.622-2.2 1.475-2.71-.135-.456-4.527 1.327-8.565 3.923s-14.66 10.012-20.465 15.8" class="cls-4" transform="translate(1113.134 2662.35)"/>
        <path id="패스_8618" d="M107.809 68.248c-3.355 7.835-6.276 13.9-11.963 11.669-3.21-1.259-2.947-10.646 2.29-17.979 4.792-6.708 7.4-8.8 10.654-7.4s2.375 5.878-.98 13.713" class="cls-5" transform="translate(1095.304 2699.628)"/>
        <path id="패스_8619" d="M127.277 68.248c3.355 7.835 6.274 13.9 11.963 11.669 3.21-1.259 2.947-10.646-2.29-17.979-4.792-6.708-7.4-8.8-10.654-7.4s-2.376 5.878.98 13.713" class="cls-5" transform="translate(1112.806 2699.628)"/>
        <path id="합치기_107" fill="#fefefe" stroke="#0f0f0f" stroke-miterlimit="10" d="M29.346 69.536c-2.491-2.053.729-6 .586-7.319-.115-1.028-.756-3.464-1.211-8.756a32.1 32.1 0 0 1-5.277.412 32.123 32.123 0 0 1-5.279-.412c-.452 5.291-1.093 7.727-1.209 8.756-.148 1.314 3.071 5.266.581 7.319s-10.1 1.61-11.267 0-.148-5.42 0-7.027S2.9 53.14 1.585 48.306-.172 37.915.059 25.581C.059 10.824 10.529 0 23.444 0s23.381 10.824 23.381 25.581c.231 12.334-.207 17.9-1.526 22.725s-4.829 12.593-4.681 14.2 1.162 5.42 0 7.027c-.618.853-3.045 1.378-5.56 1.378-2.239.003-4.542-.411-5.712-1.375z" transform="translate(1198.717 2746.73)"/>
        <path id="패스_8623" fill="#02d1ba" d="M98.066 55.768c0 8.709 12.119 12.462 26.653 12.462S150.7 64.914 150.7 55.768c0-6.287-11.782-11.384-26.315-11.384s-26.315 5.1-26.315 11.384" transform="translate(1097.779 2694.04)"/>
        <path id="패스_8624" fill="#fefefe" stroke="#0f0f0f" d="M175.431 53c.637-24.835-17.4-45.445-40.293-46.034s-41.966 19.069-42.6 43.9l-11.208-.285c5.379 16.549 26.439 29.261 51.919 29.919s47.169-10.962 53.391-27.205z" transform="translate(1088.177 2672.569)"/>
        <path id="패스_8625" fill="#fffacc" d="M108.335 39.57c-.666 2.806 2.088 5.16 8.986 5.16 5.673 0 8.938-2.508 8.307-5.324-.675-3.02-4.326-5.83-8.938-5.83-4.181 0-7.585 2.754-8.354 5.994" transform="translate(1103.615 2687.84)"/>
        <path id="패스_8626" d="M120.75 35.228c0 2.5 1.024 4.532 2.965 4.532 1.637 0 2.965-2.028 2.965-4.532s-.843-4.532-2.965-4.532c-2.45 0-2.965 2.028-2.965 4.532" class="cls-10" transform="translate(1110.792 2686.188)"/>
        <path id="패스_8627" d="M103.35 34.6c-.279 2.488-.087 4.387 2.442 4.833 1.613.285 3.171-1.687 3.449-4.175s-.426-4.559-2.442-4.833c-2.054-.28-3.171 1.687-3.449 4.175" class="cls-10" transform="translate(1100.755 2686.016)"/>
        <path id="패스_8628" d="M114.417 50.456h.06c.87-.024 1.547-.526 1.514-1.124 0-.052-.23-5.272-.09-8.787.024-.6-.437-1.147-1.3-1.246s-1.75.294-1.81.894a61.77 61.77 0 0 0 .05 9.222c.03.584.73 1.042 1.571 1.042" class="cls-10" transform="translate(1106.136 2691.115)"/>
        <path id="패스_8629" d="M118.926 50.538a16.619 16.619 0 0 0 9.233-4.057 12.751 12.751 0 0 0 2.189 2.477 1.574 1.574 0 0 0 2.013-2.42 8.807 8.807 0 0 1-2.3-3.174 1.575 1.575 0 0 0-2.659-.489c-.046.05-4.883 5.431-10.968 4.419-5.944-.99-7.251-3.818-7.3-3.937a1.585 1.585 0 0 0-2.05-.836 1.561 1.561 0 0 0-.872 2.008c.183.464 1.992 4.582 9.708 5.87a12.719 12.719 0 0 0 3.017.14" class="cls-10" transform="translate(1102.386 2692.866)"/>
        <path id="패스_8630" d="M110.937 39.9c0 1.659 1.967 3.641 4.39 3.641s4.392-1.983 4.392-3.641-1.967-3-4.392-3-4.39 1.342-4.39 3" class="cls-10" transform="translate(1105.163 2689.745)"/>
        <path id="패스_8631" d="M98.208 71.6a25.985 25.985 0 0 1 48.083-18.575z" class="cls-11" transform="translate(1097.428 2691.188)"/>
        <path id="패스_8632" d="M146 48.043a26.437 26.437 0 0 1 1.4 3.029 25.983 25.983 0 0 1-48.46 18.761 26.321 26.321 0 0 1-1.006-3.183z" class="cls-12" transform="translate(1097.703 2696.139)"/>
        <path id="패스_8633" fill="#f7a139" d="M102.271 70.875a20.6 20.6 0 1 1 26.645 11.772 20.6 20.6 0 0 1-26.645-11.772" transform="translate(1099.392 2693.152)"/>
        <path id="패스_8634" fill="#ea8f2d" d="M107.292 52.112l8.332-3.226c5.237-2.027 10.265-1.844 12.539 4.032 2.189 5.651-1.221 9.835-6.235 11.776l-2.777 1.076 3.053 7.886-5.715 2.213zM119.9 60.3c2.777-1.075 3.612-2.9 2.71-5.232-.928-2.4-2.781-2.631-5.527-1.569l-2.331.9 2.656 6.864z" transform="translate(1103.072 2695.952)"/>
        <path id="패스_8635" d="M106.49 51.748l8.334-3.228c5.237-2.027 10.265-1.843 12.537 4.032 2.189 5.651-1.221 9.835-6.235 11.776l-2.777 1.072 3.051 7.89-5.714 2.21zm12.61 8.189c2.777-1.076 3.612-2.9 2.71-5.234-.927-2.4-2.781-2.631-5.527-1.569l-2.331.9 2.656 6.863z" class="cls-12" transform="translate(1102.612 2695.743)"/>
        <path id="패스_8636" d="M113.949 54.038l2.331-.9c2.746-1.062 4.6-.826 5.527 1.569a5.111 5.111 0 0 1 .282 1.081l5.624-2.176a10.358 10.358 0 0 0-.351-1.056c-2.272-5.874-7.3-6.059-12.539-4.032l-8.332 3.228 3.393 8.762L115.6 58.3z" class="cls-11" transform="translate(1102.612 2695.743)"/>
        <path id="합치기_110" fill="none" stroke="#0f0f0f" d="M1.761 35.371a26.673 26.673 0 0 1-1.008-3.183 25.987 25.987 0 0 1 48.085-18.576A25.983 25.983 0 1 1 1.761 35.371z" transform="translate(1194.882 2730.603)"/>
        <path id="합치기_109" d="M4.484 14.956C-.044 9.841-1.36 3.62 1.538 1.052c2.695-2.389 6.8-.542 11 3.841A26.051 26.051 0 0 0 13.043.8c.85 1.005 1.8 2.259 2.917 3.82 3.978 5.58 5.04 12.241 4.022 15.687v.012a3.576 3.576 0 0 1-1 2.665 2.734 2.734 0 0 1-1.874.651c-3.428 0-8.89-4.465-12.624-8.679z" class="cls-16" transform="translate(1233.793 2756.942)"/>
        <path id="합치기_108" d="M2.176 22.8l-.067-.062-.016-.008a3.272 3.272 0 0 1-1.728-2.3C-.657 16.994.4 10.324 4.386 4.751c.565-.8 1.085-1.5 1.591-2.162a25.83 25.83 0 0 0 .6 3.388q.171.688.379 1.363c.35-.451.705-.883 1.064-1.289C12.547.941 16.982-1.466 19.692.935s1.238 8.5-3.29 13.6c-2.754 3.106-6.417 6.38-9.475 7.927a5.275 5.275 0 0 1-1.316.57 5.492 5.492 0 0 1-1.772.344 2.423 2.423 0 0 1-1.663-.576z" class="cls-16" transform="translate(1189.057 2756.812)"/>
    </g>
</svg>
