<svg xmlns="http://www.w3.org/2000/svg" width="176.878" height="239" viewBox="0 0 176.878 239">
    <defs>
        <filter id="사각형_8373" width="35.696" height="33.283" x="52.284" y="96.658" filterUnits="userSpaceOnUse">
            <feOffset dy="3"/>
            <feGaussianBlur result="blur" stdDeviation="3"/>
            <feFlood flood-opacity=".161"/>
            <feComposite in2="blur" operator="in"/>
            <feComposite in="SourceGraphic"/>
        </filter>
        <filter id="사각형_8374" width="34.087" height="32.177" x="90.206" y="95.295" filterUnits="userSpaceOnUse">
            <feOffset dy="3"/>
            <feGaussianBlur result="blur-2" stdDeviation="3"/>
            <feFlood flood-opacity=".161"/>
            <feComposite in2="blur-2" operator="in"/>
            <feComposite in="SourceGraphic"/>
        </filter>
        <filter id="합치기_104" width="176.878" height="167.888" x="0" y="57.053" filterUnits="userSpaceOnUse">
            <feOffset dy="3"/>
            <feGaussianBlur result="blur-3" stdDeviation="3"/>
            <feFlood flood-opacity=".161"/>
            <feComposite in2="blur-3" operator="in"/>
            <feComposite in="SourceGraphic"/>
        </filter>
        <clipPath id="clip-path">
            <path id="사각형_8373-2" d="M0 0H7.696V5.283H0z" class="cls-1"/>
        </clipPath>
        <clipPath id="clip-path-2">
            <path id="사각형_8374-2" d="M0 0H6.087V4.177H0z" class="cls-1"/>
        </clipPath>
        <style>
            .cls-1{fill:none}.cls-3,.cls-5{fill:#f2f2f2}.cls-3{stroke-miterlimit:10;stroke:#0f0f0f}.cls-4{stroke:#0f0f0f;fill:#f0ebb7}.cls-13{fill:#fefefe}.cls-8{fill:#eddd98}.cls-11{fill:#474747}.cls-14{opacity:.3}.cls-16{fill:#0ac3bc}
        </style>
    </defs>
    <g id="img_minti_3" transform="translate(.737)">
        <path id="사각형_8442" d="M0 0H176V239H0z" class="cls-1" transform="translate(-.344)"/>
        <g id="그룹_4527">
            <g filter="url(#합치기_104)" transform="translate(-.74)">
                <path id="합치기_104-2" fill="#f2f2f2" stroke="#fff" stroke-miterlimit="10" stroke-width="10px" d="M80.994 138.488c-2.525-2.074.736-6.076.591-7.414-.1-.92-.627-2.969-1.065-7.164a13.923 13.923 0 0 1-7.13.953 24.942 24.942 0 0 1-3.9-.777c-.433 4.076-.948 6.08-1.048 6.988-.145 1.338 3.116 5.34.6 7.414s-10.229 1.633-11.411 0-.15-5.484-.005-7.111c.107-1.168-1.678-5.506-3.193-9.674-1.49 1.969-3.172 4.844-6.25 7.277-5.771 4.564-14.722 7.389-25.332 0-6.437-4.48-11.632-10.18-6.998-11.46 2.294-.637 4.9.176 7.519.986 3.336 1.037 6.677 2.068 9.387.1 4.824-3.52 2.87-11.861 5.821-19.2a33.467 33.467 0 0 1 4.72-8.398V91a6.73 6.73 0 0 1 .221-.746l.005-.014a.044.044 0 0 1 0-.01l.026-.16.016-.094v-.029a27.708 27.708 0 0 1 4.627-11.01c.641-.906 1.222-1.7 1.778-2.434a9.067 9.067 0 0 1-1.623-5.326 5.174 5.174 0 0 1 .193-1.391C36.917 65.127 28.628 57.68 24.975 50.535l8.06-3.9q-.035-1.374 0-2.732a37.041 37.041 0 0 1-12.513-7.07c-3.777-3.223-5.109-6.051-11.341-11.1C2.363 20.2.284 20.6.029 18.787-1.319 9.242 45.323 2.391 62.354 1.494a7.021 7.021 0 0 1 1.538.07 39.1 39.1 0 0 1 21.8-.031c17.622.918 64.477 3.143 63.148 12.551-.255 1.813-3.882 6.113-10.7 11.646-6.227 5.049-7.564 7.877-11.341 11.1a38.35 38.35 0 0 1-9.862 6.1q.043.771.064 1.541l7.95 4.895c-2.448 4.826-11.248 13.41-23.973 19.188a5.485 5.485 0 0 1 .694 2.623 8.4 8.4 0 0 1-1.651 5.07l.283.15a25.269 25.269 0 0 1 5.445 3.934 26.7 26.7 0 0 1 2.7-2.115c6.217-4.334 10.064-11.07 14.823-8.9 2.966 1.357.4 10.734-6.227 17.768a14.736 14.736 0 0 1-10.019 4.775 6.432 6.432 0 0 1-3.662-1.014 1.12 1.12 0 0 1-.12-.084 35.2 35.2 0 0 1-5.326-3.633 29.773 29.773 0 0 1 .783 6.844v.006c.235 12.492-.21 18.123-1.548 23.018s-4.889 12.748-4.739 14.383 1.177 5.479-.005 7.111c-.626.861-3.081 1.4-5.63 1.4-2.268-.003-4.603-.425-5.785-1.402z" transform="translate(14 68.05)"/>
            </g>
            <path id="합치기_102" d="M15.5 21.951l-.122-.086A48.9 48.9 0 0 1 7.665 16.3C1.419 11.174-1.326 7.846.613 5.484S5.577 3.838 12.445 7.5a25.331 25.331 0 0 1 5.442 3.932 28.218 28.218 0 0 1 2.7-2.117C26.8 4.986 30.652-1.752 35.411.42c2.964 1.355.4 10.734-6.227 17.766a14.746 14.746 0 0 1-10.022 4.775 6.453 6.453 0 0 1-3.662-1.01z" class="cls-3" transform="translate(101.119 136.949)"/>
            <path id="패스_8281" d="M211.408 145.262c3.38-9.292-4.48-24.646-11.153-29.108s-28.279-13.4-38.1 11.073c-2.948 7.347-1 15.686-5.822 19.2s-11.676-2.526-16.9-1.084c-4.638 1.278.558 6.979 6.993 11.459 10.608 7.39 19.562 4.563 25.331 0s6.632-10.677 10.527-9.459c4.019 1.254 7.765 4.528 14.683 5.344 9.832 1.157 14.439-7.43 14.439-7.43" class="cls-4" transform="translate(-110.318 40.227)"/>
            <path id="패스_8282" d="M170.01 117.71c-3.646 8.187-6.783 14.524-12.21 12.324-3.063-1.24-2.352-10.973 3.1-18.674 4.992-7.049 7.632-9.261 10.731-7.883s2.024 6.045-1.622 14.232" class="cls-5" transform="translate(-99.431 35.634)"/>
            <path id="합치기_98" fill="#fefefe" stroke="#0f0f0f" stroke-miterlimit="10" d="M29.721 70.426c-2.522-2.072.738-6.076.593-7.414-.117-1.035-.769-3.5-1.229-8.867a32.29 32.29 0 0 1-5.342.418 32.561 32.561 0 0 1-5.347-.418c-.459 5.363-1.112 7.83-1.229 8.867-.145 1.338 3.116 5.342.593 7.414s-10.229 1.637-11.411 0-.15-5.482-.005-7.115-3.408-9.485-4.739-14.381S-.175 38.406.06 25.912C.06 10.969 10.663 0 23.744 0s23.679 10.969 23.679 25.908c.234 12.494-.209 18.129-1.545 23.018s-4.89 12.752-4.741 14.381 1.177 5.486-.005 7.115c-.626.865-3.083 1.4-5.63 1.4-2.262.002-4.596-.422-5.781-1.396z" transform="translate(64.534 136.115)"/>
            <path id="패스_8286" fill="#02d1ba" stroke="#0f0f0f" d="M212.472 107.7c0 8.82-12.273 12.621-26.993 12.621s-26.308-3.356-26.308-12.621c0-6.367 11.931-11.528 26.649-11.528s26.652 5.161 26.652 11.528" transform="translate(-97.546 31.529)"/>
            <path id="패스_8287" d="M191.178 59.691c-17.028.894-63.67 7.75-62.325 17.292.255 1.812 2.338 1.412 9.159 6.942 6.23 5.051 7.564 7.876 11.341 11.1 6.064 5.176 14.38 8.834 20.242 7.916 6.7-1.049 37.766-44.1 21.583-43.248" class="cls-4" transform="translate(-115.564 9.858)"/>
            <path id="패스_8288" d="M133.735 71.221a.523.523 0 0 1-.116-.426c.757-2.391 33.54 0 37.426 13.01 1.226 4.1-.376 9.39-3.218 10.67-3.106 1.4-7.558-2.046-13.73-6.828-6.9-5.342-5.213-5.937-9.512-8.331-2.206-1.227-8.238-4.18-10.85-8.1" class="cls-8" transform="translate(-112.726 15.972)"/>
            <path id="패스_8289" d="M183.859 59.691c17.028.894 65.216 3.049 63.871 12.589-.255 1.812-3.884 6.115-10.705 11.646-6.23 5.051-7.564 7.876-11.341 11.1-6.066 5.176-14.38 8.834-20.242 7.916-6.7-1.049-37.766-44.1-21.583-43.248" class="cls-4" transform="translate(-85.626 9.858)"/>
            <path id="패스_8290" d="M230.456 71.221a.523.523 0 0 0 .116-.426c-.757-2.391-33.54 0-37.426 13.01-1.226 4.1.376 9.39 3.218 10.67 3.106 1.4 7.556-2.046 13.73-6.828 6.9-5.342 5.212-5.937 9.512-8.331 2.206-1.227 8.238-4.18 10.85-8.1" class="cls-8" transform="translate(-77.62 15.972)"/>
            <path id="패스_8291" fill="#fefefe" stroke="#0f0f0f" d="M152.558 105.38c-.645-25.153 17.625-46.026 40.808-46.62s42.5 19.311 43.149 44.464l7.951 4.894c-3.849 7.58-23.382 24.445-49.186 25.108s-44.706-12.063-50.785-23.944z" transform="translate(-106.26 9.306)"/>
            <path id="패스_8292" fill="#fffacc" d="M187.935 89.437c.676 2.843-2.113 5.226-9.1 5.226-5.744 0-9.051-2.54-8.413-5.392.684-3.058 4.383-5.9 9.054-5.9 4.235 0 7.682 2.789 8.46 6.069" transform="translate(-90.912 23.924)"/>
            <path id="패스_8293" d="M177.142 101.15h-.061a1.44 1.44 0 0 1-1.533-1.342 53.645 53.645 0 0 0-.572-10.5 1.352 1.352 0 0 1 1.312-1.489 1.583 1.583 0 0 1 1.831 1.068 54.632 54.632 0 0 1 .614 11.021 1.481 1.481 0 0 1-1.591 1.246" class="cls-11" transform="translate(-88.174 26.555)"/>
            <path id="패스_8294" d="M182.059 89.727c0 1.678-1.992 3.686-4.448 3.686s-4.448-2.008-4.448-3.686 1.992-3.039 4.448-3.039 4.448 1.359 4.448 3.039" class="cls-11" transform="translate(-89.238 25.896)"/>
            <path id="패스_8295" fill="none" stroke="#474747" stroke-linecap="round" stroke-linejoin="round" stroke-width="1.75px" d="M169.766 98.314c1.03-1.477-.013-2.5 2.257-2.43s4.623 1.393 8.931 1.025 5.985-2.466 7.849-1.86a3.319 3.319 0 0 1 2.126 2.59" transform="translate(-91.255 30.795)"/>
            <path id="패스_8296" d="M182.121 81.052c-1.383 1.018-.567 6.789 1.7 7.363s8.514-2.147 7.948-3.723-7.191-5.449-9.65-3.64" class="cls-11" transform="translate(-84.322 22.27)"/>
            <path id="패스_8297" d="M183.594 82.494c0 .341-.075.763-.416.763a.616.616 0 0 1-.615-.617c0-.341.1-.842.44-.9.591-.1.591.411.591.751" class="cls-13" transform="translate(-83.657 22.952)"/>
            <path id="패스_8298" d="M186.1 84.323a1.167 1.167 0 0 1-1.214.926 1.945 1.945 0 0 1-1.532-.945c-.319-.618.484-1.2 1.149-1.194 1.328.019 1.6.872 1.6 1.213" class="cls-13" transform="translate(-83.229 23.771)"/>
            <path id="패스_8299" d="M172.654 81.5c1.465.883 1.179 6.676-1.02 7.452S163 87.6 163.421 85.986s6.63-6.051 9.233-4.483" class="cls-11" transform="translate(-95.034 22.621)"/>
            <path id="패스_8300" d="M168.005 83.122c.03.338.142.749.48.717a.612.612 0 0 0 .555-.668c-.03-.336-.178-.822-.518-.848-.594-.043-.548.461-.516.8" class="cls-13" transform="translate(-92.31 23.303)"/>
            <path id="패스_8301" d="M166.326 85.143a1.162 1.162 0 0 0 1.286.808 1.944 1.944 0 0 0 1.433-1.076c.26-.642-.588-1.151-1.248-1.081-1.313.14-1.5 1.01-1.471 1.348" class="cls-13" transform="translate(-93.299 24.174)"/>
            <g id="그룹_4369" class="cls-14" transform="translate(65.548 107.656)">
                <g id="그룹_4368">
                    <g id="그룹_4367" clip-path="url(#clip-path)">
                        <path id="패스_8302" d="M169.061 88.125c-.59 1.16-3.221.645-3.438.6-1.74-.341-4.1-1.642-3.988-3.215a2.155 2.155 0 0 1 1.642-1.858c1.989-.292 2.134.545 3.191.985a8.4 8.4 0 0 1 2.464 1.235 2.06 2.06 0 0 1 .129 2.249" class="cls-16" transform="translate(-161.632 -83.596)"/>
                    </g>
                </g>
            </g>
            <g id="그룹_4372" class="cls-14" transform="translate(103.469 106.293)">
                <g id="그룹_4371">
                    <g id="그룹_4370" clip-path="url(#clip-path-2)">
                        <path id="패스_8303" d="M185.639 86.322c.467.916 2.547.51 2.719.478 1.374-.271 3.24-1.3 3.152-2.542a1.71 1.71 0 0 0-1.3-1.469c-1.571-.231-1.686.432-2.523.779a6.555 6.555 0 0 0-1.949.977 1.634 1.634 0 0 0-.1 1.777" class="cls-16" transform="translate(-185.425 -82.741)"/>
                    </g>
                </g>
            </g>
            <path id="패스_8304" d="M168.055 116.705c6.173 4.641 11.5 5 11.022 11.029-.354 4.453-8.412 5.339-15.976.977-6.552-3.774-8.02-7.132-7-11.459 1.069-4.528 5.632-5.294 11.95-.547" class="cls-5" transform="translate(-99.542 41.805)"/>
            <path id="빼기_66" fill="#f2f2f2" stroke="rgba(0,0,0,0)" stroke-miterlimit="10" d="M3.9 21.551a5.58 5.58 0 0 1-2.095-.441 2.86 2.86 0 0 1-1.48-2C-.714 15.563.716 8.354 4.907 2.434 5.549 1.525 6.131.73 6.685 0A12.509 12.509 0 0 0 11.4 3.859a28.28 28.28 0 0 0-3.366 13.6c-.013.7-.024 1.379-.033 2.039A5.631 5.631 0 0 1 3.9 21.551z" transform="translate(56.563 144.562)"/>
            <path id="합치기_101" d="M7.291 25.957C.739 22.182-.728 18.824.3 14.5a6.874 6.874 0 0 1 .229-.771A27.684 27.684 0 0 1 5.2 2.434C5.843 1.527 6.425.732 6.977 0a12.474 12.474 0 0 0 4.711 3.859 27.217 27.217 0 0 0-2.835 7.977 21.019 21.019 0 0 1 3.392 2.117c6.173 4.641 11.5 5 11.024 11.029-.195 2.459-2.741 3.83-6.254 3.83a20.06 20.06 0 0 1-9.724-2.855z" class="cls-3" transform="translate(56.269 144.56)"/>
        </g>
    </g>
</svg>
