<svg xmlns="http://www.w3.org/2000/svg" width="83.31" height="13.904" viewBox="0 0 83.31 13.904">
    <defs>
        <style>
            .cls-2{fill:#7a7a7a;fill-rule:evenodd}
        </style>
    </defs>
    <g id="logo" transform="translate(-42 -1535.046)">
        <path id="패스_9777" fill="#7a7a7a" d="M11.662-10.4H7.35v-1.3H5.5v1.3H1.162v1.44h10.486zm-2.73 4.142c0 .574-.826.84-2.506.84s-2.492-.266-2.492-.84.812-.826 2.492-.826 2.506.252 2.506.826zm-6.916 0c0 1.428 1.652 2.212 4.41 2.212s4.424-.784 4.424-2.212-1.666-2.2-4.424-2.2-4.41.786-4.41 2.2zm10.262 2.814H.6v1.484h2.69v3.192h1.862V-1.96h2.59v3.192H9.6V-1.96h2.674zm3.038-5.264h2.954v-1.5H13.5v8.512h.9a23.656 23.656 0 0 0 4.592-.35l-.14-1.5a21.75 21.75 0 0 1-3.528.322zm7.126-3v4.97H21.28v-4.718h-1.722V.6h1.722v-5.85h1.162V1.2h1.75v-12.9zm6.482 9.048h-1.848V.98h8.932V-.49h-7.084zm1.232-7.084H32.8v2.17h-2.644zM32.4-4.956v-1.162h3.78v-1.456h-1.54v-2.17h1.638v-1.47h-9.59v1.47h1.638v2.17h-1.558v1.456h3.78v1.162h-4.886v1.47H37.31v-1.47z" transform="translate(88 1547)"/>
        <g id="pass" transform="translate(-597.219 984.816)">
            <path id="패스_9773" d="M733.235 550.967a.583.583 0 0 0-.649-.453h-2.875a.621.621 0 0 0-.648.453l-3.414 12.955q-.13.452.259.453h2.075a.431.431 0 0 0 .313-.1.66.66 0 0 0 .14-.356l.508-2.046 3.893-2.176.418 1.851.605 2.371a.726.726 0 0 0 .13.356.424.424 0 0 0 .324.1h2.075q.389 0 .259-.453zm-3.371 7.21l1.27-5.106.994 3.841z" class="cls-2" transform="translate(-77.327 -.254)"/>
            <path id="패스_9774" d="M849.185 556.83a11 11 0 0 0-3.263-.733q-1.773-.151-1.772-1.164v-.409a1.961 1.961 0 0 1 .314-1.3 1.635 1.635 0 0 1 1.2-.334h.843a1.768 1.768 0 0 1 1.189.3 1.547 1.547 0 0 1 .324 1.142v.129a.4.4 0 0 0 .454.453h1.837a.4.4 0 0 0 .454-.453v-.41a3.475 3.475 0 0 0-.951-2.608 3.649 3.649 0 0 0-2.658-.927h-2.161a3.616 3.616 0 0 0-2.636.927 3.474 3.474 0 0 0-.951 2.608v.755a4.224 4.224 0 0 0 .507 2.188 2.557 2.557 0 0 0 1.264 1.142 10.516 10.516 0 0 0 1.632.475 13.671 13.671 0 0 0 1.631.248 2.681 2.681 0 0 1 1.264.4 1.081 1.081 0 0 1 .508.959v.259A1.254 1.254 0 0 1 846.7 562h-1.016a1.764 1.764 0 0 1-1.189-.3 1.508 1.508 0 0 1-.324-1.121v-.172a.4.4 0 0 0-.454-.453h-1.837a.4.4 0 0 0-.454.453v.431a3.474 3.474 0 0 0 .951 2.608 3.617 3.617 0 0 0 2.637.927h2.356a3.617 3.617 0 0 0 2.637-.927 3.476 3.476 0 0 0 .951-2.608v-.733a4.012 4.012 0 0 0-.508-2.123 2.765 2.765 0 0 0-1.265-1.152z" class="cls-2" transform="translate(-180.959 -.254)"/>
            <path id="패스_9775" d="M957.278 557.983a2.767 2.767 0 0 0-1.264-1.153 11 11 0 0 0-3.264-.733q-1.772-.151-1.772-1.164v-.409a1.962 1.962 0 0 1 .313-1.3 1.636 1.636 0 0 1 1.2-.334h.843a1.769 1.769 0 0 1 1.189.3 1.549 1.549 0 0 1 .324 1.142v.129a.4.4 0 0 0 .454.453h1.837a.4.4 0 0 0 .454-.453v-.41a3.475 3.475 0 0 0-.951-2.608 3.648 3.648 0 0 0-2.658-.927h-2.161a3.616 3.616 0 0 0-2.637.927 3.474 3.474 0 0 0-.951 2.608v.755a4.22 4.22 0 0 0 .508 2.188 2.558 2.558 0 0 0 1.258 1.14 10.523 10.523 0 0 0 1.632.475 13.665 13.665 0 0 0 1.632.248 2.682 2.682 0 0 1 1.264.4 1.081 1.081 0 0 1 .508.959v.259a1.253 1.253 0 0 1-1.513 1.53h-1.016a1.763 1.763 0 0 1-1.188-.3 1.508 1.508 0 0 1-.324-1.121v-.172a.4.4 0 0 0-.454-.453h-1.837a.4.4 0 0 0-.454.453v.431a3.474 3.474 0 0 0 .951 2.608 3.616 3.616 0 0 0 2.637.927h2.362a3.617 3.617 0 0 0 2.636-.927 3.475 3.475 0 0 0 .951-2.608v-.733a4.016 4.016 0 0 0-.509-2.127z" class="cls-2" transform="translate(-276.571 -.254)"/>
            <path id="패스_9776" d="M645.881 550.23h-6.338a.324.324 0 0 0-.324.323v13.257a.324.324 0 0 0 .324.323h2.157a.324.324 0 0 0 .324-.323v-4.771c1.15-.63 4.188-2.3 4.418-2.441a3.635 3.635 0 0 0 2.371-3.463c.003-2.601-2.932-2.905-2.932-2.905zm-.8 4.228L642.028 556v-2.956a.261.261 0 0 1 .237-.176h2.645a.746.746 0 0 1 .757.774.945.945 0 0 1-.581.816z" class="cls-2"/>
        </g>
    </g>
</svg>
